<svg width="200" height="31" viewBox="0 0 200 31" fill="none" xmlns="http://www.w3.org/2000/svg">
<path fill-rule="evenodd" clip-rule="evenodd" d="M168.486 22.85C167.943 22.85 167.519 22.4297 167.519 21.8568C167.519 21.2946 167.943 20.8697 168.486 20.8697C169.026 20.8697 169.448 21.2946 169.448 21.8568C169.448 22.4297 169.026 22.85 168.486 22.85ZM168.486 20.6719C167.833 20.6719 167.278 21.1749 167.278 21.8568C167.278 22.5437 167.833 23.0453 168.486 23.0453C169.135 23.0453 169.687 22.5437 169.687 21.8568C169.687 21.1749 169.135 20.6719 168.486 20.6719Z" fill="#003365"/>
<path fill-rule="evenodd" clip-rule="evenodd" d="M168.233 21.7752V21.3523H168.515C168.659 21.3523 168.814 21.38 168.814 21.5528C168.814 21.7625 168.659 21.7752 168.484 21.7752H168.233ZM168.676 21.9402C168.878 21.9177 169.032 21.8112 169.032 21.5669C169.032 21.2955 168.874 21.1758 168.548 21.1758H168.027V22.5445H168.233V21.9514H168.473L168.834 22.5445H169.067L168.676 21.9402Z" fill="#003365"/>
<path fill-rule="evenodd" clip-rule="evenodd" d="M26.6433 9.15939C27.2461 9.16603 27.6589 9.34516 27.9941 9.50323C28.6922 9.83438 29.5097 10.2154 30.5342 10.7104C30.5342 10.715 32.1848 9.53381 32.2736 9.47265C32.8373 9.09189 33.3784 9.38208 33.5538 9.71063C34.1702 10.874 35.3067 13.2872 35.9067 15.4953C35.9756 15.7615 35.8923 16.17 35.4781 16.2984C35.2384 16.3656 34.8279 16.4256 34.3987 16.4798C33.7998 16.5539 33.8102 17.0391 33.8102 17.3313C33.8102 17.695 33.8151 20.1293 33.8151 20.9632C33.8287 21.4744 33.4387 23.1465 31.5069 23.1465H27.1008C25.4338 23.1535 24.0936 21.7426 24.0847 20.2438C24.083 19.2579 24.0847 12.3979 24.087 11.6294C24.0948 10.1448 25.4286 9.14237 26.6433 9.15939Z" fill="#003365"/>
<mask id="mask0_1981_2474" style="mask-type:alpha" maskUnits="userSpaceOnUse" x="0" y="0" width="39" height="25">
<path fill-rule="evenodd" clip-rule="evenodd" d="M38.598 0H0L0 24.7385H38.598V0V0Z" fill="white"/>
</mask>
<g mask="url(#mask0_1981_2474)">
<path fill-rule="evenodd" clip-rule="evenodd" d="M19.672 23.1475H5.34535V24.7386H22.1556C22.1556 24.7386 22.7657 23.3313 22.7657 21.773C22.7657 21.6905 22.7712 10.9727 22.7712 10.9727C22.7712 10.1221 23.1173 8.68037 24.8679 8.29932C24.9161 8.28894 24.9652 8.27827 25.0156 8.26904C29.9762 7.09762 35.0893 8.16404 37.9762 9.4067C38.494 9.6591 38.6119 9.24574 38.5966 9.06921C38.6561 6.64215 36.8111 3.87443 33.4183 3.70828C30.6592 3.64482 29.1304 4.63336 28.5705 4.90681C28.523 4.93075 28.4557 4.92066 28.392 4.84941C27.8846 4.34865 26.7994 3.59723 25.5787 3.24993C25.3955 3.20897 25.3814 2.93869 25.5891 2.91705C28.1973 2.63495 30.4847 2.93407 31.4352 3.08724C31.6556 3.12503 31.8229 2.99638 31.7349 2.79388C31.6648 2.63841 31.6123 2.56975 31.5007 2.3312C31.2679 1.82987 30.6543 1.302 29.8738 1.08277C27.8209 0.512209 24.3262 0.0192409 21.2161 0.000491319C17.7131 -0.0211428 14.0186 0.677782 13.086 0.890373C12.8628 0.937391 12.5489 1.01874 12.4918 1.02739C12.2371 1.07931 12.1762 1.32248 12.2887 1.44046C12.3554 1.51459 12.5504 1.67814 12.6427 1.79122C12.7581 1.9366 12.8105 2.14227 12.5922 2.35716L6.11264 8.17414H10.5459H10.5958C10.8837 8.16404 11.1583 8.42913 11.1583 8.75999C11.1612 9.05709 10.9197 9.34238 10.6171 9.34238H10.582H4.82267L3.05992 10.9459H10.5995L10.6419 10.9421C10.9385 10.9459 11.1684 11.2473 11.1635 11.53C11.1612 11.7862 10.9425 12.102 10.6419 12.102L10.5958 12.1069H1.76823L0.00346145 13.6983H15.2318L15.2806 13.7003C15.5809 13.7003 15.8136 14.0107 15.8151 14.2801C15.82 14.5917 15.599 14.8709 15.2918 14.8697H15.2506H0V16.4606H15.216L15.2618 16.4643C15.6109 16.4678 15.8151 16.7822 15.8136 17.0683C15.8111 17.3369 15.5578 17.6219 15.2546 17.6219H15.2142H0V19.2222H19.8641H19.9123C20.2437 19.2315 20.4546 19.5156 20.4451 19.8265C20.4358 20.0962 20.2126 20.3801 19.9149 20.3801H19.8708H5.35141V21.9839H19.672L19.9763 21.9804C20.2437 21.9804 20.4759 22.3136 20.4759 22.5833C20.4759 22.8542 20.2391 23.1475 19.9694 23.1475H19.672Z" fill="#003365"/>
</g>
<path fill-rule="evenodd" clip-rule="evenodd" d="M10.6966 28.6465L10.6948 30.2768C10.6948 30.2768 12.8476 30.2835 14.0752 30.2768C17.1023 30.2529 19.0851 28.6465 19.0851 28.6465H10.6966Z" fill="#003365"/>
<path fill-rule="evenodd" clip-rule="evenodd" d="M10.697 25.9053L10.6953 27.5001H20.4191C20.8671 27.0429 21.4431 26.2128 21.5969 25.909L10.697 25.9053Z" fill="#003365"/>
<path fill-rule="evenodd" clip-rule="evenodd" d="M160.926 21.4549C160.815 21.4618 160.708 21.4679 160.606 21.4728C160.504 21.4679 160.398 21.467 160.287 21.4549C159.684 21.401 159.207 21.1852 158.772 20.8509C158.649 20.7473 158.527 20.6316 158.408 20.4964C157.773 19.7816 157.432 18.5628 157.35 17.6029C157.164 15.3581 157.609 12.0784 160.366 11.8589C160.437 11.8522 160.504 11.8522 160.576 11.8522C160.583 11.8522 160.595 11.8488 160.606 11.8488C160.618 11.8488 160.627 11.8522 160.639 11.8522C160.705 11.8522 160.776 11.8522 160.843 11.8589C163.602 12.0784 164.051 15.3581 163.866 17.6029C163.785 18.5628 163.475 19.7568 162.806 20.4964C162.685 20.6316 162.563 20.7473 162.444 20.8509C162.004 21.1852 161.49 21.4113 160.926 21.4549ZM167.523 16.0544C167.52 16.0238 167.517 15.999 167.514 15.965C167.458 14.7295 167.049 13.6216 166.469 12.7637C165.263 10.8737 163.149 9.85406 160.607 9.88752C158.065 9.85406 155.95 10.8737 154.743 12.7637C154.165 13.6216 153.754 14.7295 153.697 15.965C153.695 15.999 153.69 16.0238 153.688 16.0544C153.344 20.2024 155.76 23.071 159.883 23.403C160.131 23.4232 160.369 23.4325 160.607 23.4302C160.843 23.4325 161.086 23.4232 161.332 23.403C165.453 23.071 167.87 20.2024 167.523 16.0544Z" fill="#003365"/>
<path fill-rule="evenodd" clip-rule="evenodd" d="M140.118 12.969C140.118 11.943 140.217 10.1387 140.217 10.1387H140.215H136.839H136.833C136.833 10.1387 136.936 11.943 136.936 12.969L136.928 20.3624C136.928 21.3904 136.833 23.1344 136.833 23.1344H136.844H140.211H140.217C140.217 23.1344 140.126 21.3904 140.126 20.3624L140.118 12.969Z" fill="#003365"/>
<path fill-rule="evenodd" clip-rule="evenodd" d="M120.382 21.1254C119.673 21.1254 118.748 21.1254 118.031 21.1289C117.998 19.8227 117.984 18.5605 117.981 17.4159L117.974 17.2367H117.978V17.2062H121.88V15.3678H117.984C117.993 13.3888 118.031 12.0878 118.031 12.0878L122.874 12.0867V10.1367C119.491 10.1491 114.598 10.1367 114.598 10.1367C114.598 10.1367 114.67 11.9309 114.67 12.9572V20.3365C114.67 21.2748 114.612 22.8708 114.6 23.1322H123.193L123.202 21.0712C123.202 21.0712 121.51 21.1254 120.382 21.1254Z" fill="#003365"/>
<path fill-rule="evenodd" clip-rule="evenodd" d="M64.045 21.1254C63.3397 21.1254 62.4086 21.1254 61.6926 21.1289C61.6606 19.8227 61.6468 18.5605 61.6407 17.4159L61.6384 17.2367H61.6407V17.2062H65.5429V15.3678H61.6468C61.6574 13.3888 61.6926 12.0878 61.6926 12.0878L66.5381 12.0867V10.1367C63.1531 10.1491 58.2632 10.1367 58.2632 10.1367C58.2632 10.1367 58.3353 11.9309 58.3353 12.9572V20.3365C58.3353 21.2748 58.2762 22.8708 58.2661 23.1322H66.8583L66.8655 21.0712C66.8655 21.0712 65.1734 21.1254 64.045 21.1254Z" fill="#003365"/>
<path fill-rule="evenodd" clip-rule="evenodd" d="M131.44 16.1437L135.168 10.1387H132.584L132.566 10.1961C131.782 11.5463 130.809 13.183 130.42 13.7836L130.27 14.0239L128.107 10.1387H124.224L127.969 16.8643L124.067 23.1341H126.637C128.297 20.2902 129.158 18.9844 129.158 18.9844L131.474 23.1341H135.344L131.44 16.1437Z" fill="#003365"/>
<path fill-rule="evenodd" clip-rule="evenodd" d="M150.66 21.3691C147.652 21.3691 146.032 19.1587 146.113 16.4371C146.186 14.0675 147.267 12.0526 149.85 11.8801C150.84 11.8141 151.646 11.9849 153.034 12.3564L152.893 10.3257C152.893 10.3257 151.717 9.95009 150.032 9.88577C147.89 9.80442 145.951 10.216 144.404 11.6439C143.028 12.9082 142.207 14.78 142.207 16.5961C142.207 18.6063 143.034 20.4576 144.585 21.741C146.198 23.1036 147.93 23.4134 149.99 23.4134C151.34 23.4134 152.133 23.3228 153.444 22.966L153.252 20.9734C152.968 21.0677 152.021 21.3691 150.66 21.3691Z" fill="#003365"/>
<path fill-rule="evenodd" clip-rule="evenodd" d="M107.253 8.1875H111.018L111.124 9.05719C111.963 17.7382 112.48 23.1404 112.48 23.1404H108.56L108.173 17.7607L107.812 12.9536L104.49 23.132C103.615 23.1343 102.393 23.132 102.393 23.132C102.393 23.132 101.341 19.5154 101.15 19.0126L99.2481 12.9063C99.2481 12.9063 98.9539 16.3052 98.8431 17.7573C98.6124 20.6721 98.4096 23.1404 98.4096 23.1404H95.4844C95.4844 23.1404 96.6823 10.982 96.7726 10.243C96.8641 9.48237 97.0071 8.1875 97.0071 8.1875H100.852L104.036 16.9412L107.253 8.1875Z" fill="#003365"/>
<path fill-rule="evenodd" clip-rule="evenodd" d="M87.3358 21.447C87.2288 21.4591 87.1238 21.4611 87.022 21.4623C86.9173 21.4611 86.8137 21.4611 86.703 21.447C86.0992 21.3919 85.6276 21.1796 85.1915 20.8453C85.0666 20.7478 84.9489 20.6252 84.828 20.4956C84.198 19.7843 83.8565 18.5699 83.7757 17.6091C83.5897 15.3788 84.0385 12.1143 86.7817 11.8962C86.8518 11.8934 86.9196 11.8876 86.9885 11.8876C86.9983 11.8876 87.0096 11.8827 87.022 11.8876C87.0295 11.8827 87.0425 11.8876 87.0503 11.8876C87.1181 11.8876 87.1881 11.8934 87.2582 11.8962C89.9997 12.1143 90.45 15.3788 90.2613 17.6091C90.1829 18.5699 89.8725 19.7572 89.2076 20.4956C89.0876 20.6252 88.9679 20.7478 88.8456 20.8453C88.4123 21.1796 87.9006 21.4034 87.3358 21.447ZM93.9084 16.0737C93.9049 16.0428 93.8985 16.0122 93.8968 15.9877C93.8432 14.7488 93.435 13.6486 92.8552 12.7937C91.6573 10.9109 89.5524 9.89843 87.0221 9.93247C84.486 9.89843 82.3814 10.9109 81.182 12.7937C80.6086 13.6486 80.1973 14.7488 80.1427 15.9877C80.1416 16.0122 80.1347 16.0428 80.1347 16.0737C79.7874 20.2026 82.196 23.0592 86.2984 23.3903C86.543 23.4068 86.7818 23.4125 87.0221 23.4125C87.256 23.4125 87.4969 23.4068 87.7426 23.3903C91.8422 23.0592 94.2531 20.2026 93.9084 16.0737Z" fill="#003365"/>
<path fill-rule="evenodd" clip-rule="evenodd" d="M47.8703 16.7703L49.4972 11.9297L49.5941 11.6444L51.2974 16.7703H47.8703ZM57.4488 23.1311C57.3343 22.8637 56.6383 21.2163 56.1277 19.8865L51.734 8.18652H48.3129C48.3129 8.18652 47.3405 10.9303 47.2003 11.3826L43.9918 20.453C43.575 21.6129 42.9897 23.1334 42.9897 23.1334H45.7814C45.7814 23.1334 46.5712 20.612 46.7342 20.1562L47.1645 18.8974H52.0031L52.6602 20.8156C52.8004 21.175 53.3712 23.1025 53.3822 23.1311H57.4488Z" fill="#003365"/>
<path fill-rule="evenodd" clip-rule="evenodd" d="M74.336 15.8806C73.8323 16.1408 72.6944 16.0686 72.1319 16.0358L72.1749 12.3196L72.4887 12.2997C73.5245 12.2169 74.2803 12.3568 74.5904 12.497C75.0557 12.7015 75.3265 13.1365 75.3516 13.8721C75.3911 14.9665 74.9749 15.5517 74.336 15.8806ZM80.3062 23.1347C79.4977 21.9736 79.1997 21.4942 78.5781 20.6453L76.2485 17.0252C77.3698 16.4716 78.4223 15.5434 78.583 13.6018C78.6814 12.3871 78.0326 11.3819 77.647 11.0403C77.0859 10.541 76.5408 10.3385 75.7648 10.2436C75.1406 10.1629 74.6915 10.1582 74.3173 10.1357H68.8301C68.8301 10.1357 68.8947 11.9314 68.8947 12.9591V20.3072C68.8947 21.3387 68.8301 23.1326 68.8301 23.1326H72.2056C72.2056 23.1326 72.1066 21.3387 72.1066 20.3072L72.132 17.9508C72.132 17.9508 72.867 17.9508 73.3842 17.9566L75.519 21.8701C75.8061 22.3682 76.2211 22.9924 76.3192 23.1347H80.3062Z" fill="#003365"/>
<path fill-rule="evenodd" clip-rule="evenodd" d="M194.508 3.2633L194.366 3.1984L194.401 3.12109L194.785 3.29417L194.748 3.37176L194.606 3.30801L194.419 3.72512L194.32 3.68098L194.508 3.2633Z" fill="#00468E"/>
<path fill-rule="evenodd" clip-rule="evenodd" d="M194.858 3.3252L195.016 3.40106L194.951 3.82739L194.952 3.82884L195.249 3.51529L195.405 3.59259L195.167 4.08066L195.074 4.03422L195.27 3.63182H195.27L194.941 3.96931L194.848 3.92287L194.913 3.45644L194.911 3.45702L194.714 3.85855L194.621 3.81297L194.858 3.3252Z" fill="#00468E"/>
<path fill-rule="evenodd" clip-rule="evenodd" d="M196.017 7.55078L196.006 7.56347C197.864 9.43093 199.087 11.9494 199.285 14.7829C199.722 21.0435 195.003 26.4737 188.742 26.911C185.802 27.1169 183.042 26.1835 180.899 24.4854L180.888 24.4978C183.11 26.5712 186.156 27.7535 189.429 27.5254C195.69 27.0875 200.41 21.6562 199.972 15.3965C199.749 12.2324 198.254 9.46179 196.017 7.55078Z" fill="#00468E"/>
<path fill-rule="evenodd" clip-rule="evenodd" d="M175.876 20.472C175.516 20.6733 175.433 20.9773 175.62 21.4452C175.791 21.8716 176.059 22.0562 176.345 21.9425C176.574 21.8511 176.614 21.6532 176.518 21.14L176.476 20.9413C176.383 20.4356 176.367 20.2187 176.428 20.0018C176.486 19.7586 176.627 19.5985 176.84 19.5137C177.354 19.3083 177.84 19.6242 178.13 20.3491C178.441 21.1308 178.274 21.7187 177.666 21.9728L177.513 21.5912C177.936 21.4063 178.043 21.0097 177.817 20.4428C177.632 19.9787 177.337 19.7742 177.026 19.8979C176.777 19.9983 176.717 20.2302 176.81 20.7564L176.846 20.9759L176.88 21.1706C176.947 21.562 176.954 21.6993 176.916 21.8658C176.866 22.0726 176.734 22.2243 176.52 22.3103C176.038 22.5033 175.575 22.2197 175.314 21.5672C175.032 20.8623 175.183 20.3367 175.725 20.095L175.876 20.472Z" fill="#00468E"/>
<path fill-rule="evenodd" clip-rule="evenodd" d="M175.555 16.3694L177.279 14.917L177.291 15.4529L175.83 16.663L176.304 17.1851L177.328 17.162L177.338 17.5835L174.407 17.6487L174.398 17.2272L175.552 17.2016L175.709 17.2033L175.86 17.199L175.76 17.096L175.66 16.991L174.363 15.5917L174.35 15.0358L175.555 16.3694Z" fill="#00468E"/>
<path fill-rule="evenodd" clip-rule="evenodd" d="M176.852 11.8315L177.982 12.2275L177.842 12.6262L176.713 12.2278L174.688 12.8391L174.858 12.3547L176.115 12.0043L176.27 11.9607C176.333 11.9414 176.374 11.935 176.484 11.912C176.384 11.7954 176.362 11.7672 176.259 11.6227L175.484 10.5741L175.644 10.1123L176.852 11.8315Z" fill="#00468E"/>
<path fill-rule="evenodd" clip-rule="evenodd" d="M178.835 6.45246L178.217 7.20965L180.065 8.72259L179.621 9.26633L177.771 7.75195L177.154 8.50539L176.736 8.16213L178.416 6.11035L178.835 6.45246Z" fill="#00468E"/>
<path fill-rule="evenodd" clip-rule="evenodd" d="M182.79 3.67559L181.311 4.5398L181.626 5.07921L182.985 4.28625L183.238 4.71864L181.88 5.51218L182.245 6.13524L183.753 5.25344L184.025 5.72102L181.912 6.95676L180.43 4.4273L182.517 3.20801L182.79 3.67559Z" fill="#00468E"/>
<path fill-rule="evenodd" clip-rule="evenodd" d="M186.787 3.30308C186.627 3.03481 186.564 2.91597 186.472 2.70742C186.444 2.91597 186.417 3.07145 186.347 3.37375L186.225 3.93219L187.076 3.79604L186.787 3.30308ZM188.462 4.81365L187.695 4.86298L187.317 4.22953L186.135 4.41818L185.97 5.1399L185.24 5.32826L186.011 2.12526L186.732 2.01074L188.462 4.81365Z" fill="#00468E"/>
<path fill-rule="evenodd" clip-rule="evenodd" d="M193.17 5.75086L192.552 5.51606L192.787 4.64522C192.814 4.5431 192.851 4.40234 192.903 4.22552C192.952 4.04148 192.994 3.8987 193.026 3.7937C193.063 3.67543 193.1 3.55284 193.139 3.4265L193.209 3.21794C193.036 3.51419 192.967 3.61832 192.809 3.8586C192.742 3.96446 192.679 4.05216 192.628 4.12571L191.797 5.29049L191.263 5.1503L191.096 3.74957C191.084 3.6789 191.077 3.57678 191.067 3.43775C191.058 3.25285 191.047 3.1141 191.043 3.0166C191.04 2.93872 191.04 2.82045 191.041 2.66209L190.969 3.01603C190.882 3.40198 190.844 3.56957 190.726 4.02994L190.483 4.97377L189.834 4.87194L190.569 2.00586L191.553 2.19624L191.693 3.55226C191.729 3.87043 191.734 4.13638 191.721 4.51397C191.832 4.29878 191.871 4.22609 191.999 4.0285C192.084 3.89495 192.158 3.78447 192.224 3.68236L192.996 2.57469L193.931 2.89199L193.17 5.75086Z" fill="#00468E"/>
<path fill-rule="evenodd" clip-rule="evenodd" d="M193.101 15.2032C193.946 14.6341 194.65 14.3295 195.087 14.3445C195.346 14.3543 195.655 14.4316 195.655 14.7515C195.655 15.0795 195.343 15.3549 194.73 15.5733C194.194 15.7657 193.37 15.8141 192.471 15.7129C192.719 15.4888 192.926 15.3212 193.101 15.2032ZM181.213 16.2451C180.687 16.209 180.43 15.9962 180.43 15.5938C180.43 15.5398 180.465 14.2585 183.403 14.1108C183.738 14.0932 184.114 14.0828 184.683 14.1477C184.659 14.1489 184.35 14.4319 184.35 14.4319L184.167 14.598C183.457 15.2404 182.272 16.3169 181.213 16.2451ZM187.568 11.395C187.212 11.7065 186.508 12.3826 185.828 13.0351L185.058 13.7736C184.428 13.659 183.806 13.6057 183.167 13.6057C181.738 13.6057 180.431 13.9983 179.836 14.6063C179.608 14.8397 179.496 15.0921 179.501 15.3592C179.516 16.0489 180.306 16.397 180.548 16.4868C181.815 16.9601 182.88 16.8231 183.997 16.0414C184.614 15.6093 185.358 14.9147 185.936 14.36C186.387 14.4644 186.901 14.5962 187.449 14.7581L187.957 14.9075C187.299 15.5516 186.624 16.2358 185.998 16.7876L185.95 16.8309C185.079 17.5979 184.45 18.1529 183.542 18.3548C182.901 18.4967 182.446 18.3632 182.298 18.27C182.284 18.2726 182.263 18.2985 182.263 18.2985C182.79 18.7315 183.288 18.9781 184.144 18.9043C184.961 18.8333 185.903 18.3184 186.869 17.417L188.171 16.1377L189.082 15.2323C189.082 15.238 190.925 15.7734 190.925 15.7734C190.94 15.7774 190.959 15.7832 190.959 15.7832C190.94 15.7832 189.819 16.8932 189.819 16.8932L188.839 17.8682C187.834 18.8429 187.289 19.3494 186.703 19.7642C185.731 20.4521 184.903 20.8101 184.17 20.8594C183.793 20.8834 183.246 20.858 182.79 20.5909C182.769 20.5866 182.742 20.6114 182.742 20.6114C183.238 21.0363 183.845 21.5434 184.889 21.5137C186.073 21.4816 187.119 20.9125 188.75 19.4137C189.493 18.7315 190.231 17.9688 190.884 17.2941L192.094 16.0668C192.892 16.245 193.604 16.316 194.393 16.3004C195.542 16.2782 196.521 15.7275 196.534 15.1004C196.544 14.636 196.163 14.388 195.935 14.2406C195.746 14.1168 195.233 13.8318 194.523 13.8318C193.662 13.8318 192.765 14.212 191.854 14.9608L191.247 15.4956C191.254 15.4913 191.025 15.4345 191.025 15.4345L189.339 14.9626C189.836 14.4976 190.259 14.0989 190.642 13.7597C191.564 12.9393 192.585 12.6021 193.181 12.5635C193.615 12.5352 194.374 12.573 194.686 12.7934C194.701 12.7919 194.721 12.7599 194.721 12.7599C193.891 12.0483 193.172 11.9551 192.579 11.9551C191.997 11.9551 191.06 12.1421 189.914 13.0299C189.445 13.3925 188.839 13.9983 188.202 14.6383C188.202 14.6343 187.349 14.3764 187.349 14.3764L187.143 14.3109C187.143 14.3109 186.248 14.0395 186.247 14.0395C186.267 14.0395 186.758 13.5578 186.758 13.5578C187.362 12.9659 187.933 12.406 188.378 12.0313C189.996 10.6698 191.014 10.4924 191.722 10.4898C192.499 10.4866 193.114 10.6458 193.554 10.9643C193.567 10.9623 193.587 10.9331 193.587 10.9331C192.679 10.1119 192.026 9.84913 190.898 9.8399C189.908 9.83327 188.724 10.3845 187.568 11.395Z" fill="#00468E"/>
<path fill-rule="evenodd" clip-rule="evenodd" d="M95.8379 29.8546C95.8379 29.8546 101.751 25.023 116.679 25.023C127.928 25.023 134.671 28.6168 147.826 28.6168C159.658 28.6168 167.556 24.5508 167.556 24.5508C167.556 24.5508 160.62 29.9628 146.702 29.9628C132.784 29.9628 128.346 26.321 114.598 26.321C100.85 26.321 95.8379 29.8546 95.8379 29.8546Z" fill="#DA060D"/>
</svg>
