<svg width="200" height="35" viewBox="0 0 200 35" fill="none" xmlns="http://www.w3.org/2000/svg">
<path fill-rule="evenodd" clip-rule="evenodd" d="M29.4213 13.8428C29.4213 16.663 29.4213 19.4906 29.4213 22.3108C29.4287 23.9455 29.399 25.5802 29.4361 27.2148C31.0656 27.1928 32.6952 27.2075 34.3248 27.2075C34.3248 23.5184 34.3174 19.8219 34.3322 16.1328C37.9839 19.8146 41.6208 23.511 45.2651 27.2001C46.5762 27.2148 47.8946 27.2001 49.2057 27.2075C49.2057 21.1989 49.2131 15.1977 49.2057 9.18908C47.5687 9.18908 45.9243 9.18908 44.2874 9.18908C44.3022 11.3539 44.2874 13.5262 44.2948 15.691C44.28 17.0606 44.317 18.4302 44.28 19.7998C43.1467 18.5849 41.9541 17.4214 40.806 16.2138C39.6283 15.0283 38.4802 13.8133 37.3024 12.6278C36.2432 11.5159 35.1544 10.4409 34.0952 9.32899C34.0211 9.27008 33.9544 9.16699 33.8507 9.18172C32.3767 9.17436 30.9101 9.19645 29.4361 9.16699C29.399 10.728 29.4361 12.2817 29.4213 13.8428Z" fill="white"/>
<path fill-rule="evenodd" clip-rule="evenodd" d="M60.3905 14.5054C60.3979 18.7394 60.3757 22.9734 60.3979 27.2074C62.1756 27.1927 63.9533 27.2074 65.7384 27.2C65.731 21.1915 65.731 15.1902 65.7384 9.189C63.9607 9.18164 62.183 9.19637 60.3979 9.18164C60.3757 10.9489 60.3979 12.7308 60.3905 14.5054Z" fill="white"/>
<path fill-rule="evenodd" clip-rule="evenodd" d="M74.642 9.18164C74.642 10.566 74.6346 11.9577 74.642 13.342L74.6716 13.3715C76.8567 13.3788 79.0344 13.3788 81.2195 13.3715C81.2343 17.981 81.2269 22.5905 81.2269 27.2C82.975 27.2074 84.7231 27.1927 86.4786 27.2074C86.4934 22.5979 86.4786 17.9883 86.486 13.3788C88.6859 13.3788 90.8858 13.3788 93.0783 13.3788C93.0783 11.9798 93.0857 10.5807 93.0709 9.18164C86.9304 9.189 80.7825 9.18164 74.642 9.18164Z" fill="white"/>
<path fill-rule="evenodd" clip-rule="evenodd" d="M101.841 9.18164C101.841 15.1902 101.848 21.1915 101.841 27.2C107.507 27.2 113.181 27.2 118.848 27.2C118.84 25.8525 118.848 24.505 118.848 23.1575C114.922 23.1575 110.996 23.1649 107.078 23.1501C107.092 22.1119 107.078 21.0736 107.085 20.0428C110.389 20.0501 113.685 20.0428 116.988 20.0428C116.988 18.7836 116.988 17.5171 116.988 16.2579C113.685 16.2506 110.381 16.2727 107.078 16.2432C107.1 15.2418 107.078 14.233 107.085 13.2315C110.974 13.2389 114.87 13.2242 118.759 13.2389C118.781 11.884 118.759 10.5292 118.766 9.18164C113.122 9.18164 107.485 9.189 101.841 9.18164Z" fill="white"/>
<path fill-rule="evenodd" clip-rule="evenodd" d="M198.104 31.6844C198.704 31.4488 199.437 31.8611 199.578 32.4796C199.659 32.8331 199.57 33.2307 199.304 33.4958C199.067 33.4001 199.007 33.0687 198.815 32.892C198.956 32.7963 199.17 32.7374 199.215 32.5459C199.281 32.3103 199.207 31.9937 198.941 31.9274C198.585 31.8611 198.222 31.8979 197.867 31.8979C197.874 32.4576 197.867 33.0172 197.867 33.5768C197.985 33.5768 198.104 33.5768 198.23 33.5768C198.23 33.3412 198.23 33.0982 198.23 32.8625C198.267 32.8625 198.348 32.8699 198.393 32.8699C198.533 33.0982 198.689 33.3264 198.83 33.5621C198.956 33.5694 199.081 33.5842 199.207 33.5989C198.704 34.0407 197.83 33.9082 197.504 33.3191C197.111 32.7447 197.452 31.8906 198.104 31.6844Z" fill="white"/>
<path fill-rule="evenodd" clip-rule="evenodd" d="M198.245 32.2373C198.452 32.2373 198.667 32.2535 198.874 32.2858C198.86 32.3746 198.874 32.5443 198.741 32.5119C198.571 32.5281 198.4 32.5281 198.237 32.5281C198.237 32.4554 198.237 32.31 198.245 32.2373Z" fill="white"/>
<path fill-rule="evenodd" clip-rule="evenodd" d="M0 9.18217C1.74808 9.18217 3.49617 9.18217 5.24425 9.18217C5.24425 12.5767 5.24425 15.9713 5.24425 19.3658C5.25906 20.4115 5.54053 21.5381 6.35532 22.2523C7.25899 23.0623 8.53301 23.2537 9.70334 23.2906C10.6811 23.3053 11.681 23.2096 12.5847 22.8119C13.2588 22.5174 13.8291 21.9946 14.1402 21.3245C14.4735 20.625 14.5476 19.8297 14.5402 19.0639C14.5402 15.7651 14.5402 12.4736 14.5402 9.18217C16.2809 9.16744 18.0215 9.18217 19.7696 9.1748C19.7696 12.3705 19.7696 15.5663 19.7696 18.762C19.777 19.7193 19.7474 20.6839 19.5178 21.6264C19.1696 23.2096 18.2882 24.7043 16.9549 25.669C15.3402 26.8618 13.3106 27.3184 11.3403 27.473C9.5552 27.5614 7.74045 27.5172 5.99977 27.0901C4.35539 26.6778 2.74064 25.8899 1.6592 24.5571C0.511092 23.1875 0.0518499 21.3761 0 19.6236V9.18217H0Z" fill="#003399"/>
<path fill-rule="evenodd" clip-rule="evenodd" d="M29.4213 13.8432C29.4287 12.2895 29.399 10.7285 29.4361 9.1748C30.9101 9.20426 32.3767 9.1748 33.8507 9.18953C33.9544 9.1748 34.0211 9.27789 34.0952 9.3368C35.1544 10.4413 36.2432 11.5237 37.3024 12.6356C38.4802 13.8211 39.6283 15.0361 40.806 16.2216C41.9467 17.4292 43.1467 18.5927 44.28 19.8076C44.317 18.438 44.28 17.0684 44.2948 15.6988C44.2948 13.534 44.3022 11.3618 44.2874 9.1969C45.9243 9.1969 47.5613 9.1969 49.2057 9.1969C49.2131 15.2055 49.2057 21.2067 49.2057 27.2153C47.8946 27.2079 46.5762 27.2227 45.2651 27.2079C41.6208 23.5188 37.9839 19.8224 34.3322 16.1406C34.3248 19.8297 34.3322 23.5262 34.3248 27.2153C32.6952 27.2227 31.0656 27.2006 29.4361 27.2227C29.399 25.588 29.4287 23.9533 29.4213 22.3186C29.4213 19.4837 29.4213 16.6634 29.4213 13.8432Z" fill="#003399"/>
<path fill-rule="evenodd" clip-rule="evenodd" d="M60.3905 14.506C60.3979 12.7314 60.3757 10.9568 60.3979 9.1748C62.1756 9.18953 63.9533 9.1748 65.7384 9.18217C65.731 15.1834 65.731 21.192 65.7384 27.1932C63.9607 27.2006 62.183 27.1858 60.3979 27.2006C60.3757 22.9739 60.3979 18.7399 60.3905 14.506Z" fill="#003399"/>
<path fill-rule="evenodd" clip-rule="evenodd" d="M74.6417 9.18217C80.7896 9.18217 86.9301 9.18953 93.078 9.1748C93.0928 10.5739 93.0854 11.9729 93.0854 13.372C90.8855 13.372 88.6856 13.372 86.4931 13.372C86.4857 17.9815 86.5005 22.591 86.4857 27.2006C84.7376 27.1858 82.9895 27.2006 81.234 27.1932C81.234 22.5837 81.2414 17.9741 81.2266 13.3646C79.0489 13.372 76.8638 13.372 74.6787 13.3646L74.6491 13.3352C74.6269 11.9582 74.6343 10.5665 74.6417 9.18217Z" fill="#003399"/>
<path fill-rule="evenodd" clip-rule="evenodd" d="M101.841 9.18164C107.485 9.189 113.122 9.18164 118.766 9.18164C118.759 10.5365 118.781 11.8914 118.759 13.2389C114.87 13.2242 110.974 13.2389 107.085 13.2315C107.078 14.233 107.092 15.2418 107.078 16.2432C110.381 16.2727 113.685 16.2432 116.988 16.2579C116.988 17.5171 116.988 18.7836 116.988 20.0428C113.685 20.0428 110.389 20.0501 107.085 20.0428C107.07 21.081 107.092 22.1192 107.078 23.1501C111.003 23.1649 114.929 23.1501 118.848 23.1575C118.848 24.505 118.848 25.8525 118.848 27.2C113.181 27.2 107.507 27.2 101.841 27.2C101.848 21.1915 101.841 15.1829 101.841 9.18164Z" fill="#003399"/>
<path fill-rule="evenodd" clip-rule="evenodd" d="M128.499 9.18234C130.729 9.1897 132.958 9.18234 135.188 9.18234C136.943 9.19706 138.706 9.1087 140.447 9.35906C142.106 9.58733 143.765 10.0512 145.195 10.9496C146.335 11.6565 147.284 12.6726 147.884 13.8729C148.565 15.2277 148.832 16.752 148.802 18.2615C148.802 19.6974 148.543 21.1553 147.891 22.4439C147.395 23.438 146.676 24.3143 145.787 24.9843C144.328 26.1036 142.528 26.6927 140.728 26.9725C138.921 27.267 137.077 27.186 135.254 27.1934C133.003 27.1934 130.743 27.1934 128.492 27.1934C128.507 21.1921 128.499 15.1909 128.499 9.18234ZM133.758 13.3425C133.751 16.575 133.758 19.8076 133.751 23.0401C134.373 23.0696 135.003 23.0475 135.625 23.0549C136.639 23.0475 137.654 23.0843 138.669 23.0033C139.936 22.8855 141.276 22.5615 142.187 21.6263C143.032 20.7943 143.313 19.5719 143.35 18.4232C143.365 17.5617 143.269 16.6855 142.928 15.8902C142.624 15.1907 142.099 14.5869 141.439 14.204C140.387 13.5707 139.136 13.4014 137.928 13.3572C136.536 13.3351 135.151 13.3425 133.758 13.3425Z" fill="#003399"/>
<path fill-rule="evenodd" clip-rule="evenodd" d="M197.496 31.6112C198.067 31.1178 199.015 31.1399 199.541 31.6848C199.83 31.9499 199.955 32.3401 200 32.7157V32.7451C199.963 33.2532 199.711 33.7687 199.244 34.019C198.637 34.3798 197.793 34.2399 197.333 33.7024C196.807 33.1133 196.881 32.1119 197.496 31.6112ZM198.104 31.6845C197.452 31.8907 197.111 32.7449 197.511 33.3192C197.837 33.9009 198.711 34.0408 199.215 33.599C199.081 33.5843 198.963 33.5769 198.837 33.5622C198.696 33.3266 198.548 33.0983 198.4 32.87C198.363 32.87 198.281 32.8627 198.237 32.8627C198.237 33.0983 198.237 33.3413 198.237 33.5769C198.111 33.5769 197.992 33.5769 197.874 33.5769C197.874 33.0173 197.881 32.4577 197.874 31.8981C198.23 31.8981 198.592 31.8613 198.948 31.9275C199.215 31.9938 199.289 32.3104 199.222 32.5461C199.185 32.7375 198.97 32.7964 198.822 32.8921C199.015 33.0615 199.067 33.3929 199.311 33.4959C199.578 33.2382 199.666 32.8332 199.585 32.4798C199.437 31.8613 198.711 31.4489 198.104 31.6845ZM198.244 32.237C198.244 32.3032 198.237 32.4431 198.237 32.5094C198.4 32.5094 198.57 32.5094 198.741 32.4947C198.867 32.5168 198.859 32.3622 198.874 32.2885C198.659 32.2517 198.452 32.237 198.244 32.237Z" fill="#003399"/>
<path fill-rule="evenodd" clip-rule="evenodd" d="M164.224 4.6608C164.713 4.71971 165.209 4.83752 165.698 4.7418C166.513 4.71234 167.342 4.68289 168.142 4.86697C167.794 4.98479 167.431 5.08788 167.098 5.25724C167.387 5.35296 167.646 5.51496 167.927 5.63278C168.32 5.55178 168.705 5.39714 169.105 5.30878C169.298 5.27933 169.498 5.16151 169.698 5.24988C170.105 5.40451 170.498 5.61068 170.883 5.81686C170.987 5.87577 171.112 5.92731 171.172 6.04513C170.424 6.1114 169.683 6.25131 168.942 6.40594C169.127 6.61948 169.335 6.81829 169.49 7.06129C170.394 6.92874 171.298 6.78884 172.216 6.7962C172.616 7.12019 172.957 7.53991 173.194 7.99645C172.157 7.95963 171.112 7.9449 170.075 8.05535C170.201 8.33517 170.283 8.62234 170.372 8.90952C171.49 8.9537 172.646 8.8727 173.757 9.07888C173.964 9.57959 174.083 10.1171 174.135 10.6547C172.957 10.4264 171.757 10.2791 170.557 10.1908C170.55 10.5663 170.542 10.9492 170.49 11.3247C171.742 11.4646 172.986 11.6855 174.209 11.9874C174.172 12.5839 174.12 13.1877 173.964 13.7694C172.735 13.3644 171.483 12.9668 170.201 12.7606C170.083 13.3276 169.883 13.8725 169.646 14.4027C170.912 14.8297 172.142 15.3452 173.335 15.949C173.127 16.4497 172.949 16.9725 172.646 17.4364C172.512 17.3996 172.394 17.3112 172.275 17.2523C171.216 16.6706 170.142 16.1036 169.024 15.6397C168.646 16.3761 168.157 17.0388 167.698 17.7236C168.876 18.4231 170.001 19.211 171.105 20.021C170.779 20.4628 170.438 20.8972 170.09 21.317C169.031 20.4333 167.95 19.5792 166.868 18.725C166.69 18.8428 166.579 19.0416 166.431 19.1889C165.935 19.7559 165.387 20.2787 164.779 20.7279C164.742 20.8089 164.853 20.8604 164.89 20.912C165.816 21.8545 166.698 22.8486 167.542 23.8573C167.246 24.2182 166.868 24.5127 166.483 24.7778C166.439 24.741 166.394 24.7041 166.365 24.66C165.565 23.6585 164.765 22.6571 164.009 21.6262C163.965 21.5747 163.891 21.4495 163.816 21.5379C163.098 22.0975 162.35 22.6424 161.52 23.0326C161.505 23.3787 161.52 23.7322 161.513 24.0783C161.513 24.2034 161.491 24.3433 161.557 24.4538C162.002 25.3595 162.476 26.2505 162.898 27.1635C162.624 27.3255 162.342 27.4654 162.046 27.598C161.846 27.274 161.713 26.9132 161.513 26.5818C161.513 27.2004 161.513 27.8189 161.513 28.4374C161.765 28.3712 161.994 28.246 162.231 28.1355C164.253 27.1562 166.127 25.8897 167.816 24.4096C169.638 22.8265 171.238 20.9856 172.498 18.9238C173.816 16.7222 174.757 14.2259 174.757 11.6414C174.72 10.5368 174.549 9.4176 174.046 8.42353C173.098 6.43539 171.127 5.0437 168.979 4.60925C167.409 4.29262 165.779 4.31472 164.224 4.6608Z" fill="white"/>
<path fill-rule="evenodd" clip-rule="evenodd" d="M169.616 4.44727C169.994 4.61663 170.401 4.71235 170.772 4.88907C171.624 4.9848 172.453 5.22779 173.246 5.54442C173.475 5.65487 173.749 5.70642 173.927 5.89787C173.46 5.90523 172.994 5.89787 172.527 5.92732C172.52 6.03041 172.638 6.07459 172.698 6.14823C172.912 6.32495 173.083 6.54585 173.29 6.72258C173.942 6.70785 174.601 6.72994 175.26 6.75203C175.401 6.74467 175.52 6.83303 175.623 6.91403C176.186 7.34847 176.69 7.86391 177.097 8.45299C176.905 8.43826 176.712 8.40881 176.52 8.37199C175.764 8.22472 175.001 8.16581 174.238 8.06273C174.32 8.43826 174.535 8.76962 174.646 9.13779C175.749 9.28506 176.846 9.49124 177.92 9.76369C178.223 10.4117 178.46 11.0965 178.601 11.796C178.564 11.8991 178.423 11.7886 178.349 11.7886C177.253 11.4131 176.142 11.0523 175.001 10.8388C175.009 11.2879 175.06 11.7371 175.053 12.1936C176.32 12.5544 177.579 12.9742 178.779 13.5264C178.786 14.248 178.683 14.9697 178.549 15.6765C178.29 15.6029 178.06 15.4483 177.816 15.3452C176.831 14.8813 175.831 14.4174 174.786 14.086C174.631 14.8077 174.409 15.5146 174.157 16.2067C174.097 16.3098 174.223 16.3613 174.29 16.3908C175.475 16.9799 176.631 17.6205 177.749 18.3127C177.542 18.9312 177.231 19.5129 176.92 20.0873C176.564 19.8958 176.253 19.6455 175.912 19.4319C175.083 18.9017 174.26 18.3568 173.386 17.9077C172.949 18.8134 172.438 19.697 171.794 20.4775C171.986 20.6984 172.231 20.8531 172.461 21.0298C173.32 21.7072 174.157 22.3994 174.979 23.121C174.653 23.6806 174.216 24.174 173.779 24.6526C172.816 23.6659 171.779 22.7381 170.705 21.8766C170.283 22.4436 169.787 22.9517 169.312 23.4745C168.957 23.8647 168.542 24.1887 168.172 24.5569C168.231 24.7189 168.409 24.822 168.513 24.9619C169.283 25.8602 170.075 26.7438 170.801 27.6716C170.379 28.0324 169.979 28.4153 169.512 28.7099C168.675 27.6348 167.831 26.5671 166.979 25.4994C165.876 26.4051 164.683 27.2077 163.409 27.8704C163.261 27.9146 163.387 28.0766 163.431 28.1576C164.053 29.24 164.653 30.3372 165.246 31.4417C164.927 31.6184 164.616 31.8025 164.276 31.9277C163.602 30.7864 163.002 29.6082 162.439 28.408C162.128 28.5332 161.824 28.6878 161.505 28.8056C161.513 30.4035 161.498 32.0087 161.513 33.6066C162.542 33.2752 163.557 32.885 164.535 32.4358C168.364 30.6906 171.727 28.0103 174.394 24.7778C175.912 22.9737 177.253 20.993 178.164 18.8134C179.008 16.7369 179.571 14.4616 179.231 12.2157C178.934 10.1687 177.868 8.25418 176.29 6.90666C175.497 6.18504 174.564 5.60333 173.549 5.24252C172.283 4.77862 170.942 4.58717 169.616 4.44727Z" fill="white"/>
<path fill-rule="evenodd" clip-rule="evenodd" d="M162.291 5.15375C161.913 5.24211 161.513 5.27157 161.157 5.41883C161.268 5.4262 161.387 5.43356 161.505 5.43356C161.505 5.49247 161.505 5.60292 161.505 5.66183C162.039 5.59556 162.572 5.45565 163.113 5.47038C162.779 5.72074 162.402 5.93428 162.12 6.25091C162.328 6.29509 162.528 6.35399 162.728 6.42763C163.246 6.05946 163.772 5.67656 164.35 5.41883C164.876 5.44829 165.409 5.5072 165.913 5.66919C165.157 5.96373 164.416 6.29509 163.728 6.7148C163.668 6.75898 163.565 6.78108 163.565 6.86944C163.713 6.96516 163.868 7.06089 163.994 7.18607C164.927 6.72953 165.876 6.26563 166.883 5.99318C167.246 6.14782 167.601 6.35399 167.898 6.61908C166.727 6.89153 165.55 7.20079 164.446 7.68678C164.587 7.85614 164.713 8.04023 164.809 8.23168C166.046 7.84141 167.298 7.45851 168.579 7.23025C168.801 7.50269 168.994 7.78987 169.15 8.09914C167.772 8.2464 166.394 8.44522 165.046 8.79866C165.113 9.01957 165.172 9.24047 165.216 9.46138C166.624 9.22575 168.046 8.98275 169.475 8.97539C169.609 9.3362 169.631 9.72646 169.668 10.1094C168.209 10.0431 166.75 10.0946 165.298 10.2051C165.268 10.4923 165.261 10.7794 165.216 11.0666C166.676 11.0298 168.142 11.0666 169.594 11.2065C169.572 11.6557 169.453 12.0901 169.342 12.5246C167.92 12.2006 166.468 12.0239 165.016 11.9429C164.957 12.311 164.802 12.6571 164.661 13.0032C166.068 13.2536 167.446 13.6291 168.794 14.1151C168.624 14.4833 168.431 14.8514 168.246 15.2196C168.031 15.1828 167.846 15.065 167.646 14.984C166.542 14.5274 165.409 14.1224 164.261 13.7837C164.002 14.2918 163.698 14.7704 163.335 15.2122C164.535 15.8013 165.698 16.4714 166.831 17.1857C166.927 17.2446 166.801 17.3403 166.764 17.4066C166.564 17.6643 166.342 17.9073 166.135 18.1576C165.061 17.3329 163.972 16.5377 162.831 15.8087C162.439 16.2358 162.046 16.6702 161.587 17.031C161.446 17.1047 161.454 17.3035 161.579 17.3918C162.431 18.2975 163.276 19.2032 164.135 20.1016C163.876 20.3151 163.639 20.6023 163.32 20.7201C162.698 19.969 162.135 19.1738 161.498 18.4374C161.491 19.8439 161.498 21.2503 161.498 22.6567C161.616 22.6125 161.728 22.561 161.831 22.4947C163.816 21.2797 165.602 19.7334 167.083 17.9367C168.438 16.2579 169.535 14.3286 170.016 12.2079C170.335 10.7132 170.298 9.07111 169.55 7.70887C168.987 6.66326 167.987 5.89746 166.883 5.47038C165.439 4.92548 163.816 4.90339 162.291 5.15375Z" fill="white"/>
<path fill-rule="evenodd" clip-rule="evenodd" d="M161.506 6.43555C161.506 6.72272 161.498 7.0099 161.506 7.29707C161.683 7.2308 161.809 7.08353 161.987 7.01726C162.217 7.0688 162.446 7.15717 162.654 7.28971C162.631 7.38543 162.506 7.40016 162.439 7.45907C162.12 7.62843 161.817 7.8346 161.513 8.01869C161.506 8.21751 161.506 8.40895 161.513 8.60777C162.061 8.26169 162.631 7.93769 163.194 7.62106C163.343 7.73152 163.483 7.86406 163.609 8.00396C162.898 8.30587 162.202 8.64459 161.513 8.98331C161.506 9.18212 161.498 9.38093 161.506 9.57975C162.335 9.20421 163.157 8.77713 164.039 8.54886C164.106 8.70349 164.172 8.86549 164.217 9.03485C163.291 9.23366 162.394 9.55029 161.513 9.90374C161.513 10.0805 161.513 10.2572 161.52 10.4413C162.454 10.1246 163.409 9.8301 164.387 9.69756C164.394 9.9111 164.409 10.1246 164.409 10.3382C163.431 10.4192 162.469 10.5738 161.513 10.78C161.513 10.9641 161.513 11.1555 161.513 11.3396C162.461 11.266 163.402 11.1334 164.35 11.1555C164.305 11.4132 164.239 11.6562 164.157 11.9066C163.276 11.833 162.394 11.7961 161.513 11.8256C161.506 12.0686 161.506 12.3116 161.513 12.5546C162.269 12.5619 163.009 12.7608 163.75 12.8786C163.668 13.1142 163.543 13.3277 163.424 13.5487C162.794 13.3498 162.165 13.1216 161.498 13.0479C161.498 13.475 161.498 13.9021 161.498 14.3292C161.861 14.4912 162.224 14.6532 162.557 14.8593C162.417 15.014 162.298 15.1981 162.128 15.3306C161.906 15.2496 161.72 15.0876 161.513 14.9698C161.483 15.5589 161.506 16.1406 161.498 16.7297C161.794 16.5161 162.017 16.229 162.276 15.9786C163.283 14.9551 164.091 13.7254 164.58 12.3705C165.031 11.1113 165.128 9.66811 164.557 8.43105C163.987 7.29707 162.757 6.59018 161.506 6.43555Z" fill="white"/>
<path fill-rule="evenodd" clip-rule="evenodd" d="M181.438 9.67578C181.668 10.1102 181.934 10.5226 182.134 10.9718C182.171 11.0454 182.201 11.1485 182.29 11.1853C182.571 11.3326 182.875 11.4283 183.149 11.5903C183.268 11.7007 183.334 11.8554 183.416 11.9953C183.927 12.8936 184.349 13.8509 184.616 14.8523C184.082 14.5651 183.586 14.2264 183.053 13.9392C183.156 14.5578 183.149 15.191 183.201 15.8169C183.823 16.2293 184.416 16.6784 184.986 17.1497C185.053 18.1143 184.986 19.0863 184.845 20.0435C184.371 19.6165 183.89 19.1894 183.371 18.8138C183.201 18.7034 183.06 18.5414 182.86 18.4972C182.712 19.4545 182.394 20.3823 182.031 21.2806C181.994 21.3616 181.964 21.4573 182.068 21.5089C182.764 22.0685 183.408 22.6944 184.023 23.3497C183.742 24.0714 183.475 24.8077 183.068 25.463C182.631 25.0065 182.186 24.5573 181.734 24.1155C181.482 23.902 181.282 23.6295 180.979 23.4823C180.801 23.8504 180.594 24.2039 180.379 24.5573C179.89 25.3231 179.401 26.0963 178.838 26.8106C179.416 27.3996 179.971 28.0182 180.512 28.6441C180.616 28.784 180.794 28.8944 180.808 29.0711C180.616 29.4099 180.342 29.6897 180.112 29.9989C179.875 30.2419 179.683 30.5365 179.408 30.7427C178.779 29.9842 178.142 29.2331 177.483 28.4968C176.49 29.6749 175.416 30.7868 174.238 31.7809C174.89 32.5393 175.483 33.3567 176.097 34.1372C176.357 34.1667 176.616 34.1446 176.883 34.1519C178.038 33.1431 179.097 32.0239 180.112 30.8752C182.356 28.1728 184.297 25.1096 185.127 21.6709C185.63 19.6385 185.719 17.4884 185.245 15.4487C184.816 13.5416 183.897 11.7523 182.616 10.2796C182.356 9.88196 181.838 9.85987 181.438 9.67578Z" fill="white"/>
<path fill-rule="evenodd" clip-rule="evenodd" d="M187.564 17.0752C187.727 17.8263 187.838 18.5921 187.897 19.3579C187.912 19.483 187.897 19.6303 187.993 19.726C188.208 19.9911 188.43 20.2562 188.608 20.5508C188.667 21.6553 188.586 22.7672 188.371 23.8569C188.193 23.6581 188.03 23.4446 187.86 23.2311C187.83 23.1869 187.712 23.0543 187.712 23.1942C187.541 24.3282 187.186 25.418 186.845 26.5078C187.067 26.9054 187.297 27.303 187.534 27.6933C187.386 28.2677 187.164 28.8199 186.934 29.3648C186.815 29.6004 186.749 29.8582 186.593 30.0717C186.364 29.6741 186.141 29.2691 185.867 28.8936C185.853 28.8936 185.815 28.8862 185.793 28.8862C185.149 30.1674 184.356 31.375 183.542 32.5532C183.838 33.1055 184.208 33.6209 184.527 34.1732C184.653 34.1732 184.786 34.1658 184.919 34.1658C185.741 32.9066 186.519 31.6107 187.127 30.2337C187.949 28.4444 188.534 26.5446 188.83 24.6007C188.993 23.4078 189.126 22.2002 188.986 20.9926C188.845 19.8807 188.482 18.8056 188.038 17.7821C187.919 17.517 187.838 17.2077 187.564 17.0752Z" fill="white"/>
<path fill-rule="evenodd" clip-rule="evenodd" d="M189.608 27.8854C189.231 29.6158 188.786 31.3388 188.238 33.0251C188.157 33.0693 188.164 32.8778 188.12 32.841C188.097 32.7084 187.986 32.8336 187.986 32.8999C187.794 33.327 187.579 33.7393 187.386 34.1664C187.712 34.1664 188.038 34.1664 188.357 34.1664C189.164 32.1562 189.557 30.006 189.734 27.8633L189.608 27.8854Z" fill="white"/>
<path fill-rule="evenodd" clip-rule="evenodd" d="M161.505 0H195.904C195.904 10.2058 195.904 20.4189 195.904 30.632C195.889 31.8396 195.926 33.0399 195.889 34.2401H188.652C189.038 33.1061 189.408 31.9648 189.63 30.794C190.097 28.423 190.193 25.9709 189.897 23.5704C189.43 19.8077 187.941 16.1923 185.667 13.1511C183.556 10.3088 180.771 7.9599 177.579 6.39149C172.646 3.96891 166.809 3.43874 161.52 4.92616C161.505 3.27674 161.505 1.64205 161.505 0Z" fill="#003399"/>
<path fill-rule="evenodd" clip-rule="evenodd" d="M164.224 4.66115C165.779 4.32243 167.409 4.30034 168.972 4.60961C171.113 5.04405 173.09 6.43575 174.038 8.42388C174.542 9.41795 174.712 10.5372 174.749 11.6417C174.749 14.2263 173.809 16.7299 172.49 18.9242C171.231 20.9786 169.631 22.8268 167.809 24.41C166.12 25.89 164.246 27.1565 162.224 28.1359C161.987 28.2463 161.757 28.3715 161.506 28.4378C161.506 27.8192 161.506 27.2007 161.506 26.5822C161.706 26.9062 161.839 27.267 162.039 27.5983C162.328 27.4732 162.609 27.3259 162.891 27.1639C162.461 26.2508 161.994 25.3598 161.55 24.4541C161.483 24.3363 161.506 24.2038 161.506 24.0786C161.513 23.7325 161.498 23.3791 161.513 23.033C162.343 22.6427 163.091 22.0978 163.809 21.5382C163.883 21.4499 163.957 21.5824 164.002 21.6266C164.757 22.6575 165.557 23.6663 166.357 24.6603C166.394 24.7045 166.431 24.7413 166.476 24.7781C166.853 24.5131 167.239 24.2185 167.535 23.8577C166.683 22.8415 165.809 21.8548 164.883 20.9123C164.846 20.8534 164.735 20.8019 164.772 20.7282C165.379 20.2791 165.928 19.7563 166.424 19.1893C166.572 19.042 166.683 18.8432 166.861 18.7254C167.942 19.5795 169.024 20.4337 170.083 21.3173C170.431 20.8902 170.764 20.4558 171.098 20.0213C169.994 19.2114 168.876 18.4161 167.69 17.7239C168.15 17.0391 168.639 16.3764 169.016 15.6401C170.135 16.104 171.209 16.671 172.268 17.2527C172.387 17.3116 172.505 17.3999 172.638 17.4368C172.935 16.9802 173.112 16.4501 173.327 15.9493C172.135 15.3455 170.905 14.8301 169.639 14.403C169.876 13.8728 170.076 13.3279 170.194 12.761C171.476 12.9745 172.72 13.3721 173.957 13.7698C174.112 13.188 174.172 12.5842 174.201 11.9878C172.979 11.6859 171.735 11.465 170.483 11.3251C170.535 10.9496 170.535 10.574 170.55 10.1911C171.75 10.2795 172.942 10.4341 174.127 10.655C174.075 10.1175 173.957 9.57995 173.749 9.07923C172.638 8.87305 171.483 8.95405 170.364 8.90987C170.276 8.6227 170.194 8.32816 170.068 8.05571C171.105 7.94526 172.15 7.95998 173.187 7.9968C172.95 7.5329 172.609 7.12055 172.209 6.79656C171.298 6.79656 170.387 6.9291 169.483 7.06164C169.327 6.81865 169.12 6.61983 168.935 6.40629C169.668 6.25166 170.416 6.11175 171.164 6.04548C171.113 5.92767 170.979 5.87612 170.876 5.81722C170.49 5.61104 170.105 5.40486 169.69 5.25023C169.498 5.16187 169.29 5.27968 169.098 5.30914C168.698 5.39014 168.313 5.54477 167.92 5.63313C167.639 5.50795 167.379 5.34595 167.09 5.25759C167.424 5.08823 167.787 4.99251 168.135 4.86733C167.335 4.69061 166.505 4.7127 165.691 4.74215C165.209 4.83788 164.713 4.7127 164.224 4.66115Z" fill="#003399"/>
<path fill-rule="evenodd" clip-rule="evenodd" d="M169.616 4.44727C170.949 4.58717 172.29 4.77862 173.549 5.24252C174.564 5.60333 175.497 6.18504 176.29 6.90666C177.868 8.25418 178.934 10.1687 179.231 12.2157C179.571 14.4616 179.016 16.7369 178.164 18.8134C177.253 20.993 175.912 22.9737 174.394 24.7778C171.727 28.0103 168.364 30.6906 164.535 32.4358C163.55 32.885 162.542 33.2826 161.513 33.6066C161.498 32.0087 161.513 30.4035 161.505 28.8056C161.824 28.6878 162.12 28.5332 162.439 28.408C163.002 29.6082 163.602 30.7864 164.276 31.9277C164.616 31.8025 164.927 31.6184 165.246 31.4417C164.653 30.3372 164.053 29.24 163.431 28.1576C163.387 28.0766 163.261 27.9146 163.409 27.8704C164.676 27.2077 165.876 26.4051 166.979 25.4994C167.824 26.5671 168.668 27.6422 169.512 28.7099C169.979 28.4153 170.387 28.0324 170.801 27.6716C170.075 26.7438 169.283 25.8529 168.513 24.9619C168.409 24.822 168.224 24.7189 168.172 24.5569C168.55 24.1961 168.964 23.8647 169.312 23.4745C169.787 22.9517 170.283 22.4436 170.705 21.8766C171.779 22.7381 172.816 23.6659 173.779 24.6526C174.216 24.174 174.653 23.6806 174.979 23.121C174.157 22.4068 173.32 21.7072 172.461 21.0298C172.238 20.8457 171.986 20.6984 171.794 20.4775C172.438 19.697 172.949 18.8134 173.386 17.9077C174.26 18.3568 175.083 18.9017 175.912 19.4319C176.253 19.6455 176.564 19.9032 176.92 20.0873C177.231 19.5129 177.542 18.9312 177.749 18.3127C176.631 17.6205 175.468 16.9799 174.29 16.3908C174.223 16.354 174.09 16.3024 174.157 16.2067C174.401 15.5146 174.631 14.8077 174.786 14.086C175.831 14.41 176.823 14.8739 177.816 15.3452C178.06 15.4556 178.29 15.6103 178.549 15.6765C178.69 14.9697 178.786 14.248 178.779 13.5264C177.579 12.9815 176.32 12.5544 175.053 12.1936C175.06 11.7445 175.016 11.2953 175.001 10.8388C176.142 11.0523 177.253 11.4131 178.349 11.7886C178.423 11.7886 178.564 11.8991 178.601 11.796C178.46 11.0891 178.223 10.4117 177.92 9.76369C176.838 9.49124 175.742 9.28506 174.646 9.13779C174.535 8.76962 174.32 8.4309 174.238 8.06273C174.994 8.16581 175.764 8.22472 176.52 8.37199C176.705 8.40881 176.897 8.44563 177.097 8.45299C176.69 7.87128 176.186 7.34847 175.623 6.91403C175.52 6.83303 175.401 6.7373 175.26 6.75203C174.601 6.72994 173.949 6.70785 173.29 6.72258C173.083 6.53849 172.905 6.32495 172.698 6.14823C172.638 6.08195 172.52 6.03041 172.527 5.92732C172.994 5.89787 173.46 5.90523 173.927 5.89787C173.749 5.70642 173.475 5.65487 173.246 5.54442C172.453 5.22043 171.624 4.9848 170.772 4.88907C170.394 4.71235 169.987 4.61663 169.616 4.44727Z" fill="#003399"/>
<path fill-rule="evenodd" clip-rule="evenodd" d="M162.29 5.15477C163.816 4.89705 165.438 4.91914 166.89 5.49349C167.987 5.92794 168.986 6.68637 169.557 7.73198C170.305 9.09423 170.342 10.7436 170.023 12.2311C169.549 14.3444 168.446 16.281 167.09 17.9598C165.609 19.7565 163.831 21.3028 161.839 22.5178C161.735 22.5841 161.616 22.6356 161.505 22.6798C161.513 21.2734 161.505 19.867 161.505 18.4606C162.142 19.1969 162.705 19.9922 163.327 20.7432C163.639 20.618 163.883 20.3382 164.142 20.1247C163.283 19.2264 162.439 18.3206 161.587 17.4149C161.468 17.3266 161.461 17.1278 161.594 17.0541C162.046 16.686 162.446 16.2589 162.839 15.8318C163.979 16.5608 165.076 17.356 166.142 18.1807C166.357 17.9304 166.572 17.6874 166.772 17.4297C166.801 17.3708 166.935 17.2677 166.838 17.2088C165.705 16.4945 164.542 15.8244 163.342 15.2354C163.698 14.7935 164.001 14.3076 164.268 13.8068C165.416 14.1456 166.542 14.5506 167.653 15.0071C167.853 15.0881 168.038 15.1985 168.253 15.2427C168.438 14.8745 168.631 14.5137 168.801 14.1382C167.461 13.6522 166.075 13.284 164.668 13.0263C164.809 12.6802 164.957 12.3341 165.024 11.966C166.475 12.047 167.927 12.2237 169.349 12.5477C169.453 12.1132 169.579 11.6788 169.601 11.2296C168.149 11.0897 166.683 11.0529 165.224 11.0897C165.261 10.8025 165.276 10.5154 165.305 10.2282C166.757 10.1177 168.216 10.0662 169.675 10.1325C169.638 9.74957 169.616 9.35931 169.483 8.9985C168.053 9.00586 166.631 9.24886 165.224 9.48449C165.179 9.26359 165.12 9.04268 165.053 8.82178C166.394 8.46833 167.779 8.26952 169.157 8.12225C169.001 7.81298 168.809 7.51844 168.586 7.25336C167.305 7.48163 166.053 7.86453 164.816 8.25479C164.72 8.06334 164.594 7.87925 164.453 7.70989C165.557 7.22391 166.727 6.91464 167.905 6.64219C167.609 6.36974 167.253 6.17093 166.89 6.0163C165.883 6.28875 164.935 6.75264 164.001 7.20918C163.868 7.084 163.72 6.98827 163.572 6.89255C163.572 6.80419 163.676 6.7821 163.735 6.73792C164.424 6.3182 165.164 5.97948 165.92 5.69231C165.416 5.53031 164.883 5.4714 164.357 5.44195C163.779 5.70703 163.253 6.08993 162.735 6.45074C162.535 6.37711 162.327 6.3182 162.127 6.27402C162.409 5.95739 162.779 5.74385 163.12 5.49349C162.579 5.47876 162.046 5.61867 161.513 5.68494C161.513 5.62603 161.513 5.50822 161.513 5.45667C161.394 5.44931 161.283 5.44931 161.165 5.44195C161.513 5.27259 161.913 5.24313 162.29 5.15477Z" fill="#003399"/>
<path fill-rule="evenodd" clip-rule="evenodd" d="M175.46 5.89062C175.786 5.92744 176.09 6.05262 176.408 6.15571C177.564 6.53125 178.668 7.11296 179.549 7.95239C180.364 8.73292 181.053 9.65336 181.579 10.6474C182.771 12.8859 183.119 15.5368 182.66 18.0256C182.142 20.7869 180.882 23.3715 179.305 25.6836C176.964 29.0708 173.905 31.9352 170.498 34.24H166.927C166.52 33.5625 166.105 32.8851 165.698 32.2003C167.209 31.3756 168.69 30.4699 170.053 29.4243C170.794 30.3594 171.498 31.324 172.26 32.2371C172.727 31.8542 173.209 31.486 173.653 31.081C172.949 30.1164 172.186 29.1886 171.379 28.305C172.475 27.3846 173.46 26.3463 174.394 25.2713C175.26 26.0886 176.06 26.9649 176.89 27.8264C177.431 27.3699 177.816 26.766 178.238 26.2064C177.416 25.3302 176.512 24.5349 175.646 23.7028C175.801 23.4599 176.001 23.2463 176.171 23.0107C176.727 22.2817 177.164 21.4717 177.616 20.6765C177.853 20.7722 178.031 20.9636 178.231 21.1035C178.949 21.6411 179.638 22.2228 180.334 22.7898C180.645 22.1344 181.023 21.4938 181.223 20.7869C180.371 20.0579 179.453 19.4026 178.512 18.7988C178.86 17.952 179.171 17.0757 179.327 16.1774C180.305 16.6339 181.193 17.2598 182.09 17.8563C182.26 17.0168 182.327 16.1627 182.312 15.3085C181.445 14.7931 180.571 14.3071 179.645 13.9021C179.653 13.3498 179.608 12.7976 179.564 12.2453C180.416 12.584 181.253 12.9669 182.068 13.3866C181.971 12.584 181.668 11.8256 181.342 11.0892C181.26 10.942 181.208 10.7431 181.023 10.6916C180.334 10.456 179.645 10.2203 178.942 10.0142C178.757 9.57972 178.542 9.15264 178.29 8.74765C178.949 8.88755 179.608 9.05691 180.238 9.31464C179.556 8.40893 178.682 7.63577 177.69 7.06878C177.379 6.87733 176.971 7.00987 176.66 6.82578C176.305 6.47234 175.905 6.15571 175.46 5.89062Z" fill="#003399"/>
<path fill-rule="evenodd" clip-rule="evenodd" d="M161.506 6.43555C162.757 6.59018 163.979 7.29707 164.565 8.43105C165.142 9.66811 165.046 11.1113 164.587 12.3705C164.091 13.718 163.291 14.9477 162.283 15.9786C162.024 16.229 161.794 16.5161 161.506 16.7297C161.513 16.1406 161.491 15.5589 161.52 14.9698C161.728 15.0876 161.913 15.2496 162.135 15.3306C162.305 15.2054 162.424 15.0213 162.565 14.8593C162.231 14.6458 161.868 14.4912 161.506 14.3292C161.506 13.9021 161.506 13.475 161.506 13.0479C162.165 13.1142 162.802 13.3425 163.431 13.5487C163.55 13.3351 163.676 13.1142 163.757 12.8786C163.009 12.7608 162.276 12.5619 161.52 12.5546C161.513 12.3116 161.513 12.0686 161.52 11.8256C162.402 11.7961 163.283 11.833 164.165 11.9066C164.246 11.6636 164.313 11.4132 164.357 11.1555C163.409 11.1334 162.461 11.266 161.52 11.3396C161.52 11.1555 161.528 10.9641 161.52 10.78C162.476 10.5738 163.439 10.4192 164.417 10.3382C164.417 10.1246 164.402 9.9111 164.394 9.69756C163.417 9.8301 162.461 10.1246 161.528 10.4413C161.52 10.2645 161.52 10.0878 161.52 9.90374C162.402 9.55029 163.298 9.24103 164.224 9.03485C164.179 8.86549 164.12 8.70349 164.046 8.54886C163.157 8.77713 162.343 9.20421 161.513 9.57975C161.513 9.38093 161.513 9.18212 161.52 8.98331C162.217 8.64459 162.905 8.31323 163.617 8.00396C163.491 7.86406 163.35 7.73152 163.202 7.62106C162.639 7.94506 162.068 8.26905 161.52 8.60777C161.513 8.40895 161.52 8.21751 161.52 8.01869C161.824 7.82724 162.128 7.62843 162.446 7.45907C162.513 7.40016 162.631 7.38543 162.661 7.28971C162.454 7.16453 162.231 7.0688 161.994 7.01726C161.817 7.08353 161.691 7.2308 161.513 7.29707C161.506 7.0099 161.506 6.72272 161.506 6.43555Z" fill="#003399"/>
<path fill-rule="evenodd" clip-rule="evenodd" d="M181.438 9.67578C181.838 9.8525 182.357 9.88196 182.608 10.2869C183.89 11.767 184.808 13.5563 185.238 15.4561C185.719 17.5031 185.623 19.6533 185.119 21.6782C184.282 25.117 182.342 28.1728 180.105 30.8826C179.09 32.0313 178.031 33.1505 176.875 34.1593C176.616 34.1519 176.349 34.174 176.09 34.1446C175.468 33.3567 174.883 32.5393 174.231 31.7883C175.409 30.7942 176.483 29.6823 177.475 28.5042C178.135 29.2405 178.779 29.9842 179.401 30.75C179.675 30.5438 179.868 30.2493 180.105 30.0063C180.342 29.697 180.616 29.4172 180.801 29.0785C180.794 28.8944 180.608 28.784 180.505 28.6514C179.964 28.0255 179.409 27.407 178.831 26.8179C179.394 26.1037 179.883 25.3305 180.371 24.5647C180.586 24.2113 180.794 23.8652 180.971 23.4896C181.268 23.6369 181.475 23.9094 181.727 24.1229C182.179 24.5647 182.623 25.0139 183.06 25.4704C183.475 24.8077 183.734 24.0787 184.016 23.3571C183.408 22.7017 182.764 22.0759 182.06 21.5162C181.957 21.4647 181.986 21.369 182.023 21.288C182.386 20.3896 182.705 19.4618 182.853 18.5046C183.053 18.5488 183.194 18.7108 183.364 18.8212C183.882 19.1967 184.357 19.6238 184.838 20.0509C184.986 19.0937 185.053 18.1217 184.979 17.1571C184.401 16.6858 183.808 16.2293 183.194 15.8243C183.142 15.1984 183.149 14.5725 183.045 13.9466C183.579 14.2338 184.075 14.5725 184.608 14.8597C184.349 13.8582 183.927 12.901 183.408 12.0026C183.327 11.8627 183.26 11.7081 183.142 11.5976C182.868 11.4356 182.564 11.3326 182.283 11.1927C182.194 11.1558 182.164 11.0527 182.127 10.9791C181.934 10.5226 181.668 10.1102 181.438 9.67578Z" fill="#003399"/>
<path fill-rule="evenodd" clip-rule="evenodd" d="M184 11.708C184.289 11.7448 184.452 12.032 184.645 12.2161C186.074 13.7698 187.015 15.7432 187.393 17.8123C187.83 20.0582 187.66 22.385 187.082 24.5941C186.171 28.1948 184.208 31.4568 181.764 34.2402H177.371C177.578 33.9972 177.83 33.7984 178.06 33.5775C178.571 33.0768 179.053 32.5392 179.519 32.0017C179.675 31.8397 179.786 31.6262 179.986 31.5157C180.534 32.1858 181.052 32.8853 181.571 33.5775C182.089 33.0252 182.534 32.3993 183.001 31.8029C182.504 31.096 181.978 30.4038 181.415 29.7485C182.267 28.5998 183.045 27.3922 183.726 26.133C184.267 26.7221 184.734 27.3775 185.208 28.0181C185.637 27.3186 185.919 26.5454 186.171 25.7722C185.741 25.1242 185.245 24.5204 184.741 23.924C185.126 22.9005 185.408 21.8328 185.586 20.7503C186.104 21.1701 186.511 21.7002 186.963 22.1789C187.119 21.0891 187.156 19.9772 187.06 18.88C186.674 18.5045 186.304 18.1069 185.867 17.7976C185.823 17.0539 185.712 16.3175 185.615 15.5812C185.904 15.7947 186.178 16.0156 186.467 16.2144C186 14.727 185.2 13.3574 184.223 12.1351C184.141 12.0025 183.993 11.8847 184 11.708Z" fill="#003399"/>
<path fill-rule="evenodd" clip-rule="evenodd" d="M187.564 17.0752C187.838 17.2077 187.919 17.517 188.038 17.7747C188.482 18.8056 188.845 19.8733 188.986 20.9852C189.126 22.1854 188.993 23.4004 188.83 24.5933C188.534 26.5372 187.949 28.437 187.127 30.2263C186.512 31.6033 185.741 32.8993 184.919 34.1584C184.786 34.1658 184.653 34.1658 184.527 34.1658C184.216 33.6209 183.845 33.1055 183.542 32.5458C184.356 31.3677 185.149 30.1601 185.793 28.8788C185.808 28.8788 185.845 28.8862 185.867 28.8862C186.134 29.2617 186.356 29.6667 186.593 30.0643C186.749 29.8508 186.823 29.5931 186.934 29.3575C187.164 28.8126 187.386 28.2603 187.534 27.6859C187.297 27.2957 187.067 26.8981 186.845 26.5004C187.186 25.418 187.541 24.3208 187.712 23.1869C187.712 23.047 187.83 23.1795 187.86 23.2237C188.023 23.4372 188.186 23.6508 188.371 23.8496C188.578 22.7598 188.66 21.6479 188.608 20.5434C188.43 20.2488 188.208 19.9838 187.993 19.7187C187.897 19.6156 187.919 19.4757 187.897 19.3505C187.838 18.5921 187.727 17.8263 187.564 17.0752Z" fill="#003399"/>
<path fill-rule="evenodd" clip-rule="evenodd" d="M189.445 23.9168C189.482 23.7989 189.423 23.4234 189.63 23.5265C189.852 25.3895 189.482 27.2598 189.023 29.0638C188.512 30.8458 187.875 32.613 186.971 34.2403H185.282C185.364 33.99 185.541 33.7838 185.675 33.5555C186.223 32.7014 186.682 31.803 187.164 30.9121C187.319 31.1624 187.453 31.4201 187.571 31.6852C187.919 31.0004 188.127 30.2567 188.378 29.5351C188.556 29.1154 188.023 28.7472 188.208 28.3348C188.623 27.245 188.882 26.1111 189.089 24.9697C189.171 24.9918 189.23 25.0655 189.297 25.117C189.364 24.7194 189.401 24.3144 189.445 23.9168Z" fill="#003399"/>
<path fill-rule="evenodd" clip-rule="evenodd" d="M189.608 27.8859L189.727 27.8564C189.549 29.9992 189.157 32.1567 188.349 34.1596C188.023 34.1596 187.697 34.1596 187.379 34.1596C187.571 33.7325 187.786 33.3201 187.979 32.8931C187.979 32.8268 188.09 32.709 188.112 32.8341C188.157 32.871 188.149 33.0551 188.231 33.0182C188.786 31.3394 189.223 29.6163 189.608 27.8859Z" fill="#003399"/>
<path fill-rule="evenodd" clip-rule="evenodd" d="M161.505 33.8945C162.565 33.5705 163.602 33.1655 164.609 32.709C164.898 33.2171 165.194 33.7178 165.461 34.2406H161.498C161.505 34.1228 161.505 34.0123 161.505 33.8945Z" fill="#003399"/>
<path fill-rule="evenodd" clip-rule="evenodd" d="M171.476 33.9457C171.942 33.6511 172.35 33.2682 172.809 32.959C173.076 33.3934 173.402 33.7911 173.624 34.2402H171.076C171.202 34.1371 171.335 34.0341 171.476 33.9457Z" fill="#003399"/>
</svg>
