<svg width="199" height="41" viewBox="0 0 199 41" fill="none" xmlns="http://www.w3.org/2000/svg">
<path fill-rule="evenodd" clip-rule="evenodd" d="M195.827 38.3779C195.827 37.4722 196.507 36.793 197.413 36.793C198.32 36.793 199 37.4722 199 38.3779C199 39.2835 198.32 39.9628 197.413 39.9628C196.507 39.9628 195.827 39.2835 195.827 38.3779ZM198.773 38.3779C198.773 37.5854 198.093 37.0194 197.413 37.0194C196.62 37.0194 196.053 37.5854 196.053 38.3779C196.053 39.1703 196.733 39.7364 197.413 39.7364C198.207 39.7364 198.773 39.1703 198.773 38.3779ZM198.206 39.2835H197.866L197.3 38.4911H196.96V39.2835H196.733V37.4722H197.526C197.866 37.4722 198.206 37.5854 198.206 37.925C198.206 38.2647 197.98 38.3779 197.64 38.3779L198.206 39.2835ZM197.413 38.1515C197.64 38.1515 197.98 38.1515 197.98 37.9251C197.98 37.6986 197.753 37.6986 197.526 37.6986H197.073V38.1515H197.413Z" fill="#005A9F"/>
<path fill-rule="evenodd" clip-rule="evenodd" d="M127.606 28.755C125.906 28.755 125.339 30.6795 125.339 32.038H129.759C129.872 30.6795 129.419 28.755 127.606 28.755ZM127.606 27.7363C132.366 27.7363 133.839 31.2457 133.952 33.2835H125.339C125.226 35.774 126.586 38.491 129.532 38.491C131.459 38.491 132.592 37.1325 133.045 36.3401L133.725 36.6797C132.932 38.491 131.006 40.5287 127.493 40.5287C124.433 40.5287 121.26 38.3778 121.26 34.1891C121.26 29.7741 124.773 27.7363 127.606 27.7363Z" fill="#005A9F"/>
<path fill-rule="evenodd" clip-rule="evenodd" d="M104.601 28.529C105.734 28.529 110.267 28.0761 110.267 28.0761V29.8874C111.74 28.8686 113.327 27.7365 115.254 28.0761C118.087 28.6422 118.54 30.9063 118.54 32.378C118.54 32.378 118.54 37.0195 118.54 37.5855C118.54 38.2647 118.88 39.2836 120.126 39.2836V39.8496H112.874V39.2836C113.554 39.2836 114.46 39.0572 114.46 37.5855C114.46 36.7931 114.46 33.6233 114.46 32.4912C114.46 31.3591 114.007 30.6799 113.214 30.3403C112.08 29.8874 110.947 30.5667 110.154 31.3591C110.154 31.3591 110.154 37.0195 110.154 37.5855C110.154 38.2647 110.381 39.3968 111.74 39.3968V39.9628H104.714C104.714 39.9628 104.714 39.51 104.714 39.3968C105.508 39.3968 106.301 39.0572 106.301 37.5855C106.301 37.5855 106.301 31.6987 106.301 31.0195C106.301 29.661 105.961 29.2082 104.601 29.2082C104.601 29.095 104.601 28.529 104.601 28.529Z" fill="#005A9F"/>
<path fill-rule="evenodd" clip-rule="evenodd" d="M66.8641 39.8498L67.0908 39.2838C65.1643 39.2838 64.9376 37.246 64.371 35.8876L59.838 23.7744H56.8916L51.792 36.7932C51.4521 37.5857 50.9988 38.6045 50.2055 39.0573C49.9789 39.397 49.0723 39.2838 49.0723 39.2838V39.8498H54.8518V39.2838C54.2852 39.2838 53.7185 39.1706 53.3786 38.6045C53.0386 37.1328 53.8319 35.7743 54.2852 34.5291H59.3847L60.4047 37.3592C60.518 37.8121 60.6313 38.3781 60.2913 38.8309C59.9514 39.2838 59.2714 39.2838 58.8181 39.397V39.8498H66.8641ZM54.7384 33.2836L56.8916 27.7364L58.9314 33.2836H54.7384Z" fill="#005A9F"/>
<path fill-rule="evenodd" clip-rule="evenodd" d="M75.7037 39.3968C75.7037 39.3968 76.4969 39.3968 76.6102 39.1704C77.1769 38.944 77.4035 38.378 77.4035 37.8119V30.0007C77.0635 28.8686 76.2703 28.9818 75.7037 28.8686C75.7037 28.7554 75.7037 28.529 75.7037 28.4158L81.2565 28.1894V31.3591C82.3898 30.0007 83.523 27.5101 85.7895 28.1894L86.5828 28.529C86.3561 29.8875 86.0161 31.2459 85.7895 32.4912C84.7696 31.812 83.523 30.9063 82.2764 31.6988C81.8232 32.0384 81.4832 32.4912 81.2565 32.944V37.8119C81.2565 38.4912 81.5965 39.0572 82.0498 39.2836C82.5031 39.51 82.9564 39.51 82.9564 39.51V40.0761H75.5903L75.7037 39.3968Z" fill="#005A9F"/>
<path fill-rule="evenodd" clip-rule="evenodd" d="M67.0909 39.2827C68.2241 39.2827 68.6774 38.6034 68.6774 37.0185V30.7922C68.6774 30.5657 68.6774 29.6601 68.2241 29.3205C67.8842 28.9809 67.3176 28.8676 66.8643 28.8676V28.3016L72.5305 28.0752V37.1317C72.5305 39.2827 73.437 39.3959 74.2303 39.3959V39.9619H66.9776L67.0909 39.2827Z" fill="#005A9F"/>
<path fill-rule="evenodd" clip-rule="evenodd" d="M86.6963 39.2833C87.3762 39.2833 88.5095 39.0569 88.5095 37.3588C88.5095 36.906 88.5095 27.2834 88.5095 25.8117C88.5095 24.6796 88.1695 24.0004 86.6963 24.1136V23.5476L92.5891 23.0947C92.5891 23.0947 92.5891 34.6418 92.5891 37.3588C92.5891 39.0569 93.3824 39.2833 94.289 39.2833V39.8493H86.6963C86.6963 39.9626 86.6963 39.2833 86.6963 39.2833Z" fill="#005A9F"/>
<path fill-rule="evenodd" clip-rule="evenodd" d="M95.7618 39.2827C96.895 39.2827 97.4616 38.6034 97.4616 37.0185C97.4616 34.3016 97.4616 30.7922 97.4616 30.7922C97.4616 30.5657 97.4616 29.6601 97.0083 29.3205C96.6684 28.9809 96.1017 28.9809 95.6484 28.8676V28.3016L101.315 28.0752C101.315 28.0752 101.315 35.3204 101.315 37.0185C101.315 39.1695 102.221 39.2827 103.014 39.2827V39.8487H95.7618V39.2827Z" fill="#005A9F"/>
<path fill-rule="evenodd" clip-rule="evenodd" d="M99.1615 26.7169C100.408 26.7169 101.315 25.8112 101.315 24.566C101.315 23.4339 100.295 22.415 99.1615 22.415C97.9149 22.415 97.0083 23.3207 97.0083 24.566C97.0083 25.8112 98.0282 26.7169 99.1615 26.7169Z" fill="#005A9F"/>
<path fill-rule="evenodd" clip-rule="evenodd" d="M70.4906 26.7169C71.7371 26.7169 72.6437 25.8112 72.6437 24.566C72.6437 23.4339 71.6238 22.415 70.4906 22.415C69.244 22.415 68.3374 23.3207 68.3374 24.566C68.3374 25.8112 69.244 26.7169 70.4906 26.7169Z" fill="#005A9F"/>
<path fill-rule="evenodd" clip-rule="evenodd" d="M136.105 35.7741C137.012 35.4345 136.672 36.6798 137.238 37.0194C138.258 38.4911 139.731 39.8496 141.658 39.3968C142.111 39.1704 142.564 38.9439 142.791 38.4911C143.018 37.8119 142.791 37.1326 142.338 36.6798C140.298 35.0949 136.558 35.3213 136.218 32.0383C136.105 30.793 136.672 29.661 137.578 28.8685C139.391 27.51 142.338 27.8497 144.264 28.5289C144.944 28.7553 145.058 27.8497 145.624 27.9629L145.738 31.5855H145.171C144.718 30.3402 143.471 29.0949 142.111 28.6421C141.431 28.4157 140.638 28.5289 140.071 28.7553C139.618 28.9817 139.278 29.4346 139.278 29.8874C139.278 30.4534 139.505 30.9063 140.071 31.2459C142.451 32.2647 146.191 32.7176 146.304 36.1138C146.417 37.359 145.851 38.3779 144.831 39.1704C142.904 40.8685 139.731 40.3024 137.578 39.6232C137.238 39.6232 136.898 39.7364 136.672 40.076V40.1892H136.218C136.218 38.7175 136.105 37.2458 136.105 35.7741Z" fill="#005A9F"/>
<path fill-rule="evenodd" clip-rule="evenodd" d="M194.354 0.90625V39.9626H186.308C188.007 35.4344 188.461 29.8872 187.214 25.0193C185.741 18.7929 181.661 12.9062 175.995 9.28356C170.556 5.88735 163.643 4.41566 156.843 5.88735L155.257 6.22697V0.90625H194.354ZM166.023 7.01922C163.983 5.88716 161.15 5.66074 158.77 6.11357L159.676 6.22678L159.79 6.11357C160.923 6.00036 162.17 6.11357 163.189 6.33998C162.849 6.45319 162.283 6.6796 161.83 6.79281C162.056 6.90602 162.396 7.01922 162.623 7.13243C163.076 7.01922 163.983 6.6796 164.436 6.6796C164.889 6.79281 165.909 7.24564 166.589 7.81167C165.796 7.92488 164.776 8.03809 163.869 8.2645C164.096 8.49091 164.209 8.60412 164.436 8.83053C165.229 8.71733 166.476 8.49091 167.496 8.49091C168.062 8.94374 168.516 9.50978 168.742 10.0758C167.609 9.9626 166.023 9.9626 165.116 10.0758C165.229 10.189 165.343 10.6418 165.456 10.9815C166.589 10.9815 168.516 10.9815 169.309 11.0947C169.536 11.7739 169.762 12.4532 169.762 13.1324C168.402 12.906 166.816 12.6796 165.683 12.5664C165.683 12.906 165.683 13.3588 165.683 13.6984C167.156 13.8116 168.516 14.1513 169.876 14.4909C169.876 15.1701 169.762 16.0758 169.536 16.755C168.402 16.4154 166.702 15.8494 165.229 15.5097C165.116 16.0758 164.889 16.6418 164.663 17.3211C166.136 17.7739 167.496 18.4531 168.856 19.1324C168.629 19.8116 168.289 20.4908 168.062 21.0569C166.702 20.2644 165.343 19.5852 163.869 18.9059C163.416 19.6984 162.963 20.4908 162.396 21.1701C163.756 21.9625 165.003 22.8682 166.249 23.7738C165.909 24.3399 165.343 25.0191 165.003 25.3587C163.756 24.3399 161.263 22.4154 161.263 22.4154C160.47 23.321 159.903 24.0003 158.996 24.6795C160.016 25.6984 161.376 27.1701 162.17 28.3021C161.716 28.7549 161.263 29.0946 160.81 29.4342C159.79 28.1889 158.543 26.604 157.863 25.5852C156.843 26.3776 156.277 26.8304 155.257 27.2833V28.7549L156.843 32.0379C156.503 32.2644 156.163 32.3776 155.71 32.604L155.257 31.6983V33.3964C161.49 30.6795 167.836 24.5663 169.649 17.8871C170.329 15.6229 170.442 12.6796 169.309 10.5286C168.742 9.05695 167.382 7.69847 166.023 7.01922ZM165.116 6.00034C165.343 6.11355 165.683 6.22676 165.909 6.33996H166.023C167.382 6.56638 168.629 7.0192 169.762 7.58524C169.196 7.58524 168.516 7.58524 167.836 7.58524C168.062 7.81165 168.402 8.03807 168.629 8.37769C169.422 8.37769 170.329 8.37769 171.122 8.37769C171.915 8.94372 172.709 9.73617 173.162 10.5286C172.255 10.3022 171.009 10.189 169.876 10.0758C169.989 10.4154 170.216 10.755 170.329 11.0947C171.575 11.3211 172.822 11.5475 174.069 11.7739C174.522 12.5663 174.749 13.472 174.862 14.3777C173.502 13.9248 172.142 13.472 170.782 13.1324C170.782 13.5852 170.782 14.038 170.782 14.4909C172.255 14.9437 173.615 15.3965 175.089 16.0758C175.089 16.9814 174.975 17.8871 174.749 18.7927C173.389 18.1135 171.915 17.4342 170.442 16.8682C170.216 17.6607 169.989 18.4531 169.762 19.2455C171.122 19.9248 172.595 20.7172 173.955 21.6229C173.729 22.3021 173.389 23.0946 172.935 23.7738C171.575 22.8682 170.329 21.9625 168.969 21.2833C168.516 22.3021 167.949 23.2078 167.269 24.1134C168.516 25.0191 169.762 26.038 170.896 27.17C170.556 27.7361 169.989 28.4153 169.422 28.9813C168.516 28.0757 167.156 26.8304 165.909 25.8115C165.116 26.8304 164.096 27.9625 163.076 28.7549C163.869 29.5474 166.136 32.2643 166.136 32.2643C165.683 32.7172 165.116 33.17 164.549 33.6228C164.549 33.6228 162.283 30.6794 161.603 29.887C160.243 31.0191 159.11 31.6983 157.523 32.604C158.203 33.736 159.79 36.6794 159.79 36.6794C159.336 36.9058 158.997 37.1322 158.543 37.3587C157.75 36.1134 156.957 34.3021 156.39 33.2832C155.937 33.5096 155.483 33.736 155.483 33.736V39.0568C160.356 37.4719 164.776 34.7549 168.516 30.6794C171.915 26.9436 174.635 22.9814 175.428 18.1135C176.108 14.2644 174.749 10.6418 171.802 8.26448C169.762 6.906 167.496 6.33996 165.116 6.00034ZM163.529 8.60458C161.376 6.45365 158.203 6.34044 155.257 6.90648V7.13289C155.823 7.01968 156.617 6.90648 157.297 6.90648C156.843 7.13289 156.39 7.47251 155.937 7.81213C156.163 7.81213 156.277 7.92534 156.503 7.92534C157.183 7.47251 157.75 7.01968 158.317 6.79327C158.996 6.79327 159.903 6.90648 160.47 7.13289C159.563 7.47251 158.43 8.03854 157.637 8.49137C157.75 8.60458 157.863 8.71779 157.977 8.83099C158.883 8.37816 160.13 7.81213 161.263 7.47251C161.716 7.69892 162.283 8.03854 162.623 8.37816C161.263 8.71779 159.903 9.05741 158.656 9.62344C158.77 9.73665 158.883 9.96306 158.996 10.1895C159.903 9.84985 161.83 9.28382 163.303 9.05741C163.529 9.39703 163.869 9.84985 164.096 10.1895C162.509 10.3027 160.583 10.6423 159.45 10.9819C159.563 11.2083 159.563 11.4348 159.563 11.548C161.036 11.2083 162.736 10.9819 164.436 10.9819C164.549 11.4348 164.663 12.0008 164.663 12.4536C163.076 12.3404 161.15 12.4536 159.676 12.5668C159.676 12.7932 159.676 13.1329 159.676 13.3593C161.15 13.3593 162.849 13.3593 164.663 13.5857C164.549 14.0385 164.436 14.7178 164.323 15.2838C162.623 14.9442 161.036 14.7178 159.336 14.6045C159.223 14.9442 159.11 15.2838 158.996 15.6234C160.583 15.963 162.17 16.3026 163.756 16.8687C163.529 17.3215 163.303 17.8875 163.076 18.3404C161.943 17.7743 159.903 16.9819 158.543 16.6423C158.317 17.0951 157.977 17.6611 157.637 18.114C158.656 18.5668 160.47 19.5856 161.716 20.4913C161.376 20.9441 161.036 21.2838 160.696 21.7366C159.45 20.8309 158.203 19.9253 156.957 19.0196C156.503 19.4724 156.05 20.0385 155.483 20.4913V20.6045L158.543 23.8875C158.203 24.2271 157.863 24.4535 157.523 24.7932L155.483 22.1894V26.7177C158.543 24.9064 161.716 21.963 163.529 18.7932C165.003 16.3026 166.023 12.7932 164.663 9.96306C164.096 9.39703 163.869 8.9442 163.529 8.60458ZM172.595 8.60412L173.502 8.71733C174.409 9.17015 175.202 9.84939 175.995 10.6418C176.222 10.9815 176.562 11.2079 176.788 11.5475C175.995 11.3211 175.315 11.0947 174.522 10.8683C174.749 11.3211 174.975 11.6607 175.202 12.1135C176.108 12.3399 176.902 12.6796 177.695 12.906C178.262 13.9248 178.602 15.0569 178.828 16.189C177.922 15.7362 176.902 15.2833 175.882 14.8305C175.995 15.3965 175.995 15.9626 175.995 16.5286C177.128 16.9814 178.262 17.6607 179.055 18.2267C179.055 19.0192 179.055 20.3776 178.715 21.2833C177.808 20.604 176.562 19.8116 175.542 19.3588C175.429 20.1512 175.089 21.3965 174.635 22.1889C175.655 22.8682 176.788 23.6606 177.808 24.4531C177.468 25.2455 177.128 26.1512 176.675 26.9436C175.655 26.038 174.635 25.2455 173.615 24.4531C173.049 25.5852 172.369 26.7172 171.462 27.8493C172.482 28.7549 173.502 29.6606 174.409 30.6795C173.955 31.3587 173.389 32.0379 172.822 32.7172C171.915 31.6983 170.896 30.6795 169.989 29.7738C168.969 30.9059 167.836 32.1512 166.703 33.17C167.269 33.736 168.402 35.0945 169.309 36.3398C168.742 36.7926 168.176 37.3587 167.609 37.8115L165.116 34.5285C163.53 35.7738 161.943 36.6794 160.243 37.5851L161.603 39.736H165.683C171.915 35.4342 177.582 29.2078 179.282 22.0757C180.301 17.7739 179.282 13.3588 176.335 10.0758C174.749 8.37771 172.935 7.81167 171.689 7.35884C171.915 7.92488 172.255 8.2645 172.595 8.60412ZM155.257 8.26451V9.05696L155.71 8.71734C156.05 8.83055 156.503 8.94375 156.73 9.17017C156.277 9.50979 155.71 9.7362 155.257 10.0758V10.5286C155.823 10.189 156.617 9.7362 157.07 9.39658C157.297 9.50979 157.523 9.7362 157.637 9.96261C156.843 10.3022 155.71 10.8683 155.144 11.0947V11.5475C156.05 11.0947 157.07 10.6419 157.977 10.4154C158.09 10.6419 158.203 10.8683 158.317 11.0947C157.297 11.3211 156.163 11.6607 155.257 12.1135V12.5664C156.277 12.2268 157.637 11.8871 158.543 11.7739C158.657 12.1135 158.657 12.4532 158.657 12.6796C157.297 12.7928 156.39 12.906 155.37 13.1324V13.5852C156.39 13.472 157.977 13.3588 158.657 13.3588C158.543 13.6984 158.543 14.0381 158.43 14.3777C157.637 14.2645 156.39 14.2645 155.484 14.2645V14.9437C156.39 14.9437 157.297 15.1701 158.09 15.3965C157.977 15.623 157.75 16.0758 157.637 16.3022C157.07 16.0758 156.163 15.8494 155.484 15.7362V17.0946C155.937 17.3211 156.503 17.5475 156.73 17.7739C156.617 18.0003 156.277 18.3399 156.163 18.4531C155.937 18.2267 155.484 18.0003 155.484 18.0003V19.6984C156.163 19.0192 156.843 18.3399 157.41 17.5475C158.77 15.623 159.903 13.0192 158.883 10.5286C158.09 9.28337 156.617 8.49092 155.257 8.26451ZM178.148 12.0007C178.488 12.4535 178.715 13.0195 178.942 13.4724L180.075 13.9252C180.868 15.1705 181.435 16.529 181.775 18.0006C181.208 17.661 180.528 17.2082 179.962 16.8686C180.075 17.5478 180.075 18.1138 180.075 18.7931C180.755 19.2459 181.435 19.812 182.115 20.378C182.228 21.6233 182.115 22.7553 181.888 23.8874C181.208 23.2082 180.415 22.5289 179.622 22.0761C179.395 23.095 179.055 24.227 178.602 25.3591C179.395 25.9251 180.188 26.7176 180.982 27.51C180.642 28.4157 180.302 29.3213 179.848 30.1138C179.055 29.3213 178.262 28.5289 177.468 27.7364C177.015 28.7553 175.995 30.227 175.089 31.4723C175.882 32.2647 176.675 33.1704 177.355 34.076C176.789 34.7553 176.222 35.5477 175.655 36.227C174.862 35.3213 174.182 34.5289 173.389 33.6232C172.256 34.9817 171.236 36.1137 169.762 37.2458C170.556 38.2647 171.916 39.9628 171.916 39.9628H172.596C173.955 38.8307 175.202 37.4722 176.335 36.1137C179.168 32.6043 181.435 28.8685 182.228 24.5666C183.135 20.0384 181.888 15.6233 178.828 12.3403L178.148 12.0007ZM180.981 14.2648C182.228 15.8497 183.361 17.6611 183.814 19.5856L182.794 18.7931C182.908 19.5856 183.021 20.2648 183.021 21.0573C183.474 21.3969 184.041 21.8497 184.381 22.4157C184.494 23.7742 184.494 25.1327 184.268 26.4912C183.814 25.9252 183.361 25.4723 182.681 24.7931C182.568 25.6987 182.115 27.2836 181.775 28.3025C182.341 28.9817 183.021 29.7742 183.474 30.4534C183.248 31.2459 182.794 32.2647 182.341 33.1704C181.775 32.4912 181.321 31.8119 180.641 31.0195C179.848 32.3779 179.055 33.7364 178.035 34.9817C178.715 35.7742 179.281 36.5666 179.848 37.3591C179.281 38.1515 178.715 38.8307 178.148 39.51C177.582 38.7175 176.902 37.9251 176.335 37.1326C175.428 38.1515 174.635 39.1704 173.615 40.076H178.375C181.435 36.4534 183.701 32.4912 184.608 28.0761C185.514 23.5478 184.834 18.7931 181.888 15.3969C181.548 14.9441 181.321 14.4913 180.981 14.2648ZM185.061 20.6042C185.288 21.5099 185.288 22.1891 185.401 23.3212C185.741 23.6608 186.194 24.3401 186.194 24.3401C186.194 25.6985 186.194 26.9438 185.854 28.3023L185.174 27.3966C184.948 28.6419 184.608 29.774 184.154 31.1325L184.948 32.491C184.721 33.2834 184.268 34.5287 183.814 35.4343C183.474 34.9815 183.248 34.4155 182.908 33.9626C182.228 35.3211 181.321 36.7928 180.415 38.0381L181.548 39.8494H181.775C184.494 35.774 186.308 31.3589 186.534 26.2646C186.647 24.1136 185.968 22.3023 185.174 20.491L185.061 20.6042ZM187.214 27.8493C187.101 28.5285 187.101 29.2078 186.988 29.887L186.761 29.5474C186.534 30.9059 186.194 32.2644 185.741 33.5096L186.081 34.4153C185.854 35.3209 185.514 36.3398 185.061 37.3587C184.948 37.019 184.721 36.6794 184.608 36.3398C184.041 37.5851 183.248 38.8304 182.568 39.8492H184.381C185.401 37.9247 186.081 35.887 186.648 33.8493C187.101 32.0379 187.441 30.0002 187.214 27.8493ZM187.328 32.8305C186.988 34.755 186.308 37.2455 185.741 38.9436C185.628 38.8304 185.628 38.7172 185.514 38.4908C185.288 39.0568 184.834 39.8493 184.834 39.8493H185.741C186.534 38.038 187.101 35.4342 187.328 32.8305ZM158.656 38.4909C157.523 39.0569 156.39 39.3965 155.257 39.8494V40.0758H159.563L158.656 38.4909ZM168.063 38.7173C167.609 39.0569 167.043 39.5097 166.363 39.9626H168.856C168.856 39.9626 168.403 39.1701 168.063 38.7173Z" fill="#005A9F"/>
<path fill-rule="evenodd" clip-rule="evenodd" d="M8.50234 1.13208C11.3354 1.13208 12.0154 2.03774 13.1486 2.03774C13.9419 2.03774 14.0552 1.47171 14.1685 1.24529H14.8485V7.13205H14.0552C13.8286 5.32074 12.582 2.49057 9.18228 2.49057C6.34918 2.49057 4.536 5.20753 4.536 9.05657C4.536 13.4716 6.68916 16.1886 9.86223 16.1886C11.7887 16.1886 13.6019 14.9433 14.7352 13.5848L15.5284 13.9245C14.1685 16.415 11.6754 17.9999 8.16237 17.9999C3.17611 17.9999 0.00303935 14.2641 0.00303935 9.50939C-0.110285 5.32074 2.94946 1.13208 8.50234 1.13208ZM23.9145 6.33967C21.7613 6.33967 20.968 8.60381 20.968 11.5472C20.968 14.8302 21.8746 16.7547 23.9145 16.7547C25.841 16.7547 26.8609 14.6038 26.8609 11.5472C26.8609 8.60381 25.9543 6.33967 23.9145 6.33967ZM23.9144 5.32051C28.7874 5.32051 31.2805 8.4903 31.2805 11.6601C31.2805 15.2827 28.1074 17.9997 24.0278 17.9997C19.4948 17.9997 16.775 15.1695 16.775 11.6601C16.775 8.3771 19.4948 5.32051 23.9144 5.32051ZM32.5269 6.00016C33.6602 6.00016 38.1931 5.54733 38.1931 5.54733V7.35864C39.6664 6.33978 41.2529 5.20771 43.1794 5.54733C46.0125 6.11337 46.4658 8.3775 46.4658 9.84919C46.4658 9.84919 46.4658 14.4907 46.4658 15.0567C46.4658 15.736 46.8058 16.7548 48.0523 16.7548V17.3208H40.7996V16.7548C41.4795 16.7548 42.3861 16.5284 42.3861 15.0567C42.3861 14.2643 42.3861 11.0945 42.3861 9.9624C42.3861 8.83033 41.9328 8.15109 41.1396 7.81147C40.0063 7.35864 38.8731 8.03788 38.0798 8.83033C38.0798 8.83033 38.0798 14.4907 38.0798 15.0567C38.0798 15.736 38.3065 16.868 39.6664 16.868V17.4341H32.5269C32.5269 17.4341 32.5269 16.9812 32.5269 16.868C33.3202 16.868 34.1135 16.5284 34.1135 15.0567C34.1135 15.0567 34.1135 9.16995 34.1135 8.49071C34.1135 7.13223 33.7735 6.6794 32.4136 6.6794C32.5269 6.56619 32.5269 6.00016 32.5269 6.00016ZM48.9589 6.67923C50.8854 5.43396 52.8119 3.39623 54.1718 1.81134H54.6251V5.99999H58.1381V7.35847H54.6251C54.6251 7.35847 54.6251 11.4339 54.6251 13.9245C54.6251 15.3962 55.1917 16.1886 56.3249 16.1886C56.8916 16.1886 57.4582 15.9622 57.7982 15.5094L58.3648 15.7358C57.4582 17.3207 55.985 17.9999 54.2851 17.9999C51.6787 17.9999 50.5454 16.3018 50.5454 14.3773C50.5454 12.7924 50.5454 7.24527 50.5454 7.24527H48.8456V6.67923H48.9589ZM91.4554 6.22618C89.7556 6.22618 89.189 8.15069 89.189 9.50918H93.6086C93.7219 8.2639 93.1553 6.22618 91.4554 6.22618ZM91.3421 5.32051C96.1017 5.32051 97.5749 8.82992 97.6882 10.8676H89.0756C88.9623 13.3582 90.3222 16.0752 93.2686 16.0752C95.1951 16.0752 96.3283 14.7167 96.7816 13.9242L97.4616 14.2639C96.6683 16.0752 94.7418 18.1129 91.2287 18.1129C88.169 18.1129 84.9959 15.962 84.9959 11.7733C85.1093 7.24503 88.6223 5.32051 91.3421 5.32051ZM132.819 14.9432V11.2073C130.439 11.9998 129.646 12.7922 129.646 14.6036C129.646 15.396 130.099 16.0752 131.005 16.0752C131.799 16.0752 132.479 15.396 132.819 14.9432ZM128.966 18C127.039 18 125.453 16.6415 125.453 14.8302C125.453 11.3208 130.779 10.4151 132.819 10.0755C132.819 7.69814 131.119 7.35852 129.986 7.35852C128.286 7.35852 127.379 8.49059 127.039 9.05662L126.359 8.717C126.813 7.35852 128.286 5.20759 131.572 5.20759C135.312 5.20759 136.785 7.13211 136.785 9.84907C136.785 9.84907 136.785 14.6038 136.785 15.3962C136.785 15.9622 137.012 16.0755 137.239 16.0755C137.578 16.0755 137.918 15.5094 138.032 15.283L138.712 15.6226C138.258 16.6415 137.125 18 135.652 18C134.065 18 133.385 16.9811 133.046 16.1887C132.366 16.7547 130.892 18 128.966 18ZM139.618 16.8678C140.298 16.8678 141.431 16.6414 141.431 14.9433C141.431 14.4905 141.431 4.86791 141.431 3.39622C141.431 2.26415 141.091 1.58491 139.618 1.69811V1.13208L145.511 0.679251C145.511 0.679251 145.511 12.2264 145.511 14.9433C145.511 16.6414 146.304 16.8678 147.211 16.8678V17.4339H139.618V16.8678ZM59.838 16.8679C60.9712 16.8679 61.5379 16.1887 61.5379 14.6038C61.5379 11.8868 61.5379 8.37739 61.5379 8.37739C61.5379 8.15097 61.5379 7.24532 61.0846 6.9057C60.7446 6.56608 60.178 6.56608 59.838 6.45287V5.88684L65.5042 5.66042C65.5042 5.66042 65.5042 12.9057 65.5042 14.6038C65.5042 16.6415 66.4108 16.8679 67.2041 16.8679V17.4339H59.9513V16.8679H59.838ZM63.3511 4.30186C64.5976 4.30186 65.5042 3.39621 65.5042 2.15093C65.5042 1.01886 64.4843 0 63.3511 0C62.1045 0 61.1979 0.905655 61.1979 2.15093C61.0846 3.39621 62.1045 4.30186 63.3511 4.30186ZM68.5641 6.00016C69.6973 6.00016 74.2303 5.54733 74.2303 5.54733V7.35864C75.7035 6.33978 77.2901 5.20771 79.2166 5.54733C82.0497 6.11337 82.503 8.3775 82.503 9.84919C82.503 9.84919 82.503 14.4907 82.503 15.0567C82.503 15.736 82.8429 16.7548 84.0895 16.7548V17.3208H76.8368V16.7548C77.5167 16.7548 78.4233 16.5284 78.4233 15.0567C78.4233 14.2643 78.4233 11.0945 78.4233 9.9624C78.4233 8.83033 77.97 8.15109 77.1767 7.81147C76.0435 7.35864 74.9102 8.03788 74.117 8.83033C74.117 8.83033 74.117 14.4907 74.117 15.0567C74.117 15.736 74.3436 16.868 75.7035 16.868V17.4341H68.5641C68.5641 17.4341 68.5641 16.9812 68.5641 16.868C69.3574 16.868 70.1506 16.5284 70.1506 15.0567C70.1506 15.0567 70.1506 9.16995 70.1506 8.49071C70.1506 7.13223 69.8107 6.6794 68.4508 6.6794C68.5641 6.56619 68.5641 6.00016 68.5641 6.00016ZM98.8216 6.00016C99.9548 6.00016 104.488 5.54733 104.488 5.54733V7.35864C105.961 6.33978 107.548 5.20771 109.474 5.54733C112.307 6.11337 112.76 8.3775 112.76 9.84919C112.76 9.84919 112.76 14.4907 112.76 15.0567C112.76 15.736 113.1 16.7548 114.347 16.7548V17.3208H107.094V16.7548C107.774 16.7548 108.681 16.5284 108.681 15.0567C108.681 14.2643 108.681 11.0945 108.681 9.9624C108.681 8.83033 108.227 8.15109 107.434 7.81147C106.301 7.35864 105.168 8.03788 104.374 8.83033C104.374 8.83033 104.374 14.4907 104.374 15.0567C104.374 15.736 104.601 16.868 105.961 16.868V17.4341H98.8216C98.8216 17.4341 98.8216 16.9812 98.8216 16.868C99.6149 16.868 100.408 16.5284 100.408 15.0567C100.408 15.0567 100.408 9.16995 100.408 8.49071C100.408 7.13223 100.068 6.6794 98.7083 6.6794C98.8216 6.56619 98.8216 6.00016 98.8216 6.00016ZM115.14 6.67923C117.067 5.43396 118.993 3.39623 120.353 1.81134H120.807V5.99999H124.32V7.35847H120.807C120.807 7.35847 120.807 11.4339 120.807 13.9245C120.807 15.3962 121.373 16.1886 122.506 16.1886C123.073 16.1886 123.64 15.9622 123.98 15.5094L124.546 15.7358C123.64 17.3207 122.166 17.9999 120.467 17.9999C117.86 17.9999 116.727 16.3018 116.727 14.3773C116.727 12.7924 116.727 7.24527 116.727 7.24527H115.027V6.67923H115.14Z" fill="#005A9F"/>
</svg>
