<svg width="200" height="32" viewBox="0 0 200 32" fill="none" xmlns="http://www.w3.org/2000/svg">
<path fill-rule="evenodd" clip-rule="evenodd" d="M53.8409 3.65723H53.022V28.082H62.8522C64.4195 28.082 65.8273 27.9406 67.0419 27.6702C68.2872 27.3936 69.376 26.9725 70.2717 26.4316C71.1734 25.8753 72.0107 25.1192 72.7652 24.1787C73.5106 23.226 74.1301 22.0304 74.6055 20.6074C75.0687 19.1905 75.3079 17.5585 75.3079 15.7513C75.3079 13.6214 74.9583 11.6943 74.2651 10.0224C73.5627 8.31045 72.4769 6.89051 71.0538 5.79021C69.9496 4.93271 68.6031 4.33031 67.0573 4.00453C65.9715 3.77709 64.4594 3.66337 62.4412 3.66337L53.8409 3.65723ZM62.3829 8.00029C64.2416 8.00029 65.5881 8.1386 66.3825 8.42136C67.4498 8.79632 68.3363 9.53395 69.0969 10.6711C69.8606 11.8052 70.2471 13.4987 70.2471 15.6993C70.2471 17.3098 70.0447 18.699 69.6398 19.8055C69.2503 20.8781 68.7074 21.7356 68.0295 22.3564C67.5695 22.7806 66.9223 23.1156 66.1095 23.3522C65.2538 23.6104 64.0269 23.7426 62.4688 23.7426C62.4688 23.7426 59.1287 23.7426 57.957 23.7426C57.957 22.3288 57.957 9.41409 57.957 8.00029C59.1195 8.00029 62.3829 8.00029 62.3829 8.00029Z" fill="#003D79"/>
<path fill-rule="evenodd" clip-rule="evenodd" d="M53.8408 27.2652V4.47852H62.4442C64.3888 4.47852 65.8702 4.58609 66.8916 4.80123C68.3239 5.10243 69.5477 5.64643 70.5537 6.43631C71.8726 7.45055 72.8572 8.74755 73.5105 10.3304C74.1669 11.9101 74.492 13.7235 74.492 15.752C74.492 17.4823 74.2681 19.016 73.8264 20.3499C73.3817 21.6899 72.8142 22.7933 72.118 23.6692C71.4248 24.5451 70.6672 25.2367 69.8483 25.7346C69.0202 26.2386 68.0264 26.6167 66.8609 26.881C65.6984 27.1391 64.3642 27.2652 62.8491 27.2652H53.8408ZM57.1411 24.5606H62.4657C64.1066 24.5606 65.401 24.4223 66.3395 24.1395C67.275 23.8629 68.0203 23.4664 68.5755 22.9593C69.3576 22.2493 69.9649 21.2873 70.4066 20.0825C70.8452 18.8716 71.0599 17.4117 71.0599 15.6936C71.0599 13.3178 70.6305 11.4891 69.7747 10.2106C68.919 8.93201 67.8792 8.07758 66.6493 7.64115C65.766 7.32766 64.3428 7.17706 62.3798 7.17706H57.138V24.5575H57.1411V24.5606Z" fill="#003D79"/>
<path fill-rule="evenodd" clip-rule="evenodd" d="M105.618 3.65723H89.5029V28.082H106.98V23.7423C106.98 23.7423 95.5667 23.7423 94.1343 23.7423C94.1343 22.5867 94.1343 18.7756 94.1343 17.623C95.5422 17.623 105.596 17.623 105.596 17.623V13.2772C105.596 13.2772 95.5422 13.2772 94.1343 13.2772C94.1343 12.1799 94.1343 9.1034 94.1343 8.00003C95.5544 8.00003 106.437 8.00003 106.437 8.00003V3.65723H105.618Z" fill="#003D79"/>
<path fill-rule="evenodd" clip-rule="evenodd" d="M90.3218 27.2652V4.47852H105.618V7.18316H93.3184V14.0984H104.78V16.8H93.3184V24.5574H106.161V27.2621H90.3218V27.2652Z" fill="#003D79"/>
<path fill-rule="evenodd" clip-rule="evenodd" d="M126.741 3.65723H122.926V28.082H138.715V23.7423C138.715 23.7423 128.959 23.7423 127.554 23.7423C127.554 22.2332 127.554 3.65723 127.554 3.65723H126.741Z" fill="#003D79"/>
<path fill-rule="evenodd" clip-rule="evenodd" d="M123.741 27.2652V4.47852H126.744V24.5605H137.908V27.2652H123.741Z" fill="#003D79"/>
<path fill-rule="evenodd" clip-rule="evenodd" d="M165.853 3.65723H147.03V8.00003C147.03 8.00003 153.235 8.00003 154.536 8.00003C154.536 9.50295 154.536 28.082 154.536 28.082H159.167C159.167 28.082 159.167 9.50295 159.167 8.00003C160.467 8.00003 166.666 8.00003 166.666 8.00003V3.65723H165.853Z" fill="#003D79"/>
<path fill-rule="evenodd" clip-rule="evenodd" d="M155.351 27.2652V7.18316H147.852V4.47852H165.853V7.18316H158.354V27.2652H155.351Z" fill="#003D79"/>
<path fill-rule="evenodd" clip-rule="evenodd" d="M188.611 3.65723H184.722L174.383 28.082H179.318C179.318 28.082 181.453 22.0888 181.787 21.1667C182.741 21.1667 191.289 21.1667 192.218 21.1667C192.556 22.0734 194.81 28.082 194.81 28.082H200L189.16 3.65723H188.611ZM186.94 9.53989C187.338 10.714 187.734 11.888 187.734 11.888C187.734 11.888 189.117 15.5639 189.685 17.0699C188.295 17.0699 185.673 17.0699 184.28 17.0699C184.857 15.5301 186.372 11.51 186.372 11.51C186.611 10.8738 186.75 10.1976 186.94 9.53989Z" fill="#003D79"/>
<path fill-rule="evenodd" clip-rule="evenodd" d="M175.573 27.2652L185.287 4.47852H188.612L198.795 27.2652H195.378L192.786 20.356H181.214L178.745 27.2652H175.573ZM183.1 17.8846H190.863L188.498 11.6056C187.796 9.68156 187.259 8.08644 186.882 6.82017C186.572 8.31695 186.152 9.78606 185.606 11.2183L183.1 17.8846Z" fill="#003D79"/>
<path fill-rule="evenodd" clip-rule="evenodd" d="M0 27.2647L17.8324 0.270508V19.2368L0 27.2647Z" fill="#EF4135"/>
<path fill-rule="evenodd" clip-rule="evenodd" d="M17.8326 22.7744V31.0666H0.0615234L17.8326 22.7744Z" fill="#EF4135"/>
<path fill-rule="evenodd" clip-rule="evenodd" d="M35.6711 27.2647L17.8325 0.270508V19.2368L35.6711 27.2647Z" fill="#AB0634"/>
<path fill-rule="evenodd" clip-rule="evenodd" d="M17.8325 22.7744V31.0666H35.6067L17.8325 22.7744Z" fill="#AB0634"/>
<path fill-rule="evenodd" clip-rule="evenodd" d="M38.3421 27.2517C38.9279 27.2517 39.4064 26.7723 39.4064 26.176C39.4064 25.589 38.9279 25.1064 38.3421 25.1064C37.7501 25.1064 37.2686 25.5859 37.2686 26.176C37.2686 26.7661 37.747 27.2517 38.3421 27.2517ZM38.3422 27.0398C37.8576 27.0398 37.4742 26.6556 37.4742 26.1761C37.4742 25.6936 37.8576 25.3094 38.3422 25.3094C38.8207 25.3094 39.2071 25.6936 39.2071 26.1761C39.2071 26.6556 38.8207 27.0398 38.3422 27.0398ZM38.5936 26.2715C38.796 26.2592 38.9095 26.1701 38.9095 25.9549C38.9095 25.832 38.8758 25.7183 38.7745 25.6507C38.6856 25.5953 38.5568 25.5953 38.4586 25.5953H37.9004V26.7479H38.1212V26.2623H38.3482L38.6058 26.7479H38.8696L38.5936 26.2715ZM38.1243 26.0992V25.7764H38.4065C38.52 25.7764 38.6825 25.7764 38.6825 25.9301C38.6825 26.0746 38.5966 26.1084 38.4678 26.1084H38.1243V26.0992Z" fill="#AB0634"/>
</svg>
