<svg width="115" height="60" viewBox="0 0 115 60" fill="none" xmlns="http://www.w3.org/2000/svg">
<path fill-rule="evenodd" clip-rule="evenodd" d="M14.3488 36.7247C12.0366 32.2087 9.68935 26.9246 7.30996 20.8716C4.93014 14.82 2.67381 8.22523 0.543945 1.08789H11.2495C11.7008 2.84981 12.2354 4.75891 12.8491 6.81307C13.4606 8.86851 14.0963 10.9459 14.7539 13.0466C15.4116 15.1456 16.0684 17.1905 16.7282 19.1782C17.3867 21.1664 18.0337 22.9719 18.6677 24.5985C19.2573 22.9719 19.8912 21.1664 20.5713 19.1782C21.251 17.1905 21.92 15.1456 22.5773 13.0466C23.2341 10.9459 23.871 8.86851 24.4817 6.81307C25.0941 4.75891 25.6283 2.84981 26.0804 1.08789H36.5212C34.3918 8.22523 32.1371 14.82 29.7599 20.8716C27.3817 26.9246 25.037 32.2087 22.7261 36.7247H14.3488Z" fill="#3BAB3F"/>
<path fill-rule="evenodd" clip-rule="evenodd" d="M38.6191 36.7247H48.7144V1.08789H38.6191V36.7247Z" fill="#3BAB3F"/>
<path fill-rule="evenodd" clip-rule="evenodd" d="M63.3032 36.7247C60.989 32.2087 58.6425 26.9246 56.2619 20.8716C53.8838 14.82 51.6266 8.22523 49.4976 1.08789H60.2006C60.6557 2.84981 61.189 4.75891 61.8014 6.81307C62.4134 8.86851 63.0486 10.9459 63.708 13.0466C64.3643 15.1456 65.0216 17.1905 65.6805 19.1782C66.3386 21.1664 66.9848 22.9719 67.62 24.5985C68.2096 22.9719 68.844 21.1664 69.5245 19.1782C70.2037 17.1905 70.8719 15.1456 71.5304 13.0466C72.1877 10.9459 72.8216 8.86851 73.4336 6.81307C74.046 4.75891 74.5789 2.84981 75.0331 1.08789H85.4736C83.3437 8.22523 81.0903 14.82 78.7126 20.8716C76.3345 26.9246 73.9898 32.2087 71.6797 36.7247H63.3032Z" fill="#3BAB3F"/>
<path fill-rule="evenodd" clip-rule="evenodd" d="M100.298 29.5394C101.29 29.5394 102.24 29.517 103.144 29.4721C104.047 29.4269 104.769 29.3596 105.312 29.2695V21.6124C104.905 21.5228 104.295 21.4335 103.481 21.3417C102.67 21.2521 101.924 21.2064 101.246 21.2064C100.298 21.2064 99.4055 21.2635 98.5694 21.376C97.7345 21.4894 97.0007 21.7042 96.368 22.0205C95.7345 22.3352 95.2388 22.7649 94.878 23.3075C94.516 23.8493 94.3354 24.5264 94.3354 25.3384C94.3354 26.9214 94.8654 28.0147 95.9269 28.6246C96.9893 29.2349 98.4442 29.5394 100.298 29.5394ZM99.4833 0C102.466 0 104.949 0.339189 106.937 1.01545C108.925 1.69341 110.517 2.66572 111.715 3.92943C112.91 5.19483 113.757 6.72964 114.255 8.53639C114.752 10.3436 115 12.3537 115 14.5665V35.5691C113.555 35.8855 111.545 36.2585 108.97 36.6861C106.395 37.1154 103.28 37.3298 99.6204 37.3298C97.3163 37.3298 95.2274 37.1276 93.353 36.7212C91.4781 36.3148 89.8638 35.6487 88.5088 34.7229C87.1537 33.7971 86.1146 32.5883 85.3926 31.0967C84.669 29.6075 84.3091 27.7792 84.3091 25.6104C84.3091 23.533 84.7257 21.7728 85.5605 20.3251C86.3967 18.8804 87.514 17.7283 88.9156 16.8702C90.3159 16.0129 91.9184 15.3908 93.7252 15.0059C95.5319 14.624 97.4059 14.4316 99.3493 14.4316C100.659 14.4316 101.822 14.4883 102.838 14.6008C103.854 14.7137 104.679 14.8613 105.312 15.0415V14.0924C105.312 12.3766 104.792 10.9995 103.753 9.95997C102.713 8.92126 100.908 8.40105 98.333 8.40105C96.6155 8.40105 94.9212 8.52539 93.2515 8.77408C91.5792 9.02234 90.1337 9.37294 88.9156 9.82421L87.6282 1.69341C88.2144 1.51324 88.9486 1.32123 89.8304 1.11822C90.7101 0.914372 91.6702 0.734627 92.7097 0.575183C93.748 0.417853 94.8438 0.28167 95.9946 0.169171C97.1475 0.0570954 98.3093 0 99.4833 0Z" fill="#3BAB3F"/>
<path fill-rule="evenodd" clip-rule="evenodd" d="M47.9774 58.0276C48.5407 58.0276 49.0326 58.0085 49.4551 57.9717C49.8767 57.9341 50.2349 57.8863 50.531 57.8275V53.7856C50.369 53.7103 50.1093 53.6333 49.7545 53.5517C49.3988 53.4705 48.9103 53.4303 48.2886 53.4303C47.9329 53.4303 47.5637 53.4553 47.1784 53.5082C46.7936 53.5598 46.4379 53.671 46.1131 53.841C45.7862 54.0106 45.5197 54.2441 45.3125 54.5414C45.1052 54.8366 45.0012 55.2295 45.0012 55.7171C45.0012 56.1472 45.0731 56.5088 45.2135 56.8053C45.3522 57.1022 45.5527 57.339 45.8128 57.5162C46.0708 57.6939 46.3825 57.8246 46.7449 57.9045C47.1074 57.9861 47.5181 58.0276 47.9774 58.0276ZM47.8454 47.3223C48.5995 47.3223 49.2398 47.4297 49.7659 47.6445C50.2907 47.8585 50.7175 48.1554 51.0427 48.5327C51.3688 48.9104 51.6052 49.3578 51.7532 49.8763C51.9004 50.3944 51.9748 50.9569 51.9748 51.5647V58.8039C51.8268 58.8483 51.6128 58.897 51.3299 58.9482C51.0503 59.001 50.7238 59.0564 50.3542 59.1148C49.9837 59.1753 49.5739 59.2222 49.1213 59.2603C48.6697 59.2962 48.2074 59.3157 47.7329 59.3157C47.1251 59.3157 46.5677 59.2489 46.0568 59.1148C45.5459 58.9816 45.1018 58.7718 44.7242 58.4825C44.3469 58.1936 44.0509 57.8244 43.8356 57.3719C43.6207 56.9206 43.5142 56.3696 43.5142 55.717C43.5142 55.0953 43.6334 54.5628 43.8694 54.1183C44.1063 53.6738 44.4395 53.308 44.8688 53.0183C45.2985 52.7298 45.8085 52.5192 46.3998 52.3864C46.9919 52.2528 47.6377 52.1855 48.333 52.1855C48.5407 52.1855 48.7589 52.1969 48.9877 52.2198C49.2174 52.2405 49.439 52.271 49.6551 52.3082C49.8695 52.345 50.0539 52.3826 50.2095 52.4177C50.3648 52.4566 50.4718 52.4896 50.531 52.5192V51.8083C50.531 51.409 50.5014 51.0191 50.4426 50.6427C50.3829 50.2637 50.2548 49.9241 50.0539 49.6205C49.8539 49.3176 49.5739 49.0732 49.2106 48.8884C48.8469 48.7031 48.3706 48.6101 47.7781 48.6101C46.934 48.6101 46.3042 48.6701 45.8906 48.7886C45.4753 48.9066 45.172 49.0038 44.98 49.0766L44.7804 47.8107C45.0308 47.6923 45.4199 47.5811 45.9456 47.4779C46.4713 47.3743 47.1044 47.3223 47.8454 47.3223Z" fill="#DE2918"/>
<path fill-rule="evenodd" clip-rule="evenodd" d="M61.9994 52.4079C61.9698 51.208 61.689 50.2755 61.1557 49.6102C60.6232 48.9432 59.8674 48.6104 58.8909 48.6104C58.3724 48.6104 57.9101 48.7144 57.5016 48.9208C57.0947 49.1293 56.739 49.4059 56.4371 49.7544C56.1325 50.1021 55.8957 50.5059 55.7257 50.9644C55.5557 51.4241 55.455 51.9046 55.4254 52.4079H61.9994ZM53.8491 53.3181C53.8491 52.312 53.9925 51.434 54.2835 50.6871C54.5706 49.9389 54.9483 49.3143 55.4148 48.8106C55.8813 48.3068 56.4138 47.9321 57.0139 47.6885C57.614 47.4449 58.2315 47.3223 58.8684 47.3223C60.2743 47.3223 61.3971 47.7816 62.2333 48.6989C63.0694 49.6171 63.4877 51.0305 63.4877 52.9409C63.4877 53.0597 63.4847 53.1777 63.4754 53.2966C63.4686 53.4154 63.4576 53.5254 63.4428 53.6298H55.3818C55.4254 55.0356 55.7743 56.1175 56.4256 56.872C57.0765 57.6269 58.1131 58.0046 59.5341 58.0046C60.3187 58.0046 60.9408 57.931 61.4005 57.7826C61.8585 57.6345 62.1922 57.5093 62.399 57.4045L62.6655 58.6483C62.4587 58.7676 62.07 58.908 61.5003 59.07C60.9298 59.2332 60.2603 59.3157 59.4901 59.3157C58.4827 59.3157 57.6233 59.1668 56.9132 58.8708C56.2027 58.5747 55.6174 58.1598 55.1589 57.6269C54.6996 57.0945 54.3668 56.4613 54.1604 55.7284C53.9523 54.9955 53.8491 54.1923 53.8491 53.3181Z" fill="#DE2918"/>
<path fill-rule="evenodd" clip-rule="evenodd" d="M69.725 47.3223C70.1974 47.3223 70.6461 47.3599 71.0682 47.4339C71.4899 47.5075 71.783 47.5811 71.9458 47.6555L71.6565 48.8994C71.5381 48.8402 71.2979 48.778 70.9341 48.7099C70.5717 48.6448 70.0946 48.6109 69.5029 48.6109C68.8808 48.6109 68.3801 48.6545 68.0028 48.7446C67.6256 48.8325 67.3773 48.907 67.2585 48.9662V59.026H65.8154V48.0776C66.1859 47.9144 66.6964 47.7486 67.3477 47.5781C67.9994 47.4085 68.7907 47.3223 69.725 47.3223Z" fill="#DE2918"/>
<path fill-rule="evenodd" clip-rule="evenodd" d="M81.2935 53.3412C81.2935 51.9045 80.9602 50.7609 80.2941 49.9095C79.6272 49.0586 78.7259 48.6327 77.584 48.6327C76.4438 48.6327 75.5413 49.0586 74.8739 49.9095C74.2082 50.7609 73.8758 51.9045 73.8758 53.3412C73.8758 54.777 74.2082 55.9176 74.8739 56.761C75.5413 57.6051 76.4438 58.0276 77.584 58.0276C78.7259 58.0276 79.6272 57.6051 80.2941 56.761C80.9602 55.9176 81.2935 54.777 81.2935 53.3412ZM82.8263 53.341C82.8263 54.2439 82.6952 55.0657 82.4364 55.8058C82.1784 56.5472 81.8151 57.1757 81.3482 57.6937C80.8821 58.2118 80.3306 58.6153 79.6954 58.9042C79.0572 59.1934 78.3543 59.3364 77.5841 59.3364C76.8148 59.3364 76.1111 59.1934 75.475 58.9042C74.8381 58.6153 74.287 58.2118 73.8196 57.6937C73.3544 57.1757 72.9903 56.5472 72.7314 55.8058C72.4735 55.0657 72.3428 54.2439 72.3428 53.341C72.3428 52.4384 72.4735 51.6154 72.7314 50.8753C72.9903 50.1352 73.3544 49.5025 73.8196 48.9768C74.287 48.4519 74.8381 48.0438 75.475 47.7553C76.1111 47.4665 76.8148 47.3223 77.5841 47.3223C78.3543 47.3223 79.0572 47.4665 79.6954 47.7553C80.3306 48.0438 80.8821 48.4519 81.3482 48.9768C81.8151 49.5025 82.1784 50.1352 82.4364 50.8753C82.6952 51.6154 82.8263 52.4384 82.8263 53.341Z" fill="#DE2918"/>
<path fill-rule="evenodd" clip-rule="evenodd" d="M86.2973 57.7619C86.5189 57.8363 86.8479 57.9061 87.2861 57.9738C87.7204 58.0406 88.2965 58.0736 89.0066 58.0736C90.2487 58.0736 91.2489 57.6693 92.0038 56.8632C92.7596 56.0566 93.1373 54.8982 93.1373 53.3871C93.1373 52.7502 93.0709 52.1475 92.9381 51.577C92.804 51.0073 92.5896 50.5108 92.294 50.0891C91.9967 49.6666 91.6076 49.33 91.1275 49.0792C90.6454 48.8267 90.0503 48.7011 89.3394 48.7011C88.9985 48.7011 88.6733 48.7349 88.3612 48.8005C88.0516 48.8686 87.7627 48.9527 87.4963 49.0563C87.2286 49.1608 86.9968 49.2703 86.7959 49.3888C86.5975 49.5089 86.4292 49.6205 86.2973 49.7233V57.7619ZM86.2974 48.3232C86.549 48.1303 86.9525 47.9277 87.5065 47.712C88.061 47.4985 88.7178 47.3902 89.4727 47.3902C90.3013 47.3902 91.0393 47.5391 91.6825 47.8351C92.3258 48.1303 92.8701 48.5448 93.3142 49.0789C93.7591 49.6106 94.0958 50.2441 94.3258 50.9775C94.5551 51.71 94.6705 52.5127 94.6705 53.3869C94.6705 54.3195 94.5322 55.1564 94.2582 55.8966C93.9845 56.6367 93.5997 57.2664 93.104 57.7841C92.6079 58.3017 92.0154 58.6989 91.3273 58.9721C90.6379 59.2461 89.8711 59.3823 89.0291 59.3823C88.0069 59.3823 87.1631 59.3164 86.4966 59.1827C85.8305 59.0508 85.2828 58.9086 84.8535 58.761V42.1497L86.2974 41.8828V48.3232Z" fill="#DE2918"/>
<path fill-rule="evenodd" clip-rule="evenodd" d="M105.77 58.9491C105.34 59.0666 104.763 59.2007 104.037 59.3475C103.312 59.4959 102.424 59.5703 101.373 59.5703C100.514 59.5703 99.7972 59.4447 99.2174 59.1922C98.6414 58.9423 98.1736 58.5862 97.8192 58.1273C97.4627 57.668 97.2085 57.1119 97.0529 56.4601C96.8972 55.8097 96.8198 55.0919 96.8198 54.3074V47.8662H98.2641V53.8405C98.2641 54.6555 98.3225 55.3436 98.4413 55.9061C98.5593 56.4694 98.7518 56.9253 99.0191 57.273C99.2847 57.6189 99.6285 57.8714 100.051 58.0271C100.474 58.1823 100.987 58.2597 101.596 58.2597C102.275 58.2597 102.868 58.2233 103.371 58.1489C103.875 58.0749 104.193 58.0089 104.326 57.9497V47.8662H105.77V58.9491Z" fill="#DE2918"/>
<path fill-rule="evenodd" clip-rule="evenodd" d="M110.529 58.0486C111.358 58.0486 112.044 57.9116 112.585 57.6379C113.126 57.3643 113.395 56.902 113.395 56.2507C113.395 55.9394 113.346 55.6721 113.252 55.4505C113.154 55.2293 112.995 55.0284 112.773 54.8517C112.552 54.6728 112.259 54.5032 111.897 54.3403C111.533 54.1788 111.086 53.9851 110.553 53.7626C110.123 53.5846 109.716 53.4048 109.331 53.2196C108.946 53.0335 108.606 52.8199 108.309 52.575C108.013 52.3302 107.777 52.0379 107.598 51.697C107.421 51.3574 107.332 50.9421 107.332 50.4536C107.332 49.5206 107.684 48.7653 108.387 48.1884C109.09 47.6115 110.056 47.3223 111.285 47.3223C112.071 47.3223 112.719 47.3891 113.229 47.5219C113.74 47.6555 114.098 47.7735 114.306 47.8776L113.974 49.1658C113.796 49.0766 113.495 48.9586 113.074 48.8106C112.65 48.6621 112.032 48.5881 111.218 48.5881C110.893 48.5881 110.585 48.6219 110.297 48.6887C110.009 48.7551 109.753 48.8596 109.531 49.0004C109.308 49.14 109.131 49.3189 108.998 49.5333C108.864 49.7499 108.798 50.0121 108.798 50.3238C108.798 50.6363 108.857 50.9028 108.975 51.1252C109.094 51.3485 109.268 51.5444 109.497 51.7144C109.727 51.8865 110.009 52.0438 110.342 52.1919C110.675 52.339 111.055 52.501 111.484 52.6787C111.929 52.8567 112.354 53.036 112.761 53.22C113.17 53.4048 113.527 53.6269 113.839 53.8848C114.151 54.145 114.402 54.4554 114.594 54.8174C114.786 55.1807 114.883 55.6362 114.883 56.1826C114.883 57.2205 114.495 58.0046 113.717 58.5375C112.941 59.07 111.878 59.3364 110.529 59.3364C109.523 59.3364 108.755 59.2531 108.22 59.081C107.688 58.9122 107.332 58.7815 107.154 58.6923L107.532 57.3829C107.577 57.4129 107.673 57.4603 107.821 57.5271C107.969 57.5939 108.168 57.6688 108.42 57.7496C108.671 57.8308 108.971 57.9014 109.32 57.9606C109.668 58.0194 110.07 58.0486 110.529 58.0486Z" fill="#DE2918"/>
<path fill-rule="evenodd" clip-rule="evenodd" d="M12.4464 53.0017C12.4464 56.4393 9.66096 59.226 6.22382 59.226C2.78583 59.226 0 56.4393 0 53.0017C0 49.5658 2.78583 46.7783 6.22382 46.7783C9.66096 46.7783 12.4464 49.5658 12.4464 53.0017Z" fill="#3BAB3F"/>
<path fill-rule="evenodd" clip-rule="evenodd" d="M8.97308 50.4487C8.97308 51.2739 8.30401 51.9434 7.47803 51.9434C6.65247 51.9434 5.9834 51.2739 5.9834 50.4487C5.9834 49.6236 6.65247 48.9541 7.47803 48.9541C8.30401 48.9541 8.97308 49.6236 8.97308 50.4487Z" fill="white"/>
<path fill-rule="evenodd" clip-rule="evenodd" d="M26.0449 53.0017C26.0449 56.4393 23.2591 59.226 19.8215 59.226C16.384 59.226 13.5981 56.4393 13.5981 53.0017C13.5981 49.5658 16.384 46.7783 19.8215 46.7783C23.2591 46.7783 26.0449 49.5658 26.0449 53.0017Z" fill="white"/>
<path fill-rule="evenodd" clip-rule="evenodd" d="M20.0127 47.1592C16.686 47.1592 13.9792 49.8655 13.9792 53.1923C13.9792 56.5194 16.686 59.2258 20.0127 59.2258C23.3399 59.2258 26.0458 56.5194 26.0458 53.1923C26.0458 49.8655 23.3399 47.1592 20.0127 47.1592ZM20.0128 59.6066C16.4762 59.6066 13.5986 56.7286 13.5986 53.1925C13.5986 49.6563 16.4762 46.7783 20.0128 46.7783C23.5493 46.7783 26.4273 49.6563 26.4273 53.1925C26.4273 56.7286 23.5493 59.6066 20.0128 59.6066Z" fill="#B0AEB1"/>
<path fill-rule="evenodd" clip-rule="evenodd" d="M23.1156 50.4487C23.1156 51.2739 22.4465 51.9434 21.6205 51.9434C20.795 51.9434 20.1255 51.2739 20.1255 50.4487C20.1255 49.6236 20.795 48.9541 21.6205 48.9541C22.4465 48.9541 23.1156 49.6236 23.1156 50.4487Z" fill="#B0AEB1"/>
<path fill-rule="evenodd" clip-rule="evenodd" d="M40.1879 53.0017C40.1879 56.4393 37.4017 59.226 33.9637 59.226C30.527 59.226 27.7407 56.4393 27.7407 53.0017C27.7407 49.5658 30.527 46.7783 33.9637 46.7783C37.4017 46.7783 40.1879 49.5658 40.1879 53.0017Z" fill="#DE2918"/>
<path fill-rule="evenodd" clip-rule="evenodd" d="M37.2568 50.4487C37.2568 51.2739 36.5873 51.9434 35.7626 51.9434C34.9367 51.9434 34.2676 51.2739 34.2676 50.4487C34.2676 49.6236 34.9367 48.9541 35.7626 48.9541C36.5873 48.9541 37.2568 49.6236 37.2568 50.4487Z" fill="white"/>
</svg>
