<svg width="88" height="38" viewBox="0 0 88 38" fill="none" xmlns="http://www.w3.org/2000/svg">
<path fill-rule="evenodd" clip-rule="evenodd" d="M12.8721 11.069C12.8069 10.4152 12.3357 9.80173 11.6674 9.7047C11.4704 9.6644 11.2851 9.64648 11.1177 9.64648C9.1589 9.64648 8.381 11.9303 7.59274 13.3783C6.51109 15.3681 5.4176 17.3519 4.33002 19.3387C4.06035 19.8313 3.79068 20.3239 3.52101 20.8179C3.49138 20.8881 3.47656 20.9717 3.47656 21.0523C3.47656 21.1672 3.5062 21.2777 3.60547 21.3404C3.68993 21.4195 3.78476 21.4464 3.89588 21.4464H5.0042C5.11533 21.4464 5.22942 21.4091 5.32425 21.3404C5.40871 21.2777 5.49316 21.1926 5.53761 21.0986L7.36752 17.2907H11.8215L12.2705 21.0433C12.2705 21.1374 12.3134 21.2299 12.3698 21.2971C12.4379 21.3986 12.5668 21.4509 12.6794 21.4509H13.77C13.8915 21.4509 14.0337 21.4135 14.1152 21.3105C14.2174 21.2225 14.2574 21.0926 14.2574 20.9627V20.8762L12.8721 11.069ZM8.13818 15.7113L10.4467 11.5197C10.546 11.3391 10.7534 11.3107 10.8942 11.3227C11.1742 11.3406 11.2009 11.5197 11.2009 11.5197L11.6958 15.7113H8.13818Z" fill="#0075C9"/>
<path fill-rule="evenodd" clip-rule="evenodd" d="M23.5361 13.6942C23.2382 12.9045 22.6544 12.2567 21.8039 11.9208C20.2482 11.3073 18.2538 11.6745 17.0003 12.7776C16.1498 13.524 15.5719 14.6122 15.2919 15.9944C15.0444 17.2334 14.6636 18.6082 15.283 19.8023C15.4889 20.2143 15.7704 20.5517 16.1349 20.8174C16.498 21.0861 16.8891 21.2727 17.3381 21.3966C17.7752 21.5055 18.233 21.5637 18.6998 21.5637C19.3265 21.5637 19.8585 21.5324 20.3622 21.4831C20.8394 21.4383 21.3609 21.3637 21.9032 21.2786C22.0692 21.2503 22.2114 21.2115 22.3225 21.1099C22.4085 21.0159 22.4514 20.892 22.4781 20.7427C22.4781 20.7427 22.5907 20.1695 22.5907 20.1576V20.0665C22.5907 19.983 22.5463 19.868 22.4603 19.8128C22.3774 19.7441 22.2825 19.7337 22.1818 19.7277H22.0677C20.6601 19.7277 18.6257 20.495 17.3648 19.5769C17.0166 19.3217 16.8313 18.9381 16.8313 18.3335C16.8313 18.1768 16.8313 18.023 16.861 17.8424C16.8788 17.6961 16.9069 17.5259 16.9736 17.3453L16.9899 17.2602C16.9899 17.2602 22.9389 17.2602 22.9404 17.2602C23.8042 17.2602 23.7657 15.566 23.7657 14.9853C23.7642 14.5331 23.6872 14.0957 23.5361 13.6942ZM21.7313 15.78H17.2773C17.3514 15.4411 17.4625 15.1486 17.6152 14.8545C18.1175 13.8842 19.0939 13.317 20.1667 13.3125C21.1801 13.308 21.8025 13.8947 21.8306 14.9321C21.8306 15.1919 21.8025 15.474 21.7313 15.78Z" fill="#0075C9"/>
<path fill-rule="evenodd" clip-rule="evenodd" d="M30.1588 12.8909C30.1588 12.8909 30.2699 12.1684 30.2877 12.1579V12.0729C30.2877 11.9609 30.2314 11.8295 30.1321 11.7504C29.7143 11.4146 28.9882 11.6444 28.5363 11.7758C28.3348 11.8355 27.302 12.0594 27.302 12.3147V12.2206C27.302 12.0967 27.2739 11.9833 27.1924 11.8997C27.1065 11.8146 26.9835 11.7743 26.8709 11.7743C26.4767 11.7743 25.8855 11.6534 25.5862 11.9878C25.3907 12.2057 25.3166 12.8371 25.2469 13.1252C25.1788 13.4133 25.1358 13.7044 25.0928 13.997C24.9906 14.697 24.8306 15.3867 24.6987 16.0823C24.4483 17.4093 24.2068 18.7378 23.9638 20.0648C23.9134 20.3335 23.8008 20.638 23.8008 20.9142V20.9978C23.8008 21.1127 23.8275 21.2351 23.9312 21.3217C24.0127 21.4083 24.1253 21.4441 24.2364 21.4441H25.1314C25.2854 21.4441 25.3951 21.3978 25.5092 21.3038C25.6188 21.2172 25.7048 21.1053 25.7314 20.9814L27.0487 13.9402C27.4665 13.7029 27.8488 13.5462 28.1866 13.4491C28.5496 13.3476 28.9823 13.3088 29.4846 13.3088H29.5409C29.8387 13.3297 30.104 13.1715 30.1588 12.8909Z" fill="#0075C9"/>
<path fill-rule="evenodd" clip-rule="evenodd" d="M38.1824 13.6803C37.8742 12.8519 37.2237 12.2458 36.4028 11.9159C35.9554 11.7517 35.4412 11.6622 34.8633 11.6622C32.1177 11.6517 30.399 13.1191 29.8952 15.9388C29.6789 17.1464 29.3766 18.2883 29.8196 19.4914C30.2256 20.599 31.1472 21.3872 32.3104 21.5618C34.3225 21.8678 36.5703 20.9707 37.4934 19.0705C38.0075 18.0107 38.2964 16.6926 38.3779 15.5149C38.3898 15.3462 38.3898 15.188 38.3898 15.0193C38.3898 14.5386 38.3335 14.0863 38.1824 13.6803ZM36.4475 15.4425C36.3986 16.4023 36.1926 17.5278 35.7866 18.3384C35.6192 18.6608 35.4236 18.9295 35.1717 19.1683C34.948 19.4116 34.6665 19.5907 34.3597 19.7206C34.0515 19.8609 33.7033 19.9281 33.3225 19.9281C32.6217 19.9281 32.1742 19.7773 31.912 19.5221C31.0733 18.7071 31.6438 16.9964 31.8394 16.0082C32.0068 15.1619 32.315 14.514 32.8069 14.0229C33.2825 13.5557 33.8826 13.3184 34.6398 13.3184C35.3391 13.3184 35.7851 13.4706 36.0563 13.7408C36.3186 14.011 36.4578 14.4289 36.4578 15.0096C36.4578 15.1484 36.4549 15.2932 36.4475 15.4425Z" fill="#0075C9"/>
<path fill-rule="evenodd" clip-rule="evenodd" d="M42.7602 9.26917C42.7602 9.15722 42.7306 9.05273 42.6476 8.95272C42.5632 8.8736 42.4387 8.85718 42.3394 8.85718H41.3882C41.1067 8.82882 40.8548 9.02735 40.8266 9.31993L38.6426 20.9198V21.0049C38.6426 21.1183 38.6707 21.2407 38.7522 21.3258C38.8382 21.4139 38.9493 21.4512 39.0619 21.4512H40.0146C40.1435 21.4512 40.2932 21.3975 40.3777 21.2975C40.4784 21.2124 40.5451 21.1109 40.5747 20.987L42.7602 9.36471V9.26917Z" fill="#0075C9"/>
<path fill-rule="evenodd" clip-rule="evenodd" d="M45.457 11.7773H44.5888C44.4465 11.7773 44.3176 11.8296 44.2095 11.9192C44.0968 12.0147 44.0183 12.1281 43.9842 12.252L42.3662 20.9187V21.0038C42.3662 21.1172 42.3944 21.2516 42.4951 21.3382C42.5796 21.4233 42.704 21.4501 42.8137 21.4501H43.6953C43.8346 21.4501 43.965 21.4024 44.0761 21.3098C44.1872 21.2217 44.2539 21.1098 44.2998 20.9859L45.9223 12.3147V12.2207C45.9223 12.0968 45.8808 11.9833 45.7786 11.8997C45.7 11.8176 45.5711 11.7773 45.457 11.7773Z" fill="#0075C9"/>
<path fill-rule="evenodd" clip-rule="evenodd" d="M44.4124 10.9196C44.7132 10.9837 45.1384 10.9181 45.2911 10.8942C46.0008 10.7852 46.469 10.1448 46.9772 9.703C47.1313 9.57015 48.6071 8.48047 47.6055 8.48047H46.3934C45.8808 8.52376 45.4718 9.12084 45.1281 9.45969C44.8436 9.74181 44.5546 10.0254 44.2702 10.3075C44.1887 10.3926 44.1161 10.4777 44.1027 10.618C44.0968 10.7927 44.2331 10.8793 44.4124 10.9196Z" fill="#0075C9"/>
<path fill-rule="evenodd" clip-rule="evenodd" d="M54.3814 12.4782C53.4613 11.4363 51.7144 11.5334 50.5171 11.9125C50.1467 12.0304 49.803 12.1827 49.4637 12.3081V12.223C49.4637 12.1289 49.4222 12.014 49.3659 11.9304C49.2844 11.8289 49.1421 11.7767 49.0191 11.7767H48.1316C47.9968 11.7767 47.853 11.8289 47.7582 11.9185C47.6649 12.014 47.573 12.1275 47.5478 12.2513L45.9209 20.918V21.0031C45.9209 21.1091 45.9609 21.2136 46.0157 21.2838C46.0898 21.3972 46.2246 21.445 46.3536 21.445H47.2485C47.3893 21.445 47.5122 21.3972 47.6249 21.3047C47.7345 21.2166 47.8264 21.1046 47.8471 20.9807L49.1777 13.9008C49.7274 13.6635 50.1556 13.5052 50.5171 13.4201C50.9024 13.347 51.2461 13.3082 51.5958 13.3082C52.2315 13.2962 52.6493 13.4201 52.8168 13.5888C52.9946 13.7874 53.1072 14.0545 53.1072 14.4262C53.1072 15.4816 52.7945 16.5772 52.6301 17.6162C52.4848 18.5237 52.3278 19.4298 52.1722 20.3359C52.1411 20.515 52.0774 20.7165 52.0774 20.8986V20.9822C52.0774 21.1061 52.0996 21.236 52.2004 21.3241C52.2967 21.3987 52.4167 21.4345 52.5382 21.4345H53.4065C53.5369 21.4345 53.6702 21.3793 53.7828 21.2808C53.8925 21.2076 53.968 21.0942 54.0036 20.9643L54.9578 15.3846C55.0156 15.0576 55.0497 14.7457 55.0497 14.4486C55.0497 14.059 54.9934 13.7038 54.8822 13.3634C54.7845 13.0305 54.6052 12.732 54.3814 12.4782Z" fill="#0075C9"/>
<path fill-rule="evenodd" clip-rule="evenodd" d="M64.2014 13.688C63.3435 11.034 59.3859 11.2489 57.6508 12.7775C56.5825 13.7179 56.0416 15.2972 55.8031 16.6555C55.5927 17.8482 55.4593 19.2469 56.2654 20.256C56.6669 20.7605 57.3663 21.2232 57.9901 21.3949C58.8747 21.6367 59.8007 21.6218 60.7046 21.5367C61.2824 21.4815 62.5167 21.5263 62.9716 21.1113C63.1879 20.9157 63.3953 20.0261 63.1183 19.8141C63.0249 19.7455 62.9331 19.735 62.8382 19.729H62.7404C61.3402 19.729 59.2762 20.4993 58.0212 19.5783C57.67 19.323 57.4848 18.9394 57.4848 18.3348C57.4848 18.1781 57.4848 18.0244 57.5174 17.8557C57.5293 17.6975 57.5737 17.5273 57.6108 17.3482L57.6463 17.2631H63.6013C63.7554 17.2631 63.911 17.2183 64.0088 17.0929C64.6518 16.2868 64.4903 14.5851 64.2014 13.688ZM62.3878 15.7801H57.919C58.0034 15.4412 58.116 15.1487 58.2642 14.8546C58.4302 14.5561 58.6154 14.2844 58.8554 14.0366C59.0895 13.8052 59.3607 13.6246 59.66 13.5007C60.9253 12.9798 62.4634 13.3888 62.4782 14.9322C62.4871 15.192 62.4574 15.4741 62.3878 15.7801Z" fill="#0075C9"/>
<path fill-rule="evenodd" clip-rule="evenodd" d="M73.3014 12.0277C72.8006 11.8411 72.0331 11.8142 71.7664 11.7754C70.178 11.5381 68.3807 11.5619 67.022 12.5367C66.5582 12.8696 66.1848 13.295 65.8825 13.7801C65.1328 14.9937 64.749 16.9745 64.749 18.4075C64.749 21.3511 67.7435 22.2647 70.0239 20.9914C70.1543 20.9183 70.298 20.8332 70.4521 20.7391C70.4521 20.7391 70.421 20.8794 70.421 20.8914V21.0108C70.421 21.6557 71.6227 21.6377 71.9664 21.3168C72.0598 21.2287 72.1457 21.1168 72.1575 20.9929C72.5413 18.9583 72.9295 16.9253 73.3073 14.8907C73.42 14.2846 73.4926 13.6711 73.6289 13.0696C73.7385 12.5785 73.8719 12.2396 73.3014 12.0277ZM70.5884 19.0525C70.0995 19.3525 69.6816 19.5779 69.3008 19.7287C68.9067 19.8869 68.5051 19.972 68.0992 19.972C67.705 19.972 67.3731 19.8586 67.0901 19.6227C66.8323 19.4092 66.6841 19.0137 66.6841 18.3763C66.6841 18.2643 66.6989 18.1389 66.7123 18.0091C66.7241 17.8732 66.7434 17.7553 66.7656 17.6329L67.0946 15.8835C67.262 15.0087 67.5613 14.3594 68.0295 13.919C68.5229 13.4533 69.1927 13.2936 69.8505 13.2563C69.9809 13.2488 71.6656 13.3414 71.6538 13.4011L70.5884 19.0525Z" fill="#0075C9"/>
<path fill-rule="evenodd" clip-rule="evenodd" d="M81.0756 11.8856C80.8785 11.8572 80.6992 11.8184 80.5347 11.802C80.3673 11.7617 80.1643 11.7452 79.9732 11.7229C79.7583 11.7049 79.5361 11.693 79.302 11.6885C79.0441 11.6602 78.7404 11.6602 78.3729 11.6602C77.924 11.6602 77.4661 11.7064 77.0068 11.7781C76.5252 11.8647 76.1118 12.0154 75.7399 12.2244C75.3651 12.4394 75.0687 12.7334 74.8346 13.0887C74.5827 13.4559 74.4701 13.9067 74.4701 14.4545C74.4701 15.2725 75.0317 16.0054 76.0674 16.6443L77.718 17.6429C78.1492 17.8848 78.4203 18.0937 78.5181 18.24C78.6544 18.4042 78.6989 18.5445 78.7093 18.7013C78.6989 18.9565 78.6544 19.1431 78.5552 19.3058C78.4618 19.4626 78.3166 19.588 78.164 19.679C77.9788 19.7745 77.7862 19.8596 77.5654 19.8984C77.3254 19.9447 77.0838 19.9716 76.8216 19.9716C76.6675 19.9716 76.4689 19.9716 76.2319 19.9552C76.0096 19.9447 75.7607 19.9328 75.494 19.9163C75.2362 19.8999 74.9724 19.876 74.7324 19.8596C74.4657 19.8298 74.2449 19.8029 74.0212 19.7865H73.8923C73.6685 19.776 73.4255 19.9328 73.387 20.1716L73.2773 20.7747V20.7911V20.8583C73.2773 20.9881 73.3203 21.1195 73.4448 21.1866C73.5174 21.2419 73.6122 21.2807 73.7011 21.312C73.9248 21.3553 74.1634 21.4046 74.3975 21.421C74.6672 21.4553 74.9206 21.4986 75.1813 21.5076C75.4392 21.53 75.6733 21.5389 75.9251 21.5539C76.1652 21.5658 76.3889 21.5658 76.5786 21.5658H76.5978C77.1031 21.5658 77.5891 21.53 78.0707 21.421C78.5552 21.327 78.9893 21.1568 79.3701 20.9209C79.7509 20.6911 80.0532 20.3791 80.2917 19.9999C80.517 19.5939 80.6444 19.1088 80.6444 18.5445C80.6444 18.1385 80.517 17.7549 80.2769 17.4056C80.0428 17.0503 79.5938 16.6712 78.9656 16.2771L77.3254 15.2889C77.0172 15.0919 76.7831 14.9217 76.6141 14.7635C76.4689 14.6112 76.4126 14.4814 76.4126 14.3008C76.4126 14.0858 76.4571 13.9336 76.5593 13.8097C76.6541 13.6798 76.7934 13.5783 76.9609 13.4932C77.1283 13.4141 77.3076 13.3514 77.5328 13.329C77.7491 13.2962 77.9595 13.2723 78.1492 13.2723C78.6544 13.2723 79.1464 13.2827 79.6235 13.3126C80.0947 13.341 80.4903 13.3678 80.7985 13.4066H80.8711C81.117 13.4245 81.3749 13.238 81.3971 12.9842L81.4949 12.4185V12.408V12.3229C81.4993 12.099 81.3023 11.9139 81.0756 11.8856Z" fill="#0075C9"/>
<path fill-rule="evenodd" clip-rule="evenodd" d="M25.5565 24.8558C24.7623 24.408 22.8583 24.5409 22.3353 24.5409C21.6448 24.5409 21.0299 24.611 20.4861 24.7588C18.6384 25.2589 17.7568 26.968 17.4071 28.7593L17.1819 29.9997C17.0159 30.8237 16.9715 31.7731 17.3241 32.5553C17.5019 32.9523 17.7435 33.2703 18.0516 33.5315C18.3584 33.7793 18.7347 33.9778 19.154 34.0898C19.5734 34.2017 20.0401 34.2629 20.5246 34.2629C20.7439 34.2629 22.4908 34.1107 22.4879 34.1316C22.0893 36.6632 19.5408 36.1811 17.6738 35.9661C17.4204 35.9348 17.2249 35.9243 17.0456 35.8989H17.0011C16.9078 35.8989 16.8055 35.9243 16.7226 35.978C16.6277 36.0243 16.5833 36.1288 16.5433 36.2333C16.5433 36.2333 16.441 36.7274 16.441 36.7498C16.4307 36.7841 16.441 36.805 16.4307 36.8274C16.441 37.014 16.5981 37.1259 16.807 37.1812C17.0574 37.2483 17.4516 37.3245 17.9998 37.3931C19.9571 37.6379 22.6923 37.8275 23.7414 35.7273C24.9268 33.3554 24.9653 30.2789 25.4676 27.6965C25.6083 26.9695 26.4322 25.3484 25.5565 24.8558ZM22.7827 32.6667C22.6538 32.695 22.5042 32.7219 22.3456 32.7338C21.4225 32.8637 20.0964 33.1264 19.3244 32.4278C18.6977 31.8621 18.7362 30.8814 18.8621 30.1171C18.9718 29.4499 19.1511 28.7423 19.3541 28.096C19.6208 27.2421 20.1838 26.3823 21.061 26.1017C21.5544 25.945 22.0804 25.9241 22.5946 25.9539C22.6864 25.9599 24.0022 26.1077 23.9962 26.1316L22.7827 32.6667Z" fill="#8E9090"/>
<path fill-rule="evenodd" clip-rule="evenodd" d="M53.5622 22.8104V22.7343C53.5622 22.5208 53.4096 22.3835 53.2051 22.3835H52.2746C52.1516 22.3715 52.0405 22.4268 51.9397 22.4939C51.8449 22.582 51.7708 22.6626 51.7575 22.7746L51.6582 23.5254V23.5941C51.6582 23.8195 51.8153 23.9493 52.0405 23.9493H52.9636C53.0925 23.9493 53.1873 23.9045 53.2836 23.8254C53.3844 23.7627 53.4511 23.6553 53.4866 23.5433" fill="#8E9090"/>
<path fill-rule="evenodd" clip-rule="evenodd" d="M17.2216 26.0094C17.6602 26.0064 17.9951 25.3093 17.8795 24.9332C17.672 24.257 16.6423 24.5689 16.1177 24.6958C15.7266 24.7869 15.3058 24.9764 14.8568 25.2869L14.8953 25.0899V25.0108C14.8953 24.7958 14.756 24.654 14.5501 24.654H13.6922C13.5811 24.654 13.4699 24.6943 13.3736 24.7854C13.2892 24.8555 13.2166 24.9481 13.1899 25.0645L11.5645 33.7148V33.7999C11.5645 34.0118 11.72 34.1477 11.9275 34.1477C12.2801 34.1477 12.8076 34.2551 13.1128 34.0506C13.3973 33.8581 13.4388 33.4789 13.4981 33.164C13.5825 32.7191 13.6596 32.2728 13.7337 31.8265C13.9693 30.3696 13.9633 28.75 14.4656 27.3603C14.5812 27.0334 14.7427 26.6781 15.042 26.4796C15.6614 26.0646 16.5 26.0139 17.2216 26.0094Z" fill="#8E9090"/>
<path fill-rule="evenodd" clip-rule="evenodd" d="M47.7968 26.0825C47.8161 26.0482 48.9496 26.0825 49.0592 26.0825C49.3778 26.0825 49.7497 26.1781 50.0164 25.9527C50.3098 25.7019 50.5394 24.654 49.9245 24.654H48.062L48.3139 23.2344V23.1703C48.3139 22.6165 47.2856 22.9598 46.9878 22.9926C46.7285 23.0225 46.5507 23.1703 46.524 23.3972L46.2988 24.654C45.8839 24.6689 45.1253 24.5465 44.7697 24.7973C44.703 24.8645 44.6349 24.9511 44.6023 25.06L44.5237 25.5198V25.5885C44.5059 25.79 44.6778 25.9183 44.8808 25.9303L46.0351 26.0721C45.8973 26.7961 45.7639 27.523 45.6261 28.2455C45.4172 29.3083 45.2349 30.3756 45.0216 31.4354C44.8512 32.2877 44.6541 33.3655 45.5328 33.8984C45.9995 34.1835 46.5581 34.294 47.1004 34.3149C47.5005 34.3343 48.2695 34.3641 48.5792 34.0521C48.6355 33.9969 48.6918 33.9208 48.7095 33.8387C48.8236 33.3028 48.9377 32.843 48.2324 32.8818C47.7494 32.9117 46.6411 33.2028 46.6411 32.4251C46.6411 32.3116 46.6574 32.1444 46.6781 31.9459C46.6737 31.9459 47.782 26.1557 47.7968 26.0825Z" fill="#8E9090"/>
<path fill-rule="evenodd" clip-rule="evenodd" d="M71.1827 24.9366C70.7026 24.8052 70.1988 24.7202 69.6358 24.6381C68.0918 24.453 66.2664 24.3873 64.9669 25.4008C64.0201 26.1382 63.46 27.1682 63.2081 28.3266C62.9755 29.4043 62.6051 30.6612 62.7607 31.7658C62.8466 32.3614 63.1652 33.0943 63.5889 33.5302C64.7091 34.684 66.6101 34.375 67.8785 33.6958C68.0578 33.6018 68.2578 33.4869 68.4652 33.348C68.4652 33.348 68.4119 33.6884 68.4119 33.7257V33.8003C68.4119 33.8869 68.4297 33.981 68.4652 34.0422C68.5423 34.1228 68.6341 34.1481 68.763 34.1481C69.1557 34.1481 69.8714 34.3079 69.9736 33.7541L71.5457 25.4188C71.5635 25.3889 71.5635 25.3307 71.5635 25.2755C71.559 25.0784 71.4049 24.965 71.1827 24.9366ZM68.5481 31.8912C68.0561 32.2002 67.619 32.4316 67.2249 32.5973C66.8115 32.763 66.4188 32.8525 65.9906 32.8525C65.5787 32.8525 65.2231 32.7272 64.9282 32.4734C64.6497 32.248 64.4971 31.8151 64.4971 31.1762C64.4971 31.0464 64.5163 30.9225 64.5163 30.7926C64.5282 30.6493 64.54 30.5269 64.5697 30.4105L64.8927 28.664C65.0779 27.7699 65.3757 27.0981 65.8736 26.6429C66.3433 26.1906 67.0486 25.9652 67.9687 25.9652C68.348 25.9652 68.6784 25.9876 68.9496 26.0114L68.9614 25.9219V26.0114C69.1837 26.0428 69.4104 26.0801 69.6312 26.1114L68.5481 31.8912Z" fill="#8E9090"/>
<path fill-rule="evenodd" clip-rule="evenodd" d="M79.2828 25.1026C79.2635 25.0384 79.2413 24.9832 79.2057 24.9399C79.0487 24.7294 78.742 24.7219 78.5019 24.6801C77.967 24.5801 77.4233 24.5548 76.8795 24.5428C75.4289 24.5115 73.6908 24.5637 72.8048 25.9131C71.4327 28.0029 73.9857 29.3389 75.4185 30.2077C75.9238 30.5137 76.8276 31.0212 76.7846 31.7347C76.7417 32.4482 75.7978 32.6124 75.2496 32.7617C74.6747 32.9169 71.4816 32.2975 71.3601 32.9766L71.252 33.5782C71.252 33.5782 71.252 33.6394 71.252 33.6424C71.2549 34.8306 76.0364 34.1708 76.5046 33.9977C77.9833 33.4588 79.0635 31.7034 78.0959 30.2375C77.8737 29.8837 77.4396 29.5225 76.8083 29.1389C76.0793 28.694 73.879 27.8402 74.2998 26.7147C74.5976 25.9131 75.7904 25.9833 76.4676 25.9803C76.9284 25.9803 77.3936 26.0833 77.8544 26.1206C78.2189 26.1505 78.9464 26.1729 79.2043 25.84C79.3243 25.6758 79.348 25.3384 79.2828 25.1026Z" fill="#8E9090"/>
<path fill-rule="evenodd" clip-rule="evenodd" d="M61.6182 25.3306C61.3841 25.0783 61.0862 24.8813 60.7321 24.7395C60.3735 24.5992 59.9483 24.5439 59.4623 24.5439C58.8266 24.5439 58.2843 24.6171 57.8354 24.7858C57.4279 24.9231 57.0352 25.0903 56.6441 25.2873L56.6767 25.0903V25.0112C56.6767 24.9246 56.6441 24.841 56.5833 24.7783C56.527 24.6947 56.4159 24.6544 56.3048 24.6544H55.4261C55.2957 24.6544 55.1846 24.6947 55.1061 24.7783C55.0127 24.8559 54.9579 24.9544 54.9209 25.0589L53.2939 33.7107V33.7958C53.2939 33.8824 53.331 33.9645 53.3814 34.0331C53.448 34.1167 53.5355 34.1436 53.6599 34.1436H54.5549C54.663 34.1436 54.7786 34.1063 54.8794 34.0331C54.9594 33.951 55.032 33.8629 55.072 33.751L56.4026 26.6308C56.973 26.3874 57.422 26.2203 57.7998 26.1322C58.1821 26.0471 58.5407 26.0098 58.8785 26.0098C59.5497 26.0098 59.9735 26.1322 60.1839 26.3307C60.3913 26.5352 60.4906 26.8159 60.5039 27.2114C60.5039 27.3488 60.4906 27.4935 60.4787 27.6577C60.4461 27.8264 60.4358 27.9891 60.4046 28.1369L59.3393 33.7107V33.7958C59.3393 34.0048 59.5067 34.1436 59.7157 34.1436H60.6032C60.7114 34.1436 60.8269 34.1063 60.9277 34.0331C61.0077 33.951 61.0951 33.8629 61.1173 33.751L62.1738 28.1653C62.2405 27.8443 62.2553 27.5353 62.2553 27.2353C62.2553 26.8711 62.2197 26.5203 62.1042 26.1934C62.0078 25.859 61.8286 25.5694 61.6182 25.3306Z" fill="#8E9090"/>
<path fill-rule="evenodd" clip-rule="evenodd" d="M43.1109 25.3426C42.8709 25.0828 42.5775 24.8753 42.2441 24.7395C41.1388 24.2857 39.9934 24.5753 38.9133 24.9321C38.7769 24.9783 38.1828 25.1127 38.1561 25.2873L38.1843 25.0903V25.0112C38.1843 24.9186 38.1561 24.841 38.0998 24.7783C38.045 24.6947 37.9427 24.6544 37.8212 24.6544H36.9352C36.824 24.6544 36.7114 24.6947 36.6151 24.7783C36.5322 24.8559 36.4581 24.9485 36.4314 25.0589L34.8223 33.7107V33.7958C34.8223 33.8824 34.8519 33.9645 34.8904 34.0331C35.1334 34.4645 36.4936 34.2496 36.587 33.751L37.9161 26.6308C38.7014 26.2725 39.5385 26.0098 40.4068 26.0098C41.0676 26.0098 41.487 26.1322 41.6944 26.3307C42.136 26.7517 42.0678 27.4592 41.9774 28.0056C41.8678 28.6758 41.6855 29.3371 41.564 30.0043C41.3818 31.0164 41.1847 32.0254 40.9965 33.0315C40.9565 33.2465 40.8691 33.4928 40.8691 33.7107V33.7958C40.8691 34.3376 41.9952 34.2988 42.2767 34.1526C42.6116 33.9809 42.6783 33.5808 42.7405 33.2435C42.8546 32.6255 42.9376 32.0045 43.0561 31.3866C43.1939 30.676 43.3272 29.964 43.4784 29.2579C43.754 27.9802 44.0963 26.4158 43.1109 25.3426Z" fill="#8E9090"/>
<path fill-rule="evenodd" clip-rule="evenodd" d="M34.3601 26.5163C34.0845 25.7267 33.5333 25.0699 32.6428 24.7803C32.1923 24.6325 31.6663 24.543 31.1922 24.543C30.0335 24.543 28.8615 24.8549 27.971 25.6312C27.1323 26.3641 26.5707 27.4329 26.2892 28.7897C25.9662 30.3466 25.6165 32.3633 27.0553 33.5067C27.399 33.7814 27.8554 33.9859 28.2806 34.0948C29.7564 34.465 31.33 34.2381 32.8058 33.9814C33.2325 33.9068 33.5214 33.2798 33.4355 32.8842C33.3584 32.532 32.9732 32.6036 32.7065 32.6424C32.3064 32.6947 31.9034 32.7335 31.5019 32.7678C30.4795 32.8574 29.1356 33.0858 28.2406 32.429C27.5383 31.9155 27.5753 30.8601 27.805 30.1093L27.8495 29.9645C29.5001 29.9645 31.1522 29.9764 32.8028 29.9735C33.2132 29.9735 33.7333 30.1272 34.0963 29.857C34.4801 29.5734 34.4919 28.8689 34.5438 28.433C34.6208 27.7896 34.5734 27.1269 34.3601 26.5163ZM32.7345 28.6309V28.6623H28.0864C28.1709 28.2771 28.2998 27.9293 28.4494 27.6069C28.6169 27.289 28.8302 27.0113 29.0658 26.7635C29.3074 26.5351 29.5859 26.3336 29.8956 26.2112C30.2142 26.0814 30.5668 26.0127 30.958 26.0127C32.2485 26.0246 32.8205 26.559 32.8368 27.7293C32.8353 27.9935 32.8057 28.304 32.7345 28.6309Z" fill="#8E9090"/>
<path fill-rule="evenodd" clip-rule="evenodd" d="M52.7001 24.9072H51.8244C51.7162 24.9072 51.6021 24.9535 51.491 25.0222C51.408 25.1058 51.3369 25.2028 51.2969 25.3028L49.75 33.7098V33.7948C49.75 34.0038 49.9041 34.1426 50.1204 34.1426H50.9843C51.1117 34.1426 51.2228 34.1053 51.3206 34.0322C51.4184 33.9441 51.4747 33.862 51.5058 33.7501L53.0572 25.3431V25.2625C53.0572 25.049 52.9105 24.9072 52.7001 24.9072Z" fill="#8E9090"/>
<path fill-rule="evenodd" clip-rule="evenodd" d="M9.40882 23.7646C9.38067 23.4825 9.29621 23.2541 9.18509 23.0585C8.59981 22.1226 7.31814 22.2749 6.45727 22.6361C5.24968 23.1436 4.45993 25.4752 3.87762 26.5231C2.82857 28.4069 1.80768 30.3027 0.774931 32.1939C0.542304 32.6179 0.228182 33.0627 0.0563048 33.515C0.0281524 33.5911 0 33.6702 0 33.7568C0 33.8628 0.0444511 33.9822 0.128908 34.0494C0.214847 34.1165 0.324493 34.1434 0.419322 34.1434H1.53949C1.65358 34.1434 1.76323 34.1061 1.86398 34.0494C1.94992 33.9822 2.0329 33.8956 2.0729 33.809L3.92207 29.9982H8.37459L8.79392 33.7508C8.82355 33.8404 8.84874 33.9255 8.90504 34.0046C9.14212 34.333 9.95409 34.1479 10.3038 34.1479C10.446 34.1479 10.5749 34.1165 10.6698 34.0255C10.7527 33.9225 10.7794 33.8001 10.7794 33.6583V33.5822L9.40882 23.7646ZM4.67626 28.4165L6.99068 24.2145C7.07366 24.0473 7.30925 24.016 7.43964 24.0235C7.7182 24.0339 7.74635 24.2145 7.74635 24.2145L8.23531 28.4165H4.67626Z" fill="#8E9090"/>
<path fill-rule="evenodd" clip-rule="evenodd" d="M87.2495 6.85901C87.377 6.63212 87.0762 6.25447 86.9532 6.06937C86.768 5.79172 86.5131 5.57379 86.2197 5.42004C85.7426 5.17076 85.1989 5.10358 84.6669 5.08119C84.5543 5.07672 83.3556 5.02746 83.3497 5.06477C83.3141 5.30809 83.4756 5.49617 83.3304 5.74844C83.2282 5.92905 83.0415 6.02757 82.8429 6.0634C82.1702 6.18729 81.3983 5.53647 82.1288 4.98118C82.6503 4.58114 83.5067 3.98853 83.9379 3.73477C84.5143 3.39592 85.2122 2.66001 84.7988 1.94799C84.4165 1.2912 83.5882 1.18223 82.9037 1.14193C81.9598 1.08669 81.016 1.04639 80.0736 0.976234C79.1935 0.912047 78.3149 0.85831 77.4362 0.806065C74.7425 0.641866 72.0472 0.422438 69.3535 0.241819C68.7593 0.201516 68.1637 0.156735 67.571 0.110461C67.2436 0.0850846 66.4479 0.180618 66.1708 0C68.4245 1.46584 71.6027 1.86141 74.5158 2.86601C76.3901 3.51385 75.4226 4.34379 73.7275 4.63637C70.1195 5.2633 65.344 5.68723 61.6738 6.80826C61.9272 6.73064 62.3213 6.80229 62.5851 6.8008C62.9096 6.79781 63.2326 6.79632 63.5556 6.79333" fill="#0075C9"/>
</svg>
