<svg width="92" height="37" viewBox="0 0 92 37" fill="none" xmlns="http://www.w3.org/2000/svg">
<path fill-rule="evenodd" clip-rule="evenodd" d="M3.73145 23.2424C4.11003 23.0268 4.21819 22.6496 4.21819 22.2724V13.8664C4.21819 13.597 4.11003 13.112 3.73145 12.8965H7.73358C9.5724 12.8965 11.3571 13.6509 11.3571 15.7524C11.3571 16.7762 10.3836 17.6383 9.35607 17.8539C10.8704 17.8539 12.2225 18.716 12.2225 20.3326C12.2225 22.7035 9.84281 23.2962 8.11216 23.2962H3.73145V23.2424ZM6.97614 13.8662C6.75981 13.8662 6.70573 13.8662 6.32715 13.8662V17.4765H6.81389C8.0578 17.4765 9.19354 17.0993 9.19354 15.6444C9.13946 14.2434 8.22005 13.8662 6.97614 13.8662ZM7.24693 18.3916C6.97652 18.3916 6.65202 18.3916 6.27344 18.3916V22.2174C6.76018 22.3252 7.24693 22.3252 7.67959 22.3252C8.70717 22.3252 9.78883 21.948 9.78883 20.3315C9.84291 18.7688 8.599 18.3916 7.24693 18.3916ZM16.225 13.8662C16.0087 13.8662 15.9546 13.8662 15.7383 13.8662V17.4765C15.9546 17.4765 16.0087 17.4765 16.225 17.4765C17.3608 17.4765 18.2261 16.8299 18.2261 15.5905C18.2261 14.2973 17.3608 13.8662 16.225 13.8662ZM21.4707 23.3501C21.0922 23.3501 20.6054 23.3501 20.2268 23.1346C19.5778 22.9191 18.6043 21.4103 18.2258 20.7637C17.5768 19.7937 17.09 18.3927 15.738 18.3927V22.2724C15.738 22.6496 15.8461 23.0268 16.2247 23.2424H13.0879C13.4665 23.0268 13.5746 22.6496 13.5746 22.2724V13.8664C13.5746 13.597 13.4665 13.112 13.0879 12.8965H16.9278C18.5503 12.8965 20.5513 13.5431 20.5513 15.5368C20.5513 17.1534 19.1993 18.0155 17.6849 18.0155C19.7942 18.0155 21.1462 23.0807 23.5259 23.0807C22.8228 23.2424 22.1738 23.3501 21.4707 23.3501ZM23.5801 23.2424C23.8505 23.1346 24.175 22.7574 24.175 22.2724V13.8664C24.175 13.3814 23.9046 13.112 23.5801 12.8965H26.8251C26.5546 13.112 26.2301 13.3814 26.2301 13.8664V22.3263C26.2301 22.8113 26.5006 23.1885 26.8251 23.2962H23.5801V23.2424ZM30.5566 23.2417C30.8271 23.0262 31.0434 22.649 31.0434 22.2718V14.1352H28.7719C28.177 14.1352 27.6362 14.243 27.1494 14.4046L27.9066 12.8959H35.4241C36.019 12.8959 36.668 12.8959 37.2629 12.7881C36.9925 13.5425 36.1272 14.1352 35.6404 14.1352C35.0455 14.1352 34.0179 14.1352 33.1526 14.1352V22.3257C33.1526 22.7029 33.3689 23.0801 33.7475 23.2956H30.5566V23.2417ZM37.6416 23.2424C37.912 23.1346 38.2365 22.7574 38.2365 22.2724V13.8664C38.2365 13.3814 37.9661 13.112 37.6416 12.8965H40.8866C40.6162 13.112 40.2917 13.3814 40.2917 13.8664V22.3263C40.2917 22.8113 40.5621 23.1885 40.8866 23.2962H37.6416V23.2424ZM47.0519 20.8708C47.0519 18.9848 42.3467 18.4999 42.3467 15.3746C42.3467 13.4886 44.1855 12.7881 45.808 12.7881C46.5651 12.7881 47.6468 12.8959 48.2958 13.1653L48.4039 15.159C48.0254 14.2969 46.9978 13.6502 46.0243 13.6502C45.2671 13.6502 44.51 14.0274 44.51 14.8896C44.51 16.8833 49.2693 17.4761 49.2693 20.3858C49.2693 22.4873 47.3764 23.4034 45.4294 23.4034C44.4018 23.4034 43.0497 23.1878 42.1844 22.649C42.1844 22.2718 42.0763 21.8946 42.0763 21.6252C42.0763 21.1402 42.1844 20.763 42.2926 20.2781C42.7793 21.5174 43.8069 22.4873 45.2671 22.4873C46.1866 22.4873 47.0519 22.0024 47.0519 20.8708ZM57.003 23.2424C57.2193 23.1346 57.4898 22.7574 57.4898 22.2724V18.4466C56.8948 18.3388 56.1377 18.3388 55.2724 18.3388C54.2989 18.3388 53.5417 18.3388 53.0009 18.4466V22.2724C53.0009 22.7574 53.2713 23.1346 53.4876 23.2424H50.459C50.6753 23.1346 50.9457 22.7574 50.9457 22.2724V13.8664C50.9457 13.3814 50.6753 13.112 50.459 12.8965H53.4876C53.2713 13.112 53.0009 13.3814 53.0009 13.8664V17.3689C53.5958 17.3689 54.353 17.4767 55.2724 17.4767C56.1377 17.4767 56.8948 17.3689 57.4898 17.3689V13.8664C57.4898 13.3814 57.2193 13.112 57.003 12.8965H60.0317C59.7612 13.112 59.5449 13.3814 59.5449 13.8664V22.3263C59.5449 22.8113 59.7612 23.1885 60.0317 23.2962H57.003V23.2424Z" fill="#01467B"/>
<path fill-rule="evenodd" clip-rule="evenodd" d="M7.73385 36.6592C7.84202 36.5514 7.95018 36.4436 7.95018 36.282C7.95018 36.282 7.84202 36.0664 7.84202 35.9048C7.84202 35.9048 6.97669 33.6416 6.86853 33.3183C6.21953 33.3183 5.51645 33.3183 4.86746 33.3183C4.27255 33.3183 3.62355 33.3183 3.02864 33.3183C2.92048 33.5877 2.00107 35.9048 2.00107 35.9048C1.8929 36.1742 1.78474 36.282 1.78474 36.3898C1.78474 36.6053 2.00107 36.6053 2.05515 36.6592H0C0.270414 36.4436 0.594912 36.1742 0.75716 35.9048L4.1103 27.0677C4.21846 27.0677 4.21846 26.9599 4.21846 26.9599C4.21846 26.6905 4.00213 26.475 3.83988 26.3672H6.48995L9.95125 35.9048C10.1676 36.282 10.438 36.4975 10.7084 36.6592H7.73385ZM4.97526 28.3066L3.46094 32.2941C3.94768 32.4019 4.43443 32.4019 4.86709 32.4019C5.35384 32.4019 5.89467 32.4019 6.48958 32.2941L4.97526 28.3066ZM11.1953 36.6592C11.4657 36.5514 11.7902 36.1742 11.7902 35.6893V27.2293C11.7902 26.7444 11.5198 26.475 11.1953 26.3672H14.4403C14.1699 26.475 13.8454 26.7444 13.8454 27.2293V35.6893C13.8454 36.1742 14.1158 36.5514 14.4403 36.6592H11.1953ZM19.1996 27.2285C18.9833 27.2285 18.9292 27.2285 18.7129 27.2285V30.8388C18.9292 30.8388 18.9833 30.8388 19.1996 30.8388C20.3354 30.8388 21.2007 30.2461 21.2007 28.9528C21.2007 27.7135 20.3354 27.2285 19.1996 27.2285ZM24.7158 36.7669C24.229 36.7669 23.8504 36.7669 23.4719 36.6592C22.8229 36.3898 21.7412 34.8271 21.3626 34.1805C20.7677 33.2106 20.0106 31.8095 18.7126 31.8095V35.6893C18.7126 36.0664 18.8207 36.4436 19.1993 36.6592H16.0625C16.4411 36.4436 16.5492 36.0664 16.5492 35.6893V27.2293C16.5492 26.9599 16.4411 26.475 16.0625 26.3672H19.8483C21.4708 26.3672 23.4719 26.9599 23.4719 28.9537C23.4719 30.5702 21.9575 31.4324 20.8759 31.4324C23.0933 31.5401 24.3913 36.4975 26.6087 36.4975C26.0678 36.6592 25.4188 36.7669 24.7158 36.7669ZM37.6412 27.3371L34.4503 36.6592C34.1799 36.6592 33.8554 36.5514 33.8013 36.4436C33.5309 36.1742 33.0442 34.9349 32.8278 34.4499L31.4217 30.8396L29.3124 36.6592H28.339L24.8236 27.3371C24.7154 26.9599 24.445 26.5827 24.0664 26.3672H27.095C26.9869 26.475 26.8787 26.5827 26.8787 26.7444C26.8787 26.8522 26.8787 27.0138 26.9869 27.1216L29.2584 33.3183L31.638 26.3672L34.2881 33.0489L36.3973 26.9599C36.3973 26.8522 36.5055 26.7444 36.5055 26.6905C36.5055 26.475 36.3973 26.475 36.2891 26.4211H38.2902C38.0198 26.5827 37.6953 26.9599 37.6412 27.3371ZM41.319 28.3066L39.8047 32.2941C40.2914 32.4019 40.7782 32.4019 41.2108 32.4019C41.6976 32.4019 42.2384 32.4019 42.7252 32.2941L41.319 28.3066ZM44.0235 36.6592C44.2399 36.5514 44.2399 36.4436 44.2399 36.282C44.2399 36.282 44.2399 36.0664 44.1317 35.9048C44.1317 35.9048 43.3745 33.6416 43.1582 33.3183C42.5633 33.3183 41.9143 33.3183 41.2653 33.3183C40.6704 33.3183 40.0214 33.3183 39.4265 33.3183C39.3183 33.5877 38.3989 35.9048 38.3989 35.9048C38.2907 36.1742 38.1826 36.282 38.1826 36.3898C38.1826 36.6053 38.3989 36.6053 38.453 36.6592H36.3438C36.6142 36.4436 36.9387 36.1742 36.9927 35.9048L40.5081 27.0677L40.6163 26.9599C40.6163 26.6905 40.4 26.475 40.2377 26.3672H42.8878L46.3491 35.9048C46.5654 36.282 46.8358 36.4975 47.1062 36.6592H44.0235ZM53.3797 27.4446L51.0001 31.7015V35.689C51.0001 36.0662 51.1082 36.4434 51.3787 36.6589H48.4041C48.6745 36.4434 48.7827 36.0662 48.7827 35.689V31.7015L46.6735 28.2529C46.4571 27.9834 45.6459 26.4208 44.4561 26.4208C44.7265 26.313 45.7 26.1514 46.2949 26.1514C47.3224 26.1514 47.8092 26.2591 48.4041 27.1752L50.4052 30.3005C50.6215 30.0311 52.1358 27.2829 52.1358 27.2829C52.3522 27.0135 52.4062 26.6902 52.4062 26.6363C52.4062 26.5286 52.4062 26.4208 52.1899 26.3669H54.4073C54.0287 26.5824 53.6501 27.0674 53.3797 27.4446ZM59.1122 34.2878C59.1122 32.4018 54.5152 31.9169 54.5152 28.7915C54.5152 26.9056 56.354 26.2051 57.9765 26.2051C58.7336 26.2051 59.8153 26.3128 60.4643 26.5823L60.5724 28.576C60.1939 27.7139 59.1663 27.0672 58.1928 27.0672C57.4356 27.0672 56.6785 27.4444 56.6785 28.3066C56.6785 30.3003 61.3837 30.8931 61.3837 33.8028C61.3837 36.0121 59.5449 36.8204 57.652 36.8204C56.6244 36.8204 55.2723 36.6048 54.407 36.066C54.407 35.6888 54.2988 35.4194 54.2988 35.0422C54.2988 34.5572 54.407 34.18 54.407 33.8028C55.0019 34.9344 56.0295 35.9043 57.3816 35.9043C58.355 35.9043 59.1122 35.4194 59.1122 34.2878Z" fill="#01467B"/>
<path fill-rule="evenodd" clip-rule="evenodd" d="M87.0733 5.72841C85.2344 7.45272 81.4486 8.9615 79.6098 9.60811C77.0138 10.578 75.8781 10.9552 74.472 11.4402C72.8495 11.9252 69.6045 12.949 69.6045 12.949C76.3108 14.9427 81.0701 15.5354 81.0701 15.5354C81.0701 15.5354 83.2875 14.8888 86.8029 12.949C88.6958 11.979 89.5611 11.4402 90.2642 10.7397C90.5346 10.5242 91.2376 9.87754 91.2917 9.01538C91.2917 8.90761 91.3999 8.79984 91.3999 8.63819C91.3999 8.63819 91.3999 8.53042 91.3999 8.42265C91.2917 8.31488 91.2917 8.20711 91.2917 8.20711C91.2917 8.20711 91.2917 7.99157 91.1836 7.82991C91.1836 7.72215 90.9672 7.23718 90.5887 6.96776C90.3182 6.75222 89.9397 6.32114 88.4794 5.83618C87.9927 5.62064 87.1273 5.45898 87.1273 5.45898L87.0733 5.72841Z" fill="#01467B"/>
<path fill-rule="evenodd" clip-rule="evenodd" d="M91.4005 8.58435C91.4005 8.58435 91.4005 8.36881 91.2924 8.31493C91.2924 8.09939 91.1842 8.0455 91.076 7.82997C90.9679 7.7222 90.8056 7.56054 90.5893 7.23723C90.373 7.12946 90.2107 6.96781 89.9944 6.75227C89.0209 6.15954 87.8852 5.89011 86.8576 5.72846C85.2351 5.51292 83.3422 5.51292 83.1259 5.51292C82.5309 5.51292 78.637 5.51292 77.6635 5.62069C73.2828 5.72846 67.8204 5.72846 66.4142 5.72846C51.8119 5.72846 45.4301 5.45904 38.3452 4.00415C32.342 2.92645 29.043 1.74099 29.043 1.74099C34.3972 1.52545 65.4408 0.232211 71.0654 0.124442C74.7971 0.016672 77.3931 -0.0910975 79.4482 0.124442C80.584 0.124442 81.5575 0.232211 82.8014 0.501635C83.9371 0.717174 85.0188 0.986598 85.5596 1.14825C86.8035 1.63322 87.9392 2.27983 88.426 3.03422C88.426 3.03422 88.6423 3.14199 88.8046 3.41141C89.0209 3.78861 89.2913 4.1658 89.3995 4.27357C90.1566 5.51292 90.5352 6.15954 90.6434 6.48285C90.8597 6.75227 90.9138 7.07558 91.022 7.345C91.2383 7.56054 91.2383 7.7222 91.2383 7.82997C91.3465 8.09939 91.3465 8.4227 91.4546 8.47658V8.58435H91.4005Z" fill="#C02B2D"/>
</svg>
