<svg width="145" height="25" viewBox="0 0 145 25" fill="none" xmlns="http://www.w3.org/2000/svg">
<path d="M17.2478 10.1C17.1533 10.1 17.0738 10.1024 17.0291 10.1074C16.9769 10.2019 16.8998 10.3286 16.7855 10.5051C18.565 10.5051 20.1806 10.6517 21.9675 10.9723L21.463 11.4595C19.85 11.1737 18.5104 11.0594 16.8029 11.0594C16.5544 11.0594 16.5022 11.0594 16.4426 11.0618C16.3829 11.1513 16.2486 11.3252 16.1145 11.4868C16.2661 11.4769 16.5594 11.4719 16.9644 11.4719C18.3687 11.4719 19.681 11.5763 21.1051 11.805L20.6005 12.2946C19.5169 12.1256 18.1922 12.0286 17.0042 12.0286C16.5817 12.0286 16.102 12.0436 15.672 12.0684C15.5751 12.1802 15.3216 12.4537 15.2446 12.5381C15.8137 12.4785 16.44 12.4511 17.1856 12.4511C18.2469 12.4511 19.261 12.5208 20.2203 12.6624L19.7157 13.147C19.0323 13.0626 18.2022 13.0129 17.469 13.0129C15.5776 13.0129 14.0864 13.4229 12.5454 14.3649C14.0143 15.9406 16.4202 16.9373 18.7514 16.9373H18.9701L18.155 17.7253C14.7922 17.0939 11.253 15.6151 8.26313 13.5894C5.38753 11.6484 4.38096 11.0743 2.13667 10.0826L2.12176 9.50596L3.64032 10.1572L4.15729 9.74706L9.1156 12.0187L8.79249 12.2772L6.24748 11.1712L5.99645 11.3675L7.31871 12.1057C8.43466 12.7271 9.28461 13.0054 10.07 13.0054C11.7874 13.0054 13.3284 11.7876 14.3225 9.64767C15.0706 9.55069 15.8684 9.50596 16.8278 9.50596C18.7962 9.50596 20.7074 9.69485 22.8722 10.1L22.3453 10.6095C20.9983 10.3286 18.7092 10.1 17.2478 10.1ZM12.4286 24.2542C5.97821 24.2542 0.745778 19.0218 0.745778 12.5714C0.745778 6.12099 5.97821 0.888502 12.4286 0.888502C18.879 0.888502 24.1114 6.12099 24.1114 12.5714C24.1114 19.0218 18.879 24.2542 12.4286 24.2542ZM12.4286 0.142839C5.55566 0.142839 0 5.69838 0 12.5714C0 19.4444 5.55566 25 12.4286 25C19.3016 25 24.8572 19.4444 24.8572 12.5714C24.8572 5.69838 19.3016 0.142839 12.4286 0.142839ZM45.2637 17.5192H52.3894V20.8571H41.4286V4.28563H45.2637V17.5192ZM61.0066 8.92569H64.5812V20.8571H61.2197V19.4841C60.7225 20.4074 59.7046 21.2122 57.8343 21.2122C54.7806 21.2122 53.1944 19.8391 53.1944 15.9094V8.92569H56.7691V15.7436C56.7691 17.3298 57.4557 18.0399 58.8997 18.0399C60.2018 18.0399 61.0066 17.3298 61.0066 15.7436V8.92569ZM67.3274 8.47595C67.3274 5.58784 69.1504 4.04893 72.0148 4.04893C72.9382 4.04893 73.53 4.19098 73.53 4.19098V7.0791C73.53 7.0791 73.0328 7.03192 72.6066 7.03192C71.494 7.03192 70.902 7.41069 70.902 8.45227V8.92569H73.53V11.8375H70.902V20.8571H67.3274V11.8375H65.5283V8.92569H67.3274V8.47595ZM79.8267 8.92569H82.5492V11.8375H79.8267V16.4775C79.8267 17.7559 80.4896 18.0874 81.5314 18.0874C81.9575 18.0874 82.5492 18.0164 82.5492 18.0164V20.8808C82.5492 20.8808 81.7208 21.0701 80.845 21.0701C77.9805 21.0701 76.2524 19.7682 76.2524 16.8801V11.8375H74.453V8.92569H76.2524V5.44572H79.8267V8.92569ZM90.4635 8.5706C93.4941 8.5706 95.0801 9.9436 95.0801 13.8734V20.8571H91.5053V14.0391C91.5053 12.4531 90.819 11.7429 89.3276 11.7429C87.9778 11.7429 87.1734 12.4531 87.1734 14.0391V20.8571H83.5985V4.30937H87.1968V10.0857C87.8123 9.20969 88.7828 8.5706 90.4635 8.5706ZM104.194 16.2171C104.194 17.5192 102.963 18.4899 101.069 18.4899C100.146 18.4899 99.6014 18.0637 99.6014 17.2587C99.6014 16.6433 99.9803 16.1225 101.188 15.9569L103.248 15.6727C103.602 15.6252 103.981 15.5543 104.194 15.4833V16.2171ZM102.206 8.57066C98.6784 8.57066 96.9737 9.9201 96.8322 12.4531H100.312C100.359 11.7902 100.738 11.293 102.206 11.293C103.508 11.293 104.123 11.7193 104.123 12.3583C104.123 12.9267 103.768 13.1396 102.892 13.2343L100.62 13.471C97.5419 13.8023 96.1453 15.0808 96.1453 17.4009C96.1453 19.5551 97.4712 21.2122 100.288 21.2122C102.206 21.2122 103.342 20.5967 104.336 19.3656V20.8571H107.604V13.0212C107.604 9.73063 105.686 8.57066 102.206 8.57066ZM115.869 8.5706C118.971 8.5706 120.557 9.9436 120.557 13.8734V20.8571H116.982V14.0391C116.982 12.4531 116.295 11.7429 114.804 11.7429C113.454 11.7429 112.65 12.4531 112.65 14.0391V20.8571H109.075V8.92575H112.436V10.2989C112.934 9.37548 113.952 8.5706 115.869 8.5706ZM128.097 13.3763C131.127 13.7788 132.643 14.7257 132.643 17.2114C132.643 19.7209 130.867 21.2122 127.103 21.2122C123.008 21.2122 121.563 19.5789 121.493 17.1877H125.02C125.115 18.0637 125.73 18.4899 127.103 18.4899C128.5 18.4899 129.068 18.1583 129.068 17.4956C129.068 16.8801 128.594 16.596 127.364 16.4303L126.109 16.2644C123.481 15.9094 121.966 14.8915 121.966 12.5241C121.966 10.2515 123.647 8.5706 127.174 8.5706C130.441 8.5706 132.193 9.87263 132.359 12.4531H128.878C128.76 11.7667 128.381 11.3404 127.174 11.3404C125.99 11.3404 125.541 11.7429 125.541 12.2638C125.541 12.7845 125.825 13.0686 126.843 13.2107L128.097 13.3763ZM141.591 16.2173C141.591 17.5192 140.36 18.4899 138.466 18.4899C137.543 18.4899 136.999 18.0637 136.999 17.2587C136.999 16.6433 137.377 16.1225 138.585 15.9569L140.644 15.6727C141 15.6255 141.378 15.5543 141.591 15.4833V16.2173ZM139.602 8.57066C136.075 8.57066 134.371 9.9201 134.229 12.4531H137.709C137.756 11.7902 138.135 11.2932 139.602 11.2932C140.905 11.2932 141.52 11.7193 141.52 12.3585C141.52 12.9267 141.165 13.1396 140.289 13.2343L138.016 13.471C134.939 13.8025 133.542 15.0809 133.542 17.4009C133.542 19.5551 134.868 21.2122 137.685 21.2122C139.602 21.2122 140.739 20.5967 141.733 19.3656V20.8571H145V13.0212C145 9.7308 143.082 8.57066 139.602 8.57066Z" fill="#0A1D3D"/>
</svg>
