<svg width="199" height="17" viewBox="0 0 199 17" fill="none" xmlns="http://www.w3.org/2000/svg">
<path fill-rule="evenodd" clip-rule="evenodd" d="M188.477 0C191.989 0 195.492 0 199 0C195.85 4.09483 192.878 9.10339 189.363 13.3146C188.193 14.7192 186.839 15.9366 184.687 15.9735C181.365 16.0217 177.347 16.1182 173.981 16.1182C174.011 15.6699 174.698 15.7039 174.944 15.6415C176.992 15.1279 178.376 13.831 179.576 12.1937C182.5 8.21235 185.612 3.81105 188.477 0Z" fill="url(#paint0_linear_1953_6446)"/>
<path fill-rule="evenodd" clip-rule="evenodd" d="M51.0008 15.6868L45.5425 10.4625C45.9751 10.3405 46.4048 10.1816 46.8315 9.98581C47.5812 9.63677 48.1294 9.25935 48.7399 8.38817C49.1843 7.74401 49.4125 6.88418 49.4125 5.98179C49.4125 4.81549 48.9917 3.86485 48.1472 3.12988C47.3056 2.38924 46.2566 1.9125 45.012 1.694C44.2001 1.54644 42.4547 1.47266 39.7759 1.47266H32.7144V16.1181H37.1178V10.8882H39.844L42.3747 13.3797L43.7052 14.6822L44.7157 15.6811C44.9587 15.9251 45.4447 16.1124 45.7914 16.1124H46.5174H50.8082H51.4424L51.0008 15.6868ZM37.1178 4.24482H39.2395C40.8249 4.24482 41.8857 4.27603 42.4073 4.3413C43.1214 4.42927 43.7082 4.6421 44.1764 4.99114C44.6416 5.33734 44.7513 5.64381 44.7513 6.18014C44.7513 6.61147 44.7068 6.82998 44.3749 7.15632C44.046 7.47982 43.5837 7.72102 43.0029 7.87426C42.4162 8.03317 41.2575 8.10411 39.524 8.10411H37.1148L37.1178 4.24482Z" fill="#131D41"/>
<rect x="23.7065" y="1.28809" width="4.61978" height="14.8413" fill="#131D41"/>
<path fill-rule="evenodd" clip-rule="evenodd" d="M68.0518 11.461V8.16925H57.8225V4.51995H68.3659V1.33887H53.4072V16.112H57.781V11.461H68.0518Z" fill="#131D41"/>
<path fill-rule="evenodd" clip-rule="evenodd" d="M89.4676 15.6333L84.0093 10.4119C84.4449 10.287 84.8716 10.1366 85.2983 9.93795C86.048 9.58892 86.5992 9.20582 87.2096 8.33748C87.6511 7.69616 87.8852 6.83065 87.8852 5.92826C87.8852 4.7648 87.4615 3.81132 86.617 3.07636C85.7724 2.34139 84.7293 1.86465 83.4818 1.64615C82.6698 1.49859 80.9245 1.4248 78.2486 1.4248H71.1812V16.0759H75.5846V10.8432H78.3138L80.8445 13.3319L82.172 14.6344L83.1855 15.6389C83.4284 15.8745 83.9085 16.0703 84.2582 16.0703H84.9871H89.278H89.9092L89.4676 15.6333ZM75.5875 4.19697H77.7122C79.2975 4.19697 80.3554 4.23102 80.8799 4.29629C81.5911 4.38142 82.1808 4.59709 82.649 4.94613C83.1172 5.29516 83.2239 5.60164 83.2239 6.13797C83.2239 6.5693 83.1794 6.7878 82.8475 7.11414C82.5157 7.43764 82.0563 7.67601 81.4726 7.82924C80.8888 7.98816 79.7272 8.0591 77.9937 8.0591H75.5845L75.5875 4.19697Z" fill="#131D41"/>
<path fill-rule="evenodd" clip-rule="evenodd" d="M16.7545 16.1126H22.2721L12.517 1.3877H8.73579L0 16.1665H4.34419L6.21106 12.7896H14.7691L16.7545 16.1126ZM7.85867 9.79856L10.3182 5.35186L12.9822 9.79856H7.85867Z" fill="#131D41"/>
<path fill-rule="evenodd" clip-rule="evenodd" d="M106.963 16.0609H112.392L102.793 1.33887H99.0686L90.478 16.112H94.7481L96.5824 12.738H105.001L106.963 16.0609ZM98.2091 9.75541L100.627 5.30303L103.25 9.75541H98.2091Z" fill="#131D41"/>
<path fill-rule="evenodd" clip-rule="evenodd" d="M113.073 1.33887V16.1319H116.748V7.39739L127.519 16.112H130.654V1.33887H126.9V9.93147L116.016 1.33887H113.073Z" fill="#131D41"/>
<path fill-rule="evenodd" clip-rule="evenodd" d="M158.373 7.16186V4.43198H169.367V1.33887H153.786V16.112H169.367V13.0303H158.373V10.3004H169.367V7.16186H158.373Z" fill="#131D41"/>
<path fill-rule="evenodd" clip-rule="evenodd" d="M144.585 13.0311C139.367 13.278 137.393 10.8688 137.426 8.62982C137.461 6.72855 138.967 4.42716 143.868 4.46972C146.363 4.49243 149.036 5.12524 151.021 5.97939V2.39819C149.143 1.59228 146.793 1.12973 144.067 1.09284C136.866 0.99636 132.465 4.36473 132.421 8.58158C132.365 13.5164 137.524 16.3569 144.067 16.3569C146.659 16.3569 149.066 15.8206 151.021 14.9154V11.3512C149.306 12.2139 147.027 12.9204 144.585 13.0311Z" fill="#131D41"/>
<defs>
<linearGradient id="paint0_linear_1953_6446" x1="164.122" y1="-0.0736062" x2="164.079" y2="28.7807" gradientUnits="userSpaceOnUse">
<stop stop-color="#D72027"/>
<stop offset="0.1528" stop-color="#D21F26"/>
<stop offset="0.3117" stop-color="#C51F25"/>
<stop offset="0.4733" stop-color="#B11D23"/>
<stop offset="0.6358" stop-color="#96191E"/>
<stop offset="0.7857" stop-color="#781217"/>
</linearGradient>
</defs>
</svg>
