<svg width="160" height="55" viewBox="0 0 160 55" fill="none" xmlns="http://www.w3.org/2000/svg">
<path fill-rule="evenodd" clip-rule="evenodd" d="M5.19835 12.4578H11.3658V45.6668C11.3658 50.8305 7.61505 54.2958 2.41475 54.2958H0V48.4627H1.75037C3.8671 48.4627 5.19835 47.4875 5.19835 45.1797V12.4578ZM5.19844 0H11.3659V6.19871H5.19844V0ZM21.5137 25.0968C21.6337 20.4182 24.3553 17.9274 27.985 17.9274C31.6143 17.9274 34.274 20.4182 34.4532 25.0968H21.5137ZM40.6206 30.1992V25.0972C40.6206 17.1372 34.7531 12.0938 27.9857 12.0938C22.0561 12.0938 15.3465 15.9808 15.3465 27.9537C15.3465 40.592 22.6616 43.6313 28.952 43.6313C33.0611 43.6313 36.9929 42.1701 40.0142 38.6471L35.5433 34.8209C33.7265 36.703 31.1885 37.7971 28.8304 37.7971C24.5969 37.7971 21.5136 35.2437 21.5136 30.1992H40.6206ZM45.5106 3.09922H51.6775V12.4584H56.149V17.1982H51.6775V35.1225C51.6775 36.8254 52.3416 37.4325 53.8489 37.4325H56.1487V43.2655H52.9454C48.6506 43.2655 45.5104 40.5265 45.5104 35.6695V17.1982H42.4215V12.4584H45.5104V3.09922H45.5106ZM76.6505 24.0641C81.4864 24.0641 83.6595 27.162 83.6595 30.5642C83.6595 33.969 81.4858 37.0669 76.6505 37.0669H66.611V24.0641H76.6505ZM60.0774 43.2656H78.2194C84.6912 43.2656 90.1915 38.4648 90.1915 30.9919C90.1915 26.6164 87.8945 22.12 83.1789 21.0234V20.9036C88.1978 18.6545 89.5296 15.1914 89.5296 11.6075C89.5291 4.80143 85.1709 0 76.7684 0H60.0774V43.2656ZM76.0422 5.83594C80.7595 5.83594 82.9957 8.69051 82.9957 12.0333C82.9957 15.4338 80.7595 18.2328 76.0422 18.2328H66.611V5.83594H76.0422ZM93.7363 0H99.9037V35.3046C99.9037 36.7021 100.69 37.4323 102.207 37.4323H104.32V43.2654H101.599C97.1212 43.2654 93.736 41.3221 93.736 35.7897V0H93.7363ZM106.919 12.4578H113.087V30.8069C113.087 35.0024 115.686 37.4319 119.198 37.4319C122.642 37.4319 125.239 35.0027 125.239 30.8069V12.4578H131.409V43.2652H125.239V39.9822H125.123C123.187 42.4144 120.404 43.6306 117.199 43.6306C112.365 43.6306 106.919 39.9219 106.919 32.9363V12.4578ZM140.891 25.0968C141.017 20.4182 143.732 17.9274 147.361 17.9274C150.989 17.9274 153.648 20.4182 153.834 25.0968H140.891ZM160 30.1992V25.0972C160 17.1372 154.135 12.0938 147.361 12.0938C141.434 12.0938 134.72 15.9808 134.72 27.9537C134.72 40.592 142.04 43.6313 148.326 43.6313C152.443 43.6313 156.37 42.1701 159.395 38.6471L154.918 34.8212C153.104 36.7033 150.568 37.7977 148.208 37.7977C143.977 37.7977 140.891 35.2446 140.891 30.1995L160 30.1992Z" fill="#203C73"/>
</svg>
