<svg width="199" height="34" viewBox="0 0 199 34" fill="none" xmlns="http://www.w3.org/2000/svg">
<path fill-rule="evenodd" clip-rule="evenodd" d="M177.858 24.2352L182.062 30.6253C183.365 32.5404 185.511 33.4095 188.186 33.4095H199L186.34 19.3742L184.544 18.4385L179.804 19.8534L177.402 23.033L177.858 24.2352Z" fill="url(#paint0_linear_1953_6800)"/>
<path fill-rule="evenodd" clip-rule="evenodd" d="M186.392 19.4621L183.749 16.5312L176.764 19.9685L177.505 23.4381L177.91 24.3231C177.751 21.9717 182.164 19.2416 186.392 19.4621Z" fill="url(#paint1_linear_1953_6800)"/>
<path fill-rule="evenodd" clip-rule="evenodd" d="M177.929 24.2913L174.149 18.5745C173.694 17.926 173.569 17.3585 173.569 16.6974C173.569 15.9702 173.908 15.5715 175.21 14.9401C176.726 14.2761 179.778 13.9873 182.924 13.9873C188.037 13.9873 189.262 15.4884 189.784 17.1082C189.784 17.1082 189.062 16.8457 187.364 16.8457C181.978 16.8457 177.673 19.2376 177.673 22.8593C177.673 23.6192 177.929 24.2913 177.929 24.2913Z" fill="url(#paint2_linear_1953_6800)"/>
<path fill-rule="evenodd" clip-rule="evenodd" d="M161.75 0H166.834C168.977 0 169.857 0.802346 170.724 1.58953C171.717 2.41507 174.727 6.14274 181.092 13.4183H174.203C171.387 13.4183 170.496 12.9793 169.406 11.4594L161.75 0Z" fill="url(#paint3_linear_1953_6800)"/>
<path fill-rule="evenodd" clip-rule="evenodd" d="M28.2229 25.943V19.8984C28.2229 17.9166 27.504 16.8626 26.1475 16.8626C25.2451 16.8626 24.439 17.4662 24.09 18.403C24.0028 18.6493 23.9517 19.0126 23.9517 19.3729V25.943H21.3919V19.6012C21.3919 17.8625 20.658 16.8626 19.3826 16.8626C18.2547 16.8626 17.5298 17.7454 17.256 18.4961C17.1628 18.8084 17.1207 19.1267 17.1207 19.463V25.943H14.5549V18.2289C14.5549 16.9917 14.5098 15.9257 14.4707 15.0189H16.6936L16.8289 16.6614H17.0335L17.0575 16.6164C17.5689 15.7696 18.5645 14.7637 20.4053 14.7637C21.78 14.7637 22.926 15.5324 23.4042 16.7575L23.4283 16.8176H23.5907L23.6178 16.7755C23.9818 16.193 24.4239 15.7366 24.9383 15.4123C25.588 14.9709 26.2949 14.7637 27.1702 14.7637C28.0214 14.7637 30.7827 15.109 30.7827 19.4841V25.943H28.2229Z" fill="#3A4D75"/>
<path fill-rule="evenodd" clip-rule="evenodd" d="M37.6611 16.4985C35.7781 16.4985 35.0923 18.2581 34.99 19.294L34.984 19.3931H40.0614L40.0644 19.3031C40.0704 18.9848 40.0343 17.8737 39.3094 17.135C38.8973 16.7116 38.3439 16.4985 37.6611 16.4985ZM38.1214 26.1673C34.6382 26.1673 32.4785 24.0503 32.4785 20.6482C32.4785 17.8135 34.1509 14.7627 37.8236 14.7627C41.2947 14.7627 42.528 17.6274 42.528 20.0806C42.528 20.6031 42.4859 20.9815 42.4528 21.1796H34.9871L34.9901 21.2667C35.0683 23.4498 36.8581 24.2305 38.5094 24.2305C39.881 24.2305 40.8075 23.9993 41.5264 23.756L41.8963 25.5007C41.1443 25.8129 39.8961 26.1673 38.1214 26.1673Z" fill="#3A4D75"/>
<path fill-rule="evenodd" clip-rule="evenodd" d="M44.4612 25.943V18.5081C44.4612 16.9437 44.4371 15.9257 44.377 15.0189H46.6179L46.7291 17.1149H46.9487L46.9698 17.0518C47.4631 15.6645 48.6332 14.7637 49.9446 14.7637C50.1822 14.7637 50.3296 14.7817 50.9733 14.8177V17.259C50.2875 17.223 50.0499 17.2049 49.7672 17.2049C48.4226 17.2049 47.427 18.0457 47.1593 19.397C47.1172 19.6492 47.0901 19.9495 47.0901 20.2618V25.943H44.4612Z" fill="#3A4D75"/>
<path fill-rule="evenodd" clip-rule="evenodd" d="M62.5608 26.1683C59.1318 26.1683 56.918 23.9762 56.918 20.5831C56.918 17.0998 59.3694 14.7637 63.021 14.7637C63.9204 14.7637 64.9311 14.9468 65.6319 15.2291L65.1777 17.1629C64.5972 16.9017 63.9264 16.7725 63.1113 16.7725C62.1157 16.7725 61.2524 17.1088 60.6237 17.7394C59.962 18.4061 59.6071 19.379 59.6161 20.469C59.6161 22.664 61.0238 24.1384 63.1113 24.1384C63.8843 24.1384 64.5761 24.0092 65.2619 23.742L65.6139 25.6338C65.0273 25.889 63.9114 26.1683 62.5608 26.1683Z" fill="#3A4D75"/>
<path fill-rule="evenodd" clip-rule="evenodd" d="M73.3146 20.5103C70.7789 20.5103 69.4915 21.2399 69.4915 22.6843C69.4915 23.7202 70.1383 24.3658 71.182 24.3658C72.3972 24.3658 73.2123 23.5731 73.4861 22.7774C73.5583 22.5582 73.5583 22.342 73.5583 22.1288V20.5133L73.3146 20.5103ZM70.2917 26.1913C68.0568 26.1913 66.8867 24.5728 66.8867 22.9693C66.8867 20.3299 69.1637 18.8675 73.3026 18.8675H73.4921V18.5942C73.4921 17.8345 73.1823 16.5674 71.1369 16.5674C70.1142 16.5674 68.9983 16.8586 68.2012 17.3331L67.7049 15.6936C68.147 15.4323 69.5036 14.7627 71.6152 14.7627C75.336 14.7627 76.118 17.27 76.118 19.372V23.3627C76.118 24.4647 76.1692 25.3355 76.2805 25.9421H73.9283L73.7297 24.7109H73.5342L73.5072 24.744C72.8063 25.6658 71.6332 26.1913 70.2917 26.1913Z" fill="#3A4D75"/>
<path fill-rule="evenodd" clip-rule="evenodd" d="M85.4935 25.943V19.7603C85.4935 17.8896 84.7024 16.8626 83.2736 16.8626C82.0374 16.8626 81.2733 17.7815 80.9966 18.5652C80.9124 18.7874 80.8552 19.1297 80.8552 19.4841V25.943H78.2293V18.2289C78.2293 16.9917 78.1842 15.9257 78.1421 15.0189H80.4071L80.5424 16.6794H80.747L80.774 16.6344C81.2974 15.7336 82.4885 14.7637 84.2602 14.7637C86.1251 14.7637 88.1194 15.9918 88.1194 19.442V25.943H85.4935Z" fill="#3A4D75"/>
<path fill-rule="evenodd" clip-rule="evenodd" d="M112.309 25.943V18.5081C112.309 16.9437 112.285 15.9257 112.228 15.0189H114.463L114.577 17.1149H114.794L114.821 17.0518C115.308 15.6645 116.481 14.7637 117.796 14.7637C118.03 14.7637 118.178 14.7817 118.824 14.8177V17.259C118.133 17.223 117.901 17.2049 117.612 17.2049C116.271 17.2049 115.275 18.0457 115.01 19.397C114.965 19.6492 114.938 19.9495 114.938 20.2618V25.943H112.309Z" fill="#3A4D75"/>
<path fill-rule="evenodd" clip-rule="evenodd" d="M119.946 25.9514H122.572V9.9375H119.946V25.9514Z" fill="#3A4D75"/>
<path fill-rule="evenodd" clip-rule="evenodd" d="M137.909 25.943V19.7603C137.909 17.8896 137.118 16.8626 135.689 16.8626C134.45 16.8626 133.686 17.7815 133.412 18.5652C133.325 18.7874 133.268 19.1297 133.268 19.4841V25.943H130.642V18.2289C130.642 16.9917 130.597 15.9257 130.558 15.0189H132.82L132.952 16.6794H133.162L133.19 16.6344C133.713 15.7336 134.907 14.7637 136.676 14.7637C138.538 14.7637 140.535 15.9918 140.535 19.442V25.943H137.909Z" fill="#3A4D75"/>
<path fill-rule="evenodd" clip-rule="evenodd" d="M147.642 16.4985C145.753 16.4985 145.07 18.2581 144.968 19.294L144.962 19.3931H150.036L150.042 19.3031C150.051 18.9848 150.012 17.8737 149.287 17.135C148.875 16.7116 148.324 16.4985 147.642 16.4985ZM148.096 26.1673C144.619 26.1673 142.456 24.0503 142.456 20.6482C142.456 17.8135 144.128 14.7627 147.801 14.7627C151.278 14.7627 152.506 17.6274 152.506 20.0806C152.506 20.6061 152.463 20.9905 152.43 21.1796H144.968V21.2667C145.046 23.4498 146.833 24.2305 148.487 24.2305C149.862 24.2305 150.788 23.9993 151.501 23.756L151.877 25.5007C151.122 25.8129 149.871 26.1673 148.096 26.1673Z" fill="#3A4D75"/>
<path fill-rule="evenodd" clip-rule="evenodd" d="M157.311 26.1683C156.093 26.1683 154.905 25.901 154.032 25.4416L154.553 23.5768C155.217 23.9582 156.375 24.3456 157.332 24.3456C158.52 24.3456 159.203 23.8561 159.203 23.0003C159.203 22.1355 158.598 21.7602 157.32 21.2917C155.353 20.6341 154.318 19.5441 154.318 18.1388C154.318 16.154 156.005 14.7637 158.427 14.7637C159.489 14.7637 160.55 14.9919 161.287 15.3792L160.77 17.1599C160.253 16.8746 159.377 16.5683 158.475 16.5683C157.476 16.5683 156.83 17.0668 156.83 17.8445C156.83 18.6132 157.419 18.9556 158.83 19.481C160.848 20.1807 161.72 21.1686 161.742 22.7721C161.742 24.868 160.039 26.1683 157.311 26.1683Z" fill="#3A4D75"/>
<path fill-rule="evenodd" clip-rule="evenodd" d="M4.229 20.8397L5.65776 15.8971C5.82019 15.3146 5.98262 14.669 6.13602 14.0444C6.22024 13.6931 6.30747 13.3477 6.39169 13.0265L6.40673 12.9574H6.59322L6.74362 13.5489C6.93312 14.2966 7.14969 15.1434 7.38732 15.8941L8.85819 20.8397H4.229ZM10.4285 26.0974H13.28L8.32894 10.9033H4.88186L0 26.0974H2.71014L3.67267 22.7463H9.42984L10.4285 26.0974Z" fill="#3A4D75"/>
<path fill-rule="evenodd" clip-rule="evenodd" d="M96.1982 20.8397L97.633 15.8971C97.7894 15.3146 97.9519 14.669 98.1053 14.0444C98.1925 13.6931 98.2767 13.3477 98.3609 13.0265L98.379 12.9574H98.5685L98.7189 13.5489C98.9054 14.2966 99.1219 15.1434 99.3596 15.8941L100.833 20.8397H96.1982ZM102.401 26.0974H105.246L100.298 10.9033H96.8451L91.9692 26.0974H94.6794L95.6509 22.7463H101.402L102.401 26.0974Z" fill="#3A4D75"/>
<path fill-rule="evenodd" clip-rule="evenodd" d="M52.416 26.0091H55.0449V15.085H52.416V26.0091Z" fill="#3A4D75"/>
<path fill-rule="evenodd" clip-rule="evenodd" d="M52.7378 13.1424H55.09V10.9023H52.7378V13.1424Z" fill="#3A4D75"/>
<path fill-rule="evenodd" clip-rule="evenodd" d="M106.762 26.0091H109.394V15.085H106.762V26.0091Z" fill="#3A4D75"/>
<path fill-rule="evenodd" clip-rule="evenodd" d="M106.762 13.1424H109.12V10.9023H106.762V13.1424Z" fill="#3A4D75"/>
<path fill-rule="evenodd" clip-rule="evenodd" d="M125.413 26.0091H128.042V15.085H125.413V26.0091Z" fill="#3A4D75"/>
<path fill-rule="evenodd" clip-rule="evenodd" d="M125.734 13.1424H128.087V10.9023H125.734V13.1424Z" fill="#3A4D75"/>
<path fill-rule="evenodd" clip-rule="evenodd" d="M58.6419 8.00751L58.7888 8.53501H58.7915L58.9406 8.00751H59.0654L59.1621 8.66797H59.0621L58.9935 8.12912H58.9914L58.8374 8.66797H58.7304L58.5808 8.13128H58.5792L58.5106 8.66797H58.4155L58.5117 8.00751H58.6419ZM58.3313 8.00751V8.09236H58.1368V8.66797H58.0407V8.09236H57.8462V8.00751H58.3313Z" fill="#334357"/>
<defs>
<linearGradient id="paint0_linear_1953_6800" x1="167.384" y1="19.4968" x2="167.384" y2="33.3744" gradientUnits="userSpaceOnUse">
<stop stop-color="#EB2023"/>
<stop offset="0.096269" stop-color="#E92026"/>
<stop offset="0.203864" stop-color="#E31E27"/>
<stop offset="0.298638" stop-color="#E01E26"/>
<stop offset="0.404297" stop-color="#D81F27"/>
<stop offset="0.5" stop-color="#CF2027"/>
<stop offset="0.6" stop-color="#C62127"/>
<stop offset="0.7" stop-color="#B92025"/>
<stop offset="0.8" stop-color="#AE1F23"/>
<stop offset="0.9" stop-color="#A01D22"/>
<stop offset="1" stop-color="#901C1C"/>
</linearGradient>
<linearGradient id="paint1_linear_1953_6800" x1="180.917" y1="27.7107" x2="188.053" y2="21.3275" gradientUnits="userSpaceOnUse">
<stop stop-color="#6C221F"/>
<stop offset="0.249132" stop-color="#7F2620"/>
<stop offset="0.498264" stop-color="#982B24"/>
<stop offset="0.749132" stop-color="#B53125"/>
<stop offset="1" stop-color="#CB3327"/>
</linearGradient>
<linearGradient id="paint2_linear_1953_6800" x1="182.365" y1="26.8615" x2="190.06" y2="16.776" gradientUnits="userSpaceOnUse">
<stop stop-color="#E7EBEE"/>
<stop offset="0.249132" stop-color="#DFE4E8"/>
<stop offset="0.498264" stop-color="#CAD1D7"/>
<stop offset="0.749132" stop-color="#A8B5BD"/>
<stop offset="1" stop-color="#93A6AD"/>
</linearGradient>
<linearGradient id="paint3_linear_1953_6800" x1="160.612" y1="0.00403406" x2="160.612" y2="13.4107" gradientUnits="userSpaceOnUse">
<stop stop-color="#05AEE9"/>
<stop offset="0.096269" stop-color="#00A9E0"/>
<stop offset="0.203864" stop-color="#07A3DC"/>
<stop offset="0.298638" stop-color="#089DD5"/>
<stop offset="0.404297" stop-color="#0A92CC"/>
<stop offset="0.5" stop-color="#0F87C3"/>
<stop offset="0.6" stop-color="#127CB8"/>
<stop offset="0.7" stop-color="#0E70AD"/>
<stop offset="0.8" stop-color="#0F63A3"/>
<stop offset="0.9" stop-color="#135393"/>
<stop offset="1" stop-color="#184485"/>
</linearGradient>
</defs>
</svg>
