<?xml version="1.0" encoding="utf-8"?>
<!-- Generator: Adobe Illustrator 24.3.0, SVG Export Plug-In . SVG Version: 6.00 Build 0)  -->
<svg version="1.1" id="Capa_1" xmlns="http://www.w3.org/2000/svg" xmlns:xlink="http://www.w3.org/1999/xlink" x="0px" y="0px"
	 viewBox="0 0 1920 1257" style="enable-background:new 0 0 1920 1257;" xml:space="preserve">
<style type="text/css">
	.st0{fill:#E40046;}
</style>
<path class="st0" d="M8.4,1061.4c7.3,33.2,21.5,63.3,45.5,88c32.8,33.6,74.1,47,119.7,49.7c23.2,1.3,46.2-1.5,69-6
	c77.9-15.4,151.1-43.2,218.8-85c29.6-18.3,56.9-39.5,78.4-67.3c14.5-18.8,25-39.3,26.1-63.6c0.7-14.5-0.9-28.6-8.1-41.6
	c-7.4-13.2-18.7-19.3-33.6-16.9c-6.4,1-12.9,3.4-18.7,6.4c-85.1,44.6-175.7,72.1-270.1,87.8c-20.4,3.4-41.1,4-61.7,0.7
	c-28.4-4.7-45.9-21-51.4-49.1c-3.5-17.9-1.4-35.4,4.3-52.7c9.5-28.9,26.3-53.4,46.4-75.6c53.4-58.9,115.9-106.3,185.5-144.6
	c42.8-23.5,87.4-43,132.3-62.1c31.7-13.5,59-33.1,78.5-62c18.6-27.6,29.4-57.5,22.4-91.4c-5.7-27.5-20.1-47.6-48.8-54.7
	c-12.1-3-24.7-3.3-36.6,0.2c-22.5,6.6-45,13.3-66.8,21.8c-95.6,37.2-180.8,91-255,162C125.3,661.7,77,726.1,42.7,800.6
	C20.2,849.3,6.7,900.5,2,954.1c-0.6,6.4-1.3,12.9-2,19.3c0,10.3,0,20.7,0,31c0.3,2.1,0.7,4.2,1,6.3
	C3.4,1027.6,4.7,1044.7,8.4,1061.4z"/>
<path class="st0" d="M889.9,38.4c-12.9-12-27.3-21.9-44.1-27.7c-26.9-9.2-49.6-1.3-64.7,22.7c-7.5,11.8-12.6,24.7-15.2,38.3
	c-5.1,26.4-10,52.9-14.1,79.5c-12.6,80.3-25.4,160.6-36.9,241.1c-7.7,53.7-14.1,107.5-19.6,161.5c-5.1,49.8-9.2,99.8-12.3,149.7
	c-3.2,51.8-4.7,103.8-5.9,130.7c0.1,84,2,142.9,8.1,201.5c2.1,20.5,4.2,41.1,8.4,61.3c10.7,50.7,37.2,92.5,75.7,126.8
	c15,13.4,31.5,24.6,51.5,29.6c23.5,5.8,39.8-5,42.6-28.9c1.1-9.8,1.2-20.1-0.2-29.8c-7.3-50-11.6-100.2-12.2-150.7
	c-0.4-37.1,0.2-74.3,1-111.4c0.4-22.3,1.8-44.6,3.1-66.9c2-32.1,4.2-64.1,6.6-96.1c2.1-27.4,3.4-54.9,7.1-82
	c6.6-48.9,13.9-97.8,22.5-146.4c10.7-60.6,22.1-121,34.6-181.2c9.9-47.7,21.5-95,33.3-142.2c5-19.7,6.2-39.1,1.8-58.7
	C950.1,111.4,925.4,71.7,889.9,38.4z"/>
<path class="st0" d="M1844.9,200.7c-15,1-29,5.7-43,10.4c-102.1,34.1-193.3,86.9-273.5,158.7c-59.9,53.5-109.7,115.1-147.1,186.4
	c-35.1,66.9-53.8,137.9-54.8,198.5c-0.2,46.1,3.3,76.7,13.1,106.4c19.3,58.6,57.6,97.3,118.2,112.7c35.2,8.9,70.6,7.6,106,1
	c70.4-13.1,136.9-37.2,199.6-71.6c32.5-17.9,63-38.6,88.8-65.6c15.3-16,28.3-33.7,35.2-55.1c7-21.8,7.5-43.6-2.6-64.7
	c-7.6-15.7-22-22.1-38.6-17.8c-5.1,1.3-10.1,3.4-14.8,5.9c-44.1,23.3-89.9,42.5-137.8,56.3c-47.6,13.7-94.9,28.9-144.7,32.9
	c-17.6,1.4-35.3,2.2-52.7-1.6c-25.5-5.5-42.1-20.3-47.3-46.5c-4.3-21.6-1.1-42.4,6.9-62.6c10.9-27.7,28.1-51.4,48.2-72.9
	c56.2-59.9,121.4-108.2,194.1-146.4c39.2-20.6,79.9-38,120.5-55.6c30.8-13.3,57.1-32.8,76.5-60.7c18.8-27.1,28.1-56.8,22.9-90
	C1911.9,220.2,1883.8,198.1,1844.9,200.7z"/>
<path class="st0" d="M1192.9,341.4c-8.6-10-18.6-18.6-30.3-25c-23-12.6-43.6-8.2-59.4,12.7c-9.4,12.4-15.9,26.3-19.5,41.3
	c-9.5,39.8-19.5,79.5-26.7,119.7c-8.9,50.1-16.1,100.5-22.4,151c-5.2,41.6-8.6,83.4-11.7,125.2c-2.5,32.5-3.5,65.2-5.5,105
	c0.4,19.1-1.3,45.6,1.8,71.6c7,57.4,32.9,106.3,73.9,147c10.6,10.5,22.5,19.4,37.2,23.4c15.1,4.1,26.8-1.3,31.8-16.1
	c3-9.2,5-19.2,4.9-28.8c-0.3-49.4,3.7-98.4,10-147.3c7.3-56.3,17-112.1,28.8-167.6c15.2-71.7,31.3-143.2,47-214.8
	c4-18.1,7.8-36.2,5.1-54.9C1250.3,429.9,1228.2,382.6,1192.9,341.4z"/>
<path class="st0" d="M1364.3,180.7c11-27,13.7-55.1,10.6-83.8c-2.3-21.9-8.2-42.8-20.7-61.3c-11.5-17.1-26.7-29.4-47.6-32.6
	c-38.3-5.8-73.9,2.1-105.8,24.2c-28.8,20-43.3,47.9-43.3,83c0.6,21,3,41.6,9.2,61.6c10.1,32.5,28.5,58.3,60.2,73.3
	c36.9,17.4,70.7,12.3,101.5-14.1C1344.4,217.2,1356.3,200.3,1364.3,180.7z"/>
</svg>
