<?xml version="1.0" encoding="UTF-8" standalone="no"?>
<!DOCTYPE svg PUBLIC "-//W3C//DTD SVG 1.1//EN" "http://www.w3.org/Graphics/SVG/1.1/DTD/svg11.dtd">
<svg width="100%" height="100%" viewBox="0 0 221 180" version="1.1" xmlns="http://www.w3.org/2000/svg" xmlns:xlink="http://www.w3.org/1999/xlink" xml:space="preserve" xmlns:serif="http://www.serif.com/" style="fill-rule:evenodd;clip-rule:evenodd;stroke-linejoin:round;stroke-miterlimit:2;">
    <g transform="matrix(4.16667,0,0,4.16667,0,0)">
        <path d="M8.023,30.806C8.023,30.806 8.056,30.647 7.923,30.61C7.79,30.573 6.924,30.302 5.938,30.248C4.78,30.184 3.611,30.283 2.673,30.951C2.102,31.357 1.788,31.898 1.778,32.594C1.773,32.965 1.874,33.227 1.97,33.41C2.065,33.593 2.302,33.88 2.577,34.113C2.851,34.346 3.53,34.795 3.763,34.933C3.996,35.069 4.491,35.394 4.736,35.602C4.982,35.81 5.077,36.01 5.119,36.168C5.161,36.326 5.169,36.538 5.061,36.8C4.789,37.458 3.893,37.641 3.264,37.578C2.847,37.537 2.39,37.462 1.928,37.266C1.466,37.071 1.071,36.834 1.013,36.779C0.954,36.725 0.865,36.768 0.842,36.777C0.819,36.787 0.351,36.938 0.351,36.938L0.351,38.063C0.351,38.089 0.364,38.198 0.463,38.223C0.564,38.248 1.133,38.448 2.069,38.531C3.005,38.614 3.147,38.614 3.451,38.618C3.754,38.622 4.416,38.635 5.11,38.427C5.805,38.219 6.101,38.036 6.342,37.832C6.583,37.628 6.954,37.308 7.137,36.672C7.32,36.035 7.191,35.723 7.157,35.619C7.124,35.515 6.999,35.069 6.612,34.699C6.225,34.329 5.764,34.03 5.439,33.83C5.115,33.63 4.582,33.297 4.399,33.135C4.216,32.973 3.933,32.715 3.871,32.469C3.808,32.224 3.846,31.887 4.016,31.704C4.187,31.521 4.466,31.321 4.803,31.288C5.14,31.255 5.502,31.246 6.042,31.346C6.583,31.446 7.028,31.746 7.224,31.866C7.42,31.987 7.403,31.929 7.49,31.912C7.578,31.895 7.89,31.775 7.89,31.775C7.89,31.775 7.994,30.968 8.023,30.806Z" style="fill:rgb(40,106,167);"/>
        <path d="M7.12,38.473L9.063,38.473L10.731,36.164L14.375,36.164L14.837,38.481L17.017,38.481L15.141,30.373L13.427,30.373L7.12,38.473ZM11.405,35.186L14.192,35.186L13.61,32.082L11.405,35.186Z" style="fill:rgb(40,106,167);"/>
        <path d="M18.973,38.477L21.086,38.477L22.887,31.496L26.373,31.496L26.669,30.373L17.599,30.373L17.304,31.488L20.795,31.488L18.973,38.477Z" style="fill:rgb(40,106,167);"/>
        <path d="M25.476,38.481L32.445,38.481L32.722,37.386L27.857,37.386L28.533,34.774L32.556,34.774L32.83,33.751L28.811,33.751L29.406,31.479L33.853,31.479L34.128,30.373L27.588,30.373L25.476,38.481Z" style="fill:rgb(40,106,167);"/>
        <path d="M33.666,38.483L35.343,38.483L36.782,32.657L40.797,38.477L42.032,38.477L44.375,30.377L42.693,30.377L41.379,35.922L37.623,30.381L36.038,30.381L33.666,38.483Z" style="fill:rgb(40,106,167);"/>
        <path d="M43.058,38.473L45.001,38.473L46.67,36.164L50.314,36.164L50.776,38.481L52.956,38.481L51.079,30.373L49.365,30.373L43.058,38.473ZM47.344,35.186L50.131,35.186L49.548,32.082L47.344,35.186Z" style="fill:rgb(40,106,167);"/>
        <path d="M16.633,42.691L18.035,42.691L18.09,42.453L17.035,42.452L17.192,41.719L18.057,41.721L18.113,41.475L17.252,41.475L17.385,40.829L18.344,40.83L18.412,40.587L17.078,40.588L16.633,42.691Z" style="fill:rgb(40,106,167);"/>
        <path d="M34.606,42.69L34.972,42.69L35.348,42.055L36.202,42.055L36.3,42.688L36.673,42.692L36.272,40.586L35.974,40.588L34.606,42.69ZM35.483,41.836L36.166,41.836L36.02,40.943L35.483,41.836Z" style="fill:rgb(40,106,167);"/>
        <path d="M19.86,40.683C19.867,40.657 19.845,40.637 19.818,40.628C19.791,40.619 19.587,40.564 19.393,40.55C19.165,40.533 18.948,40.574 18.763,40.748C18.651,40.853 18.595,40.984 18.593,41.164C18.59,41.44 18.832,41.611 18.987,41.732C19.033,41.768 19.197,41.9 19.233,41.936C19.268,41.973 19.303,42.013 19.317,42.093C19.373,42.402 19.033,42.523 18.859,42.505C18.731,42.491 18.512,42.423 18.414,42.304C18.402,42.29 18.378,42.298 18.373,42.3C18.369,42.303 18.294,42.351 18.294,42.351L18.294,42.596C18.294,42.603 18.302,42.631 18.322,42.637C18.51,42.699 18.71,42.728 18.904,42.731C18.963,42.732 19.102,42.738 19.236,42.692C19.371,42.646 19.444,42.601 19.491,42.548C19.539,42.495 19.628,42.397 19.664,42.232C19.7,42.067 19.664,41.973 19.658,41.946C19.651,41.919 19.619,41.822 19.542,41.726C19.466,41.63 19.336,41.541 19.272,41.49C19.183,41.417 18.988,41.286 18.959,41.136C18.947,41.072 18.954,40.981 18.988,40.933C19.021,40.885 19.087,40.819 19.153,40.802C19.303,40.764 19.45,40.788 19.593,40.851C19.621,40.863 19.708,40.919 19.716,40.924C19.722,40.928 19.73,40.933 19.74,40.94C19.746,40.943 19.755,40.947 19.762,40.944C19.771,40.941 19.829,40.901 19.829,40.901C19.829,40.901 19.855,40.724 19.86,40.683Z" style="fill:rgb(40,106,167);"/>
        <path d="M22.771,40.675L22.721,40.962C22.72,40.966 22.45,40.799 22.271,40.78C22.092,40.761 21.84,40.77 21.699,40.86C21.41,41.043 21.242,41.344 21.23,41.681C21.227,41.791 21.229,41.902 21.252,42.007C21.302,42.236 21.435,42.429 21.707,42.49C21.782,42.506 22.029,42.506 22.133,42.485C22.237,42.465 22.379,42.375 22.406,42.35C22.408,42.349 22.409,42.346 22.412,42.346C22.448,42.346 22.516,42.347 22.516,42.347L22.448,42.633C22.448,42.633 22.254,42.725 21.994,42.729C21.624,42.735 21.211,42.674 21.023,42.401C20.591,41.776 20.961,40.84 21.682,40.618C21.876,40.558 22.096,40.54 22.311,40.552C22.474,40.561 22.63,40.586 22.771,40.675Z" style="fill:rgb(40,106,167);"/>
        <path d="M24.043,40.55C24.788,40.488 25.206,40.95 25.092,41.638C25.021,42.064 24.822,42.355 24.544,42.535C24.335,42.671 24.149,42.723 23.814,42.734C23.215,42.754 22.806,42.297 22.918,41.635C22.972,41.316 23.071,41.139 23.236,40.958C23.411,40.765 23.66,40.581 24.043,40.55ZM24.721,41.637C24.686,41.924 24.572,42.129 24.423,42.29C24.313,42.411 24.142,42.511 23.874,42.516C23.63,42.521 23.446,42.399 23.343,42.173C23.284,42.043 23.282,41.914 23.281,41.787C23.28,41.561 23.338,41.345 23.474,41.148C23.619,40.939 23.807,40.807 24.033,40.781C24.251,40.757 24.489,40.827 24.622,41.013C24.729,41.163 24.75,41.401 24.721,41.637Z" style="fill:rgb(40,106,167);"/>
        <path d="M28.037,40.55C28.781,40.488 29.2,40.95 29.085,41.638C29.015,42.064 28.815,42.355 28.538,42.535C28.328,42.671 28.143,42.723 27.808,42.734C27.209,42.754 26.799,42.297 26.912,41.635C26.966,41.316 27.065,41.139 27.229,40.958C27.405,40.765 27.653,40.581 28.037,40.55ZM28.715,41.637C28.68,41.924 28.566,42.129 28.417,42.29C28.307,42.411 28.136,42.511 27.868,42.516C27.624,42.521 27.44,42.399 27.337,42.173C27.278,42.043 27.276,41.914 27.275,41.787C27.273,41.561 27.332,41.345 27.468,41.148C27.613,40.939 27.801,40.807 28.027,40.781C28.245,40.757 28.483,40.827 28.616,41.013C28.723,41.163 28.744,41.401 28.715,41.637Z" style="fill:rgb(40,106,167);"/>
        <path d="M25.731,40.584L26.077,40.584L25.673,42.454L26.694,42.454L26.634,42.694L25.281,42.694L25.731,40.584Z" style="fill:rgb(40,106,167);"/>
        <path d="M29.202,42.688L29.518,42.688L29.874,41.057L30.3,42.677L30.486,42.638L31.512,41.089L31.249,42.686L31.59,42.686L31.903,40.59L31.584,40.59L30.517,42.204L30.072,40.59L29.786,40.59L29.202,42.688Z" style="fill:rgb(40,106,167);"/>
        <path d="M32.451,40.592C32.451,40.592 32.596,40.589 32.683,40.586C32.77,40.583 32.931,40.571 33.014,40.571C33.222,40.571 33.588,40.588 33.669,40.843C33.716,40.991 33.709,41.128 33.601,41.289C33.518,41.411 33.437,41.483 33.293,41.519C33.293,41.519 33.425,41.56 33.503,41.616C33.58,41.672 33.641,41.747 33.665,41.86C33.727,42.15 33.544,42.428 33.307,42.575C33.203,42.64 32.997,42.688 32.891,42.7C32.785,42.713 32.521,42.705 32.435,42.7C32.35,42.694 32.013,42.696 32.003,42.702C31.992,42.708 32.451,40.592 32.451,40.592ZM32.604,41.468C32.604,41.467 32.86,41.472 32.922,41.464C32.984,41.457 33.085,41.437 33.204,41.33C33.303,41.241 33.367,40.986 33.259,40.87C33.213,40.822 33.127,40.797 33.046,40.792C32.915,40.783 32.767,40.786 32.752,40.788C32.75,40.788 32.743,40.82 32.73,40.87C32.685,41.05 32.604,41.468 32.604,41.468ZM32.385,42.481C32.386,42.481 32.712,42.483 32.791,42.477C32.87,42.471 33.014,42.464 33.16,42.331C33.419,42.093 33.309,41.703 32.958,41.681C32.791,41.67 32.594,41.674 32.575,41.676C32.573,41.677 32.573,41.682 32.569,41.691C32.532,41.798 32.385,42.481 32.385,42.481Z" style="fill:rgb(40,106,167);"/>
        <path d="M34.406,40.589L34.749,40.589L34.294,42.689L33.954,42.689L34.406,40.589Z" style="fill:rgb(40,106,167);"/>
        <path d="M13.765,9.836C13.765,9.836 13.962,9.311 14.235,8.706C14.493,8.134 14.822,7.488 15.056,7.126C15.088,7.077 15.101,7.051 15.107,7.041C15.108,7.04 15.108,7.041 15.108,7.042C15.109,7.042 15.111,7.043 15.113,7.045C15.119,7.048 15.13,7.056 15.139,7.06C15.168,7.077 15.226,7.112 15.316,7.162C15.96,7.506 17.558,8.514 18.399,9.051C18.724,9.258 18.935,9.397 18.935,9.397C18.935,9.397 17.434,7.304 17.276,6.966C17.011,6.401 17.455,6.391 17.883,6.6C18.149,6.729 19.615,7.577 20.98,8.798C22.345,10.02 24.171,11.859 25.593,14.317C27.016,16.774 27.447,17.608 28.554,18.34C29.66,19.073 30.652,19.217 32.204,19.246C33.345,19.267 34.488,19.2 35.632,19.162C36.356,19.138 37.08,19.105 37.804,19.094C38.016,19.091 38.227,19.086 38.439,19.086C38.644,19.086 38.849,19.091 39.054,19.092C39.276,19.093 39.499,19.091 39.721,19.09C40.368,19.09 41.014,19.077 41.652,19.128C42.163,19.17 42.646,19.247 42.888,19.311C43.1,19.366 43.347,19.437 43.645,19.579C43.956,19.729 44.139,19.915 44.395,20.102C44.527,20.198 44.634,20.287 44.797,20.367C44.961,20.448 45.187,20.526 45.374,20.575C46.14,20.773 48.191,20.906 49.197,20.942C50.203,20.978 50.695,21.01 51.328,21.089C51.9,21.161 52.608,21.28 52.955,21.782C52.962,21.793 52.768,21.788 52.445,21.806C51.613,21.849 49.928,21.822 48.644,21.904C46.862,22.019 43.822,22.178 42.709,22.235C41.595,22.292 40.136,22.163 38.685,22.005C37.234,21.847 34.331,21.401 32.721,21.445C28.051,21.569 24.997,23.112 19.126,24.016C18.484,24.115 17.809,24.258 17.158,24.309C17.059,24.317 16.967,24.321 16.879,24.326C16.854,24.328 16.842,24.326 16.841,24.325C16.823,24.308 16.832,24.319 16.806,24.29C15.965,23.343 15.211,22.067 14.712,20.896C14.465,20.317 14.376,20.045 14.203,19.498C14.181,19.427 14.179,19.441 14.21,19.432C14.671,19.295 14.837,19.227 15.448,18.851C16.125,18.434 16.612,17.849 16.784,17.478C17.223,16.536 17.239,15.516 16.885,14.539C16.46,13.369 16.042,12.714 15.449,11.847C15.337,11.683 15.217,11.526 15.099,11.369C14.904,11.11 14.697,10.862 14.493,10.626C14.369,10.482 14.245,10.339 14.121,10.204C14.004,10.077 13.884,9.953 13.765,9.836Z" style="fill:rgb(235,41,36);"/>
        <path d="M41.315,18.81C41.316,18.809 41.417,18.449 41.424,18.416C41.739,16.999 41.959,15.575 41.885,14.115C41.807,12.592 41.476,10.989 40.952,9.561C39.512,5.638 36.198,2.466 32.288,1.056C30.028,0.241 27.559,0.008 25.187,0.401C22.744,0.805 20.473,1.778 18.505,3.303C17.338,4.208 16.091,5.498 15.289,6.766C15.221,6.875 15.131,7.001 15.107,7.04C15.104,7.046 15.978,7.533 16.831,8.062C17.355,8.386 17.88,8.717 18.4,9.05C18.37,9.012 18.055,8.598 17.938,8.427C17.816,8.246 17.439,7.732 17.306,7.544C17.173,7.357 16.74,6.712 16.662,6.558C16.421,6.078 16.795,6.014 17.172,6.189C17.359,6.284 17.485,6.352 17.641,6.442C17.835,6.553 17.938,6.612 18.146,6.743C18.147,6.742 18.774,7.098 19.493,7.611C20.14,8.074 20.86,8.668 21.339,9.114C21.603,9.36 21.96,9.709 22.38,10.132C23.542,11.304 24.956,13.107 25.895,14.834C26.223,15.437 26.456,15.811 26.663,16.149C26.777,16.335 26.881,16.508 26.991,16.675C27.086,16.819 27.186,16.959 27.289,17.112C27.366,17.226 27.473,17.355 27.585,17.489C27.855,17.811 28.235,18.177 28.859,18.523C28.899,18.545 28.941,18.557 28.977,18.569C29.042,18.589 29.097,18.608 29.156,18.621C29.264,18.647 29.37,18.676 29.5,18.701C29.875,18.774 30.359,18.836 30.916,18.852C31.658,18.874 32.261,18.876 32.859,18.868C33.254,18.862 33.647,18.855 34.076,18.837C35.228,18.786 35.807,18.751 36.288,18.751C36.577,18.751 36.937,18.735 37.495,18.725C37.933,18.718 38.313,18.711 38.751,18.706C39.264,18.7 39.677,18.715 40.081,18.735C40.33,18.747 40.58,18.761 40.829,18.777C40.991,18.788 41.154,18.799 41.315,18.81ZM18.749,9.277C18.816,9.32 18.879,9.36 18.917,9.385C18.925,9.39 18.928,9.392 18.934,9.396L18.749,9.277ZM18.934,9.396L18.935,9.396C18.932,9.392 18.933,9.393 18.931,9.391C18.907,9.357 18.856,9.284 18.765,9.157C18.736,9.116 18.709,9.071 18.671,9.023C18.798,9.203 18.925,9.383 18.934,9.396Z" style="fill:rgb(244,224,28);"/>
        <path d="M19.689,6.23C19.689,6.23 20.161,6.377 20.786,6.758C22.063,7.536 23.309,8.421 24.429,9.452C24.901,9.886 25.96,10.94 26.376,11.421C26.793,11.902 27.763,13.102 28.252,13.907C28.74,14.712 28.97,15.086 29.236,15.531C29.502,15.976 29.955,16.645 30.185,16.947C30.415,17.248 30.894,17.757 31.325,18.015C31.482,18.109 31.39,18.074 31.234,18.049C30.948,18.004 30.603,17.929 30.17,17.701C29.775,17.493 29.351,17.169 28.985,16.731C28.779,16.485 28.314,15.888 27.979,15.326C27.352,14.275 26.728,13.202 26.01,12.211C25.802,11.924 24.86,10.767 24.494,10.358C24.127,9.948 23.042,8.834 22.353,8.245C21.663,7.656 20.571,6.794 19.689,6.23Z" style="fill:white;"/>
        <path d="M28.874,18.535C28.874,18.535 29.045,18.644 29.302,18.757C29.536,18.86 29.843,18.969 30.147,19.041C30.784,19.192 31.204,19.207 31.707,19.232C31.964,19.245 32.497,19.252 33.025,19.247C33.53,19.242 34.03,19.226 34.28,19.214C34.601,19.198 36.182,19.137 37.347,19.105C38.032,19.086 38.573,19.085 38.63,19.086C40.043,19.123 41.647,18.977 43.027,19.348C43.178,19.39 43.327,19.44 43.47,19.5C43.496,19.511 43.558,19.538 43.6,19.557C43.607,19.559 43.598,19.555 43.588,19.546C43.579,19.538 43.566,19.525 43.551,19.514C43.51,19.479 43.19,19.23 42.615,19.03C42.274,18.912 42.093,18.88 41.953,18.86C41.812,18.84 41.714,18.833 41.523,18.822C41.142,18.8 40.029,18.714 39.152,18.707C38.275,18.7 34.92,18.779 34.352,18.822C33.785,18.865 32.362,18.872 31.672,18.872C30.982,18.872 29.768,18.844 28.874,18.535Z" style="fill:rgb(168,30,42);"/>
        <path d="M52.257,21.285C52.257,21.284 52.011,21.202 51.857,21.173C51.702,21.144 51.539,21.111 51.286,21.083C51.033,21.054 50.762,21.021 50.272,20.991C49.781,20.96 49.099,20.94 48.697,20.919C48.295,20.897 47.731,20.864 47.3,20.828C47.076,20.809 46.834,20.786 46.599,20.762C46.381,20.74 46.169,20.714 45.977,20.687C45.697,20.646 45.543,20.619 45.377,20.576C45.308,20.558 45.231,20.538 45.151,20.511C44.937,20.44 44.72,20.347 44.538,20.212C44.495,20.18 44.433,20.139 44.393,20.103C44.383,20.095 44.42,20.107 44.441,20.113C44.528,20.139 44.881,20.231 45.187,20.273C46.959,20.509 48.744,20.496 50.519,20.69C51.068,20.75 51.823,20.849 52.257,21.285Z" style="fill:rgb(168,30,42);"/>
        <path d="M16.845,24.325C16.845,24.325 16.623,24.345 16.461,24.186C16.299,24.028 15.699,23.394 15.282,22.692C14.587,21.521 13.997,20.404 13.579,19.102C13.579,19.102 14.413,18.736 14.758,18.542C15.103,18.348 15.656,17.924 15.814,17.751C15.972,17.579 16.418,17.047 16.54,16.681C16.662,16.314 16.82,15.826 16.77,15.308C16.719,14.791 16.626,14.101 16.331,13.476C16.037,12.851 15.684,12.243 15.607,12.088C15.53,11.933 16.246,13.064 16.418,13.435C16.591,13.806 16.774,14.209 16.882,14.526C16.99,14.843 17.108,15.3 17.123,15.628C17.137,15.955 17.133,16.265 17.083,16.531C17.033,16.798 16.95,17.097 16.821,17.388C16.692,17.68 16.433,18.051 16.088,18.36C15.743,18.67 15.376,18.893 15.225,18.98C15.074,19.066 14.83,19.21 14.697,19.261C14.564,19.311 14.19,19.437 14.19,19.437C14.19,19.437 14.384,20.067 14.47,20.29C14.557,20.514 14.772,21.061 14.966,21.45C15.16,21.839 15.412,22.325 15.577,22.584C15.743,22.843 16.019,23.308 16.242,23.585C16.465,23.862 16.713,24.204 16.845,24.325Z" style="fill:rgb(168,30,42);"/>
        <path d="M18.148,6.742C18.067,6.687 17.452,6.325 17.191,6.198C16.808,6.011 16.417,6.07 16.662,6.558C16.74,6.712 17.173,7.357 17.306,7.544C17.439,7.732 17.816,8.246 17.938,8.427C18.061,8.607 18.402,9.053 18.402,9.053L18.935,9.397C18.935,9.397 18.508,8.797 18.421,8.671C18.363,8.589 18.078,8.182 17.872,7.885C17.75,7.709 17.618,7.509 17.488,7.312C17.393,7.169 17.29,7.029 17.24,6.884C17.193,6.745 17.18,6.629 17.225,6.564C17.278,6.486 17.369,6.471 17.478,6.477C17.708,6.49 18.011,6.657 18.148,6.742Z" style="fill:rgb(168,30,42);"/>
        <path d="M13.765,9.837C13.765,9.836 13.587,10.178 13.263,11.572C12.737,13.84 12.771,16.277 13.414,18.527C13.601,19.181 13.578,19.099 13.578,19.099C13.578,19.099 13.931,18.944 13.987,18.918C14.044,18.892 14.394,18.727 14.456,18.697C14.836,18.515 15.258,18.25 15.608,17.941C15.807,17.765 15.97,17.566 16.121,17.381C16.394,17.046 16.559,16.64 16.604,16.485C16.627,16.407 16.684,16.205 16.726,16.013C16.767,15.819 16.774,15.633 16.778,15.572C16.788,15.405 16.735,15.003 16.712,14.825C16.689,14.647 16.585,14.139 16.513,13.939C16.485,13.861 16.435,13.708 16.373,13.566C16.276,13.344 16.158,13.121 16.121,13.048C16.098,13.002 16.032,12.866 15.948,12.712C15.81,12.461 15.64,12.154 15.597,12.072C15.523,11.931 15.101,11.374 15.033,11.28C14.964,11.186 14.393,10.506 14.283,10.38C14.174,10.254 13.822,9.887 13.765,9.837Z" style="fill:rgb(244,224,28);"/>
    </g>
</svg>
