<svg width="145" height="32" viewBox="0 0 145 32" fill="none" xmlns="http://www.w3.org/2000/svg">
<path fill-rule="evenodd" clip-rule="evenodd" d="M89.3505 3.18572C88.0677 5.09627 86.6542 7.47979 85.1037 10.5292C83.5408 13.6035 82.1335 16.7525 81.2617 19.1484H86.4736C86.7974 18.1465 87.1835 17.1383 87.5945 16.1924H96.1627C96.5736 17.1383 96.9473 18.0905 97.2835 19.1484H102.495C101.568 16.7463 100.216 13.6222 98.6597 10.5479C97.1029 7.49223 95.7143 5.09627 94.4067 3.18572H89.3505ZM91.8725 6.96387C92.9497 8.88687 93.9149 10.841 94.9921 13.2432H88.7715C89.8114 10.8845 90.7765 8.93043 91.8725 6.96387ZM51.9827 3.18572C51.7274 5.6377 51.5967 8.55019 51.5967 11.164C51.5967 13.7591 51.7274 16.3729 51.9827 19.1484H56.9207C56.709 17.0823 56.6031 15.3149 56.5346 13.2239H61.5037C61.8648 13.6284 62.4626 14.3876 63.0853 15.3709C63.8076 16.516 64.368 17.6362 64.997 19.1484H70.5202C69.7917 17.7669 69.0071 16.516 67.8302 14.8544C67.1515 13.9084 66.5163 13.1305 65.931 12.5518C68.0045 11.8236 69.2873 10.0749 69.2873 7.95276C69.2873 6.73299 68.8514 5.58791 68.0917 4.79133C67.0082 3.67736 65.3394 3.1795 62.6556 3.1795H51.9827V3.18572ZM56.6906 6.17986H61.037C62.6373 6.17986 63.4157 6.37278 63.9138 6.90176C64.2127 7.20048 64.3871 7.67345 64.3871 8.17131C64.3871 9.03012 63.9449 9.79559 63.1666 10.2686H56.5474C56.5412 9.09858 56.591 7.74813 56.6906 6.17986ZM32.2376 3.18634C32.001 5.71921 31.8516 8.58192 31.8516 11.177C31.8516 13.7597 32.0259 16.5975 32.2376 19.1553H47.4748C47.4001 18.0911 47.3378 17.1203 47.2756 15.9752H36.9016C36.8206 14.7803 36.7833 13.6788 36.7833 12.6022H46.354V9.59009H36.7833C36.7833 8.71883 36.8144 7.43684 36.9016 6.37888H47.2631C47.3129 5.25869 47.3752 4.31897 47.4748 3.19256H32.2376V3.18634ZM10.4808 3.18572C10.2255 5.57546 10.0947 8.57508 10.0947 11.164C10.0947 13.7591 10.213 16.3044 10.4808 19.1484H19.9021C23.2335 19.1484 25.2883 18.7626 26.5586 17.8913C27.5425 17.2192 28.1527 15.8812 28.1527 14.3939C28.1527 12.6513 27.1564 11.2573 25.4067 10.5479C26.5711 9.89442 27.3121 8.63732 27.3121 7.27442C27.3121 6.01732 26.9447 5.14606 26.129 4.44905C24.7528 3.2853 22.2372 3.18572 19.5596 3.18572H10.4808ZM15.1823 6.21123H19.3668C21.0542 6.21123 21.6147 6.34192 22.1004 6.82734C22.3494 7.07627 22.4989 7.51812 22.4989 8.00354C22.4989 8.68188 22.2249 9.26064 21.7267 9.64648H15.0391C15.0515 8.45161 15.1013 7.34387 15.1823 6.21123ZM15.0322 12.5338H21.0474C21.9192 12.5338 22.3613 12.652 22.7536 12.9819C23.121 13.293 23.2891 13.6789 23.2891 14.2016C23.2891 14.7493 23.1272 15.1787 22.8034 15.5023C22.3364 15.9442 21.6763 16.1309 20.5243 16.1309H15.1879C15.0758 14.8675 15.0385 13.5855 15.0322 12.5338ZM74.1446 3.19256C73.8893 5.4765 73.7461 8.48857 73.7586 11.3077C73.7648 14.0148 73.8706 16.61 74.1446 19.1553H78.3976C78.684 16.6286 78.7774 14.0148 78.7837 11.3077C78.7899 8.49479 78.628 5.45783 78.3976 3.19256H74.1446ZM0.386817 3.19256C0.131515 5.4765 -0.0117037 8.48857 0.000750041 11.3077C0.00697693 14.0148 0.112834 16.61 0.386817 19.1553H4.63979C4.92622 16.6286 5.01963 14.0148 5.02585 11.3077C5.03208 8.49479 4.87018 5.45783 4.63979 3.19256H0.386817Z" fill="url(#paint0_linear_2127_1389)"/>
<path fill-rule="evenodd" clip-rule="evenodd" d="M110.005 24.3638L102.495 31.9375C128.561 31.9375 134.707 25.8138 138.294 17.4746L141.307 9.62704C132.521 9.88219 119.27 15.0537 110.005 24.3638Z" fill="url(#paint1_linear_2127_1389)"/>
<path fill-rule="evenodd" clip-rule="evenodd" d="M127.514 6.64648L119.064 15.1973C127.085 9.44073 135.086 5.96814 143.057 5.06577L144.999 1.52588e-05C133.2 0.00623894 131.593 2.58268 127.514 6.64648Z" fill="url(#paint2_linear_2127_1389)"/>
<defs>
<linearGradient id="paint0_linear_2127_1389" x1="54.375" y1="2.8995" x2="54.375" y2="18.8501" gradientUnits="userSpaceOnUse">
<stop stop-color="#FE1529"/>
<stop offset="1" stop-color="#E81525"/>
</linearGradient>
<linearGradient id="paint1_linear_2127_1389" x1="102.225" y1="31.8996" x2="121.685" y2="-1.90886" gradientUnits="userSpaceOnUse">
<stop stop-color="#D41520"/>
<stop offset="0.5" stop-color="#FF152B"/>
<stop offset="1" stop-color="#FF152B"/>
</linearGradient>
<linearGradient id="paint2_linear_2127_1389" x1="20.6214" y1="-44.117" x2="123.352" y2="-216.752" gradientUnits="userSpaceOnUse">
<stop stop-color="#EC7523"/>
<stop offset="0.85" stop-color="#FACE10"/>
<stop offset="1" stop-color="#FACE10"/>
</linearGradient>
</defs>
</svg>
