<svg width="200" height="26" viewBox="0 0 200 26" fill="none" xmlns="http://www.w3.org/2000/svg">
<path fill-rule="evenodd" clip-rule="evenodd" d="M186.984 18.4555C186.984 17.6319 187.428 17.4636 188.237 17.9084C189.74 18.738 191.308 19.5887 191.308 19.5887C191.37 19.1258 191.771 18.729 192.674 18.9244C193.507 19.1198 194.454 19.3302 194.454 19.3302C194.454 19.3302 193.945 18.215 193.716 17.7161C193.302 16.8173 193.694 16.3875 194.098 16.2583C194.098 16.2583 193.532 15.8856 193.149 15.624C192.347 15.068 192.533 14.5329 193.317 14.1993C194.395 13.7575 195.728 13.1563 195.728 13.1563C195.302 12.9188 194.806 12.2275 195.366 11.44C195.914 10.6495 196.729 9.56139 196.729 9.56139C196.729 9.56139 195.277 9.57341 194.304 9.56139C193.434 9.54636 193.216 8.87006 193.219 8.3711C193.219 8.3711 191.786 9.36301 190.763 10.0513C189.906 10.6164 189.119 10.0573 189.25 9.07746C189.455 7.55052 189.642 5.85827 189.642 5.85827C189.106 6.20393 188.194 6.19792 187.792 5.34127C187.195 4.07283 186.5 2.59699 186.5 2.59699C186.5 2.59699 185.811 4.07283 185.214 5.34127C184.825 6.19792 183.903 6.20393 183.37 5.85827C183.37 5.85827 183.563 7.55052 183.759 9.07746C183.897 10.0573 183.107 10.6104 182.246 10.0513C181.229 9.36301 179.79 8.3711 179.79 8.3711C179.799 8.87006 179.591 9.54937 178.706 9.56139C177.738 9.57341 176.283 9.56139 176.283 9.56139C176.283 9.56139 177.107 10.6525 177.664 11.44C178.219 12.2335 177.716 12.9188 177.3 13.1563C177.3 13.1563 178.635 13.7514 179.698 14.1993C180.488 14.5269 180.678 15.068 179.86 15.624C179.484 15.8856 178.902 16.2583 178.902 16.2583C179.321 16.3875 179.71 16.8203 179.294 17.7161C179.064 18.215 178.562 19.3302 178.562 19.3302C178.562 19.3302 179.502 19.1258 180.344 18.9244C181.241 18.729 181.661 19.1198 181.71 19.5887C181.71 19.5887 183.269 18.744 184.773 17.9084C185.584 17.4636 186.022 17.6259 186.031 18.4555C186.031 19.1198 186.031 20.5235 186.031 20.5235C186.031 21.7138 185.811 23.0153 185.348 23.7156C179.594 23.0934 174.825 18.5667 174.816 12.6032C174.81 6.47145 180.047 1.48486 186.494 1.48486C192.938 1.48486 198.169 6.47145 198.169 12.6032C198.169 18.3443 193.627 23.0483 187.795 23.6615C187.795 23.8509 187.795 24.8638 187.795 25.1674C194.64 24.5632 200 19.1649 200 12.6032C200 5.64185 193.945 0 186.494 0C179.03 0 173 5.64185 173 12.6032C173 18.7471 177.677 23.8388 183.894 24.984C184.941 25.1794 185.6 25.3297 186.157 26C186.822 24.8097 186.975 22.2849 186.975 20.8601C186.984 20.8571 186.984 19.1198 186.984 18.4555Z" fill="#D9272E"/>
<path fill-rule="evenodd" clip-rule="evenodd" d="M32.7227 12.1636H34.065C37.7321 12.1636 38.4788 11.5892 38.4788 9.84539C38.4788 8.14574 36.8765 7.87474 34.4882 7.87474H32.7227V12.1636ZM29.7539 19.3597V6.16602H36.3474C39.8724 6.18074 41.4444 7.6094 41.5593 9.44749C41.6168 10.2634 41.4082 11.1089 40.8126 11.7805C40.2201 12.4432 39.9268 12.676 38.8264 13.1914L43.8206 19.3597H40.1263L35.7156 13.9072H32.7226V19.3597H29.7539Z" fill="#D9272E"/>
<path fill-rule="evenodd" clip-rule="evenodd" d="M4.6828 14.0842H9.37776L7.04691 8.82912L4.6828 14.0842ZM0 19.3656L5.93445 6.16602H9.53503L15.403 19.3656H11.7329L10.1548 15.8308H3.89987L2.30062 19.3656H0Z" fill="#D9272E"/>
<rect x="20" y="6" width="3" height="13" fill="#D9272E"/>
<path fill-rule="evenodd" clip-rule="evenodd" d="M66.9968 19.1282C65.394 19.7143 63.3705 20.0058 61.0386 19.9999C58.1831 19.9911 55.9604 19.3668 54.3801 18.1299C52.787 16.8902 51.9936 15.1762 52 12.9676C52.0033 10.7266 52.8191 9.0009 54.4315 7.79351C56.0407 6.58612 58.3244 5.99126 61.3084 6.0001C63.2066 6.0001 65.0953 6.17384 66.9743 6.52723L66.9615 8.68874C64.8383 8.11155 62.863 7.8259 61.424 7.8259C59.5835 7.82001 58.1703 8.2588 57.1649 9.14814C56.166 10.0345 55.6649 11.2979 55.6553 12.9382C55.6553 14.5431 56.1853 15.8035 57.2516 16.7076C58.318 17.6087 59.8019 18.0593 61.7067 18.0622C63.4154 18.074 65.3426 17.7353 67 17.0757L66.9968 19.1282Z" fill="#D9272E"/>
<path fill-rule="evenodd" clip-rule="evenodd" d="M75.1196 14.0842H79.8055L77.4837 8.82912L75.1196 14.0842ZM70.4336 19.3656L76.365 6.16602H79.9747L85.8335 19.3656H82.1574L80.5793 15.8308H74.3335L72.7403 19.3656H70.4336Z" fill="#D9272E"/>
<path fill-rule="evenodd" clip-rule="evenodd" d="M114.281 14.0842H118.979L116.649 8.82912L114.281 14.0842ZM109.602 19.3656L115.539 6.16602H119.14L125.002 19.3656H121.325L119.75 15.8308H113.492L111.905 19.3656H109.602Z" fill="#D9272E"/>
<path fill-rule="evenodd" clip-rule="evenodd" d="M151.457 14.0842H156.152L153.815 8.82912L151.457 14.0842ZM146.768 19.3656L152.706 6.16602H156.309L162.168 19.3656H158.489L156.914 15.8308H150.662L149.069 19.3656H146.768Z" fill="#D9272E"/>
<path fill-rule="evenodd" clip-rule="evenodd" d="M90 19V6H93.7292L102.367 15.2749L102.379 6H105V18.9942H101.622L92.6237 9.28699V19H90Z" fill="#D9272E"/>
<path fill-rule="evenodd" clip-rule="evenodd" d="M132.632 17.4863H134.978C136.634 17.4981 137.874 17.0946 138.69 16.3022C139.516 15.5039 139.918 14.2873 139.924 12.6613C139.924 11.4094 139.609 10.3519 138.956 9.51829C138.509 8.94389 137.971 8.53738 137.333 8.31351C136.698 8.09848 135.773 7.98065 134.561 7.97771H132.632V17.4863ZM129.47 19.3597V6.16602H136.03C138.385 6.16602 140.187 6.73158 141.432 7.81559C142.69 8.90549 143.31 10.4844 143.31 12.5198C143.292 14.6937 142.623 16.3904 141.296 17.5805C139.969 18.7853 138.098 19.3656 135.716 19.3597H129.47Z" fill="#D9272E"/>
</svg>
