<svg width="40" height="40" viewBox="0 0 40 40" fill="none" xmlns="http://www.w3.org/2000/svg">
<path fill-rule="evenodd" clip-rule="evenodd" d="M7.85557 6.15887C8.02496 5.82008 8.37123 5.60608 8.75 5.60608H35C35.3788 5.60608 35.725 5.82008 35.8944 6.15887L39.6444 13.6589C39.7139 13.7977 39.75 13.9508 39.75 14.1061V15.9811C39.75 17.7381 39.052 19.4232 37.8096 20.6657C37.2778 21.1974 36.6649 21.6295 36 21.9498V39.3561H38.75C39.3023 39.3561 39.75 39.8038 39.75 40.3561C39.75 40.9084 39.3023 41.3561 38.75 41.3561H5C4.44772 41.3561 4 40.9084 4 40.3561C4 39.8038 4.44772 39.3561 5 39.3561H7.75V21.9498C7.08509 21.6295 6.4722 21.1974 5.94042 20.6657C4.69799 19.4232 4 17.7381 4 15.9811V14.1061C4 13.9508 4.03615 13.7977 4.10557 13.6589L7.85557 6.15887ZM9.75 22.5481V39.3561H15.25V32.8561C15.25 31.5963 15.7504 30.3881 16.6412 29.4973C17.532 28.6065 18.7402 28.1061 20 28.1061H23.75C25.0098 28.1061 26.218 28.6065 27.1088 29.4973C27.9996 30.3881 28.5 31.5963 28.5 32.8561V39.3561H34V22.5481C33.7115 22.5865 33.4193 22.6061 33.125 22.6061C31.3679 22.6061 29.6828 21.9081 28.4404 20.6657C28.0798 20.3051 27.7651 19.9072 27.5 19.4811C27.2349 19.9072 26.9202 20.3051 26.5596 20.6657C25.3172 21.9081 23.6321 22.6061 21.875 22.6061C20.1179 22.6061 18.4328 21.9081 17.1904 20.6657C16.8298 20.3051 16.5151 19.9072 16.25 19.4811C15.9849 19.9072 15.6702 20.3051 15.3096 20.6657C14.0672 21.9081 12.3821 22.6061 10.625 22.6061C10.3307 22.6061 10.0385 22.5865 9.75 22.5481ZM17.25 15.9811C17.25 17.2077 17.7373 18.3841 18.6046 19.2514C19.472 20.1188 20.6484 20.6061 21.875 20.6061C23.1016 20.6061 24.278 20.1188 25.1454 19.2514C26.0127 18.3841 26.5 17.2077 26.5 15.9811V15.1061H17.25V15.9811ZM15.25 15.1061V15.9811C15.25 17.2077 14.7627 18.3841 13.8954 19.2514C13.028 20.1188 11.8516 20.6061 10.625 20.6061C9.39837 20.6061 8.22199 20.1188 7.35463 19.2514C6.48728 18.3841 6 17.2077 6 15.9811V15.1061H15.25ZM37.132 13.1061L34.382 7.60608H9.36803L6.61803 13.1061H37.132ZM37.75 15.1061H28.5V15.9811C28.5 17.2077 28.9873 18.3841 29.8546 19.2514C30.722 20.1188 31.8984 20.6061 33.125 20.6061C34.3516 20.6061 35.528 20.1188 36.3954 19.2514C37.2627 18.3841 37.75 17.2077 37.75 15.9811V15.1061ZM26.5 39.3561V32.8561C26.5 32.1267 26.2103 31.4273 25.6945 30.9115C25.1788 30.3958 24.4793 30.1061 23.75 30.1061H20C19.2707 30.1061 18.5712 30.3958 18.0555 30.9115C17.5397 31.4273 17.25 32.1267 17.25 32.8561V39.3561H26.5Z" fill="#333333"/>
<path fill-rule="evenodd" clip-rule="evenodd" d="M4 40.1061C4 39.2777 4.44772 38.6061 5 38.6061H39C39.5523 38.6061 40 39.2777 40 40.1061C40 40.9345 39.5523 41.6061 39 41.6061H5C4.44772 41.6061 4 40.9345 4 40.1061Z" fill="#EA0074"/>
</svg>
