<svg width="68" height="21" viewBox="0 0 68 21" fill="none" xmlns="http://www.w3.org/2000/svg">
<path fill-rule="evenodd" clip-rule="evenodd" d="M29.6116 21H24.7002L27.7888 0H32.7002L29.6116 21Z" fill="#0057A0"/>
<path fill-rule="evenodd" clip-rule="evenodd" d="M19.7747 0L14.5264 14.4305L13.9056 11.3422L12.0433 1.90909C12.0433 1.90909 11.8176 0 9.44737 0H0.813062L0.700195 0.336898C0.700195 0.336898 3.35257 0.898396 6.4564 2.75134L11.2532 21H16.953L25.7002 0H19.7747Z" fill="#0057A0"/>
<path fill-rule="evenodd" clip-rule="evenodd" d="M67.2143 20.9146H62.2793L61.6139 17.826H54.7382L53.6292 20.9146H48.0288L56.069 1.83096C56.069 1.83096 56.568 0.286621 58.5642 0.286621H62.8892L67.2143 20.9146ZM59.1741 5.91211L56.3462 13.6338H60.7821L59.1741 5.91211Z" fill="#0057A0"/>
<path fill-rule="evenodd" clip-rule="evenodd" d="M48.7002 0.869955C48.7002 0.869955 46.3278 0.00181319 43.845 0.00181319C41.1967 -0.0524457 34.9071 1.08699 34.9071 6.67566C34.9071 11.9388 42.3554 11.993 42.3554 14.7602C42.3554 17.5274 35.6795 17.0391 33.4726 15.3028L32.7002 19.8606C32.7002 19.8606 35.0726 21 38.7692 21C42.4105 21 47.983 19.1552 47.983 14.0549C47.983 8.79175 40.4795 8.30342 40.4795 5.97029C40.4243 3.69142 45.6657 3.96271 47.9278 5.21067L48.7002 0.869955Z" fill="#0057A0"/>
<path fill-rule="evenodd" clip-rule="evenodd" d="M13.7002 11L12.0256 1.85149C12.0256 1.85149 11.7863 0 9.2735 0H0.119658L0 0.326733C0 0.326733 4.42735 1.14356 8.61538 4.30198C12.6838 7.29703 13.7002 11 13.7002 11Z" fill="#FAA61A"/>
</svg>
