<svg width="39" height="30" viewBox="0 0 39 30" fill="none" xmlns="http://www.w3.org/2000/svg">
<path fill-rule="evenodd" clip-rule="evenodd" d="M6.61467 26.9292C6.50401 26.8182 6.37274 26.732 6.22071 26.6705C6.06868 26.609 5.90231 26.5781 5.72143 26.5781C5.62573 26.5781 5.52636 26.5865 5.42318 26.6029C5.32014 26.6195 5.2191 26.6485 5.12019 26.6903C5.02128 26.732 4.92725 26.7897 4.83781 26.8633C4.74851 26.937 4.67097 27.0298 4.60503 27.1418C4.49865 26.966 4.35455 26.8281 4.17276 26.7282C3.99097 26.6282 3.78308 26.5781 3.54908 26.5781C3.47047 26.5781 3.38912 26.5853 3.30501 26.5996C3.22106 26.614 3.13757 26.6387 3.05469 26.6738C2.97165 26.7091 2.89243 26.7567 2.81703 26.8172C2.74147 26.8776 2.67294 26.9539 2.61127 27.0463V26.6605H1.94775V29.8183H2.61753V28.068C2.61753 27.934 2.6389 27.8148 2.68149 27.7104C2.72392 27.6061 2.78085 27.5187 2.85214 27.4483C2.92327 27.3779 3.00676 27.3248 3.10246 27.2885C3.19817 27.2522 3.30028 27.2342 3.40881 27.2342C3.6341 27.2342 3.80918 27.3056 3.93358 27.4483C4.05798 27.5912 4.1201 27.7956 4.1201 28.0615V29.8183H4.79003V28.068C4.79003 27.934 4.81125 27.8148 4.85383 27.7104C4.89642 27.6061 4.9532 27.5187 5.02448 27.4483C5.09577 27.3779 5.17926 27.3248 5.27496 27.2885C5.37067 27.2522 5.47278 27.2342 5.58116 27.2342C5.8066 27.2342 5.98153 27.3056 6.10593 27.4483C6.23033 27.5912 6.29245 27.7956 6.29245 28.0615V29.8183H6.96238V27.834C6.96238 27.6495 6.93216 27.4802 6.87156 27.3265C6.81096 27.1727 6.72533 27.0403 6.61467 26.9292Z" fill="#1D1D1B"/>
<path fill-rule="evenodd" clip-rule="evenodd" d="M10.1211 28.6416C10.075 28.7648 10.0101 28.8713 9.92663 28.9614C9.84314 29.0516 9.74316 29.1222 9.62669 29.174C9.51023 29.2256 9.38049 29.2514 9.23777 29.2514C9.08834 29.2514 8.95478 29.2245 8.83725 29.1708C8.71972 29.1169 8.6202 29.0444 8.53899 28.9531C8.45779 28.862 8.39506 28.7548 8.3511 28.6318C8.30714 28.5088 8.28516 28.378 8.28516 28.2395C8.28516 28.1011 8.30714 27.9704 8.3511 27.8473C8.39506 27.7242 8.45779 27.6171 8.53899 27.5259C8.6202 27.4348 8.71972 27.3622 8.83725 27.3084C8.95478 27.2546 9.08834 27.2275 9.23777 27.2275C9.38049 27.2275 9.51023 27.2535 9.62669 27.3051C9.74316 27.3568 9.84314 27.4276 9.92663 27.5177C10.0101 27.6079 10.075 27.7145 10.1211 27.8373C10.1673 27.9605 10.1904 28.0945 10.1904 28.2395C10.1904 28.3845 10.1673 28.5186 10.1211 28.6416ZM10.1475 27.0429C10.0376 26.9023 9.90149 26.7897 9.73878 26.7051C9.57622 26.6206 9.38176 26.5781 9.1554 26.5781C8.93346 26.5781 8.72694 26.6195 8.53584 26.7019C8.34458 26.7842 8.1776 26.8991 8.03473 27.0463C7.89201 27.1936 7.77982 27.3688 7.69847 27.572C7.61726 27.7753 7.57666 27.9977 7.57666 28.2394C7.57666 28.4812 7.61726 28.7036 7.69847 28.9068C7.77982 29.1101 7.89201 29.2855 8.03473 29.4326C8.1776 29.5798 8.34458 29.6945 8.53584 29.777C8.72694 29.8594 8.93346 29.9006 9.1554 29.9006C9.38176 29.9006 9.57622 29.8589 9.73878 29.7754C9.90149 29.6919 10.0376 29.5798 10.1475 29.4393V29.8183H10.8364V26.6605H10.1475V27.0429Z" fill="#1D1D1B"/>
<path fill-rule="evenodd" clip-rule="evenodd" d="M14.0027 28.2341C13.8093 28.0836 13.5401 27.983 13.1951 27.9324L12.8689 27.8831C12.7963 27.8721 12.7282 27.8596 12.6644 27.8451C12.6007 27.8309 12.5458 27.8116 12.4997 27.7874C12.4536 27.7632 12.4167 27.7326 12.3893 27.6952C12.3619 27.6579 12.3481 27.6117 12.3481 27.5569C12.3481 27.4447 12.4002 27.354 12.5047 27.2847C12.609 27.2156 12.7557 27.1811 12.9446 27.1811C13.0435 27.1811 13.1408 27.1898 13.2363 27.2073C13.3319 27.225 13.4225 27.2469 13.5083 27.2733C13.594 27.2997 13.672 27.3287 13.7423 27.3606C13.8125 27.3925 13.8721 27.4229 13.9203 27.4512L14.2169 26.9141C14.0522 26.8085 13.8598 26.7267 13.6402 26.6684C13.4204 26.6102 13.1864 26.5811 12.9381 26.5811C12.7358 26.5811 12.5546 26.6047 12.3942 26.652C12.2338 26.6992 12.097 26.7662 11.9838 26.8531C11.8707 26.9399 11.7838 27.0458 11.7234 27.171C11.6629 27.2963 11.6329 27.4369 11.6329 27.593C11.6329 27.848 11.7234 28.0539 11.9047 28.2111C12.086 28.3681 12.3524 28.4709 12.7041 28.5193L13.0336 28.562C13.2226 28.5884 13.361 28.6308 13.4489 28.6888C13.5369 28.7471 13.5808 28.8213 13.5808 28.9114C13.5808 29.0301 13.5204 29.124 13.3995 29.1932C13.2786 29.2623 13.0996 29.2971 12.8622 29.2971C12.7326 29.2971 12.6168 29.2882 12.5145 29.2707C12.4124 29.2531 12.319 29.2295 12.2344 29.1999C12.1497 29.1703 12.074 29.1361 12.007 29.0976C11.9398 29.0591 11.8778 29.0181 11.8208 28.9741L11.501 29.4914C11.6152 29.5772 11.735 29.6465 11.8603 29.6993C11.9855 29.7518 12.1085 29.793 12.2294 29.8228C12.3503 29.8526 12.4644 29.8721 12.5722 29.8822C12.6798 29.8919 12.7743 29.897 12.8556 29.897C13.082 29.897 13.2847 29.8718 13.4638 29.8211C13.6429 29.7706 13.7933 29.6998 13.9154 29.6085C14.0374 29.5174 14.1306 29.4085 14.1955 29.2821C14.2602 29.1559 14.2927 29.0169 14.2927 28.8653C14.2927 28.595 14.1961 28.3845 14.0027 28.2341Z" fill="#1D1D1B"/>
<path fill-rule="evenodd" clip-rule="evenodd" d="M18.5268 27.969C18.5444 27.8546 18.5752 27.7496 18.6192 27.6541C18.6632 27.5587 18.7198 27.4761 18.7889 27.4069C18.8582 27.3376 18.9405 27.2845 19.036 27.2471C19.1318 27.2097 19.241 27.191 19.3641 27.191C19.5837 27.191 19.7629 27.2592 19.9014 27.3953C20.0398 27.5316 20.1276 27.7229 20.165 27.969H18.5268ZM20.4536 27.0379C20.3228 26.8918 20.1657 26.7787 19.9823 26.6984C19.7988 26.6181 19.5971 26.5781 19.3775 26.5781C19.1444 26.5781 18.932 26.6181 18.7398 26.6984C18.5473 26.7787 18.382 26.8918 18.2436 27.0379C18.1051 27.1839 17.9975 27.3593 17.9206 27.5637C17.8436 27.7681 17.8052 27.9932 17.8052 28.2394C17.8052 28.4898 17.8447 28.7172 17.9239 28.9216C18.003 29.126 18.1138 29.3007 18.2567 29.4457C18.3997 29.5907 18.5699 29.7028 18.7677 29.7819C18.9655 29.8611 19.183 29.9005 19.4204 29.9005C19.6597 29.9005 19.8878 29.8676 20.1042 29.8017C20.3205 29.7358 20.5256 29.6204 20.7189 29.4555L20.3762 28.9645C20.2443 29.0699 20.0987 29.1519 19.9394 29.2101C19.78 29.2684 19.6213 29.2974 19.4631 29.2974C19.3509 29.2974 19.2433 29.2821 19.1402 29.2511C19.0368 29.2204 18.9436 29.1728 18.8599 29.1078C18.7764 29.0431 18.7051 28.96 18.6456 28.859C18.5864 28.758 18.5456 28.636 18.5238 28.4931H20.8573C20.8618 28.4536 20.865 28.4118 20.8673 28.3678C20.8694 28.3238 20.8706 28.28 20.8706 28.2361C20.8706 27.99 20.8337 27.7652 20.7601 27.562C20.6864 27.3587 20.5844 27.1839 20.4536 27.0379Z" fill="#1D1D1B"/>
<path fill-rule="evenodd" clip-rule="evenodd" d="M29.5791 28.6416C29.5328 28.7648 29.468 28.8713 29.3846 28.9614C29.301 29.0516 29.201 29.1222 29.0845 29.174C28.9681 29.2256 28.8385 29.2514 28.6956 29.2514C28.5462 29.2514 28.4126 29.2245 28.2953 29.1708C28.1776 29.1169 28.0782 29.0444 27.9968 28.9531C27.9156 28.862 27.8529 28.7548 27.809 28.6318C27.765 28.5088 27.7432 28.378 27.7432 28.2395C27.7432 28.1011 27.765 27.9704 27.809 27.8473C27.8529 27.7242 27.9156 27.6171 27.9968 27.5259C28.0782 27.4348 28.1776 27.3622 28.2953 27.3084C28.4126 27.2546 28.5462 27.2275 28.6956 27.2275C28.8385 27.2275 28.9681 27.2535 29.0845 27.3051C29.201 27.3568 29.301 27.4276 29.3846 27.5177C29.468 27.6079 29.5328 27.7145 29.5791 27.8373C29.6252 27.9605 29.6482 28.0945 29.6482 28.2395C29.6482 28.3845 29.6252 28.5186 29.5791 28.6416ZM29.6056 27.0429C29.4957 26.9023 29.3595 26.7897 29.1968 26.7051C29.0344 26.6206 28.8398 26.5781 28.6136 26.5781C28.3915 26.5781 28.185 26.6195 27.9938 26.7019C27.8026 26.7842 27.6358 26.8991 27.4927 27.0463C27.35 27.1936 27.2378 27.3688 27.1566 27.572C27.0753 27.7753 27.0347 27.9977 27.0347 28.2394C27.0347 28.4812 27.0753 28.7036 27.1566 28.9068C27.2378 29.1101 27.35 29.2855 27.4927 29.4326C27.6358 29.5798 27.8026 29.6945 27.9938 29.777C28.185 29.8594 28.3915 29.9006 28.6136 29.9006C28.8398 29.9006 29.0344 29.8589 29.1968 29.7754C29.3595 29.6919 29.4957 29.5798 29.6056 29.4393V29.8183H30.2946V26.6605H29.6056V27.0429Z" fill="#1D1D1B"/>
<path fill-rule="evenodd" clip-rule="evenodd" d="M16.9568 29.1884C16.8459 29.2301 16.7366 29.251 16.6288 29.251C16.5584 29.251 16.4931 29.2402 16.4327 29.218C16.3722 29.1962 16.3196 29.1615 16.2745 29.1144C16.2295 29.0671 16.1936 29.0062 16.1674 28.9314C16.141 28.8566 16.1278 28.7665 16.1278 28.661V27.2865H17.2342V26.6604H16.1278V25.7046H15.4356V26.6604H14.8062V27.2865H15.4356V28.6743C15.4356 29.0939 15.535 29.4032 15.7339 29.6021C15.9328 29.8011 16.2113 29.9003 16.5694 29.9003C16.7694 29.9003 16.949 29.8696 17.1084 29.8081C17.2137 29.7675 17.3114 29.721 17.4028 29.6697L17.1673 29.0929C17.1006 29.1284 17.0307 29.1605 16.9568 29.1884Z" fill="#1D1D1B"/>
<path fill-rule="evenodd" clip-rule="evenodd" d="M23.1761 26.5781C22.9827 26.5781 22.8081 26.6132 22.6519 26.6836C22.4959 26.754 22.3653 26.9232 22.2598 27.075V26.6605H21.6343V29.8183H22.2664V28.0812C22.2664 27.9473 22.2851 27.8275 22.3224 27.7218C22.3598 27.6165 22.4114 27.5275 22.4775 27.4549C22.5432 27.3825 22.6223 27.3274 22.7148 27.2902C22.807 27.2528 22.9079 27.2342 23.0179 27.2342C23.1014 27.2342 23.1915 27.2439 23.2881 27.2638C23.3376 27.2739 23.3835 27.2864 23.4267 27.3009L23.6303 26.6418C23.5751 26.6244 23.5191 26.6094 23.4612 26.5996C23.3765 26.5853 23.2815 26.5781 23.1761 26.5781Z" fill="#1D1D1B"/>
<path fill-rule="evenodd" clip-rule="evenodd" d="M32.7522 26.5781C32.5589 26.5781 32.3842 26.6132 32.2281 26.6836C32.0721 26.754 31.9414 26.9232 31.836 27.075V26.6605H31.2104V29.8183H31.8425V28.0812C31.8425 27.9473 31.8611 27.8275 31.8985 27.7218C31.9358 27.6165 31.9875 27.5275 32.0535 27.4549C32.1194 27.3825 32.1985 27.3274 32.2908 27.2902C32.383 27.2528 32.4841 27.2342 32.594 27.2342C32.6776 27.2342 32.7677 27.2439 32.8643 27.2638C32.9136 27.2739 32.9595 27.2864 33.0027 27.3009L33.2065 26.6418C33.1511 26.6244 33.0951 26.6094 33.0374 26.5996C32.9527 26.5853 32.8576 26.5781 32.7522 26.5781Z" fill="#1D1D1B"/>
<path fill-rule="evenodd" clip-rule="evenodd" d="M35.9438 28.6416C35.8976 28.7648 35.8327 28.8713 35.7494 28.9614C35.6659 29.0516 35.5658 29.1222 35.4494 29.174C35.3328 29.2256 35.2032 29.2514 35.0605 29.2514C34.9109 29.2514 34.7775 29.2245 34.66 29.1708C34.5423 29.1169 34.443 29.0444 34.3616 28.9531C34.2804 28.862 34.2177 28.7548 34.1738 28.6318C34.1297 28.5088 34.1079 28.378 34.1079 28.2395C34.1079 28.1011 34.1297 27.9704 34.1738 27.8473C34.2177 27.7242 34.2804 27.6171 34.3616 27.5259C34.443 27.4348 34.5423 27.3622 34.66 27.3084C34.7775 27.2546 34.9109 27.2275 35.0605 27.2275C35.2032 27.2275 35.3328 27.2535 35.4494 27.3051C35.5658 27.3568 35.6659 27.4276 35.7494 27.5177C35.8327 27.6079 35.8976 27.7145 35.9438 27.8373C35.9899 27.9605 36.013 28.0945 36.013 28.2395C36.013 28.3845 35.9899 28.5186 35.9438 28.6416ZM35.9698 25.377V27.0427C35.8599 26.9021 35.7238 26.7895 35.5612 26.7049C35.3986 26.6203 35.204 26.5779 34.9778 26.5779C34.7559 26.5779 34.5492 26.6193 34.3581 26.7017C34.1668 26.784 34 26.8989 33.8571 27.0461C33.7143 27.1933 33.6021 27.3686 33.5209 27.5717C33.4395 27.7751 33.3989 27.9974 33.3989 28.2392C33.3989 28.481 33.4395 28.7034 33.5209 28.9066C33.6021 29.1099 33.7143 29.2853 33.8571 29.4324C34 29.5795 34.1668 29.6943 34.3581 29.7768C34.5492 29.8592 34.7559 29.9004 34.9778 29.9004C35.204 29.9004 35.3986 29.8587 35.5612 29.7752C35.7238 29.6917 35.8599 29.5795 35.9698 29.4391V29.8181H36.6588V25.377H35.9698Z" fill="#1D1D1B"/>
<path fill-rule="evenodd" clip-rule="evenodd" d="M24.8253 27.5094C24.9131 27.4204 25.0175 27.3512 25.1384 27.3018C25.2593 27.2522 25.3899 27.2274 25.5307 27.2274C25.6853 27.2274 25.8291 27.2522 25.962 27.3018C26.0907 27.3494 26.202 27.4163 26.2964 27.5008L26.6281 26.9493C26.5037 26.8501 26.3638 26.7686 26.2079 26.7051C26.0002 26.6206 25.7744 26.5781 25.5307 26.5781C25.2866 26.5781 25.0608 26.6206 24.8532 26.7051C24.6455 26.7897 24.4665 26.9061 24.316 27.0547C24.1656 27.2029 24.0473 27.3781 23.9617 27.5802C23.8759 27.7824 23.833 28.0022 23.833 28.2394C23.833 28.4768 23.8759 28.6964 23.9617 28.8987C24.0473 29.1009 24.1656 29.276 24.316 29.4244C24.4665 29.5727 24.6455 29.6892 24.8532 29.7738C25.0608 29.8583 25.2866 29.9006 25.5307 29.9006C25.7744 29.9006 26.0002 29.8583 26.2079 29.7738C26.3638 29.7103 26.5037 29.6289 26.6281 29.5295L26.2964 28.9779C26.202 29.0628 26.0907 29.1293 25.962 29.1772C25.8291 29.2266 25.6853 29.2513 25.5307 29.2513C25.3899 29.2513 25.2593 29.2266 25.1384 29.1772C25.0175 29.1278 24.9131 29.0585 24.8253 28.9694C24.7374 28.8805 24.6681 28.774 24.6176 28.6499C24.567 28.5256 24.5419 28.3889 24.5419 28.2394C24.5419 28.09 24.567 27.9532 24.6176 27.8291C24.6681 27.7049 24.7374 27.5984 24.8253 27.5094Z" fill="#1D1D1B"/>
<mask id="mask0_692_4344" style="mask-type:alpha" maskUnits="userSpaceOnUse" x="37" y="29" width="2" height="1">
<path fill-rule="evenodd" clip-rule="evenodd" d="M37.7778 29.3555H38.4409V30H37.7778V29.3555Z" fill="white"/>
</mask>
<g mask="url(#mask0_692_4344)">
<path fill-rule="evenodd" clip-rule="evenodd" d="M38.0674 29.6043V29.6567H38.1277C38.1402 29.6567 38.1497 29.6547 38.1564 29.651C38.1631 29.6471 38.1663 29.6404 38.1663 29.6309C38.1663 29.6217 38.1631 29.615 38.1564 29.6108C38.1497 29.6066 38.1402 29.6043 38.1277 29.6043H38.0674ZM38.1291 29.5347C38.1684 29.5347 38.1981 29.5436 38.2184 29.561C38.2387 29.5784 38.2488 29.6016 38.2488 29.6309C38.2488 29.6538 38.2416 29.6727 38.2271 29.6878C38.2125 29.7029 38.1914 29.7129 38.1636 29.7176L38.2525 29.8202H38.1564L38.0769 29.7205H38.0675V29.8202H37.9873V29.5347H38.1291ZM38.1106 29.9107C38.1427 29.9107 38.1728 29.9046 38.201 29.8924C38.2292 29.8802 38.2538 29.8635 38.2744 29.8426C38.2953 29.8216 38.3117 29.797 38.3237 29.7688C38.3356 29.7405 38.3416 29.7101 38.3416 29.6776C38.3416 29.6457 38.3356 29.6154 38.3237 29.587C38.3117 29.5584 38.2953 29.5338 38.2744 29.5131C38.2538 29.4923 38.2292 29.4758 38.201 29.4636C38.1728 29.4514 38.1427 29.4453 38.1106 29.4453C38.0777 29.4453 38.047 29.4514 38.0186 29.4636C37.9901 29.4758 37.9653 29.4923 37.9443 29.5131C37.9234 29.5338 37.9067 29.5584 37.8948 29.587C37.8829 29.6154 37.877 29.6457 37.877 29.6776C37.877 29.7101 37.8829 29.7405 37.8948 29.7688C37.9067 29.797 37.9234 29.8216 37.9443 29.8426C37.9653 29.8635 37.9901 29.8802 38.0186 29.8924C38.047 29.9046 38.0777 29.9107 38.1106 29.9107ZM38.1104 29.3555C38.1564 29.3555 38.1993 29.364 38.2396 29.381C38.2797 29.3979 38.3147 29.421 38.3444 29.4501C38.3745 29.4794 38.398 29.5133 38.4151 29.5522C38.4325 29.5913 38.4409 29.6328 38.4409 29.6774C38.4409 29.7215 38.4325 29.763 38.4151 29.8022C38.398 29.8415 38.3745 29.8757 38.3444 29.9051C38.3147 29.9344 38.2797 29.9576 38.2396 29.9746C38.1993 29.9915 38.1564 30.0001 38.1104 30.0001C38.0637 30.0001 38.0198 29.9915 37.9793 29.9746C37.9386 29.9576 37.9035 29.9344 37.8734 29.9051C37.8436 29.8757 37.8203 29.8415 37.8033 29.8022C37.7862 29.763 37.7778 29.7215 37.7778 29.6774C37.7778 29.6328 37.7862 29.5913 37.8033 29.5522C37.8203 29.5133 37.8436 29.4794 37.8734 29.4501C37.9035 29.421 37.9386 29.3979 37.9793 29.381C38.0198 29.364 38.0637 29.3555 38.1104 29.3555Z" fill="#1D1D1B"/>
</g>
<mask id="mask1_692_4344" style="mask-type:alpha" maskUnits="userSpaceOnUse" x="0" y="0" width="20" height="24">
<path fill-rule="evenodd" clip-rule="evenodd" d="M0 0H19.2817V23.8007H0V0Z" fill="white"/>
</mask>
<g mask="url(#mask1_692_4344)">
<path fill-rule="evenodd" clip-rule="evenodd" d="M14.763 11.9003C14.763 8.11746 16.5303 4.74919 19.2817 2.56951C17.2529 0.962384 14.6898 0 11.9003 0C5.32799 0 0 5.32799 0 11.9003C0 18.4727 5.32799 23.8007 11.9003 23.8007C14.6898 23.8007 17.2529 22.8384 19.2817 21.2311C16.5303 19.0514 14.763 15.6833 14.763 11.9003Z" fill="#E30E17"/>
</g>
<path fill-rule="evenodd" clip-rule="evenodd" d="M14.7627 11.9002C14.7627 15.6832 16.5299 19.0513 19.2814 21.231C22.033 19.0513 23.8003 15.6832 23.8003 11.9002C23.8003 8.1174 22.033 4.74913 19.2814 2.56946C16.5299 4.74913 14.7627 8.1174 14.7627 11.9002Z" fill="#EA600A"/>
<path fill-rule="evenodd" clip-rule="evenodd" d="M38.5022 18.3371V18.0289L38.4023 18.2948H38.2918L38.192 18.0297V18.3371H38.0879V17.8931H38.2372L38.3474 18.1774L38.457 17.8931H38.6063V18.3371H38.5022ZM37.7566 18.3371V17.9888H37.6157V17.8931H38.0016V17.9888H37.8607V18.3371H37.7566Z" fill="#F59F00"/>
<mask id="mask2_692_4344" style="mask-type:alpha" maskUnits="userSpaceOnUse" x="19" y="0" width="20" height="24">
<path fill-rule="evenodd" clip-rule="evenodd" d="M19.2817 0H38.5636V23.8007H19.2817V0Z" fill="white"/>
</mask>
<g mask="url(#mask2_692_4344)">
<path fill-rule="evenodd" clip-rule="evenodd" d="M26.6633 0C23.8739 0 21.3108 0.962384 19.2817 2.56951C22.0333 4.74919 23.8006 8.11746 23.8006 11.9003C23.8006 15.6833 22.0333 19.0512 19.2817 21.2311C21.3108 22.8384 23.8739 23.8007 26.6633 23.8007C33.2356 23.8007 38.5636 18.4726 38.5636 11.9003C38.5636 5.32799 33.2356 0 26.6633 0Z" fill="#F59F00"/>
</g>
</svg>
