<svg width="30" height="30" viewBox="0 0 30 30" fill="none" xmlns="http://www.w3.org/2000/svg">
<path d="M30 16.2361V0H0V30H30V21.2472C29.9332 21.2472 30 16.2361 30 16.2361Z" fill="#006FCF"/>
<path d="M26.3252 14.5655H28.5969V9.28711H26.1247V10.0221L25.657 9.28711H23.5189V10.2225L23.118 9.28711H19.1759C19.0423 9.28711 18.9087 9.35392 18.7751 9.35392C18.6414 9.35392 18.5746 9.42074 18.441 9.48755C18.3074 9.55437 18.2405 9.55437 18.1069 9.62119V9.28711H6.81515L6.48107 10.1557L6.14699 9.28711H3.47439V10.2225L3.0735 9.28711H0.935412L0 11.5588V14.5655H1.53675L1.80401 13.8305H2.33853L2.60579 14.5655H14.3653V13.8974L14.833 14.5655H18.1069V14.1646C18.1737 14.2314 18.3074 14.2314 18.3742 14.2982C18.441 14.3651 18.5746 14.3651 18.6414 14.4319C18.7751 14.4987 18.9087 14.4987 19.0423 14.4987H21.4477L21.7149 13.7637H22.2494L22.5167 14.4987H25.7906V13.8305L26.3252 14.5655ZM30 21.247V16.3027H11.6258L11.1581 16.9709L10.6904 16.3027H5.34521V21.5811H10.6904L11.1581 20.9129L11.6258 21.5811H14.9666V20.4452H14.833C15.3007 20.4452 15.7016 20.3784 16.0356 20.2448V21.6479H18.441V20.9798L18.9087 21.6479H28.8641C29.265 21.5143 29.6659 21.4475 30 21.247Z" fill="white"/>
<path d="M28.8641 19.9781H27.0601V20.713H28.7973C29.5323 20.713 30 20.2453 30 19.5772C30 18.909 29.5991 18.575 28.931 18.575H28.1292C27.9287 18.575 27.7951 18.4413 27.7951 18.2409C27.7951 18.0404 27.9287 17.9068 28.1292 17.9068H29.6659L30 17.1718H28.196C27.461 17.1718 26.9933 17.6395 26.9933 18.2409C26.9933 18.909 27.3942 19.2431 28.0624 19.2431H28.8641C29.0646 19.2431 29.1982 19.3767 29.1982 19.5772C29.265 19.8444 29.1314 19.9781 28.8641 19.9781ZM25.5902 19.9781H23.7862V20.713H25.5234C26.2584 20.713 26.7261 20.2453 26.7261 19.5772C26.7261 18.909 26.3252 18.575 25.657 18.575H24.8552C24.6548 18.575 24.5212 18.4413 24.5212 18.2409C24.5212 18.0404 24.6548 17.9068 24.8552 17.9068H26.392L26.7261 17.1718H24.9221C24.1871 17.1718 23.7194 17.6395 23.7194 18.2409C23.7194 18.909 24.1203 19.2431 24.7884 19.2431H25.5902C25.7906 19.2431 25.9243 19.3767 25.9243 19.5772C25.9911 19.8444 25.7906 19.9781 25.5902 19.9781ZM23.2517 17.84V17.105H20.4454V20.6462H23.2517V19.9113H21.2472V19.1763H23.1849V18.4413H21.2472V17.7732H23.2517V17.84ZM18.7082 17.84C19.0423 17.84 19.1759 18.0404 19.1759 18.2409C19.1759 18.4413 19.0423 18.6418 18.7082 18.6418H17.706V17.7732L18.7082 17.84ZM17.706 19.3767H18.1069L19.1759 20.6462H20.1782L18.9755 19.3099C19.5768 19.1763 19.9109 18.7754 19.9109 18.2409C19.9109 17.5727 19.4432 17.105 18.7082 17.105H16.8374V20.6462H17.6392L17.706 19.3767ZM15.5679 18.3077C15.5679 18.575 15.4343 18.7754 15.1002 18.7754H14.0312V17.84H15.0334C15.3675 17.84 15.5679 18.0404 15.5679 18.3077ZM13.2294 17.105V20.6462H14.0312V19.4436H15.1002C15.8352 19.4436 16.3697 18.9758 16.3697 18.2409C16.3697 17.5727 15.902 17.0382 15.167 17.0382L13.2294 17.105ZM12.0267 20.6462H13.029L11.6258 18.8422L13.029 17.105H12.0267L11.1581 18.2409L10.2895 17.105H9.28731L10.6904 18.8422L9.28731 20.5794H10.2895L11.1581 19.4436L12.0267 20.6462ZM9.02005 17.84V17.105H6.21381V20.6462H9.02005V19.9113H7.01559V19.1763H8.95323V18.4413H7.01559V17.7732H9.02005V17.84ZM25.2561 11.5594L26.6592 13.6975H27.6615V10.1562H26.8597V12.4948L26.6592 12.1607L25.3898 10.1562H24.3207V13.6975H25.1225V11.2921L25.2561 11.5594ZM21.7817 11.4926L22.049 10.7576L22.3163 11.4926L22.6503 12.2943H21.4477L21.7817 11.4926ZM23.1849 13.6975H24.0535L22.5167 10.1562H21.4477L19.9109 13.6975H20.7795L21.1136 12.9625H22.8508L23.1849 13.6975ZM19.4432 13.6975L19.7773 12.9625H19.5768C18.9755 12.9625 18.6414 12.5616 18.6414 11.9603V11.8934C18.6414 11.2921 18.9755 10.8912 19.5768 10.8912H20.4454V10.1562H19.51C18.441 10.1562 17.8396 10.8912 17.8396 11.8934V11.9603C17.8396 13.0293 18.441 13.6975 19.4432 13.6975ZM16.4365 13.6975H17.2383V10.2231H16.4365V13.6975ZM14.6993 10.8912C15.0334 10.8912 15.167 11.0917 15.167 11.2921C15.167 11.4926 15.0334 11.693 14.6993 11.693H13.6971V10.8244L14.6993 10.8912ZM13.6971 12.428H14.098L15.167 13.6975H16.1693L14.9666 12.3611C15.5679 12.2275 15.902 11.8266 15.902 11.2921C15.902 10.624 15.4343 10.1562 14.6993 10.1562H12.8285V13.6975H13.6303L13.6971 12.428ZM12.2272 10.8912V10.1562H9.42094V13.6975H12.2272V12.9625H10.2227V12.2275H12.1604V11.4926H10.2227V10.8244H12.2272V10.8912ZM6.14699 13.6975H6.88196L7.88419 10.8244V13.6975H8.68597V10.1562H7.34967L6.54788 12.5616L5.7461 10.1562H4.4098V13.6975H5.21158V10.8244L6.14699 13.6975ZM1.80401 11.4926L2.07127 10.7576L2.33853 11.4926L2.67261 12.2943H1.46993L1.80401 11.4926ZM3.20713 13.6975H4.07572L2.53898 10.1562H1.53675L0 13.6975H0.868597L1.20267 12.9625H2.93987L3.20713 13.6975Z" fill="#006FCF"/>
</svg>
