<svg width="48" height="30" viewBox="0 0 48 30" fill="none" xmlns="http://www.w3.org/2000/svg">
<path fill-rule="evenodd" clip-rule="evenodd" d="M0 0V30H47.9467V0H0Z" fill="#1D5B99"/>
<path fill-rule="evenodd" clip-rule="evenodd" d="M47.3881 0.55957V29.4394H0.5625V0.55957H47.3881V0.55957Z" fill="white"/>
<path fill-rule="evenodd" clip-rule="evenodd" d="M45.8971 28.1826V1.96191H1.96094V28.1826H45.8971Z" fill="#1D5B99"/>
<path fill-rule="evenodd" clip-rule="evenodd" d="M13.9844 17.8009C18.6422 15.8042 25.1788 13.9949 33.8346 15.8068L33.9255 13.6115C24.7926 12.614 18.2393 15.5228 13.9844 17.5841V17.8009Z" fill="#E7A83A"/>
<path fill-rule="evenodd" clip-rule="evenodd" d="M5.57031 19.4158H9.96011V20.7385H7.23253L7.21434 21.9597H9.93243V23.2272H7.20511L7.21485 24.4484H9.90501V25.7708H5.57185L5.57031 19.4158ZM11.0626 18.8828H12.6605L12.6662 25.7708H11.0683L11.0626 18.8828ZM18.1574 25.2472C17.6157 25.7062 16.7892 25.9361 16.0542 25.9361C14.3737 25.9361 13.6113 24.7423 13.6113 23.5576C13.6113 22.1616 14.6582 20.9774 16.1 20.9774C17.8632 20.9774 18.4142 22.2262 18.4142 23.8149H15.2095C15.2095 24.1731 15.4391 24.779 16.3207 24.779C16.8809 24.779 17.1931 24.6137 17.6249 24.32L18.1574 25.2472V25.2472ZM16.9819 22.8782C16.9819 22.4007 16.7523 21.9686 16.2197 21.9686C15.7146 21.9686 15.3289 22.4187 15.2279 22.8782H16.9819ZM23.2638 25.4586C22.823 25.7339 22.0975 25.9361 21.5647 25.9361C20.0954 25.9361 19.0393 25.0911 19.0393 23.567C19.0393 22.0058 20.0862 20.9774 21.6659 20.9774C22.2169 20.9774 22.8781 21.1516 23.2361 21.3812L22.722 22.4279C22.4832 22.3272 22.2259 22.2441 21.9688 22.2441C21.17 22.2441 20.6372 22.7221 20.6372 23.484C20.6372 24.1457 21.1515 24.6688 21.8312 24.6688C22.1341 24.6688 22.4373 24.5312 22.6943 24.4025L23.2638 25.4586V25.4586ZM23.8542 21.1424H24.5762L24.5708 19.5717H26.1136L26.0769 21.1424H27.3904L27.3624 22.2997H26.0495C26.0495 22.9425 26.0034 23.6221 26.0034 24.0171C26.0034 24.421 26.1046 24.6137 26.4629 24.6137C26.683 24.6137 26.8668 24.5035 27.0505 24.3935L27.3993 25.4773C26.9309 25.7621 26.3617 25.9363 25.8196 25.9363C24.5247 25.9363 24.4606 25.1191 24.4606 24.0537C24.4606 23.484 24.5062 22.9151 24.5062 22.2997H23.8176L23.8542 21.1424V21.1424ZM28.2076 21.1424H29.8058V21.7946H29.8237C30.0626 21.3997 30.3747 21.0137 30.9995 21.0137C31.1738 21.0137 31.3573 21.0322 31.5231 21.0688L31.3119 22.6485C31.1559 22.6024 30.9811 22.5565 30.7422 22.5565C30.2097 22.5565 29.7963 23.0066 29.7963 23.0986L29.7689 25.771H28.1713L28.2076 21.1424ZM34.418 20.9771C36.1259 20.9771 37.0077 22.0609 37.0077 23.4563C37.0077 24.8523 36.1259 25.9361 34.418 25.9361C32.7097 25.9361 31.8278 24.8523 31.8278 23.4563C31.8276 22.0609 32.7097 20.9771 34.418 20.9771V20.9771ZM34.418 24.7236C35.18 24.7236 35.4096 24.0624 35.4096 23.4563C35.4096 22.8502 35.18 22.1895 34.418 22.1895C33.6556 22.1895 33.426 22.8502 33.426 23.4563C33.426 24.0624 33.6556 24.7236 34.418 24.7236ZM37.8763 21.1424H39.4739V21.6475C39.8414 21.2898 40.4014 20.9774 40.9711 20.9774C41.9537 20.9774 42.4862 21.5189 42.4862 22.7864C42.4862 23.7323 42.4772 24.7516 42.4683 25.771H40.8701C40.8791 24.88 40.8886 23.9802 40.8886 23.025C40.8886 22.6485 40.7873 22.3548 40.3099 22.3548C40.0526 22.3548 39.6851 22.575 39.4739 22.7772L39.4654 25.771H37.8391L37.8763 21.1424V21.1424ZM18.7146 11.6081L20.7341 4.95174H22.5352L20.516 11.6081H18.7146ZM17.9096 4.95328L16.2892 7.77491C15.8768 8.51453 15.6354 8.88767 15.5196 9.35461H15.4952C15.5237 8.7626 15.4411 8.03605 15.4334 7.62498L15.2546 4.95328H12.2223L12.1908 5.13268C12.9698 5.13268 13.4319 5.52376 13.5593 6.32437L14.1503 11.6081H16.0165L19.7899 4.95328H17.9096ZM31.9178 11.6081L31.8683 10.6183L29.6195 10.6168L29.1595 11.6083H27.2038L30.7492 4.96456H33.1497L33.7504 11.6083H31.9178V11.6081ZM31.7115 7.68188C31.691 7.18982 31.6743 6.52222 31.7079 6.11781H31.6812C31.5716 6.44867 31.1005 7.44046 30.8934 7.92867L30.2233 9.38741H31.803L31.7115 7.68188V7.68188ZM24.426 11.7977C23.1546 11.7977 22.3104 11.3941 21.7079 11.0343L22.5657 9.72416C23.1067 10.0268 23.5316 10.3756 24.5085 10.3756C24.8235 10.3756 25.1256 10.2941 25.2974 9.99633C25.5482 9.56322 25.2397 9.33052 24.5365 8.932L24.1892 8.70597C23.1459 7.99326 22.6943 7.31668 23.1854 6.13472C23.5001 5.37896 24.3284 4.80566 25.6959 4.80566C26.6385 4.80566 27.5229 5.2134 28.0375 5.61192L27.0513 6.76876C26.5482 6.3623 26.1318 6.15676 25.6549 6.15676C25.2751 6.15676 24.9862 6.30336 24.8865 6.5012C24.6989 6.87332 24.947 7.12601 25.4952 7.46686L25.9086 7.7298C27.1748 8.52811 27.4762 9.36563 27.1595 10.1488C26.6131 11.4963 25.5444 11.7977 24.426 11.7977V11.7977Z" fill="white"/>
</svg>
