<svg width="39" height="30" viewBox="0 0 39 30" fill="none" xmlns="http://www.w3.org/2000/svg">
<g clip-path="url(#clip0_2415_256)">
<path d="M24.662 21.3038H14.1641V2.5498H24.662V21.3038Z" fill="#6C6BBD"/>
<path d="M14.8292 11.9274C14.8292 8.12305 16.621 4.73427 19.4114 2.5504C17.3709 0.953445 14.7956 0.000275828 11.9968 0.000275828C5.371 0.000275828 0 5.34014 0 11.9274C0 18.5146 5.371 23.8545 11.9968 23.8545C14.7956 23.8545 17.3709 22.9013 19.4114 21.3044C16.621 19.1205 14.8292 15.7317 14.8292 11.9274Z" fill="#D32011"/>
<path d="M38.8263 11.9274C38.8263 18.5146 33.4553 23.8545 26.8294 23.8545C24.0306 23.8545 21.4554 22.9013 19.4141 21.3044C22.2052 19.1205 23.9971 15.7317 23.9971 11.9274C23.9971 8.12305 22.2052 4.73427 19.4141 2.5504C21.4554 0.953445 24.0306 0.000275828 26.8294 0.000275828C33.4553 0.000275828 38.8263 5.34014 38.8263 11.9274Z" fill="#0099DF"/>
<path d="M28.2101 26.6031C28.3497 26.6031 28.5503 26.6297 28.7037 26.6896L28.4901 27.3387C28.3436 27.2787 28.1971 27.259 28.0568 27.259C27.6037 27.259 27.3771 27.5502 27.3771 28.0734V29.8493H26.6837V26.6827H27.3703V27.0672C27.5503 26.7889 27.8104 26.6031 28.2101 26.6031ZM25.6486 27.3121H24.5158V28.743C24.5158 29.0607 24.6287 29.273 24.9758 29.273C25.1558 29.273 25.3824 29.2131 25.5883 29.0941L25.7882 29.6833C25.5685 29.8357 25.2222 29.929 24.9224 29.929C24.1023 29.929 23.8163 29.4914 23.8163 28.7559V27.3121H23.1694V26.6827H23.8163V25.722H24.5158V26.6827H25.6486V27.3121ZM16.7778 27.9877C16.8518 27.5305 17.1309 27.2188 17.6245 27.2188C18.0707 27.2188 18.3576 27.4971 18.4308 27.9877H16.7778ZM19.1509 28.266C19.144 27.2787 18.5307 26.6031 17.6375 26.6031C16.7045 26.6031 16.0516 27.2787 16.0516 28.266C16.0516 29.2723 16.7312 29.9282 17.6848 29.9282C18.1646 29.9282 18.6039 29.8092 18.9907 29.4846L18.6505 28.9743C18.3843 29.1866 18.044 29.3057 17.7244 29.3057C17.2782 29.3057 16.8716 29.1002 16.7717 28.5307H19.1372C19.144 28.4442 19.1509 28.3586 19.1509 28.266ZM22.1961 27.4911C22.0031 27.3713 21.6102 27.2188 21.2036 27.2188C20.8237 27.2188 20.5972 27.3584 20.5972 27.5904C20.5972 27.802 20.8367 27.8619 21.1365 27.9013L21.463 27.9476C22.1564 28.0477 22.5759 28.3388 22.5759 28.8954C22.5759 29.4983 22.0427 29.929 21.1235 29.929C20.6033 29.929 20.1235 29.7963 19.7436 29.518L20.0701 28.9811C20.3035 29.1601 20.6506 29.3125 21.1304 29.3125C21.6033 29.3125 21.8566 29.1737 21.8566 28.928C21.8566 28.7498 21.6766 28.6497 21.2967 28.5974L20.9702 28.5512C20.257 28.4511 19.8702 28.1333 19.8702 27.6169C19.8702 26.9876 20.3905 26.6031 21.1968 26.6031C21.7033 26.6031 22.1633 26.7161 22.4958 26.9345L22.1961 27.4911ZM30.7434 27.2575C30.6008 27.2575 30.4688 27.2825 30.346 27.3318C30.224 27.3819 30.1179 27.4516 30.0287 27.5411C29.9394 27.6306 29.8692 27.7383 29.8181 27.8634C29.767 27.9885 29.7419 28.1265 29.7419 28.2767C29.7419 28.4276 29.767 28.5648 29.8181 28.6899C29.8692 28.815 29.9394 28.9227 30.0287 29.0122C30.1179 29.1017 30.224 29.1714 30.346 29.2215C30.4688 29.2715 30.6008 29.2958 30.7434 29.2958C30.8861 29.2958 31.0188 29.2715 31.1409 29.2215C31.2637 29.1714 31.3705 29.1017 31.4597 29.0122C31.5505 28.9227 31.6207 28.815 31.6725 28.6899C31.7237 28.5648 31.7488 28.4276 31.7488 28.2767C31.7488 28.1265 31.7237 27.9885 31.6725 27.8634C31.6207 27.7383 31.5505 27.6306 31.4597 27.5411C31.3705 27.4516 31.2637 27.3819 31.1409 27.3318C31.0188 27.2825 30.8861 27.2575 30.7434 27.2575ZM30.7434 26.6031C30.9906 26.6031 31.2194 26.6456 31.43 26.7313C31.6405 26.8162 31.8228 26.9337 31.9762 27.0831C32.1302 27.2325 32.25 27.4092 32.337 27.6124C32.4239 27.8164 32.4674 28.0378 32.4674 28.2767C32.4674 28.5155 32.4239 28.7369 32.337 28.9409C32.25 29.1441 32.1302 29.3216 31.9762 29.471C31.8228 29.6203 31.6405 29.7371 31.43 29.8228C31.2194 29.9077 30.9906 29.9502 30.7434 29.9502C30.4963 29.9502 30.2674 29.9077 30.0569 29.8228C29.8464 29.7371 29.6656 29.6203 29.513 29.471C29.3604 29.3216 29.2407 29.1441 29.1537 28.9409C29.0668 28.7369 29.0233 28.5155 29.0233 28.2767C29.0233 28.0378 29.0668 27.8164 29.1537 27.6124C29.2407 27.4092 29.3604 27.2325 29.513 27.0831C29.6656 26.9337 29.8464 26.8162 30.0569 26.7313C30.2674 26.6456 30.4963 26.6031 30.7434 26.6031ZM12.7287 28.266C12.7287 27.7095 13.0956 27.2522 13.6952 27.2522C14.2681 27.2522 14.6548 27.6897 14.6548 28.266C14.6548 28.8423 14.2681 29.2791 13.6952 29.2791C13.0956 29.2791 12.7287 28.8226 12.7287 28.266ZM15.3078 28.266V26.6827H14.6152V27.0672C14.3947 26.7821 14.0621 26.6031 13.609 26.6031C12.7158 26.6031 12.0163 27.2985 12.0163 28.266C12.0163 29.2329 12.7158 29.929 13.609 29.929C14.0621 29.929 14.3947 29.75 14.6152 29.4649V29.8493H15.3078V28.266ZM11.4029 29.8493V27.8619C11.4029 27.1134 10.9231 26.6099 10.1504 26.6031C9.74381 26.5963 9.3235 26.7222 9.03058 27.1665C8.81089 26.8154 8.46381 26.6031 7.97713 26.6031C7.63767 26.6031 7.30432 26.7024 7.0442 27.0733V26.6827H6.35156V29.8493H7.05107V28.0939C7.05107 27.5441 7.35772 27.2522 7.83067 27.2522C8.29065 27.2522 8.52407 27.5502 8.52407 28.0871V29.8493H9.22357V28.0939C9.22357 27.5441 9.54396 27.2522 10.0032 27.2522C10.4769 27.2522 10.7034 27.5502 10.7034 28.0871V29.8493H11.4029Z" fill="#110F0D"/>
</g>
<defs>
<clipPath id="clip0_2415_256">
<rect width="38.8235" height="30" fill="white"/>
</clipPath>
</defs>
</svg>
