<svg width="94" height="24" viewBox="0 0 94 24" fill="none" xmlns="http://www.w3.org/2000/svg">
<path fill-rule="evenodd" clip-rule="evenodd" d="M17.1019 23.0525C23.415 23.0878 29.1863 17.9206 29.1863 11.6261C29.1863 4.75612 23.415 0 17.1019 0H11.6604C5.26484 0 0 4.74438 0 11.6261C0 17.9089 5.26484 23.076 11.6604 23.0525H17.1019Z" fill="#004C94"/>
<path fill-rule="evenodd" clip-rule="evenodd" d="M14.0869 17.7441V5.27246C16.6074 6.23543 18.3859 8.66634 18.3977 11.5083C18.3859 14.3619 16.6074 16.7811 14.0869 17.7441ZM4.98242 11.5088C4.98242 8.66683 6.7727 6.23592 9.28145 5.27295V17.7563C6.7727 16.7816 4.98242 14.3624 4.98242 11.5088ZM11.6842 0.962891C5.84224 0.962891 1.10742 5.68378 1.10742 11.5086C1.10742 17.3334 5.84224 22.0542 11.6842 22.0542C17.5262 22.0542 22.261 17.3334 22.261 11.5086C22.261 5.68378 17.5262 0.962891 11.6842 0.962891Z" fill="white"/>
<path fill-rule="evenodd" clip-rule="evenodd" d="M38.5835 11.8588C38.5835 12.7983 39.2549 12.904 39.8555 12.904C42.4938 12.904 43.3654 10.9193 43.3654 9.09909C43.3654 6.82085 41.9049 5.17676 39.5375 5.17676C39.0311 5.17676 38.8073 5.21199 38.5835 5.22373V11.8588ZM37.3816 6.13957C37.3816 5.04742 36.8045 5.11788 36.2627 5.10614V4.78906C36.7338 4.81255 37.2285 4.81255 37.6996 4.81255C38.2179 4.81255 38.9128 4.78906 39.8079 4.78906C42.9762 4.78906 44.6959 6.89115 44.6959 9.05196C44.6959 10.2615 43.9892 13.2914 39.6666 13.2914C39.0423 13.2914 38.4652 13.2679 37.8999 13.2679C37.3463 13.2679 36.8163 13.2796 36.2627 13.2914V12.9743C36.9929 12.9038 37.3463 12.8803 37.3816 12.0466V6.13957Z" fill="black"/>
<path fill-rule="evenodd" clip-rule="evenodd" d="M46.4385 5.84628C46.1205 5.84628 45.8379 5.55269 45.8379 5.23561C45.8379 4.93028 46.1323 4.64844 46.4385 4.64844C46.7565 4.64844 47.0392 4.90679 47.0392 5.23561C47.0392 5.56443 46.7683 5.84628 46.4385 5.84628ZM45.1313 12.9749H45.3669C45.7085 12.9749 45.9558 12.9749 45.9558 12.5757V9.27573C45.9558 8.73553 45.7674 8.66507 45.3198 8.41845V8.21881C45.8969 8.04266 46.5801 7.81953 46.6272 7.7843C46.7096 7.73733 46.7803 7.72559 46.851 7.72559C46.9098 7.72559 46.9334 7.79605 46.9334 7.90174V12.5757C46.9334 12.9749 47.2043 12.9749 47.5459 12.9749H47.7579V13.292C47.3456 13.292 46.9098 13.2685 46.4741 13.2685C46.0383 13.2685 45.5907 13.2803 45.1431 13.292V12.9749H45.1313Z" fill="black"/>
<path fill-rule="evenodd" clip-rule="evenodd" d="M48.9121 9.34622C48.9121 8.89996 48.7826 8.77078 48.2054 8.54766V8.31279C48.7355 8.13663 49.2301 7.98397 49.819 7.72561C49.8544 7.72561 49.8897 7.7491 49.8897 7.84305V8.62986C50.5846 8.13663 51.1853 7.71387 52.0098 7.71387C53.0463 7.71387 53.4114 8.46545 53.4114 9.41668V12.5639C53.4114 12.9632 53.6823 12.9632 54.0238 12.9632H54.2476V13.2803C53.8236 13.2803 53.3878 13.2568 52.952 13.2568C52.5162 13.2568 52.0687 13.2686 51.6329 13.2803V12.9632H51.8567C52.1982 12.9632 52.4456 12.9632 52.4456 12.5639V9.40493C52.4456 8.71207 52.0216 8.3715 51.3266 8.3715C50.938 8.3715 50.3137 8.68858 49.9133 8.95868V12.5639C49.9133 12.9632 50.1842 12.9632 50.5257 12.9632H50.7495V13.2803C50.3255 13.2803 49.8897 13.2568 49.4539 13.2568C49.0181 13.2568 48.5706 13.2686 48.1348 13.2803V12.9632H48.3586C48.7001 12.9632 48.9475 12.9632 48.9475 12.5639V9.34622H48.9121Z" fill="black"/>
<path fill-rule="evenodd" clip-rule="evenodd" d="M57.3334 9.53425C57.6397 9.53425 57.675 9.36984 57.675 9.22892C57.675 8.60651 57.2981 8.11328 56.615 8.11328C55.873 8.11328 55.3547 8.66523 55.2134 9.53425H57.3334ZM55.1666 9.93337C55.1431 10.0391 55.1431 10.227 55.1666 10.638C55.2373 11.8006 55.9911 12.7401 56.9569 12.7401C57.6282 12.7401 58.1583 12.376 58.6058 11.9298L58.7707 12.1059C58.2054 12.8458 57.5105 13.4799 56.5093 13.4799C54.5659 13.4799 54.1772 11.6009 54.1772 10.8259C54.1772 8.44194 55.7909 7.72559 56.6389 7.72559C57.6282 7.72559 58.6883 8.34799 58.7001 9.63978C58.7001 9.71024 58.7001 9.7807 58.6883 9.86291L58.5823 9.93337H55.1666Z" fill="black"/>
<path fill-rule="evenodd" clip-rule="evenodd" d="M59.0063 12.9749H59.3361C59.6777 12.9749 59.925 12.9749 59.925 12.5757V9.1583C59.925 8.7825 59.4775 8.71204 59.289 8.60635V8.41845C60.1842 8.04266 60.6671 7.72559 60.7849 7.72559C60.8555 7.72559 60.8909 7.76082 60.8909 7.89V8.98214H60.9144C61.2206 8.5124 61.7271 7.72559 62.4809 7.72559C62.7871 7.72559 63.1758 7.93697 63.1758 8.37148C63.1758 8.7003 62.9403 8.99389 62.5987 8.99389C62.2218 8.99389 62.2218 8.7003 61.786 8.7003C61.574 8.7003 60.8909 8.98214 60.8909 9.71024V12.5757C60.8909 12.9749 61.1382 12.9749 61.4798 12.9749H62.1629V13.292C61.4915 13.2803 60.9851 13.2685 60.4551 13.2685C59.9486 13.2685 59.4421 13.2803 59.0063 13.292V12.9749Z" fill="black"/>
<path fill-rule="evenodd" clip-rule="evenodd" d="M63.7061 11.6009C63.871 12.3995 64.3539 13.0924 65.2491 13.0924C65.9676 13.0924 66.2385 12.6579 66.2385 12.2234C66.2385 10.7906 63.5766 11.2486 63.5766 9.28747C63.5766 8.60635 64.1302 7.72559 65.4729 7.72559C65.8616 7.72559 66.3916 7.83128 66.8627 8.07789L66.9451 9.3227H66.6625C66.5447 8.55938 66.1089 8.11312 65.3315 8.11312C64.8369 8.11312 64.3775 8.39497 64.3775 8.91168C64.3775 10.3326 67.216 9.89814 67.216 11.8123C67.216 12.6109 66.5682 13.4682 65.1195 13.4682C64.6366 13.4682 64.0595 13.292 63.6237 13.0571L63.4941 11.6597L63.7061 11.6009Z" fill="black"/>
<path fill-rule="evenodd" clip-rule="evenodd" d="M78.2514 6.99724H77.9452C77.7096 5.57627 76.6967 5.00084 75.3304 5.00084C73.9288 5.00084 71.8794 5.94032 71.8794 8.86446C71.8794 11.3306 73.6461 13.0921 75.5189 13.0921C76.732 13.0921 77.7331 12.2583 77.9805 10.9783L78.2632 11.0488L77.9805 12.822C77.4623 13.1391 76.0842 13.4679 75.2833 13.4679C72.4212 13.4679 70.6191 11.6242 70.6191 8.88795C70.6191 6.38658 72.857 4.60156 75.248 4.60156C76.2373 4.60156 77.1914 4.91864 78.1336 5.24746L78.2514 6.99724Z" fill="black"/>
<path fill-rule="evenodd" clip-rule="evenodd" d="M78.6875 12.9745H78.9231C79.2646 12.9745 79.512 12.9745 79.512 12.5753V5.78751C79.512 5.00069 79.3235 4.96546 78.8642 4.83628V4.63664C79.3471 4.48398 79.8653 4.26085 80.1244 4.10818C80.254 4.03772 80.36 3.979 80.3953 3.979C80.466 3.979 80.4896 4.04947 80.4896 4.15516V12.5753C80.4896 12.9745 80.7605 12.9745 81.102 12.9745H81.314V13.2916C80.9018 13.2916 80.466 13.2681 80.0302 13.2681C79.5944 13.2681 79.1468 13.2799 78.6993 13.2916V12.9745H78.6875Z" fill="black"/>
<path fill-rule="evenodd" clip-rule="evenodd" d="M86.5317 12.6223C86.5317 12.8454 86.6612 12.8571 86.8733 12.8571C87.0146 12.8571 87.203 12.8454 87.3679 12.8454V13.1037C86.8379 13.1507 85.8368 13.4091 85.613 13.4795L85.5541 13.4443V12.4461C84.8239 13.045 84.2585 13.4678 83.3869 13.4678C82.7273 13.4678 82.0442 13.045 82.0442 12.0233V8.89957C82.0442 8.58249 81.9971 8.27716 81.314 8.21844V7.98357C81.7498 7.97183 82.7273 7.90137 82.8922 7.90137C83.0218 7.90137 83.0218 7.98357 83.0218 8.25367V11.4009C83.0218 11.765 83.0218 12.8102 84.0818 12.8102C84.4941 12.8102 85.0476 12.4931 85.5541 12.0703V8.79387C85.5541 8.54726 84.9652 8.41808 84.5294 8.30065V8.07752C85.6248 8.00706 86.3079 7.90137 86.4375 7.90137C86.5317 7.90137 86.5317 7.98357 86.5317 8.12449V12.6223Z" fill="black"/>
<path fill-rule="evenodd" clip-rule="evenodd" d="M88.959 11.9186C88.959 12.3766 89.3948 13.1634 90.2192 13.1634C91.5266 13.1634 92.0802 11.8833 92.0802 10.8029C92.0802 9.48765 91.0791 8.39551 90.125 8.39551C89.6657 8.39551 89.2888 8.6891 88.959 8.97094V11.9186ZM88.9589 8.60641C89.4418 8.19539 90.1131 7.72565 90.7845 7.72565C92.1979 7.72565 93.0577 8.95872 93.0577 10.2857C93.0577 11.8829 91.8799 13.48 90.1367 13.48C89.2298 13.48 88.7587 13.1864 88.4406 13.0572L88.0755 13.3391L87.8164 13.2099C87.9224 12.4935 87.9813 11.7889 87.9813 11.0373V5.79971C87.9813 5.0129 87.7928 4.97767 87.3335 4.84849V4.64885C87.8282 4.49618 88.3346 4.27306 88.5938 4.12039C88.7233 4.04993 88.8293 3.99121 88.8647 3.99121C88.9353 3.99121 88.9589 4.06167 88.9589 4.16736V8.60641Z" fill="black"/>
<path fill-rule="evenodd" clip-rule="evenodd" d="M36.2505 20.3731H36.3447C36.5803 20.3731 36.8394 20.3379 36.8394 19.9973V16.5212C36.8394 16.1807 36.5921 16.1454 36.3447 16.1454H36.2505V15.9458C36.5096 15.9458 36.9101 15.9693 37.2399 15.9693C37.5696 15.9693 37.9701 15.9458 38.2881 15.9458V16.1454H38.1939C37.9583 16.1454 37.6992 16.1807 37.6992 16.5212V19.9973C37.6992 20.3379 37.9583 20.3731 38.1939 20.3731H38.2881V20.5727C37.9701 20.5727 37.5696 20.5493 37.2399 20.5493C36.9101 20.5493 36.5214 20.5727 36.2623 20.5727V20.3731H36.2505Z" fill="black"/>
<path fill-rule="evenodd" clip-rule="evenodd" d="M38.2531 20.5487V20.4078H38.1942C37.9586 20.4078 37.676 20.3726 37.676 19.9968V16.5207C37.676 16.1566 37.9586 16.1097 38.1942 16.1097H38.2531V15.9688C37.9469 15.9688 37.5582 15.9922 37.2402 15.9922C36.9222 15.9922 36.5453 15.9688 36.2861 15.9688V16.1097H36.345C36.5806 16.1097 36.8633 16.1566 36.8633 16.5207V19.9968C36.8633 20.3608 36.5806 20.4078 36.345 20.4078H36.2861V20.5487C36.5453 20.5487 36.9222 20.5252 37.2402 20.5252C37.5464 20.5135 37.9351 20.5487 38.2531 20.5487ZM38.2765 20.6075C37.9584 20.6075 37.558 20.584 37.2282 20.584C36.8984 20.584 36.5097 20.6075 36.2506 20.6075H36.2271V20.584V20.3844V20.3609H36.2506H36.3448C36.5922 20.3609 36.8042 20.3374 36.8042 20.0086V16.5325C36.8042 16.2037 36.5804 16.192 36.3448 16.1802H36.2271V16.1567V15.9336H36.2506C36.5097 15.9336 36.9102 15.9571 37.24 15.9571C37.5698 15.9571 37.9702 15.9336 38.2882 15.9336H38.3118V15.9688V16.192H38.2882H38.194C37.9467 16.192 37.7347 16.2154 37.7347 16.5443V20.0203C37.7347 20.3492 37.9584 20.3609 38.194 20.3726H38.3118V20.3961V20.6193H38.2765V20.6075Z" fill="black"/>
<path fill-rule="evenodd" clip-rule="evenodd" d="M42.847 19.2687L42.8588 19.257V16.7674C42.8588 16.2272 42.4819 16.145 42.2816 16.145H42.1285V15.9453C42.4465 15.9453 42.7528 15.9688 43.059 15.9688C43.3299 15.9688 43.6008 15.9453 43.8717 15.9453V16.145H43.7775C43.4948 16.145 43.1886 16.2037 43.1886 16.9905V20.0086C43.1886 20.2434 43.2003 20.4666 43.2239 20.6779H42.9766L39.5491 16.8731V19.6093C39.5491 20.1847 39.6669 20.3844 40.1734 20.3844H40.2911V20.584C40.0085 20.584 39.7258 20.5605 39.4313 20.5605C39.1369 20.5605 38.8306 20.584 38.5244 20.584V20.3844H38.6186C39.078 20.3844 39.2193 20.079 39.2193 19.5388V16.7439C39.2193 16.3681 38.9131 16.145 38.6186 16.145H38.5362V15.9453C38.7835 15.9453 39.0427 15.9688 39.3018 15.9688C39.502 15.9688 39.6905 15.9453 39.8907 15.9453L42.847 19.2687Z" fill="black"/>
<path fill-rule="evenodd" clip-rule="evenodd" d="M42.8467 19.2686L42.8702 19.2451L42.8467 19.2686ZM42.9758 20.6426H43.1996C43.1643 20.443 43.1643 20.2199 43.1643 20.0085V16.9904C43.1643 16.1919 43.4941 16.1214 43.7885 16.1214H43.8592V15.9805C43.6001 15.9805 43.3292 16.004 43.0701 16.004C42.7638 16.004 42.4694 15.9805 42.1631 15.9805V16.1214H42.2809C42.4811 16.1214 42.8934 16.2153 42.8934 16.779L42.8816 19.2804L42.8698 19.2921L42.8463 19.3156L39.89 15.9805C39.6897 15.9805 39.5013 16.004 39.301 16.004C39.0537 16.004 38.8064 15.9805 38.5708 15.9805V16.1214H38.6297C38.9359 16.1214 39.2657 16.3563 39.2657 16.7438V19.5388C39.2657 20.0672 39.1126 20.4078 38.6415 20.4078H38.5826V20.5487C38.8653 20.5487 39.1715 20.5252 39.4542 20.5252C39.7368 20.5252 40.0077 20.5487 40.2786 20.5487V20.4078H40.1962C39.6779 20.4078 39.5484 20.1846 39.5484 19.5975V16.7908L42.9758 20.6426ZM43.2236 20.7015L42.9527 20.6898L39.5841 16.9436V19.5976C39.5959 20.1731 39.6784 20.3375 40.1848 20.3492H40.3262V20.3727V20.5958H40.2908C40.0082 20.5958 39.7137 20.5723 39.431 20.5723C39.1366 20.5723 38.8303 20.5958 38.5241 20.5958H38.5005V20.5723V20.3492H38.5241H38.6183C39.0541 20.3492 39.1837 20.0674 39.1837 19.5389V16.7439C39.1837 16.3916 38.8892 16.1803 38.6066 16.1803H38.4888V16.145V15.9219H38.5123C38.7714 15.9219 39.0306 15.9454 39.2779 15.9454C39.4781 15.9454 39.6666 15.9219 39.8904 15.9336L42.8114 19.2101V16.7674C42.8114 16.239 42.458 16.1803 42.2578 16.1685H42.0811V16.1333V15.9102H42.1047C42.4227 15.9102 42.7289 15.9336 43.0351 15.9336C43.306 15.9336 43.5769 15.9102 43.8478 15.9102H43.8714V15.9336V16.1568H43.8478H43.7772C43.5063 16.1685 43.2236 16.192 43.2118 16.9671V19.9852C43.2118 20.22 43.2236 20.4432 43.2471 20.6545L43.2589 20.6898H43.2236V20.7015Z" fill="black"/>
<path fill-rule="evenodd" clip-rule="evenodd" d="M44.8723 16.2746C44.3776 16.2746 44.354 16.392 44.2598 16.8735H44.0596C44.0831 16.6856 44.1185 16.4977 44.142 16.3098C44.1656 16.1219 44.1774 15.934 44.1774 15.7461H44.3422C44.4011 15.9458 44.566 15.934 44.7427 15.934H48.1701C48.3468 15.934 48.5117 15.9223 48.5353 15.7227L48.6884 15.7461C48.6648 15.9223 48.6413 16.0984 48.6177 16.2863C48.6059 16.4625 48.6059 16.6504 48.6059 16.8265L48.4057 16.897C48.3939 16.6504 48.3586 16.2629 47.911 16.2629H46.8157V19.7859C46.8157 20.3026 47.0512 20.3613 47.3692 20.3613H47.4988V20.561C47.2397 20.561 46.7685 20.5375 46.4152 20.5375C46.0147 20.5375 45.5554 20.561 45.2963 20.561V20.3613H45.4258C45.791 20.3613 45.9794 20.3261 45.9794 19.8094V16.2746H44.8723Z" fill="black"/>
<path fill-rule="evenodd" clip-rule="evenodd" d="M47.4989 20.6079C47.2398 20.6079 46.7687 20.5844 46.4153 20.5844C46.0149 20.5844 45.5555 20.6079 45.2964 20.6079H45.2728V20.5844V20.3613H45.2964H45.426C45.7911 20.3495 45.9442 20.3495 45.9442 19.8328V16.3215H44.8842V16.298V16.2628H46.0031V19.8328C46.0031 20.3613 45.7911 20.42 45.426 20.42H45.3317V20.5609C45.5908 20.5609 46.0384 20.5374 46.4271 20.5374C46.7687 20.5374 47.2162 20.5609 47.4754 20.5609V20.42H47.3811C47.0631 20.42 46.804 20.3378 46.804 19.8211V16.2628H47.9229C48.3705 16.2628 48.4294 16.6386 48.4412 16.8852L48.5825 16.8382C48.5825 16.6621 48.5825 16.4977 48.5943 16.3215C48.6178 16.1453 48.6414 15.9809 48.6649 15.8165L48.5589 15.8048C48.5236 15.9927 48.3469 16.0044 48.1703 16.0044H44.7428H44.7075C44.5544 16.0044 44.3777 15.9927 44.3188 15.8165H44.2128C44.2128 16.0044 44.201 16.1806 44.1775 16.3567C44.1539 16.5329 44.1304 16.709 44.1068 16.8852H44.2481C44.3306 16.4272 44.3895 16.2745 44.8842 16.2863V16.3215V16.345C44.3895 16.3567 44.4013 16.4389 44.2953 16.9322V16.9557H44.2717H44.0361V16.9204C44.0597 16.7325 44.095 16.5446 44.1186 16.3567C44.1421 16.1688 44.1539 15.9927 44.1539 15.793V15.7696H44.1775H44.3541V15.793C44.4013 15.9575 44.519 15.9575 44.6957 15.9692H44.731H48.1585C48.3469 15.9692 48.4765 15.9692 48.4883 15.793V15.7578L48.5236 15.7696L48.7121 15.8048V15.8283C48.6885 16.0044 48.6649 16.1806 48.6414 16.3685C48.6296 16.5446 48.6296 16.7208 48.6296 16.9087V16.9322L48.6061 16.9439L48.3705 17.0261V16.9909C48.3469 16.7443 48.3234 16.3802 47.9111 16.3802H46.8511V19.8798C46.8629 20.3848 47.0513 20.42 47.3694 20.42H47.5225V20.4435V20.6666H47.4989V20.6079Z" fill="black"/>
<path fill-rule="evenodd" clip-rule="evenodd" d="M48.9004 20.3731H48.9946C49.2302 20.3731 49.4893 20.3379 49.4893 19.9973V16.5212C49.4893 16.1807 49.242 16.1454 48.9946 16.1454H48.9004V15.9458C49.3008 15.9458 49.9958 15.9693 50.5493 15.9693C51.1147 15.9693 51.7978 15.9458 52.2454 15.9458C52.2336 16.2276 52.2454 16.6739 52.2572 16.9557L52.0569 17.0145C52.0216 16.58 51.9509 16.2394 51.2442 16.2394H50.3255V17.9774H51.1147C51.5151 17.9774 51.5976 17.7543 51.6447 17.3903H51.8449C51.8332 17.6486 51.8214 17.907 51.8214 18.1653C51.8214 18.4119 51.8332 18.6703 51.8449 18.9169L51.6447 18.9521C51.6094 18.5529 51.5858 18.2945 51.1265 18.2945H50.3255V19.8329C50.3255 20.2674 50.7142 20.2674 51.1382 20.2674C51.9392 20.2674 52.2925 20.2087 52.4927 19.4571L52.6812 19.5041C52.5987 19.8564 52.5163 20.2087 52.4574 20.561C52.0334 20.561 51.2678 20.5375 50.6671 20.5375C50.0664 20.5375 49.2773 20.561 48.9004 20.561V20.3731V20.3731Z" fill="black"/>
<path fill-rule="evenodd" clip-rule="evenodd" d="M52.4337 20.5487C52.4926 20.2082 52.5633 19.8793 52.6457 19.5505L52.5162 19.5153C52.3159 20.2551 51.9273 20.3256 51.1499 20.3139C50.7259 20.3139 50.3137 20.3139 50.3137 19.8559V18.2822H51.1381C51.5975 18.2822 51.6446 18.5523 51.6799 18.9281L51.8213 18.8929C51.8095 18.6463 51.7977 18.3997 51.7977 18.1648C51.7977 17.9182 51.8095 17.6716 51.8213 17.4132H51.6799C51.6446 17.7538 51.5386 18.0004 51.1263 18.0004H50.3019V16.2036H51.2559C51.9508 16.2036 52.0568 16.5559 52.0922 16.9669L52.2335 16.9317C52.2217 16.7438 52.2099 16.509 52.2099 16.2858C52.2099 16.1684 52.2099 16.0627 52.2217 15.9688C51.7741 15.9688 51.091 15.9922 50.5492 15.9922C50.0074 15.9922 49.3361 15.9688 48.9238 15.9688V16.1097H48.9827C49.2183 16.1097 49.501 16.1566 49.501 16.5207V19.9968C49.501 20.3608 49.2183 20.4078 48.9827 20.4078H48.9238V20.5487C49.3125 20.5487 50.0781 20.5252 50.667 20.5252C51.2559 20.5135 51.9979 20.5487 52.4337 20.5487ZM52.457 20.6075C52.033 20.6075 51.2674 20.584 50.6667 20.584C50.0661 20.584 49.2769 20.6075 48.9 20.6075H48.8765V20.584V20.3844V20.3609H48.9H48.9942C49.2298 20.3609 49.4536 20.3374 49.4536 20.0086V16.5325C49.4536 16.2037 49.2298 16.192 48.9942 16.1802H48.8765V16.1567V15.9336H48.9C49.3005 15.9336 49.9954 15.9571 50.549 15.9571C51.1025 15.9571 51.7974 15.9336 52.245 15.9336H52.2804V15.9688C52.2804 16.0745 52.2686 16.192 52.2686 16.3094C52.2686 16.5443 52.2804 16.7909 52.2921 16.9788V17.0023L52.2686 17.014L52.033 17.0727V17.0375C51.9977 16.603 51.9388 16.2976 51.2557 16.2859H50.3605V17.9652H51.1261C51.5148 17.9652 51.5737 17.7656 51.6208 17.4133V17.3898H51.6443H51.8681V17.425C51.8563 17.6834 51.8446 17.9417 51.8446 18.2001C51.8446 18.4467 51.8563 18.7051 51.8681 18.9517V18.9752H51.8446L51.609 19.0221V18.9869C51.5619 18.5876 51.5619 18.3645 51.1143 18.3528H50.3487V19.8677C50.3487 20.267 50.7021 20.267 51.1261 20.267C51.927 20.267 52.245 20.22 52.4452 19.4801L52.457 19.4566H52.4806L52.6926 19.5154L52.6808 19.5389C52.5984 19.8912 52.5159 20.2435 52.457 20.5958V20.6193V20.6075Z" fill="black"/>
<path fill-rule="evenodd" clip-rule="evenodd" d="M54.436 18.1888H54.7658C55.4372 18.1888 55.7905 17.9422 55.7905 17.1554C55.7905 16.5682 55.4136 16.1924 54.8247 16.1924C54.6245 16.1924 54.542 16.2159 54.4478 16.2159V18.1888H54.436ZM53.5762 16.6504C53.5762 16.1689 53.3053 16.1454 53.1051 16.1454H52.9873V15.9458C53.1993 15.9458 53.6115 15.9693 54.0238 15.9693C54.4242 15.9693 54.7423 15.9458 55.0956 15.9458C55.9318 15.9458 56.6739 16.1689 56.6739 17.1084C56.6739 17.7073 56.2734 18.0714 55.7552 18.271L56.8859 19.9621C57.0743 20.2439 57.2039 20.3261 57.5337 20.3614V20.561C57.3099 20.561 57.0979 20.5375 56.8859 20.5375C56.6739 20.5375 56.4619 20.561 56.2616 20.561C55.7552 19.8916 55.3076 19.1753 54.8836 18.4119H54.4478V19.8446C54.4478 20.3614 54.6834 20.3731 54.9896 20.3731H55.1074V20.5727C54.7305 20.5727 54.3418 20.5493 53.9649 20.5493C53.6469 20.5493 53.3289 20.5727 52.9991 20.5727V20.3731H53.1169C53.3642 20.3731 53.588 20.2557 53.588 20.0208V16.6504H53.5762Z" fill="black"/>
<path fill-rule="evenodd" clip-rule="evenodd" d="M54.7554 18.153C55.415 18.153 55.7448 17.9182 55.7565 17.1431C55.7565 16.5677 55.3914 16.2036 54.8143 16.2036C54.6376 16.2036 54.5552 16.2154 54.4609 16.2271V18.153H54.7554ZM54.4254 18.2118H54.4018V16.1802H54.4254C54.5196 16.1684 54.602 16.1567 54.8023 16.1567C55.403 16.1567 55.8034 16.5442 55.8034 17.1549C55.8034 17.9417 55.4265 18.2118 54.7552 18.2118H54.4254ZM54.4255 18.3996H54.8849L54.8967 18.4114C55.3324 19.1747 55.7682 19.8911 56.2511 20.5487C56.4514 20.5487 56.6634 20.5252 56.8754 20.5252C57.0874 20.5252 57.2876 20.5487 57.4996 20.5487V20.4078C57.1934 20.3725 57.0403 20.2786 56.8636 19.9968L55.7093 18.2705L55.7447 18.2587C56.2629 18.0591 56.6516 17.695 56.6516 17.1196C56.6516 16.2036 55.9331 15.9922 55.0969 15.9805C54.7435 15.9805 54.4255 16.004 54.0251 16.004C53.6364 16.004 53.2359 15.9805 53.0239 15.9805V16.1214H53.1182C53.3302 16.1214 53.6128 16.1566 53.6128 16.6498V20.0202C53.6128 20.2903 53.3655 20.4078 53.1182 20.4078H53.0239V20.5487C53.3419 20.5487 53.6482 20.5252 53.9544 20.5252C54.3313 20.5252 54.6964 20.5487 55.0733 20.5487V20.4078H54.9791C54.6729 20.4078 54.402 20.3725 54.402 19.8441V18.3996H54.4255ZM57.5348 20.6075C57.311 20.6075 57.099 20.584 56.887 20.584C56.6867 20.584 56.4747 20.6075 56.2392 20.5958C55.7327 19.9264 55.2969 19.2218 54.8611 18.4585H54.4724V19.8442C54.4842 20.3374 54.6845 20.3374 54.9907 20.3492H55.1438V20.3726V20.5958H55.1085C54.7316 20.5958 54.3429 20.5723 53.966 20.5723C53.648 20.5723 53.3417 20.5958 53.0002 20.5958H52.9766V20.5723V20.3492H53.0002H53.118C53.3535 20.3492 53.5538 20.2435 53.5655 20.0203V16.6499C53.5655 16.1802 53.33 16.1802 53.118 16.1802H52.9648V16.1567V15.9336H52.9884C53.2004 15.9336 53.6126 15.9571 54.0249 15.9571C54.4253 15.9571 54.7433 15.9336 55.0967 15.9336C55.9329 15.9336 56.7103 16.1685 56.7103 17.1314C56.7103 17.7304 56.3098 18.1061 55.8034 18.3175L56.9223 19.9851C57.1108 20.2552 57.2285 20.3257 57.5465 20.3726H57.5701V20.3961V20.6193H57.5348V20.6075Z" fill="black"/>
<path fill-rule="evenodd" clip-rule="evenodd" d="M62.0448 19.2692L62.0565 19.2575V16.7678C62.0565 16.2276 61.6796 16.1454 61.4794 16.1454H61.3263V15.9458C61.6443 15.9458 61.9387 15.9693 62.2568 15.9693C62.5277 15.9693 62.7986 15.9458 63.0812 15.9458V16.1454H62.9752C62.6926 16.1454 62.3863 16.2042 62.3863 16.991V20.0091C62.3863 20.2439 62.3981 20.4671 62.4217 20.6784H62.1743L58.7469 16.8735V19.6098C58.7469 20.1852 58.8646 20.3849 59.3711 20.3849H59.4889V20.5845C59.2062 20.5845 58.9118 20.561 58.6291 20.561C58.3346 20.561 58.0284 20.5845 57.7222 20.5845V20.3849H57.8164C58.2757 20.3849 58.4171 20.0795 58.4171 19.5393V16.7444C58.4171 16.3686 58.1108 16.1454 57.8164 16.1454H57.7339V15.9458C57.9813 15.9458 58.2404 15.9693 58.4995 15.9693C58.6998 15.9693 58.8882 15.9458 59.0884 15.9458L62.0448 19.2692Z" fill="black"/>
<path fill-rule="evenodd" clip-rule="evenodd" d="M62.0449 19.2686L62.0685 19.2451L62.0449 19.2686ZM62.1741 20.6426H62.3979C62.3744 20.443 62.3626 20.2199 62.3626 20.0085V16.9904C62.3626 16.1919 62.7042 16.1214 62.9868 16.1214H63.0575V15.9805C62.7984 15.9805 62.5393 16.004 62.2684 16.004C61.9621 16.004 61.6677 15.9805 61.3614 15.9805V16.1214H61.4792C61.6795 16.1214 62.0917 16.2153 62.0917 16.779L62.0799 19.2804L62.0681 19.2921L62.0446 19.3156L59.0883 15.9805C58.888 15.9805 58.6996 16.004 58.4993 16.004C58.252 16.004 58.0047 15.9805 57.7573 15.9805V16.1214H57.8162C58.1342 16.1214 58.4522 16.3563 58.4522 16.7438V19.5388C58.4522 20.0672 58.2991 20.4078 57.828 20.4078H57.7691V20.5487C58.0518 20.5487 58.358 20.5252 58.6407 20.5252C58.9234 20.5252 59.1943 20.5487 59.4652 20.5487V20.4078H59.3827C58.8645 20.4078 58.7231 20.1846 58.7231 19.5975V16.7908L62.1741 20.6426ZM62.4213 20.7015L62.1504 20.6897L58.7818 16.9435V19.5976C58.7936 20.173 58.8761 20.3374 59.3825 20.3492H59.5239V20.3726V20.5958H59.5003C59.2176 20.5958 58.9232 20.5723 58.6405 20.5723C58.346 20.5723 58.0398 20.5958 57.7336 20.5958H57.6982V20.5723V20.3492H57.7336H57.8278C58.2636 20.3492 58.3932 20.0673 58.3932 19.5389V16.7439C58.3932 16.3916 58.0987 16.1802 57.816 16.1802H57.6982V16.1567V15.9336H57.7336C57.9927 15.9336 58.2518 15.9571 58.4992 15.9571C58.6994 15.9571 58.8878 15.9336 59.1116 15.9453L62.0326 19.2218V16.7791C62.0326 16.2507 61.6793 16.192 61.479 16.1802H61.3024V16.1567V15.9336H61.3259C61.6439 15.9336 61.9502 15.9571 62.2564 15.9571C62.5273 15.9571 62.7982 15.9336 63.0691 15.9336H63.0926V15.9688V16.192H63.0691H62.9749C62.704 16.2037 62.4213 16.2272 62.4095 17.0023V20.0203C62.4095 20.2552 62.4095 20.4783 62.4448 20.6897V20.7249H62.4213V20.7015Z" fill="black"/>
<path fill-rule="evenodd" clip-rule="evenodd" d="M65.1194 16.6851H65.1076L64.4951 18.564H65.7318L65.1194 16.6851ZM64.1535 19.6209C64.0829 19.844 64.0004 20.0202 64.0004 20.1376C64.0004 20.3372 64.2831 20.3725 64.4951 20.3725H64.5658V20.5721C64.2949 20.5604 64.024 20.5486 63.7649 20.5486C63.5293 20.5486 63.2819 20.5604 63.0464 20.5721V20.3725H63.0817C63.3408 20.3725 63.5646 20.2198 63.6589 19.938L64.7189 16.8964C64.8013 16.6498 64.9309 16.321 64.9662 16.0743C65.1782 16.0039 65.4491 15.8747 65.5669 15.7925C65.5905 15.7808 65.6022 15.7808 65.6258 15.7808C65.6494 15.7808 65.6611 15.7808 65.6729 15.8042C65.6965 15.8512 65.7083 15.9217 65.7318 15.9687L66.9567 19.433C67.0392 19.6679 67.1099 19.9145 67.2041 20.1141C67.2865 20.302 67.4279 20.3725 67.6399 20.3725H67.6752V20.5721C67.3807 20.5604 67.0745 20.5486 66.7565 20.5486C66.4267 20.5486 66.0969 20.5604 65.7554 20.5721V20.3725H65.826C65.9791 20.3725 66.2383 20.349 66.2383 20.1846C66.2383 20.1024 66.1794 19.9145 66.1087 19.7031L65.8496 18.9398H64.342L64.1535 19.6209Z" fill="black"/>
<path fill-rule="evenodd" clip-rule="evenodd" d="M65.0962 16.6973H65.108H65.0962ZM64.5303 18.5409H65.6963L65.1192 16.7677L64.5303 18.5409ZM64.4482 18.5998L65.0843 16.6621H65.1078H65.1196V16.6856H65.1078H65.1196V16.6621H65.1432L65.7792 18.5998H64.4482ZM65.8033 20.5491C66.1331 20.5373 66.4511 20.5256 66.7691 20.5256C67.0754 20.5256 67.3698 20.5373 67.6525 20.5491V20.4081H67.6407C67.4169 20.4081 67.252 20.3259 67.1696 20.1263C67.0872 19.9267 67.0047 19.68 66.9223 19.4452L65.6973 15.9808C65.6738 15.9339 65.662 15.8634 65.6384 15.8164C65.6384 15.8047 65.6384 15.8047 65.6267 15.8047H65.6149C65.6031 15.8047 65.5913 15.8047 65.5795 15.8164C65.45 15.8986 65.1791 16.0278 64.9906 16.0865C64.9553 16.3331 64.8257 16.6737 64.7433 16.9086L63.6833 19.9501C63.5773 20.232 63.3535 20.3964 63.0826 20.3964H63.0708V20.5373C63.2946 20.5256 63.5301 20.5138 63.7657 20.5138C64.0248 20.5138 64.284 20.5256 64.5431 20.5373V20.3964H64.496C64.284 20.3964 63.9777 20.3729 63.9659 20.138C63.9659 20.0089 64.0484 19.8327 64.1073 19.6096L64.1308 19.6213L64.1073 19.6096L64.3311 18.905H65.8858L66.1567 19.6918C66.2273 19.9032 66.2862 20.0793 66.2862 20.1733C66.2745 20.3729 65.9918 20.3964 65.8504 20.3964H65.8033V20.5491ZM67.6872 20.6079C67.3928 20.5962 67.0865 20.5844 66.7685 20.5844C66.4387 20.5844 66.1089 20.5962 65.7674 20.6079H65.732V20.5844V20.3496H65.7556H65.8263C65.9794 20.3496 66.2032 20.3143 66.2149 20.1851C66.2149 20.1147 66.1561 19.9268 66.0854 19.7154L65.838 18.9638H64.3658L64.1538 19.6332C64.0831 19.8563 64.0124 20.0325 64.0124 20.1382C64.0124 20.3026 64.2598 20.3378 64.4836 20.3378H64.5896V20.373V20.5962H64.5542C64.2833 20.5844 64.0124 20.5727 63.7533 20.5727C63.5178 20.5727 63.2704 20.5844 63.0348 20.5962H62.9995V20.5727V20.3378H63.0231H63.0584C63.3057 20.3378 63.5178 20.1969 63.612 19.9268L64.672 16.8852C64.7545 16.6386 64.884 16.3098 64.9311 16.0397C65.1431 15.9692 65.4023 15.84 65.5318 15.7578C65.5554 15.7461 65.5672 15.7461 65.5907 15.7461C65.6025 15.7461 65.6378 15.7461 65.6614 15.7813C65.6849 15.84 65.6967 15.8988 65.7203 15.9457L66.9452 19.4101C67.0276 19.6449 67.0983 19.8916 67.1925 20.0795C67.275 20.2556 67.3928 20.3261 67.6048 20.3261H67.6754V20.3613V20.5844L67.6872 20.6079Z" fill="black"/>
<path fill-rule="evenodd" clip-rule="evenodd" d="M67.9812 16.2746C67.4865 16.2746 67.463 16.392 67.357 16.8735H67.1567C67.1803 16.6856 67.2156 16.4977 67.2392 16.3098C67.2627 16.1219 67.2745 15.934 67.2745 15.7461H67.4394C67.4865 15.9458 67.6632 15.934 67.8399 15.934H71.2673C71.444 15.934 71.6089 15.9223 71.6207 15.7227L71.7856 15.7461C71.762 15.9223 71.7384 16.0984 71.7149 16.2863C71.7031 16.4625 71.7031 16.6504 71.7031 16.8265L71.5029 16.897C71.4911 16.6504 71.4558 16.2629 71.0082 16.2629H69.9246V19.7859C69.9246 20.3026 70.1602 20.3613 70.4782 20.3613H70.6077V20.561C70.3486 20.561 69.8893 20.5375 69.5241 20.5375C69.1237 20.5375 68.6643 20.561 68.4052 20.561V20.3613H68.5348C68.8999 20.3613 69.0884 20.3261 69.0884 19.8094V16.2746H67.9812Z" fill="black"/>
<path fill-rule="evenodd" clip-rule="evenodd" d="M70.6077 20.6079C70.3486 20.6079 69.8774 20.5844 69.5241 20.5844C69.1236 20.5844 68.6643 20.6079 68.4052 20.6079H68.3816V20.5844V20.3613H68.4052H68.5347C68.8998 20.3495 69.053 20.3495 69.053 19.8328V16.3215H67.9929V16.298V16.2628H69.1119V19.8328C69.1119 20.3613 68.8998 20.42 68.5347 20.42H68.4405V20.5609C68.6996 20.5609 69.1472 20.5374 69.5359 20.5374C69.8892 20.5374 70.325 20.5609 70.5959 20.5609V20.42H70.5017C70.1837 20.42 69.9245 20.3378 69.9245 19.8211V16.2628H71.0435C71.491 16.2628 71.5499 16.6386 71.5617 16.8852L71.703 16.8382C71.703 16.6621 71.703 16.4977 71.7148 16.3215C71.7384 16.1453 71.7619 15.9809 71.7855 15.8165L71.6795 15.8048C71.6442 15.9927 71.4557 16.0044 71.2908 16.0044H67.8634H67.828C67.6749 16.0044 67.4982 15.9927 67.4394 15.8165H67.3334C67.3334 16.0044 67.3216 16.1806 67.298 16.3567C67.2745 16.5446 67.2509 16.709 67.2273 16.8852H67.3687C67.4511 16.4272 67.51 16.2745 68.0165 16.2863V16.3215V16.345C67.5218 16.3567 67.5336 16.4389 67.4276 16.9322V16.9557H67.404H67.1685V16.9204C67.192 16.7325 67.2273 16.5446 67.2509 16.3567C67.2745 16.1688 67.2862 15.9927 67.2862 15.793V15.7696H67.3098H67.4865L67.4982 15.793C67.5454 15.9575 67.6631 15.9575 67.8398 15.9692C67.8516 15.9692 67.8634 15.9692 67.8751 15.9692H71.3026C71.491 15.9692 71.6206 15.9692 71.6324 15.793V15.7578L71.6677 15.7696L71.8562 15.8048V15.8283C71.8326 16.0044 71.8091 16.1806 71.7855 16.3685C71.7737 16.5446 71.7737 16.7208 71.7737 16.9087V16.9322L71.7502 16.9439L71.5146 17.0261V16.9909C71.5028 16.7443 71.4675 16.3802 71.0552 16.3802H69.9952V19.8798C70.007 20.3848 70.1954 20.42 70.5135 20.42H70.6666V20.4435V20.6666H70.6077V20.6079Z" fill="black"/>
<path fill-rule="evenodd" clip-rule="evenodd" d="M72.0444 20.3726H72.1387C72.3742 20.3726 72.6333 20.3374 72.6333 19.9968V16.5207C72.6333 16.1802 72.386 16.145 72.1387 16.145H72.0444V15.9453C72.3036 15.9453 72.704 15.9688 73.022 15.9688C73.3518 15.9688 73.7523 15.9453 74.0703 15.9453V16.145H73.9761C73.7405 16.145 73.4814 16.1802 73.4814 16.5207V19.9968C73.4814 20.3374 73.7287 20.3726 73.9761 20.3726H74.0703V20.5723C73.7523 20.5723 73.3518 20.5488 73.022 20.5488C72.6922 20.5488 72.3036 20.5723 72.0444 20.5723V20.3726Z" fill="black"/>
<path fill-rule="evenodd" clip-rule="evenodd" d="M74.0348 20.5487V20.4078H73.9759C73.7404 20.4078 73.4577 20.3726 73.4577 19.9968V16.5207C73.4577 16.1566 73.7404 16.1097 73.9759 16.1097H74.0348V15.9688C73.7286 15.9688 73.3399 15.9922 73.0219 15.9922C72.7039 15.9922 72.327 15.9688 72.0679 15.9688V16.1097H72.1268C72.3623 16.1097 72.645 16.1566 72.645 16.5207V19.9968C72.645 20.3608 72.3623 20.4078 72.1268 20.4078H72.0679V20.5487C72.327 20.5487 72.7039 20.5252 73.0219 20.5252C73.3399 20.5135 73.7286 20.5487 74.0348 20.5487ZM74.0699 20.6075C73.7519 20.6075 73.3514 20.584 73.0217 20.584C72.6919 20.584 72.3032 20.6075 72.0441 20.6075H72.0205V20.584V20.3844V20.3609H72.0441H72.1383C72.3739 20.3609 72.5976 20.3374 72.5976 20.0086V16.5325C72.5976 16.2037 72.3739 16.192 72.1383 16.1802H72.0205V16.1567V15.9336H72.0441C72.3032 15.9336 72.7036 15.9571 73.0217 15.9571C73.3514 15.9571 73.7519 15.9336 74.0699 15.9336H74.0935V15.9571V16.1802H74.0699H73.9757C73.7283 16.1802 73.5163 16.2037 73.5163 16.5325V20.0086C73.5163 20.3374 73.7401 20.3492 73.9757 20.3609H74.0935V20.3844V20.6075H74.0699Z" fill="black"/>
<path fill-rule="evenodd" clip-rule="evenodd" d="M76.8148 20.3849C78.1104 20.3849 78.3342 19.2458 78.3342 18.2828C78.3342 17.3081 77.8159 16.1455 76.7088 16.1455C75.5427 16.1455 75.2012 17.1789 75.2012 18.0714C75.2012 19.2458 75.743 20.3849 76.8148 20.3849ZM76.7204 15.8516C78.1337 15.8516 79.2644 16.7323 79.2644 18.1415C79.2644 19.6682 78.1691 20.6781 76.7557 20.6781C75.3423 20.6781 74.2705 19.7269 74.2705 18.2942C74.2705 16.9202 75.3305 15.8516 76.7204 15.8516Z" fill="black"/>
<path fill-rule="evenodd" clip-rule="evenodd" d="M75.166 18.0598C75.166 17.1673 75.5194 16.1104 76.709 16.1104C77.8397 16.1104 78.3697 17.3082 78.3697 18.2829C78.3697 19.2459 78.1341 20.4085 76.8267 20.4085V20.385V20.3615C78.087 20.3615 78.3108 19.2576 78.3108 18.2946C78.3108 17.3317 77.7925 16.1808 76.709 16.1808C75.5665 16.1808 75.2367 17.1908 75.2249 18.0715C75.2249 19.2576 75.7667 20.3615 76.815 20.3615V20.385V20.4085C75.7196 20.4085 75.166 19.2576 75.166 18.0598ZM74.2354 18.2948C74.2354 16.8973 75.3189 15.8169 76.7205 15.8169V15.8404V15.8639C75.3543 15.8639 74.2942 16.9208 74.2942 18.283C74.2942 19.6923 75.3543 20.6317 76.7559 20.6317C78.1575 20.6317 79.2411 19.6335 79.2411 18.1186C79.2411 16.7211 78.1221 15.8639 76.7205 15.8639V15.8521V15.8286C78.1457 15.8286 79.2882 16.7094 79.3 18.1421C79.3 19.6805 78.1928 20.7022 76.7559 20.7139C75.3307 20.7022 74.2354 19.7392 74.2354 18.2948Z" fill="black"/>
<path fill-rule="evenodd" clip-rule="evenodd" d="M83.7405 19.2692L83.7523 19.2575V16.7678C83.7523 16.2276 83.3754 16.1454 83.1751 16.1454H83.0338V15.9458C83.34 15.9458 83.6463 15.9693 83.9643 15.9693C84.2352 15.9693 84.5061 15.9458 84.7888 15.9458V16.1454H84.6827C84.4001 16.1454 84.0938 16.2042 84.0938 16.991V20.0091C84.0938 20.2439 84.1056 20.4671 84.1292 20.6784H83.8818L80.4544 16.8735V19.6098C80.4544 20.1852 80.5722 20.3849 81.0786 20.3849H81.1964V20.5845C80.9137 20.5845 80.6193 20.561 80.3366 20.561C80.0422 20.561 79.7359 20.5845 79.4297 20.5845V20.3849H79.5239C79.9833 20.3849 80.1246 20.0795 80.1246 19.5393V16.7444C80.1246 16.3686 79.8184 16.1454 79.5239 16.1454H79.4415V15.9458C79.7006 15.9458 79.9597 15.9693 80.207 15.9693C80.4073 15.9693 80.5957 15.9458 80.796 15.9458L83.7405 19.2692Z" fill="black"/>
<path fill-rule="evenodd" clip-rule="evenodd" d="M83.7402 19.2691L83.7638 19.2456L83.7402 19.2691ZM83.8817 20.6431H84.0937C84.0701 20.4435 84.0583 20.2204 84.0583 20.009V16.9909C84.0583 16.1923 84.3881 16.1219 84.6826 16.1219H84.7532V15.981C84.4941 15.981 84.2232 16.0044 83.9641 16.0044C83.6579 16.0044 83.3634 15.981 83.069 15.981V16.1219H83.1867C83.387 16.1219 83.7992 16.2158 83.7992 16.7795L83.7874 19.2809L83.7757 19.2926L83.7521 19.3161L80.7958 15.981C80.5955 15.981 80.4071 16.0044 80.2069 16.0044C79.9595 16.0044 79.7122 15.981 79.4648 15.981V16.1219H79.5237C79.8417 16.1219 80.1598 16.3567 80.1598 16.7443V19.5392C80.1598 20.0677 80.0066 20.4083 79.5355 20.4083H79.4648V20.5492C79.7593 20.5492 80.0538 20.5257 80.3364 20.5257C80.6191 20.5257 80.89 20.5492 81.1609 20.5492V20.4083H81.0785C80.5602 20.4083 80.4307 20.1851 80.4307 19.598V16.7913L83.8817 20.6431ZM84.1288 20.702L83.8579 20.6902L80.4894 16.944V19.5981C80.5011 20.1735 80.5836 20.3379 81.09 20.3379H81.2314V20.3732V20.5963H81.2078C80.9251 20.5963 80.6307 20.5728 80.348 20.5728C80.0536 20.5728 79.7473 20.5963 79.4411 20.5963H79.4175V20.5728V20.3379H79.4411H79.5353C79.9711 20.3379 80.1007 20.0561 80.1007 19.5276V16.7327C80.1007 16.3804 79.8062 16.169 79.5235 16.169H79.4058V16.1455V15.9224H79.4293C79.6884 15.9224 79.9476 15.9459 80.1949 15.9459C80.3951 15.9459 80.5836 15.9224 80.8074 15.9341L83.7283 19.2105V16.7679C83.7283 16.2394 83.375 16.1807 83.1748 16.169H82.9981V16.1455V15.9224H83.0334C83.3514 15.9224 83.6577 15.9459 83.9639 15.9459C84.2348 15.9459 84.5057 15.9224 84.7884 15.9224H84.8119V15.9459V16.169H84.7884H84.6824C84.4115 16.1807 84.1288 16.2042 84.117 16.9793V19.9974C84.117 20.2322 84.117 20.4554 84.1524 20.6667V20.702H84.1288Z" fill="black"/>
<path fill-rule="evenodd" clip-rule="evenodd" d="M86.8274 16.6851H86.8156L86.1914 18.564H87.4399L86.8274 16.6851ZM85.8498 19.6214C85.7791 19.8445 85.7084 20.0207 85.7084 20.1381C85.7084 20.3377 85.9911 20.373 86.2031 20.373H86.2738V20.5726C86.0029 20.5609 85.732 20.5491 85.4729 20.5491C85.2373 20.5491 84.99 20.5609 84.7544 20.5726V20.373H84.7897C85.0488 20.373 85.2726 20.2203 85.3669 19.9385L86.4269 16.8969C86.5093 16.6503 86.6389 16.3215 86.6742 16.0748C86.8862 16.0044 87.1571 15.8752 87.2749 15.793C87.2985 15.7813 87.3103 15.7812 87.322 15.7812C87.3456 15.7812 87.3574 15.7813 87.3691 15.8047C87.3927 15.8517 87.4045 15.9222 87.428 15.9691L88.653 19.4335C88.7354 19.6684 88.8179 19.915 88.9003 20.1146C88.9828 20.3025 89.1241 20.373 89.3361 20.373H89.3714V20.5726C89.077 20.5609 88.7707 20.5491 88.4527 20.5491C88.1229 20.5491 87.7932 20.5609 87.4516 20.5726V20.373H87.5223C87.6754 20.373 87.9345 20.3495 87.9345 20.1851C87.9345 20.1029 87.8756 19.915 87.8049 19.7036L87.5458 18.9403H86.0618L85.8498 19.6214Z" fill="black"/>
<path fill-rule="evenodd" clip-rule="evenodd" d="M86.7905 16.6973H86.8023H86.7905ZM86.2368 18.5408H87.4029L86.8257 16.7676L86.2368 18.5408ZM86.1543 18.5998L86.7903 16.6621H86.8139H86.8257V16.6856H86.8139H86.8257V16.6621H86.8492L87.4735 18.5998H86.1543ZM87.5093 20.549C87.8391 20.5373 88.1571 20.5256 88.4751 20.5256C88.7813 20.5256 89.0758 20.5373 89.3584 20.549V20.4081C89.1347 20.4081 88.9815 20.3259 88.8991 20.1263C88.8166 19.9266 88.7342 19.68 88.6518 19.4452L87.4268 15.9808C87.4033 15.9338 87.3915 15.8634 87.3679 15.8281C87.3679 15.8164 87.3679 15.8164 87.3562 15.8164H87.3444C87.3326 15.8164 87.3208 15.8164 87.309 15.8281C87.1795 15.9104 86.9086 16.0395 86.7201 16.0983C86.6848 16.3449 86.5552 16.6854 86.4728 16.9203L85.4128 19.9619C85.3068 20.2437 85.083 20.4081 84.8121 20.4081H84.8003V20.549C85.0241 20.5373 85.2596 20.5256 85.4834 20.5256C85.7425 20.5256 86.0017 20.5373 86.2608 20.549V20.4081H86.2137C86.0017 20.4081 85.6954 20.3846 85.6837 20.1498C85.6837 20.0206 85.7661 19.8444 85.8368 19.6213L85.8603 19.633L85.8368 19.6213L86.0606 18.9167H87.5917L87.8626 19.7035C87.9333 19.9149 87.9922 20.091 87.9922 20.185C87.9804 20.3846 87.6977 20.4081 87.5564 20.4081H87.5093V20.549ZM89.3936 20.6079C89.0991 20.5962 88.7929 20.5844 88.4749 20.5844C88.1451 20.5844 87.8153 20.5962 87.4737 20.6079H87.4502V20.5727V20.3496H87.4737H87.5444C87.6975 20.3496 87.9331 20.3143 87.9331 20.1851C87.9331 20.1147 87.8742 19.9268 87.8035 19.7154L87.5562 18.9638H86.0839L85.8837 19.6332C85.813 19.8563 85.7424 20.0325 85.7424 20.1382C85.7424 20.3026 85.9897 20.3378 86.2135 20.3378H86.3195V20.3613V20.5962H86.2841C86.0133 20.5844 85.7424 20.5727 85.4832 20.5727C85.2477 20.5727 85.0003 20.5844 84.7648 20.5962H84.7412V20.5609V20.3378H84.7648H84.8001C85.0474 20.3378 85.2594 20.1969 85.3537 19.9268L86.4137 16.8852C86.4962 16.6386 86.6139 16.3098 86.6728 16.0397C86.8848 15.9692 87.144 15.84 87.2735 15.7578C87.2853 15.7461 87.3088 15.7461 87.3324 15.7461C87.356 15.7461 87.3795 15.7461 87.4031 15.7813C87.4266 15.8283 87.4384 15.8988 87.462 15.9457L88.6869 19.4101C88.7693 19.6449 88.8518 19.8916 88.9342 20.0795C89.0167 20.2556 89.1345 20.3261 89.3465 20.3261H89.4171V20.3496V20.5844L89.3936 20.6079Z" fill="black"/>
<path fill-rule="evenodd" clip-rule="evenodd" d="M91.078 19.9268C91.078 20.1969 91.2665 20.2674 91.4785 20.3026C91.7494 20.3261 92.0556 20.3261 92.3619 20.2909C92.6445 20.2556 92.8801 20.103 92.9979 19.9386C93.1039 19.7976 93.1628 19.6098 93.2099 19.4571H93.3983C93.3277 19.8329 93.2335 20.2087 93.151 20.5845C92.5621 20.5845 91.985 20.561 91.3961 20.561C90.8072 20.561 90.23 20.5845 89.6411 20.5845V20.3848H89.7353C89.9709 20.3848 90.23 20.3496 90.23 19.9386V16.533C90.23 16.1924 89.9709 16.1572 89.7353 16.1572H89.6411V15.9575C89.9945 15.9575 90.336 15.981 90.6894 15.981C91.0309 15.981 91.3607 15.9575 91.7023 15.9575V16.1572H91.5374C91.2901 16.1572 91.0898 16.1689 91.0898 16.5095V19.9268H91.078Z" fill="black"/>
<path fill-rule="evenodd" clip-rule="evenodd" d="M93.116 20.5497C93.1985 20.1856 93.2809 19.8333 93.3516 19.481H93.2103C93.1749 19.6219 93.1043 19.7981 93.01 19.9508C92.8805 20.1269 92.6449 20.2796 92.3505 20.3148C92.1738 20.3265 92.0089 20.3383 91.844 20.3383C91.7144 20.3383 91.5849 20.3383 91.4671 20.3265C91.2551 20.3031 91.0431 20.2091 91.0431 19.9273V16.5099C91.0431 16.1459 91.2786 16.1224 91.526 16.1224H91.6673V15.9814C91.3375 15.9814 91.0195 16.0049 90.6897 16.0049C90.3482 16.0049 90.0066 15.9814 89.665 15.9814V16.1224H89.7239C89.9595 16.1224 90.2539 16.1693 90.2539 16.5334V19.939C90.2539 20.3735 89.9595 20.4088 89.7239 20.4088H89.665V20.5497C90.2422 20.5497 90.8193 20.5262 91.3964 20.5262C91.9618 20.5144 92.5389 20.5497 93.116 20.5497ZM93.139 20.608C92.5501 20.608 91.9729 20.5845 91.384 20.5845C90.7951 20.5845 90.218 20.608 89.6291 20.608H89.5938V20.5845V20.3614H89.6173H89.7115C89.9471 20.3614 90.1827 20.3379 90.1827 19.9503V16.5447C90.1827 16.2276 89.9589 16.2042 89.7115 16.1924H89.5938V16.1689V15.9458H89.6173C89.9707 15.9458 90.3122 15.9693 90.6656 15.9693C91.0071 15.9693 91.3369 15.9458 91.6785 15.9458H91.702V15.9693V16.1924H91.6785H91.5136C91.2545 16.2042 91.1014 16.1924 91.0896 16.5212V19.9386C91.0896 20.1852 91.2545 20.2557 91.4665 20.2792C91.5843 20.2909 91.702 20.2909 91.8316 20.2909C91.9965 20.2909 92.1614 20.2792 92.3381 20.2674C92.609 20.2322 92.8445 20.0795 92.9623 19.9269C93.0683 19.7859 93.1272 19.598 93.1625 19.4571L93.1743 19.4336H93.1979H93.4217L93.4099 19.4689C93.3392 19.8446 93.245 20.2204 93.1625 20.5962L93.1508 20.6197H93.139V20.608Z" fill="black"/>
<path fill-rule="evenodd" clip-rule="evenodd" d="M93.1876 16.4626H93.27C93.3642 16.4626 93.3996 16.3921 93.3996 16.2865C93.3996 16.1808 93.3289 16.1338 93.2582 16.1338H93.1758V16.4626H93.1876ZM92.9517 16.8268V16.7915C93.0341 16.7798 93.0577 16.7798 93.0577 16.7328V16.2161C93.0577 16.1456 93.0459 16.1221 92.9634 16.1221V16.0869H93.3168C93.4346 16.0869 93.5523 16.1456 93.5523 16.2748C93.5523 16.3805 93.4817 16.451 93.3875 16.4862L93.5052 16.6506C93.5641 16.7211 93.623 16.7915 93.6583 16.815V16.8385H93.517C93.4463 16.8385 93.3992 16.6976 93.2697 16.5214H93.1872V16.7563C93.1872 16.8033 93.199 16.8033 93.2932 16.815V16.8502H92.9517V16.8268ZM93.3046 17.0263C93.6226 17.0263 93.8581 16.7562 93.8581 16.4626C93.8581 16.1573 93.6226 15.8989 93.3046 15.8989C92.9865 15.8989 92.751 16.169 92.751 16.4626C92.751 16.7562 92.9865 17.0263 93.3046 17.0263ZM93.3051 15.7578C93.7056 15.7578 94 16.0631 94 16.4624C94 16.85 93.7056 17.1553 93.3051 17.1553C92.9046 17.1553 92.6102 16.85 92.6102 16.4624C92.5984 16.0631 92.9046 15.7578 93.3051 15.7578Z" fill="black"/>
</svg>
