<svg xmlns="http://www.w3.org/2000/svg" xmlns:xlink="http://www.w3.org/1999/xlink" width="40" height="40">   <g id="Page-1" stroke="none" stroke-width="1" fill="none" fill-rule="evenodd">\a         <g id="Group" transform="translate(1.000000, 0.000000)">\a             <rect id="Rectangle" fill="#FFFFFF" opacity="0" x="0" y="0" width="40" height="40"></rect>\a             <g id="Group-2" transform="translate(0.500000, 6.500000)">\a                 <path d="M38,7.74345651 C38,6.52824288 36.9981145,5.5 35.8140553,5.5 L19.2372267,5.5 C18.0531675,5.5 17.0512821,6.52824288 17.0512821,7.74345651 L17.0512821,24.7565435 C17.0512821,25.9717571 18.0531675,27 19.2372267,27 L35.8140553,27 C36.9981145,27 38,25.9717571 38,24.7565435 L38,7.74345651 Z" id="Path" stroke="#333132" fill="#FFFFFF" fill-rule="nonzero" stroke-linecap="round" stroke-linejoin="round"></path>\a                 <path d="M35.8140553,5.5 C36.9980679,5.5 38,6.60157901 38,7.90346386 L38,11.5 L17.0512821,11.5 L17.0512821,7.90346386 C17.0512821,6.60157901 18.0531675,5.5 19.2372267,5.5 L35.8140553,5.5 Z" id="Path" stroke="#333132" fill="#7BB7FF" fill-rule="nonzero" stroke-linecap="round" stroke-linejoin="round"></path>\a                 <line x1="17.0512821" y1="11.25" x2="38" y2="11.25" id="Path" stroke="#333132" stroke-linecap="round" stroke-linejoin="round"></line>\a                 <polyline id="Path" stroke="#333132" stroke-linecap="round" stroke-linejoin="round" points="29.7179487 15.2640041 31.6666667 14.5 31.6666667 23"></polyline>\a                 <path d="M22.750395,14.5 L27.2575694,14.5 L24.2811277,18.7758453 C24.2811277,18.7758453 27.597708,18.4775567 27.2575694,21.4607498 C26.9173872,24.4438918 23.2606683,23.7478168 22.4102564,21.9579316" id="Path" stroke="#333132" stroke-linecap="round" stroke-linejoin="round"></path>\a                 <path d="M7.29137187,8 L20.9487179,8.36542791 C19.0604226,17.7172894 18.0568948,22.635826 17.9381344,23.1210376 C17.7599939,23.848855 17.0924778,25.5 15.2083901,25.5 C13.9523317,25.5 10.2059688,25.4529143 3.96930156,25.3587428 C2.36600046,25.2975811 1.04333223,23.9576004 0.00129689243,21.3388006 C-0.0460727022,21.3359169 1.20420494,21.3855277 3.75212981,21.4876332 C4.64002569,20.1278055 5.20723042,19.0732326 5.45374402,18.3239146 C5.70025762,17.5745965 6.31280024,14.1332916 7.29137187,8 Z" id="Path-2" fill="#FFFFFF" fill-rule="nonzero"></path>\a                 <path d="M4.89110661,19.6028887 C6.82909582,15.4916249 7.29052632,8 7.29052632,8 L20.9487179,8.36542791 C20.8564508,9.09628373 18.6416127,35.1344449 12.0893657,21.6128598 L0,21.3388006 C0,21.3388006 0.830555998,25.3587428 3.96825033,25.3587428 C7.93653848,25.4501115 15.6884953,25.4501115 15.6884953,25.4501115" id="Path" stroke="#333132" stroke-linecap="round" stroke-linejoin="round"></path>\a                 <line x1="10.2307692" y1="12.104275" x2="17.0512821" y2="12.395725" id="Path" stroke="#ef9803" stroke-linecap="round" stroke-linejoin="round"></line>\a                 <line x1="9.74358974" y1="15.1043" x2="16.0769231" y2="15.3957" id="Path" stroke="#ef9803" stroke-linecap="round" stroke-linejoin="round"></line>\a                 <line x1="8.76923077" y1="18.201425" x2="12.6666667" y2="18.298575" id="Path" stroke="#ef9803" stroke-linecap="round" stroke-linejoin="round"></line>\a                 <polyline id="Path" stroke="#ef9803" stroke-linecap="round" stroke-linejoin="round" points="22.8974359 4 25.8205128 3.00252179 24.8569685 0"></polyline>\a                 <path d="M8.28205128,8 C8.28205128,8 14.0225065,-2.64686615 23.8677487,2.32054711 L25.8205128,3.30581075" id="Path" stroke="#ef9803" stroke-linecap="round" stroke-linejoin="round"></path>\a             </g>\a         </g>\a     </g></svg>