<svg width="40" height="40" viewBox="0 0 40 40" fill="none" xmlns="http://www.w3.org/2000/svg">
<g clip-path="url(#clip0_18_2)">
<path d="M12.4818 26.3169C12.5993 26.2854 12.7003 26.2915 12.7848 26.3351C12.8711 26.3849 12.9252 26.4631 12.955 26.5744L13.278 27.7799C13.3227 27.9468 13.3435 28.0737 13.3436 28.1731C13.3375 28.2741 13.3125 28.3537 13.2594 28.4276C13.2063 28.5014 13.119 28.5712 12.9991 28.6431C12.8516 28.7356 12.6761 28.8224 12.4804 28.908C12.2785 28.9952 12.084 29.0605 11.8985 29.1102C11.4349 29.2345 11.0144 29.2478 10.6263 29.1596C10.2383 29.0714 9.91073 28.8875 9.64035 28.5956C9.37163 28.3098 9.17289 27.939 9.04866 27.4753C8.92774 27.024 8.91445 26.6036 9.00263 26.2155C9.09245 25.8337 9.27634 25.5061 9.56213 25.2374C9.84791 24.9687 10.2125 24.7716 10.6576 24.6523C11.2325 24.4983 11.7421 24.5207 12.1987 24.7164C12.2738 24.7493 12.3303 24.7872 12.3683 24.83C12.4063 24.8728 12.4352 24.9313 12.4551 25.0055C12.4832 25.1106 12.4772 25.2116 12.4414 25.3007C12.4011 25.3976 12.3369 25.4546 12.2565 25.4761C12.2009 25.4911 12.156 25.4965 12.1077 25.4895C12.0533 25.4842 11.9972 25.4727 11.9254 25.4522C11.7242 25.3935 11.5419 25.3562 11.3882 25.351C11.2344 25.3459 11.067 25.3642 10.8939 25.4106C10.0532 25.6359 9.76368 26.2369 10.0254 27.2136C10.1596 27.7143 10.3719 28.0616 10.6545 28.2509C10.9371 28.4402 11.3041 28.4744 11.743 28.3568C11.9841 28.2922 12.2107 28.1984 12.4291 28.0736L12.1723 27.1154L11.6036 27.2678C11.4861 27.2993 11.3851 27.2932 11.3022 27.2558C11.2193 27.2184 11.1652 27.1401 11.137 27.035C11.1089 26.9299 11.1166 26.8351 11.1697 26.7612C11.2228 26.6874 11.3072 26.6316 11.4247 26.6001L12.4818 26.3169Z" fill="#EF9803"/>
<path d="M17.7293 26.8323C17.8159 26.9085 17.87 26.9868 17.8932 27.0733C17.9247 27.1908 17.9063 27.2951 17.8334 27.3941C17.7606 27.4932 17.6592 27.5601 17.5356 27.5932C17.4552 27.6147 17.3761 27.6161 17.292 27.5988C17.2078 27.5816 17.1311 27.5426 17.0601 27.4754L15.9195 26.4824C15.8233 26.3956 15.7276 26.3351 15.634 26.3072C15.542 26.2854 15.4365 26.2872 15.319 26.3187L14.8183 26.4528L15.1529 27.7016C15.1926 27.85 15.1808 27.979 15.1237 28.0871C15.0603 28.1968 14.9544 28.2716 14.8123 28.3097C14.6639 28.3494 14.5348 28.3376 14.4251 28.2743C14.3154 28.2109 14.2406 28.105 14.2009 27.9567L13.2733 24.4948C13.2352 24.3526 13.2424 24.2314 13.3013 24.1295C13.3601 24.0276 13.4614 23.9607 13.6036 23.9226L15.1553 23.5068C15.6684 23.3693 16.0815 23.3779 16.4069 23.5292C16.7279 23.6884 16.9438 23.9751 17.0581 24.4016C17.1475 24.7355 17.1294 25.0385 17.0035 25.3107C16.8777 25.583 16.6578 25.8009 16.336 25.96C16.4663 25.9516 16.5908 25.9713 16.708 26.0128C16.8206 26.0621 16.9415 26.1423 17.0706 26.2535L17.7293 26.8323ZM15.5316 25.4799C15.8097 25.4053 15.9943 25.3029 16.0914 25.1708C16.1902 25.045 16.2106 24.8739 16.156 24.6699C16.0997 24.4597 15.9964 24.3217 15.848 24.2621C15.6995 24.2025 15.4884 24.206 15.2102 24.2806L14.2891 24.5274L14.6105 25.7267L15.5316 25.4799Z" fill="#EF9803"/>
<path d="M22.4974 25.5812C22.5482 25.6471 22.585 25.7101 22.5999 25.7657C22.6313 25.8832 22.6129 25.9875 22.5417 26.0927C22.4705 26.1979 22.3708 26.271 22.2534 26.3025C22.173 26.324 22.0922 26.3192 22.0126 26.2941C21.933 26.2691 21.8608 26.2222 21.8005 26.1455L21.2774 25.5039L19.1818 26.0654L19.0496 26.8827C19.0357 26.9791 18.9966 27.0559 18.9464 27.1157C18.89 27.1772 18.8163 27.2235 18.7359 27.245C18.6184 27.2765 18.4956 27.263 18.3813 27.2075C18.267 27.152 18.1927 27.0725 18.1613 26.955C18.1464 26.8994 18.1467 26.8264 18.1577 26.744L18.8876 22.7916C18.9044 22.6811 18.9525 22.5887 19.0303 22.5082C19.1098 22.4339 19.1959 22.3843 19.301 22.3562C19.4061 22.328 19.5116 22.3262 19.6193 22.357C19.7269 22.3878 19.8148 22.4438 19.8891 22.5232L22.4974 25.5812ZM19.314 25.2481L20.7543 24.8622L19.6066 23.447L19.314 25.2481Z" fill="#EF9803"/>
<path d="M24.1753 25.7942C24.0331 25.8323 23.9041 25.8205 23.7943 25.7571C23.6784 25.6954 23.6037 25.5895 23.5656 25.4474L22.7274 22.3193L21.7259 22.5876C21.423 22.6688 21.2337 22.5804 21.1625 22.3146C21.0929 22.0549 21.2127 21.8837 21.5156 21.8025L24.4829 21.0074C24.7858 20.9263 24.9751 21.0147 25.0447 21.2743C25.1159 21.5401 24.9962 21.7114 24.6932 21.7925L23.6918 22.0609L24.5299 25.1889C24.568 25.3311 24.5562 25.4602 24.4929 25.5699C24.4295 25.6797 24.3237 25.7544 24.1753 25.7942Z" fill="#EF9803"/>
<path d="M27.0137 25.0403C26.8653 25.08 26.7362 25.0682 26.6265 25.0049C26.5168 24.9415 26.442 24.8357 26.4023 24.6873L25.473 21.2192C25.4349 21.077 25.4467 20.948 25.5101 20.8383C25.5734 20.7285 25.6793 20.6538 25.8276 20.614C25.976 20.5743 26.1051 20.5861 26.2148 20.6494C26.3245 20.7128 26.3993 20.8186 26.4374 20.9608L27.3666 24.4289C27.4064 24.5773 27.3946 24.7063 27.3312 24.816C27.2679 24.9258 27.162 25.0005 27.0137 25.0403Z" fill="#EF9803"/>
<path d="M29.938 24.2766C29.6104 24.3643 29.2975 24.4084 28.9978 24.4026C28.6998 24.403 28.4429 24.3591 28.2255 24.265C28.1521 24.2383 28.0956 24.2004 28.0559 24.1514C28.0118 24.1102 27.9828 24.0517 27.9613 23.9714C27.9331 23.8663 27.9409 23.7715 27.9873 23.6729C28.0276 23.5759 28.0919 23.519 28.1722 23.4974C28.2155 23.4858 28.2604 23.4804 28.3132 23.4795C28.3553 23.4881 28.4175 23.498 28.4893 23.5185C28.6984 23.5817 28.8992 23.6141 29.0917 23.6155C29.2859 23.6231 29.4965 23.5931 29.7129 23.5352C29.9849 23.4623 30.1835 23.3627 30.3008 23.2319C30.4181 23.101 30.4575 22.9513 30.4128 22.7844C30.378 22.6546 30.2835 22.5739 30.1322 22.5283C29.9746 22.4844 29.7137 22.4748 29.3554 22.4979C28.9506 22.5203 28.6229 22.5087 28.3643 22.4587C28.1058 22.4087 27.9024 22.3175 27.7526 22.1787C27.6028 22.0399 27.4942 21.857 27.4312 21.6221C27.3616 21.3625 27.3729 21.1077 27.4711 20.8561C27.5648 20.6123 27.7303 20.3891 27.9646 20.2004C28.199 20.0117 28.4808 19.8766 28.8146 19.7871C29.4019 19.6298 29.9238 19.6489 30.3788 19.8385C30.4539 19.8713 30.5104 19.9092 30.5545 19.9504C30.5942 19.9994 30.6231 20.0579 30.643 20.1321C30.6711 20.2372 30.6634 20.332 30.6231 20.4289C30.5767 20.5275 30.5124 20.5845 30.4321 20.606C30.3888 20.6176 30.3439 20.623 30.3035 20.6206C30.2569 20.6198 30.1946 20.61 30.115 20.585C29.9199 20.5246 29.7439 20.4856 29.5868 20.4681C29.4235 20.4522 29.2376 20.4755 29.0212 20.5335C28.7678 20.6014 28.5832 20.7039 28.4659 20.8347C28.3502 20.9717 28.3124 21.1276 28.3572 21.2945C28.3837 21.3934 28.4361 21.4655 28.5083 21.5124C28.5822 21.5655 28.6898 21.5963 28.8329 21.611C28.976 21.6256 29.1685 21.6271 29.4245 21.6181C30.0202 21.591 30.4651 21.6441 30.7637 21.7694C31.0561 21.8965 31.251 22.1292 31.3421 22.4692C31.4133 22.735 31.4004 22.9836 31.3129 23.2257C31.2192 23.4695 31.0566 23.6787 30.8206 23.8612C30.5846 24.0437 30.2904 24.1821 29.938 24.2766Z" fill="#EF9803"/>
<path d="M8.3495 34.4925L5.00656 21.9832L32.1641 14.7254L35.507 27.2354L8.3495 34.4925ZM15.1092 8.97853C15.2109 8.99141 15.3125 9.00428 15.4175 9.00428C15.635 9.00428 15.8525 8.97582 16.0652 8.91891C16.3816 8.83422 16.6723 8.6899 16.9264 8.49816L25.594 15.0791L10.8767 19.0122L15.1092 8.97853ZM14.4263 5.92827C14.5787 5.66267 14.8267 5.47364 15.1221 5.39437C15.2203 5.36862 15.3199 5.35507 15.4195 5.35507C15.9365 5.35507 16.3911 5.70536 16.5253 6.20741C16.6052 6.50214 16.5639 6.81177 16.4101 7.07601C16.2617 7.3328 16.0253 7.51573 15.7427 7.59975L15.7034 7.56926L15.6845 7.61465C15.0882 7.75355 14.4676 7.38632 14.3104 6.7989C14.2318 6.50214 14.2725 6.19318 14.4263 5.92827ZM36.9908 27.5403L33.2982 13.7213C33.2522 13.5472 33.139 13.3988 32.9832 13.3093C32.826 13.2192 32.6417 13.1928 32.4696 13.2416L27.252 14.636L17.7387 7.41343C17.9339 6.91815 17.9745 6.37951 17.8343 5.85713C17.5422 4.76358 16.5497 4 15.4195 4C15.2014 4 14.9839 4.02846 14.7725 4.08537C14.1268 4.25746 13.5868 4.67144 13.2521 5.25005C12.9181 5.82867 12.8287 6.50282 13.0014 7.14851C13.143 7.67902 13.452 8.1289 13.8599 8.4548L9.22013 19.4546L4.00245 20.849C3.64065 20.9459 3.42587 21.3171 3.52276 21.6783L7.21531 35.4966C7.29593 35.8001 7.57034 36 7.86913 36C7.92739 36 7.98634 35.9926 8.04461 35.9763L36.5111 28.3696C36.8736 28.2727 37.0877 27.9014 36.9908 27.5403Z" fill="#333132"/>
</g>
<defs>
<clipPath id="clip0_18_2">
<rect width="40" height="40" fill="white"/>
</clipPath>
</defs>
</svg>
