<svg width="74" height="74" viewBox="0 0 74 74" fill="none" xmlns="http://www.w3.org/2000/svg">
<circle cx="37" cy="37" r="37" fill="white"/>
<path d="M56.1395 43.2868H55.4967V41.3583C55.4959 40.5449 55.2737 39.747 54.8538 39.0504V24.0011C54.8538 23.3191 54.5829 22.6651 54.1006 22.1828C53.6184 21.7006 52.9644 21.4297 52.2824 21.4297C51.6004 21.4297 50.9463 21.7006 50.4641 22.1828C49.9819 22.6651 49.7109 23.3191 49.7109 24.0011V26.5725H25.2824V24.0011C25.2824 23.3191 25.0114 22.6651 24.5292 22.1828C24.047 21.7006 23.3929 21.4297 22.7109 21.4297C22.029 21.4297 21.3749 21.7006 20.8927 22.1828C20.4104 22.6651 20.1395 23.3191 20.1395 24.0011V39.0504C19.7196 39.747 19.4974 40.5449 19.4967 41.3583V43.2868H18.8538C18.6833 43.2868 18.5198 43.3546 18.3992 43.4751C18.2787 43.5957 18.2109 43.7592 18.2109 43.9297V49.0725C18.2109 49.243 18.2787 49.4066 18.3992 49.5271C18.5198 49.6477 18.6833 49.7154 18.8538 49.7154H19.4967V52.9297C19.4967 53.1002 19.5644 53.2637 19.6849 53.3843C19.8055 53.5048 19.969 53.5725 20.1395 53.5725H22.0681C22.2025 53.5716 22.3334 53.529 22.4427 53.4508C22.5521 53.3725 22.6345 53.2624 22.6788 53.1354L23.8167 49.7154H51.1767L52.3145 53.1354C52.3588 53.2624 52.4412 53.3725 52.5506 53.4508C52.6599 53.529 52.7908 53.5716 52.9252 53.5725H54.8538C55.0243 53.5725 55.1878 53.5048 55.3084 53.3843C55.4289 53.2637 55.4967 53.1002 55.4967 52.9297V49.7154H56.1395C56.31 49.7154 56.4735 49.6477 56.5941 49.5271C56.7146 49.4066 56.7824 49.243 56.7824 49.0725V43.9297C56.7824 43.7592 56.7146 43.5957 56.5941 43.4751C56.4735 43.3546 56.31 43.2868 56.1395 43.2868ZM50.9967 24.0011C50.9967 23.6601 51.1321 23.3331 51.3732 23.092C51.6143 22.8509 51.9414 22.7154 52.2824 22.7154C52.6234 22.7154 52.9504 22.8509 53.1915 23.092C53.4326 23.3331 53.5681 23.6601 53.5681 24.0011V26.5725H50.9967V24.0011ZM21.4252 24.0011C21.4252 23.6601 21.5607 23.3331 21.8018 23.092C22.0429 22.8509 22.3699 22.7154 22.7109 22.7154C23.0519 22.7154 23.379 22.8509 23.6201 23.092C23.8612 23.3331 23.9967 23.6601 23.9967 24.0011V26.5725H21.4252V24.0011ZM21.4252 27.8583H53.5681V37.6683C52.8141 37.1413 51.9165 36.8586 50.9967 36.8583V33.644C50.9951 33.133 50.7914 32.6433 50.4301 32.282C50.0688 31.9206 49.5791 31.7169 49.0681 31.7154H40.0681C39.5571 31.7169 39.0674 31.9206 38.7061 32.282C38.3447 32.6433 38.141 33.133 38.1395 33.644V36.8583H36.8538V33.644C36.8523 33.133 36.6486 32.6433 36.2872 32.282C35.9259 31.9206 35.4362 31.7169 34.9252 31.7154H25.9252C25.4142 31.7169 24.9246 31.9206 24.5632 32.282C24.2019 32.6433 23.9982 33.133 23.9967 33.644V36.8583C23.0768 36.8586 22.1792 37.1413 21.4252 37.6683V27.8583ZM49.7109 33.644V36.8583H39.4252V33.644C39.4252 33.4735 39.493 33.31 39.6135 33.1894C39.7341 33.0688 39.8976 33.0011 40.0681 33.0011H49.0681C49.2386 33.0011 49.4021 33.0688 49.5226 33.1894C49.6432 33.31 49.7109 33.4735 49.7109 33.644ZM35.5681 33.644V36.8583H25.2824V33.644C25.2824 33.4735 25.3501 33.31 25.4707 33.1894C25.5912 33.0688 25.7547 33.0011 25.9252 33.0011H34.9252C35.0957 33.0011 35.2592 33.0688 35.3798 33.1894C35.5004 33.31 35.5681 33.4735 35.5681 33.644ZM20.7824 41.3583C20.7824 40.5058 21.121 39.6882 21.7238 39.0854C22.3266 38.4826 23.1442 38.144 23.9967 38.144H50.9967C51.8491 38.144 52.6667 38.4826 53.2695 39.0854C53.8723 39.6882 54.2109 40.5058 54.2109 41.3583V43.2868H20.7824V41.3583ZM21.6052 52.2868H20.7824V49.7154H22.4602L21.6052 52.2868ZM54.2109 52.2868H53.3881L52.5331 49.7154H54.2109V52.2868ZM55.4967 48.4297H19.4967V44.5725H55.4967V48.4297Z" fill="#003B98"/>
</svg>
