<svg width="40" height="40" viewBox="0 0 40 40" fill="none" xmlns="http://www.w3.org/2000/svg">
<path d="M0 20C0 18.9959 0.814028 18.1818 1.81818 18.1818C2.82234 18.1818 3.63636 18.9959 3.63636 20C3.63636 29.0374 10.9626 36.3636 20 36.3636C21.0042 36.3636 21.8182 37.1777 21.8182 38.1818C21.8182 39.186 21.0042 40 20 40C8.9543 40 0 31.0457 0 20Z" fill="#E7A83A"/>
<path d="M20 0C21.0042 0 21.8182 0.814028 21.8182 1.81818C21.8182 2.82234 21.0042 3.63636 20 3.63636C10.9626 3.63636 3.63636 10.9626 3.63636 20C3.63636 21.0042 2.82234 21.8182 1.81818 21.8182C0.814028 21.8182 0 21.0042 0 20C0 8.9543 8.9543 0 20 0Z" fill="#285496"/>
<path d="M40.0001 20C40.0001 21.0042 39.186 21.8182 38.1819 21.8182C37.1777 21.8182 36.3637 21.0042 36.3637 20C36.3637 10.9626 29.0375 3.63636 20.0001 3.63636C18.9959 3.63636 18.1819 2.82234 18.1819 1.81818C18.1819 0.814028 18.9959 0 20.0001 0C31.0458 0 40.0001 8.9543 40.0001 20Z" fill="#E7A83A"/>
<path d="M20 40C20.4824 39.9742 20.8965 39.8065 21.2422 39.497C21.7609 39.0327 21.8182 38.3937 21.8182 38.2956C21.8182 37.1977 21.2121 36.5537 20 36.3636C29.0374 36.3636 36.3636 29.0374 36.3636 20C36.3636 18.9959 37.1777 18.1818 38.1818 18.1818C39.186 18.1818 40 18.9959 40 20C40 31.0457 31.0457 40 20 40Z" fill="#1D5B99"/>
</svg>
