<svg version="1.1" id="Capa_1" xmlns="http://www.w3.org/2000/svg" x="0" y="0" viewBox="0 0 115 115" style="enable-background:new 0 0 115 115" xml:space="preserve"><style>.st0{fill:#449bce}.st3{fill:#ea3323}</style><path class="st0" d="M115 57.5c0 31.8-25.7 57.5-57.5 57.5S0 89.3 0 57.5 25.7 0 57.5 0 115 25.7 115 57.5z"/><linearGradient id="SVGID_1_" gradientUnits="userSpaceOnUse" x1="39.684" y1="125.269" x2="54.861" y2="73.534" gradientTransform="matrix(1 0 0 -1 0 129.031)"><stop offset="0" style="stop-color:#55a8c9"/><stop offset="1" style="stop-color:#64b2d3"/></linearGradient><path d="M85.6 18.4c4.2 14.3-9.6 30.9-30.7 37.1-21.2 6.2-41.7-.3-45.9-14.6S18.5 10 39.7 3.8c21.2-6.2 41.7.3 45.9 14.6z" style="fill:url(#SVGID_1_)"/><path d="m49.1 35.7-.9-11.3 2.3-.2.5 8 4-8.2 1.3-.1 1.1 7.8 3.6-8 2.6-.1-5.2 11.6-2.1.1-1.2-7.6-3.5 7.9-2.5.1zM65.5 34.9l-.3-11.4h2.4v8l4.5-8h1.3l.6 7.9 4-7.8 2.6.1L74.8 35h-2.1l-.8-7.7-4 7.7-2.4-.1zM32.8 37.6l-1.7-11.3 2.3-.3 1 7.9 3.4-8.5 1.3-.1 1.6 7.7 3-8.2 2.6-.2-4.4 11.9-1.9.1-1.8-7.5-3 8.1-2.4.4zM83.6 32.8c0 1.1-.9 2-2 2s-2-.9-2-2 .9-2 2-2 2 .9 2 2zM29.2 38.8c0 1.1-.9 2-2 2s-2-.9-2-2 .9-2 2-2 2 .9 2 2zM23.2 56.1l2-13.2c1.2-.2 2.5-.4 3-.5l-2 13.2c-.2 0-2.1.3-3 .5zM45.3 49.8l1.4-9 2.9-.2-1.4 8.9c-.1.8.2 2 2.6 2 .9 0 2.7-.6 3-2.9l1.3-8.4L58 40l-2 13.7h-1.9l-.5-2.3c-.3 1-1.6 3-4.3 3-3.3.1-4.3-2.8-4-4.6zM43 42.7l-2.6 17.2-2.6.2 1.1-7c-.6 1.2-2.3 2.5-4.1 2.5-1.8 0-4.9-1-4.9-5.8s5.4-8.5 9.6-8.5c3.3-.1 3.5.8 3.5 1.4z"/><linearGradient id="SVGID_2_" gradientUnits="userSpaceOnUse" x1="33.049" y1="48.102" x2="40.148" y2="48.102"><stop offset="0" style="stop-color:#55a8c9"/><stop offset="1" style="stop-color:#64b2d3"/></linearGradient><path d="m40.1 44.2-.8 5.4c-.4 2.1-2.4 2.9-3.3 3-1 .1-2.9-.3-2.9-3 0-3.4 3.3-6.1 5.2-6.1 1.6.1 1.9.5 1.8.7z" style="fill:url(#SVGID_2_)"/><path d="M59.9 46.8c.1 3.6 2.2 9.7 10.3 5.5v-2.7c-.6.5-2.2 1.4-4.1 1.4-2.3 0-3-2.3-3-3 2.7.3 8-.1 8-4s-3.4-4.5-5.1-4.3c-1.9.2-6.1 1.9-6.1 7.1zm3.2-1.3c.1-1.1.9-3.3 3.2-3.3 2.3 0 2.5 1.4 2.3 2.1-.1.7-1.4 1.8-5.5 1.2zM82.2 46.7c.1 3.6 2.2 9.7 10.3 5.5v-2.7c-.6.4-2.2 1.3-4.1 1.3-2.3 0-3-2.3-3-3 2.7.3 8-.1 8-4s-3.4-4.5-5.1-4.3c-2 .2-6.1 1.9-6.1 7.2zm3.2-1.3c.1-1.1.9-3.3 3.2-3.3 2.3 0 2.5 1.4 2.3 2.1-.2.6-1.5 1.7-5.5 1.2zM74.3 50.4l.6-8h-2.2l.4-2.1h2l.2-2.5 3-.8-.2 3.2h2.5l-.2 2.1h-2.5c-.2 1.6-.5 5.1-.6 6.4-.1 1.6.4 1.8 1 1.8.5 0 1.2-.1 1.6-.2l-.2 2.4c-.4.2-1.9.3-2.6.4-2.3.1-2.8-1.7-2.8-2.7z"/><path class="st3" d="m71.6 72.4.3-9.6-2.7.1.3-2.6 2.4-.1.1-2.9 3.6-1.1-.1 3.9 2.9-.1-.1 2.5-2.9.1c-.1 1.9-.4 6.2-.4 7.7 0 1.9.6 2.2 1.2 2.1.5 0 1.5-.2 1.8-.3l.1 2.9c-.5.3-2.2.5-3 .6-2.8.1-3.5-2.1-3.5-3.2z"/><path d="m15.8 53.9.6-7.6-2.4.3.4-2.1 2.2-.3.3-3 3-.7-.3 3.3 2.6-.4-.3 2.1-2.4.3c-.2 1.6-.5 5.1-.6 6.4-.1 1.6.4 1.8 1 1.8.5 0 1.2-.1 1.6-.2l-.2 2.4c-.4.2-1.9.3-2.6.4-2.4.1-2.9-1.8-2.9-2.7zM95.3 52.2l.1-2.4c1.1.8 3 1 3.8 1.1.7 0 2.1-.3 2.1-1.5 0-1.1-1.4-1.9-2.1-2.1-2.8-1-3.6-2.9-3.7-3.7 0-2.7 2.4-3.4 4.4-3.4 1.5 0 2.8.6 3.2.9v2.2c-1.3-.9-2.2-1.1-2.9-1.1s-2.1.3-2.1 1.4c0 .9 1.2 1.6 1.8 1.8 3.2 1.5 4.1 3 4.1 4 0 2.3-1.9 3.7-4.3 3.7-2-.1-3.7-.7-4.4-.9z"/><path class="st3" d="m7.8 56.3 3.8-.1-.3 8c.6-.6 2.6-1.9 4.8-1.9 2.8 0 5.3 1.9 5.3 6.8s-2.6 8.1-7.8 8.1c-5.2 0-7.1-2.2-6.7-6.9l.9-14zm6.7 9.4c-1.1 0-3.3.8-3.6 4.5-.3 3.6 1.8 4.4 2.8 4.3 1.2.1 3.7-.7 4-4.7.2-1.5-.3-4.4-3.2-4.1zM34.5 77.3l3.3.1c-.1-3.5-.1-11.3.7-15-5-.9-15-.6-15 8 .1 2.5 1.3 7.4 5.8 7.4 1.1 0 3.7-.6 5.2-3l-.2 2.5h.2z"/><path class="st0" d="M27.5 70.1c-.2 1.6 0 4.7 2.5 4.7 3.1 0 4.1-4.5 4.3-6 .2-1.4.4-4.1-1.3-3.9-1.4.1-4.9.8-5.5 5.2z"/><path class="st3" d="m62.6 76.1 3.3.1c-.1-3.5-.1-11.3.7-15-5-.9-15-.6-15 8 .1 2.5 1.3 7.4 5.8 7.4 1.1 0 3.7-.6 5.2-3l-.2 2.5h.2z"/><path class="st0" d="M55.7 68.9c-.2 1.6 0 4.7 2.5 4.7 3.1 0 4.1-4.5 4.3-6 .2-1.4.4-4.1-1.3-3.9-1.4.1-5 .8-5.5 5.2z"/><path class="st3" d="m45 77.2-3.6.2c.9-4.7 1.1-12.1 1.1-15.1l3.6-.2-.2 2.5c1.3-2.9 4.3-3.3 5.6-3.1l-.7 3.5c-3.9.4-5.1 2.8-5.2 3.9l-.6 8.3zM89.5 58.2c-3.2.1-9.7 2.1-9.7 9.9 0 7.8 6.7 6.4 10.1 4.8 1.8-.9 5.3-3.9 5.3-8.6s-3.7-6.3-5.7-6.1z"/><path class="st0" d="M88.6 61.1c-1.7 0-5 1.3-5 6.1s3.5 4 5.2 3c.9-.6 2.8-2.4 2.8-5.3s-2-3.9-3-3.8z"/><path d="M35.5 90.5c.1 1-.6 1.9-1.6 2-1 .1-1.9-.7-2-1.7-.1-1 .6-1.9 1.6-2 1-.1 1.9.7 2 1.7zM45.2 83.1l.2-2.1c-5.2-1.2-8.4 1.6-8.4 5.8 0 4.2 3 5.8 4.9 5.8 1.5 0 2.6-.5 3-.7l.1-2.3c-.9.7-2.2.8-2.7.8-2.2 0-2.7-2.4-2.6-3.6-.1-4.1 3.6-4.1 5.5-3.7zM50 92.1c2.9 1 6.2-.8 7.3-4 1.1-3.2-.3-6.7-3.2-7.7-2.9-1-6.2.8-7.3 4-1.1 3.3.3 6.7 3.2 7.7z"/><path class="st0" d="M50.9 89.8c1.5.5 3.2-.7 3.9-2.6.7-2 0-3.9-1.4-4.4-1.5-.5-3.2.7-3.9 2.6-.7 1.9-.1 3.9 1.4 4.4z"/><path d="m62.5 91.3-2.7.2.9-11.2 2.6-.3-.1 1.5c.6-1.3 2-2 3.6-2.1 1.3-.1 2.3.8 2.5 1.5.4-.7 1.9-2.3 4.7-2.5 2.7-.2 3.2 2.6 3 4l-.9 7.3-2.6.2.7-6c.1-1.1-.1-3.3-1.8-3.1-1.8.1-2.5 2.5-2.7 3.7l-.8 6-2.3.2.5-5.8c.3-2.9-.8-3.6-1.3-3.5-1.9.1-2.6 2.4-2.8 3.5l-.5 6.4z"/><path d="M55.2 104.4c28.3 0 51.2-22.9 51.2-51.2 0-8.8-2.2-17.1-6.1-24.3 6 8.4 9.5 18.6 9.5 29.7 0 28.3-22.9 51.2-51.2 51.2-19.5 0-36.5-10.9-45.1-26.9 9.2 13 24.5 21.5 41.7 21.5z" style="fill:#62bada"/><path class="st3" d="m96.5 72.1.5-3.2c.2.2 1.2.5 4 .5.9 0 2.8-.3 2.8-1.8.1-.4-.3-1.3-2-1.9-2.2-.8-3.5-1.6-3.5-3.4s1.4-6.1 9.9-5.3l-.3 3c-1.9-.4-5.6-.7-5.6 1.2-.1.4.3 1.3 2.4 2 1.1.3 3.2 1.4 2.8 3.5-.2 1.7-.7 4.1-5 5.2-3.5.8-5.4.4-6 .2z"/><path d="M106.6 102.7c.7 0 1.3.2 1.9.5.6.3 1.1.8 1.4 1.4.4.6.5 1.3.5 2s-.2 1.3-.5 1.9c-.3.6-.8 1.1-1.4 1.4-.6.3-1.3.5-1.9.5-.7 0-1.3-.2-1.9-.5-.6-.3-1.1-.8-1.4-1.4-.3-.6-.5-1.3-.5-1.9 0-.7.2-1.3.5-2 .4-.6.8-1.1 1.4-1.4.6-.3 1.2-.5 1.9-.5zm0 .8c-.5 0-1 .1-1.5.4-.5.3-.9.7-1.2 1.2-.3.5-.4 1-.4 1.6 0 .5.1 1.1.4 1.6.3.5.7.9 1.2 1.2.5.3 1 .4 1.6.4.5 0 1.1-.1 1.6-.4.5-.3.9-.7 1.2-1.2.3-.5.4-1 .4-1.6 0-.5-.1-1.1-.4-1.6-.3-.5-.7-.9-1.2-1.2-.7-.3-1.2-.4-1.7-.4zm-1.8 5.2v-4.1h2.1c.3 0 .5.1.6.2.2.1.3.2.4.4.1.2.2.4.2.6 0 .3-.1.6-.3.8-.2.2-.5.3-.8.4.1 0 .2.1.3.2l.3.3s.1.2.3.5l.5.8h-1l-.4-.8c-.2-.4-.4-.7-.6-.8-.2-.1-.3-.2-.6-.2h-.2v1.7h-.8zm.9-2.4h.3c.5 0 .8 0 .9-.1.1 0 .2-.1.3-.2.1-.1.1-.2.1-.3 0-.1 0-.2-.1-.3-.1-.1-.2-.2-.3-.2-.1 0-.4-.1-.9-.1h-.3v1.2z" style="fill:#fff"/></svg>