<svg width="40" height="40" viewBox="0 0 40 40" fill="none" xmlns="http://www.w3.org/2000/svg">
<path d="M7.01909 7.32385L22.7395 11.9307C24.9205 12.6694 26.4122 14.7467 26.4614 17.1135V32.6769C26.5524 33.6744 26.1606 34.6541 25.4143 35.2955C24.668 35.937 23.6631 36.1578 22.728 35.8859L9.73442 32.2357C7.55161 31.5353 6.04795 29.4735 6.00103 27.1165V10.1655C5.95195 7.92591 7.66502 6.06536 9.83637 6H29.6922C32.0714 6 34 7.98895 34 10.4425V23.7002C33.9898 24.9098 33.5131 26.0655 32.6752 26.9121C31.8374 27.7587 30.7072 28.2265 29.5343 28.2123H26.4629" stroke="#333132" stroke-width="2" stroke-linecap="round" stroke-linejoin="round"/>
<path d="M20.875 22.7647C21.3582 22.7647 21.75 23.1598 21.75 23.6471C21.75 24.1344 21.3582 24.5294 20.875 24.5294C20.3918 24.5294 20 24.1344 20 23.6471C20 23.1598 20.3918 22.7647 20.875 22.7647" stroke="#EA0074" stroke-width="2" stroke-linecap="round" stroke-linejoin="round"/>
<path d="M34 16.5882H26.5625" stroke="#333132" stroke-width="2" stroke-linecap="round" stroke-linejoin="round"/>
</svg>
