<svg width="20" height="20" viewBox="0 0 20 20" fill="none" xmlns="http://www.w3.org/2000/svg">
<g clip-path="url(#clip0_1102_263)">
<path d="M10.0001 0C4.36799 0 0.000747681 4.09423 0.000747681 9.62182C0.000747681 12.5133 1.19568 15.013 3.14056 16.739C3.30305 16.8828 3.40304 17.0862 3.40804 17.3044L3.46304 19.0701C3.48054 19.633 4.0655 20 4.58547 19.7719L6.57035 18.9039C6.73784 18.8295 6.92783 18.8171 7.10532 18.8642C8.01777 19.1122 8.98771 19.2461 10.0001 19.2461C15.6323 19.2461 19.9995 15.1519 19.9995 9.6243C19.9995 4.09671 15.6323 0 10.0001 0Z" fill="#5C469C"/>
<path d="M3.99536 12.4365L6.93268 7.81401C7.40015 7.07749 8.40009 6.89646 9.10255 7.41723L11.4399 9.15561C11.6549 9.31432 11.9499 9.31432 12.1624 9.15313L15.3172 6.77743C15.7372 6.46001 16.2871 6.96094 16.0071 7.40483L13.0673 12.0248C12.5998 12.7613 11.5999 12.9423 10.8974 12.4216L8.56008 10.6832C8.34509 10.5245 8.05011 10.5245 7.83763 10.6857L4.68281 13.0614C4.26284 13.3788 3.71287 12.8803 3.99536 12.4365V12.4365Z" fill="white"/>
</g>
<defs>
<clipPath id="clip0_1102_263">
<rect width="20" height="20" fill="white"/>
</clipPath>
</defs>
</svg>
