<svg width="124" height="36" viewBox="0 0 124 36" fill="none" xmlns="http://www.w3.org/2000/svg">
<path d="M123.987 9.20298C124.088 10.72 123.583 12.1358 122.571 13.2482C120.347 15.1697 116.908 15.1697 114.683 13.2482C113.672 12.1358 113.166 10.72 113.267 9.20298C113.166 7.686 113.672 6.27016 114.683 5.15772C115.695 4.1464 117.211 3.64074 118.627 3.74187C120.043 3.64074 121.56 4.1464 122.571 5.15772C123.583 6.27016 124.088 7.686 123.987 9.20298ZM120.65 9.20298C120.65 8.69732 120.65 8.19166 120.448 7.686C120.347 7.38261 120.245 6.97808 120.043 6.67469C119.841 6.47243 119.639 6.27016 119.436 6.16903C119.133 6.0679 118.931 5.96677 118.627 5.96677C118.324 5.96677 118.122 5.96677 117.818 6.0679C117.515 6.16903 117.313 6.3713 117.211 6.57356C117.009 6.87695 116.807 7.18035 116.807 7.58487C116.706 8.09053 116.605 8.59619 116.605 9.20298C116.605 9.70864 116.605 10.2143 116.807 10.72C116.908 11.0233 117.009 11.3267 117.211 11.6301C117.414 11.8324 117.616 12.0347 117.818 12.1358C118.122 12.2369 118.425 12.3381 118.627 12.3381C118.931 12.3381 119.133 12.2369 119.436 12.1358C119.74 12.0347 119.942 11.8324 120.043 11.6301C120.245 11.3267 120.347 11.0233 120.448 10.72C120.65 10.2143 120.751 9.70864 120.65 9.20298Z" fill="#2758A0"/>
<path d="M11.0233 10.1132C11.0233 10.72 10.9222 11.3267 10.6188 11.9335C10.4166 12.4392 10.012 12.8437 9.6075 13.2482C9.10184 13.6528 8.49505 13.9562 7.88826 14.1584C7.07921 14.3607 6.37129 14.4618 5.56224 14.4618H0V0.606796H4.85432C5.66337 0.606796 6.37129 0.606795 7.18034 0.707926C7.686 0.809058 8.19166 0.910189 8.59618 1.21358C9.10184 1.41585 9.40524 1.82038 9.70863 2.32604C9.91089 2.8317 10.1132 3.33735 10.1132 3.84301C10.1132 4.4498 9.91089 5.05659 9.6075 5.66337C9.3041 6.16903 8.79845 6.57356 8.19166 6.77582V6.87696C9.00071 6.97809 9.70863 7.38261 10.2143 7.9894C10.7199 8.49506 11.0233 9.30411 11.0233 10.1132ZM6.57355 4.4498C6.57355 4.24754 6.47242 3.94414 6.37129 3.74187C6.27016 3.53961 6.06789 3.33735 5.86563 3.23622C5.56224 3.13508 5.35997 3.03396 5.05658 3.03396H3.64074H3.43847V6.0679H3.843C4.44979 6.0679 4.85432 6.0679 5.05658 6.0679C5.25884 6.0679 5.56224 5.96677 5.7645 5.86564C5.96676 5.76451 6.16903 5.56225 6.37129 5.35998C6.47242 5.05659 6.57355 4.75319 6.57355 4.4498ZM7.48374 10.1132C7.48374 9.80977 7.3826 9.40524 7.18034 9.10185C6.97808 8.79845 6.67468 8.69732 6.37129 8.59619C6.06789 8.49506 5.7645 8.49506 5.4611 8.49506H4.04526H3.43847V11.9335H3.64074C4.55092 11.9335 5.15771 11.9335 5.4611 11.9335C5.86563 11.9335 6.16903 11.8324 6.47242 11.7313C6.77582 11.6301 6.97808 11.4279 7.18034 11.1245C7.3826 10.72 7.48374 10.4166 7.48374 10.1132Z" fill="#2758A0"/>
<path d="M18.4059 13.2482L17.7992 13.7539C17.5969 13.9562 17.3946 14.0573 17.0912 14.1584C16.7878 14.2596 16.5856 14.3607 16.2822 14.4618C15.8777 14.563 15.4731 14.563 15.1697 14.563C14.3607 14.563 13.4505 14.2596 12.8437 13.6528C12.2369 13.046 11.9335 12.2369 11.9335 11.3267C11.9335 10.72 12.0347 10.012 12.4392 9.50638C12.7426 9.00072 13.2482 8.59619 13.7539 8.39393C14.4618 8.09054 15.1697 7.88827 15.8777 7.78713C16.6867 7.686 17.5969 7.58488 18.5071 7.48374V7.38261C18.5071 6.87696 18.3048 6.47243 17.9003 6.16903C17.2935 5.86564 16.6867 5.76451 15.9788 5.86564C15.5743 5.86564 15.0686 5.96677 14.6641 6.0679C14.1584 6.16903 13.6528 6.3713 13.1471 6.57356H12.8437V4.04527C13.1471 3.94414 13.6528 3.843 14.3607 3.74187C15.0686 3.64074 15.7765 3.53961 16.4844 3.53961C18.3048 3.53961 19.5184 3.84301 20.4286 4.4498C21.2376 5.05659 21.7433 6.0679 21.6422 7.18035V14.2596H18.4059V13.2482V13.2482ZM18.4059 11.6301V9.50638L17.0912 9.60751C16.7878 9.60751 16.3833 9.70863 16.0799 9.80977C15.7765 9.9109 15.5743 10.012 15.4731 10.2143C15.2709 10.6188 15.1697 10.8211 15.1697 11.1245C15.1697 11.529 15.2709 11.8324 15.5743 12.1358C15.8777 12.3381 16.2822 12.4392 16.6867 12.4392C16.9901 12.4392 17.2935 12.3381 17.5969 12.2369C17.9003 12.0347 18.2037 11.8324 18.4059 11.6301Z" fill="#2758A0"/>
<path d="M33.6768 14.3607H30.4406V9.20297C30.4406 8.79844 30.4406 8.39392 30.4406 7.98939C30.4406 7.686 30.3395 7.3826 30.2383 7.0792C30.1372 6.87694 29.9349 6.67468 29.7327 6.57355C29.4293 6.47241 29.227 6.37129 28.9236 6.37129C28.6202 6.37129 28.418 6.47242 28.1146 6.47242C27.8112 6.57355 27.5078 6.77581 27.2044 6.97807V14.3607H23.9682V3.94413H27.2044V5.05657C27.71 4.65205 28.2157 4.24752 28.7214 4.04526C29.227 3.74186 29.8338 3.64073 30.4406 3.64073C31.3508 3.5396 32.261 3.94412 32.8678 4.65204C33.4745 5.4611 33.7779 6.47241 33.6768 7.58486V14.3607Z" fill="#2758A0"/>
<path d="M41.0594 14.6641C40.2504 14.6641 39.4413 14.5629 38.7334 14.3607C38.0255 14.1584 37.4187 13.855 36.913 13.3494C36.4074 12.8437 36.0028 12.338 35.6994 11.6301C35.396 10.8211 35.2949 10.012 35.2949 9.20297C35.2949 8.29278 35.396 7.48373 35.8006 6.67468C36.104 5.96676 36.5085 5.4611 37.0142 4.95544C37.5198 4.55092 38.1266 4.24752 38.8345 4.04526C40.756 3.43847 42.6775 3.64073 44.4979 4.55092V7.28147H44.0934C43.9922 7.18033 43.79 6.97808 43.5877 6.87695C43.3854 6.77581 43.1832 6.57355 42.9809 6.47242C42.6775 6.37129 42.4753 6.27015 42.1719 6.16902C41.8685 6.06789 41.5651 6.06789 41.1605 6.06789C40.4526 6.06789 39.7447 6.37129 39.239 6.97808C38.7334 7.686 38.5311 8.49504 38.5311 9.3041C38.43 10.1132 38.7334 11.0233 39.239 11.6301C39.7447 12.1358 40.4526 12.4392 41.1605 12.4392C41.5651 12.4392 41.8685 12.4392 42.273 12.338C42.5764 12.2369 42.7787 12.1358 43.082 12.0347C43.2843 11.9335 43.4866 11.7313 43.5877 11.6301L43.9922 11.2256H44.4979V13.9562C44.2956 14.0573 44.0934 14.1584 43.8911 14.2595C43.6888 14.3607 43.3854 14.4618 43.1832 14.5629C42.8798 14.6641 42.5764 14.6641 42.273 14.7652C41.7673 14.6641 41.4639 14.6641 41.0594 14.6641Z" fill="#2758A0"/>
<path d="M55.8246 9.20298C55.9258 10.72 55.4201 12.1358 54.4088 13.2482C53.3975 14.2596 51.8805 14.7652 50.4647 14.7652C49.0488 14.8663 47.5318 14.3607 46.5205 13.2482C45.5092 12.1358 45.0035 10.72 45.1047 9.20298C45.0035 7.68601 45.5092 6.27016 46.5205 5.15772C47.5318 4.1464 49.0488 3.64074 50.4647 3.74187C51.8805 3.64074 53.3975 4.1464 54.4088 5.25885C55.4201 6.27016 55.9258 7.68601 55.8246 9.20298ZM52.4873 9.20298C52.4873 8.69732 52.4873 8.19166 52.285 7.68601C52.1839 7.38261 52.0828 6.97808 51.8805 6.67469C51.6782 6.47243 51.476 6.27016 51.2737 6.16903C50.9703 6.0679 50.768 5.96677 50.4647 5.96677C50.1613 5.96677 49.959 5.96677 49.6556 6.0679C49.3522 6.16903 49.1499 6.3713 49.0488 6.57356C48.8465 6.87695 48.6443 7.18035 48.6443 7.58488C48.5432 8.09053 48.442 8.59619 48.442 9.20298C48.442 9.70864 48.442 10.2143 48.6443 10.72C48.7454 11.0233 48.8465 11.3267 49.0488 11.6301C49.2511 11.8324 49.4533 12.0347 49.6556 12.1358C49.959 12.2369 50.2624 12.3381 50.5658 12.3381C50.8692 12.3381 51.0714 12.2369 51.3748 12.1358C51.6782 12.0347 51.8805 11.8324 51.9816 11.6301C52.1839 11.3267 52.3862 11.0233 52.3862 10.72C52.4873 10.2143 52.4873 9.70864 52.4873 9.20298Z" fill="#2758A0"/>
<path d="M60.0722 14.3607L64.7242 0.606796H68.4661L73.1181 14.3607H69.5785L68.7695 11.529H64.4208L63.5106 14.3607H60.0722ZM67.9604 9.10185L66.5446 4.55093L65.1287 9.10185H67.9604Z" fill="#2758A0"/>
<path d="M83.9392 14.3607H80.703V9.20297C80.703 8.79845 80.703 8.39392 80.703 7.9894C80.703 7.686 80.6019 7.3826 80.5007 7.07921C80.3996 6.87695 80.1973 6.67468 79.9951 6.57355C79.6917 6.47242 79.4894 6.37129 79.186 6.37129C78.8826 6.37129 78.6804 6.47242 78.377 6.47242C78.0736 6.57355 77.7702 6.77582 77.4668 6.97808V14.3607H74.2306V0H77.4668V5.15771C77.9724 4.75318 78.4781 4.34866 78.9838 4.14639C79.4894 3.843 80.0962 3.74187 80.703 3.74187C81.6132 3.64073 82.5234 4.04526 83.1301 4.75318C83.7369 5.56223 84.0403 6.57355 83.9392 7.686V14.3607Z" fill="#2758A0"/>
<path d="M96.1761 9.20296C96.2773 10.7199 95.7716 12.1358 94.7603 13.2482C92.5354 15.1697 89.0969 15.1697 86.872 13.2482C85.8607 12.1358 85.355 10.7199 85.4562 9.20296C85.355 7.68598 85.8607 6.27014 86.872 5.15769C89.0969 3.23619 92.5354 3.23619 94.7603 5.15769C95.7716 6.27014 96.2773 7.68598 96.1761 9.20296ZM92.8388 9.20296C92.8388 8.6973 92.8388 8.19164 92.7376 7.68598C92.6365 7.38259 92.5354 6.97806 92.3331 6.67467C92.1309 6.4724 91.9286 6.27014 91.7263 6.16901C91.4229 6.06788 91.2207 5.96675 90.9173 5.96675C90.6139 5.96675 90.4116 5.96675 90.1082 6.06788C89.8048 6.16901 89.6026 6.37127 89.5014 6.57354C89.2992 6.87693 89.0969 7.18033 89.0969 7.58485C88.9958 8.09051 88.8946 8.59617 88.8946 9.20296C88.8946 9.70861 88.8946 10.2143 89.0969 10.7199C89.198 11.0233 89.2992 11.3267 89.5014 11.6301C89.7037 11.8324 89.906 12.0346 90.1082 12.1358C90.4116 12.2369 90.715 12.338 91.0184 12.338C91.3218 12.338 91.5241 12.2369 91.8275 12.1358C92.1309 12.0346 92.3331 11.8324 92.4343 11.6301C92.6365 11.3267 92.7377 11.0233 92.8388 10.7199C92.8388 10.2143 92.8388 9.70861 92.8388 9.20296Z" fill="#2758A0"/>
<path d="M104.772 7.0792H104.469C104.267 6.97807 104.166 6.97807 103.963 6.97807C103.761 6.97807 103.458 6.97807 103.154 6.97807C102.851 6.97807 102.446 6.97807 102.143 7.0792C101.738 7.18033 101.435 7.28147 101.03 7.3826V14.3607H97.7942V3.94412H101.03V5.4611C101.132 5.35996 101.435 5.1577 101.637 4.95544C101.839 4.75317 102.143 4.65204 102.345 4.44978C102.649 4.34865 102.851 4.14638 103.154 4.04525C103.458 3.94412 103.761 3.94412 104.064 3.94412H104.368H104.671L104.772 7.0792Z" fill="#2758A0"/>
<path d="M112.863 7.0792H112.559C112.357 6.97807 112.256 6.97807 112.054 6.97807C111.852 6.97807 111.548 6.97807 111.245 6.97807C110.84 6.97807 110.537 6.97807 110.132 7.0792C109.728 7.18033 109.424 7.28147 109.02 7.3826V14.2595H105.784V3.94412H109.02V5.4611C109.121 5.35996 109.323 5.1577 109.627 4.95544C109.829 4.75317 110.132 4.65204 110.335 4.44978C110.638 4.24752 110.84 4.14638 111.144 4.04525C111.447 3.94412 111.75 3.94412 112.054 3.94412H112.357H112.661L112.863 7.0792Z" fill="#2758A0"/>
<path d="M123.987 9.20296C124.088 10.7199 123.583 12.1358 122.571 13.2482C120.347 15.1697 116.908 15.1697 114.683 13.2482C113.672 12.1358 113.166 10.7199 113.267 9.20296C113.166 7.68598 113.672 6.27014 114.683 5.15769C116.908 3.23619 120.347 3.23619 122.571 5.15769C123.583 6.27014 124.088 7.68598 123.987 9.20296ZM120.65 9.20296C120.65 8.6973 120.65 8.19164 120.448 7.68598C120.347 7.38259 120.245 6.97806 120.043 6.67467C119.841 6.4724 119.639 6.27014 119.436 6.16901C119.133 6.06788 118.931 5.96675 118.627 5.96675C118.324 5.96675 118.122 5.96675 117.818 6.06788C117.515 6.16901 117.313 6.37127 117.211 6.57354C117.009 6.87693 116.807 7.18033 116.807 7.58485C116.706 8.09051 116.605 8.59617 116.605 9.20296C116.605 9.70861 116.605 10.2143 116.807 10.7199C116.908 11.0233 117.009 11.3267 117.211 11.6301C117.414 11.8324 117.616 12.0346 117.818 12.1358C118.122 12.2369 118.425 12.338 118.627 12.338C118.931 12.338 119.133 12.2369 119.436 12.1358C119.74 12.0346 119.942 11.8324 120.043 11.6301C120.245 11.3267 120.347 11.0233 120.448 10.7199C120.65 10.2143 120.751 9.70861 120.65 9.20296Z" fill="#2758A0"/>
<path d="M41.8685 23.9682H36.104V26.5976H41.4639V29.227H36.104V35.0927H32.6655V21.3388H41.8685V23.9682Z" fill="#C22027"/>
<path d="M49.2511 32.3621V30.2383L47.9364 30.4406C47.633 30.4406 47.2284 30.5417 46.925 30.6429C46.6217 30.744 46.4194 30.8451 46.3183 31.0474C46.116 31.2497 46.0149 31.5531 46.0149 31.7553C46.0149 32.1598 46.116 32.4632 46.4194 32.7666C46.7228 32.9689 47.1273 33.07 47.5318 33.07C47.8352 33.07 48.1386 32.9689 48.442 32.8678C48.7454 32.7666 48.9477 32.5644 49.2511 32.3621ZM49.2511 33.9802L48.6443 34.4859C48.442 34.6881 48.2398 34.7893 47.9364 34.8904C47.633 34.9915 47.4307 35.0927 47.1273 35.1938C46.7228 35.2949 46.3183 35.2949 46.0149 35.2949C45.2058 35.2949 44.2956 34.9915 43.6888 34.3847C43.082 33.7779 42.7787 32.9689 42.7787 32.0587C42.7787 31.4519 42.8798 30.744 43.2843 30.2383C43.5877 29.7327 44.0934 29.3282 44.599 29.1259C45.3069 28.8225 46.0149 28.6202 46.7228 28.5191C47.5318 28.418 48.442 28.3168 49.3522 28.2157V28.1146C49.3522 27.6089 49.1499 27.2044 48.7454 26.901C48.1386 26.5976 47.5318 26.4965 46.8239 26.5976C46.4194 26.5976 45.9137 26.6987 45.5092 26.7999C45.0035 26.901 44.4979 27.1033 43.9922 27.3055H43.6888V24.7772C43.9922 24.6761 44.4979 24.575 45.2058 24.4738C45.9137 24.3727 46.6217 24.2716 47.3296 24.2716C49.1499 24.2716 50.3635 24.575 51.1726 25.1818C51.9816 25.7886 52.4873 26.7999 52.3862 27.9123V34.8904H49.1499V33.9802H49.2511Z" fill="#C22027"/>
<path d="M67.1514 35.0927V29.9349C67.1514 29.4293 67.1514 29.0248 67.1514 28.6202C67.1514 28.3168 67.0502 28.0135 66.9491 27.8112C66.848 27.6089 66.7468 27.4067 66.5446 27.3055C66.2412 27.2044 66.0389 27.1033 65.7355 27.1033C65.5333 27.1033 65.2299 27.2044 65.0276 27.3055C64.7242 27.4067 64.5219 27.6089 64.2185 27.7101V34.9915H60.9823V29.8338C60.9823 29.3282 60.9823 28.9236 60.9823 28.5191C60.9823 28.2157 60.8812 27.9123 60.7801 27.6089C60.6789 27.4067 60.5778 27.2044 60.3755 27.1033C60.0722 27.0021 59.8699 26.901 59.5665 26.901C59.2631 26.901 59.0608 27.0021 58.7574 27.1033C58.5552 27.2044 58.2518 27.4067 58.0495 27.5078V34.7893H54.7122V24.7772H57.9484V25.8897C58.454 25.4852 58.9597 25.1818 59.4654 24.8784C59.971 24.575 60.4767 24.4738 61.0835 24.4738C61.6903 24.4738 62.297 24.575 62.8027 24.8784C63.3084 25.1818 63.7129 25.6874 63.9152 26.1931C64.4208 25.6874 65.0276 25.2829 65.6344 24.8784C66.5446 24.3727 67.657 24.2716 68.5672 24.6761C68.9717 24.8784 69.2751 25.0806 69.5785 25.384C69.8819 25.6874 70.0842 26.092 70.1853 26.5976C70.3876 27.2044 70.3876 27.8112 70.3876 28.418V35.0927H67.1514Z" fill="#C22027"/>
<path d="M75.9498 35.3961C75.2419 35.3961 74.534 35.2949 73.826 35.1938C73.2193 35.0927 72.7136 34.8904 72.1068 34.587V31.8565H72.4102L72.9159 32.261C73.2193 32.4632 73.4215 32.5644 73.7249 32.6655C74.0283 32.7666 74.4328 32.9689 74.7362 33.07C75.1408 33.1712 75.5453 33.2723 75.9498 33.1712C76.3543 33.1712 76.7589 33.07 77.1634 32.9689C77.4668 32.8678 77.669 32.5644 77.669 32.261C77.669 32.0587 77.5679 31.8565 77.4668 31.7553C77.1634 31.5531 76.86 31.4519 76.5566 31.4519C76.3543 31.3508 76.0509 31.3508 75.6464 31.2497C75.343 31.1485 74.9385 31.1485 74.6351 31.0474C73.9272 30.8451 73.3204 30.4406 72.8147 29.935C72.4102 29.3282 72.2079 28.7214 72.2079 28.0134C72.2079 27.6089 72.3091 27.1033 72.5113 26.6987C72.7136 26.2942 73.017 25.8897 73.4215 25.5863C73.9272 25.2829 74.4328 24.9795 74.9385 24.8784C75.6464 24.6761 76.2532 24.575 76.9611 24.575C77.669 24.575 78.2758 24.6761 78.9838 24.7772C79.4894 24.8784 79.9951 25.0806 80.5007 25.2829V27.9123H80.1973C79.9951 27.8112 79.8939 27.7101 79.6917 27.6089C79.4894 27.5078 79.186 27.3055 78.9838 27.2044C78.6804 27.1033 78.377 27.0021 78.0736 26.901C77.7702 26.7999 77.3656 26.7999 77.0623 26.7999C76.6577 26.7999 76.2532 26.901 75.8487 27.0021C75.5453 27.1033 75.343 27.3055 75.343 27.6089C75.343 27.8112 75.4441 28.0135 75.5453 28.1146C75.8487 28.3168 76.2532 28.418 76.5566 28.5191C76.86 28.6202 77.1634 28.6202 77.4668 28.7214C77.7702 28.8225 78.1747 28.8225 78.4781 29.0248C79.0849 29.227 79.6917 29.5304 80.1973 30.0361C80.6019 30.5417 80.8041 31.2497 80.8041 31.8565C80.8041 32.3621 80.703 32.8678 80.5007 33.2723C80.2985 33.6768 79.8939 34.0813 79.4894 34.3847C78.9838 34.6881 78.4781 34.9915 77.8713 35.0927C77.4668 35.2949 76.7589 35.3961 75.9498 35.3961Z" fill="#C22027"/>
<path d="M88.2879 32.3621V30.2383L86.9731 30.3395C86.6698 30.3395 86.2652 30.4406 85.9618 30.5417C85.6584 30.6429 85.4562 30.744 85.2539 30.9463C85.0516 31.1485 85.0516 31.4519 85.0516 31.7553C85.0516 32.1598 85.1528 32.4632 85.4562 32.7666C85.8607 32.9689 86.1641 33.07 86.5686 33.07C86.872 33.07 87.1754 32.9689 87.4788 32.8678C87.7822 32.7666 87.9845 32.6655 88.2879 32.3621ZM88.2879 33.9802L87.6811 34.4859C87.4788 34.6881 87.2765 34.7893 86.9731 34.8904C86.6698 34.9915 86.4675 35.0927 86.1641 35.1938C85.7596 35.2949 85.355 35.2949 85.0516 35.2949C84.1415 35.2949 83.3324 34.9915 82.7256 34.3847C82.1188 33.7779 81.8154 32.9689 81.8154 32.0587C81.8154 31.4519 81.9166 30.744 82.3211 30.2383C82.6245 29.7327 83.1301 29.3282 83.6358 29.1259C84.3437 28.8225 85.0516 28.6202 85.7596 28.5191C86.5686 28.418 87.4788 28.3168 88.389 28.2157V28.1146C88.389 27.6089 88.1867 27.2044 87.7822 26.901C87.1754 26.5976 86.5686 26.4965 85.8607 26.5976C85.4562 26.5976 84.9505 26.6987 84.546 26.7999C84.0403 26.901 83.5347 27.1033 83.029 27.3055H82.7256V24.7772C83.029 24.6761 83.5347 24.575 84.2426 24.4738C84.9505 24.3727 85.6584 24.2716 86.3664 24.2716C88.1867 24.2716 89.4003 24.575 90.2094 25.1818C91.0184 25.7886 91.5241 26.7999 91.4229 27.9123V34.8904H88.1867V33.9802H88.2879Z" fill="#C22027"/>
</svg>
