<svg width="160" height="21" viewBox="0 0 160 21" fill="none" xmlns="http://www.w3.org/2000/svg">
<path d="M49.52 10.88H49.7066C50.7466 10.88 51.5734 10.0533 51.5734 9.01334V7.38668C51.5734 6.42668 51.4666 5.97334 51.0934 5.46668C50.56 4.80001 49.6266 4.50668 48.72 4.50668H40.6668H37.4134V6.90668V9.68V10.88V12.08V15.0133V17.6534H40.6668H47.7334C48.9066 17.6534 50.2934 17.4934 51.0134 16.72C51.68 16 51.7066 15.44 51.7066 13.68V13.0933C51.7334 11.8933 50.7466 10.88 49.52 10.88ZM40.6934 6.90668H47.52C47.8666 6.90668 48.5866 7.04001 48.5866 7.60001V9.04001C48.5866 9.49334 47.92 9.68 47.6534 9.68H40.6934V6.90668ZM48.64 14.32C48.64 14.72 48.32 15.04 47.92 15.04H40.6934V12.1067H47.8666C48.2934 12.1067 48.64 12.4533 48.64 12.88V14.32Z" fill="#EC1C2D"/>
<path d="M67.6798 17.68H71.4132L63.8666 4.53337H60.7998L53.3866 17.68H56.7198L58.2666 14.8267H66.1598L67.6798 17.68ZM59.6532 12.2667L62.2398 7.52003L64.7732 12.2667H59.6532Z" fill="#EC1C2D"/>
<path d="M75.6266 4.53337H75.1466H74.3998H73.3866V17.68H76.3732V11.0667L76.2932 9.04003L86.5066 17.68H87.04H88.3466H88.8V4.53337H85.8132V11.1467L85.8932 13.1734L75.6266 4.53337Z" fill="#EC1C2D"/>
<path d="M105.627 17.68H95.4668C94.5602 17.68 93.5734 17.4668 93.0402 16.8267C92.5868 16.32 92.5068 15.44 92.5068 14.72V7.49337C92.5068 6.66669 92.6134 5.78669 93.1468 5.25337C93.6802 4.72003 94.6402 4.53337 95.4668 4.53337H105.627C106.534 4.53337 107.52 4.72003 108.054 5.36003C108.48 5.86669 108.587 6.77337 108.587 7.49337V14.72C108.587 15.4667 108.507 16.32 108.054 16.8267C107.52 17.4668 106.534 17.68 105.627 17.68ZM95.7602 7.17337V15.04H105.334V7.17337H95.7602Z" fill="#EC1C2D"/>
<path d="M123.573 17.68H128.186L122.293 12.8267H124.106C125.493 12.8267 126.64 11.7067 126.64 10.2933V7.04001C126.64 5.65334 125.52 4.50668 124.106 4.50668H115.653H112.4V7.01334V10.2667V12.7733V17.68H115.653V12.8267H118.24L123.573 17.68ZM115.653 7.04001H122.8C123.146 7.04001 123.413 7.30668 123.413 7.65334V9.70668C123.413 10.0533 123.146 10.32 122.8 10.32H115.653V7.04001Z" fill="#EC1C2D"/>
<path d="M129.04 4.53337V7.14669H134.933V17.68H138.186V7.14669H144.053V4.53337H138.186H134.933H129.04Z" fill="#EC1C2D"/>
<path d="M156.107 9.54669H149.947V7.06671H159.867V4.53337H149.947H146.693V7.06671V9.54669V12.08V15.0134V17.68H149.947H160V15.0134H149.947V12.08H156.107V9.54669Z" fill="#EC1C2D"/>
<path d="M17.0667 0C9.46673 0 3.30673 2 3.30673 4.48C3.30673 6.56 7.60007 8.29334 13.4401 8.8L15.8401 1.41333L16.2667 8.93334C16.5334 8.93334 16.8001 8.93334 17.0934 8.93334C24.6934 8.93334 30.8534 6.93332 30.8534 4.45332C30.8268 2.02666 24.6668 0 17.0667 0Z" fill="#EC1C2D"/>
<path d="M13.36 9.06664C5.94666 9.14664 0 11.4933 0 14.4C0 16.8533 4.21334 18.9066 9.97334 19.5466L13.36 9.06664Z" fill="#EC1C2D"/>
<path d="M16.2398 9.14668L16.8265 19.6C22.9332 19.0666 27.4664 16.9333 27.4664 14.4C27.4932 11.7867 22.6398 9.6 16.2398 9.14668Z" fill="#EC1C2D"/>
</svg>
