<svg width="92" height="28" viewBox="0 0 92 28" fill="none" xmlns="http://www.w3.org/2000/svg">
<path d="M66.2773 3.75203L58.32 18.7601C58.1185 19.0623 57.6149 19.0623 57.5142 18.7601L49.5569 3.75203C49.4561 3.55058 49.3554 3.55058 49.154 3.55058H45.3264C45.0242 3.55058 44.9235 3.85276 45.0242 4.05421L57.5142 27.4225C57.7156 27.7247 58.1185 27.7247 58.32 27.4225L70.8099 4.05421C70.9106 3.85276 70.8099 3.55058 70.5077 3.55058H66.6802C66.4787 3.55058 66.378 3.65131 66.2773 3.75203Z" fill="#1A2543"/>
<path d="M70.8099 23.8971L78.7672 8.88902C78.9687 8.58684 79.4723 8.58684 79.573 8.88902L87.5303 23.8971C87.631 24.0985 87.7318 24.0985 87.9332 24.0985H91.6601C91.9622 24.0985 92.063 23.7964 91.9622 23.5949L79.4723 0.226632C79.2708 -0.075544 78.8679 -0.075544 78.6665 0.226632L66.1765 23.5949C66.0758 23.7964 66.1765 24.0985 66.4787 24.0985H70.3063C70.5077 24.0985 70.7092 23.9978 70.8099 23.8971Z" fill="#1A2543"/>
<path d="M16.7204 14.6304C18.332 13.8246 19.44 12.0115 19.44 9.79554C19.44 6.06871 16.519 3.44984 12.3892 3.44984H0.503627C0.201451 3.44984 0 3.6513 0 3.95347V27.1203C0 27.4225 0.201451 27.6239 0.503627 27.6239H11.8856C17.5262 27.6239 20.548 25.2065 20.548 20.3717C20.4472 15.7383 16.7204 14.6304 16.7204 14.6304ZM4.43191 6.97523H11.4827C14.1015 6.97523 15.411 8.08322 15.411 10.0977C15.411 12.1122 14.1015 13.2202 11.4827 13.2202H4.43191C4.23046 13.2202 3.92829 13.0188 3.92829 12.7166V7.27741C4.02901 7.17668 4.23046 6.97523 4.43191 6.97523ZM11.5834 24.0985H4.43191C4.12974 24.0985 3.92829 23.8971 3.92829 23.5949V17.2492C3.92829 17.0478 4.12974 16.7456 4.43191 16.7456H11.5834C15.0081 16.7456 16.519 17.7528 16.519 20.3717C16.519 23.192 15.0081 24.0985 11.5834 24.0985Z" fill="#1A2543"/>
<path d="M40.9952 14.6304C42.6068 13.8246 43.7148 12.0115 43.7148 9.79554C43.7148 6.06871 40.7938 3.44984 36.664 3.44984H24.7784C24.4763 3.44984 24.2748 3.6513 24.2748 3.95347V27.1203C24.2748 27.4225 24.4763 27.6239 24.7784 27.6239H36.1604C41.801 27.6239 44.8228 25.2065 44.8228 20.3717C44.8228 15.7383 40.9952 14.6304 40.9952 14.6304ZM28.8074 6.97523H35.8582C38.4771 6.97523 39.7865 8.08322 39.7865 10.0977C39.7865 12.1122 38.4771 13.2202 35.8582 13.2202H28.8074C28.5053 13.2202 28.3038 13.0188 28.3038 12.7166V7.27741C28.3038 7.17668 28.5053 6.97523 28.8074 6.97523ZM35.8582 24.0985H28.7067C28.5053 24.0985 28.2031 23.8971 28.2031 23.5949V17.2492C28.2031 17.0478 28.4045 16.7456 28.7067 16.7456H35.8582C39.2829 16.7456 40.7938 17.7528 40.7938 20.3717C40.7938 23.192 39.2829 24.0985 35.8582 24.0985Z" fill="#1A2543"/>
</svg>
