<svg width="160" height="25" viewBox="0 0 160 25" fill="none" xmlns="http://www.w3.org/2000/svg">
<path d="M10.737 17.8C9.93422 18.8 8.73007 19.4 7.42558 19.4C5.01728 19.4 3.11072 17.5 3.11072 15C3.11072 12.5 5.01728 10.8 7.42558 10.8C8.73007 10.8 9.93422 11.4 10.737 12.3L12.6436 10.4C11.3391 8.89999 9.43249 7.89999 7.22489 7.89999C3.21106 7.89999 0 11.1 0 15.1C0 19.1 3.21106 22.2 7.22489 22.2C9.43249 22.2 11.3391 21.2 12.6436 19.7L10.737 17.8Z" fill="#044883"/>
<path d="M16.7577 8.79999H13.9481V22.3H16.7577V8.79999Z" fill="#044883"/>
<path d="M21.474 5.89999L24.2837 4.10001V8.60001H27.0933V11.2H24.2837V18.8C24.2837 18.8 24.8857 21 27.7958 18.8L27.294 21.5C27.294 21.5 26.3909 22.4 24.9861 22.3C23.5812 22.2 21.9757 21.8 21.474 19.3V11.2H19.166V8.60001H21.474V5.89999Z" fill="#044883"/>
<path d="M32.813 8.79999H30.0034V22.3H32.813V8.79999Z" fill="#044883"/>
<path d="M43.8511 8C41.3424 8 40.1383 9.70001 40.1383 9.70001V4L37.3286 5.70001V22.4H40.1383V20.8C41.5431 22.6 43.7507 22.4 43.7507 22.4C45.9583 22.5 49.3701 20.6 49.4704 15.2C49.6711 9.60001 46.3597 7.9 43.8511 8ZM43.4497 19.8C41.5431 19.8 40.1383 17.9 40.1383 17.9V12.4C42.0448 10.2 43.4497 10.7 43.4497 10.7C45.0552 10.7 46.7611 12.1 46.7611 15.2C46.7611 18.2 45.3563 19.8 43.4497 19.8Z" fill="#044883"/>
<path d="M34.7196 6.20001C32.4117 2.70001 28.4982 0 23.3805 0C19.6678 0 16.256 1.5 13.8477 4C13.8477 4 12.6436 5.30001 12.0415 6.20001H15.3529C17.4601 3.90001 19.8684 2.60001 23.3805 2.60001C26.993 2.60001 30.1037 4.50001 31.7092 6.20001H34.7196Z" fill="#DF0A14"/>
<path d="M56.595 8.20001C56.595 8.20001 54.287 8.2 51.9791 9.5L53.0829 11.4C53.0829 11.4 54.8891 10.4 56.6953 10.4C58.7022 10.4 59.4046 12.3 59.4046 12.3V14C59.4046 14 58.5015 13.2 56.2939 13.2C53.986 13.2 50.6746 14.2 50.6746 17.7C50.6746 17.7 50.5742 22.3 55.6919 22.2C55.6919 22.2 57.9998 22.3 59.4046 20.6V22.2H62.2143V12.1C62.2143 12.2 61.9133 8.30001 56.595 8.20001ZM59.4046 18.4C59.4046 18.4 57.6988 20.2 55.7922 20C53.986 19.9 53.1832 18.7 53.1832 17.6C53.1832 16.6 53.986 15.5 56.2939 15.5C58.6019 15.5 59.4046 16.3 59.4046 16.3V18.4Z" fill="#044883"/>
<path d="M64.6226 22.3H67.4323V13.3C67.4323 13.3 67.332 10.5 70.242 10.5C73.152 10.5 73.152 13.3 73.152 13.3V22.3H75.9617V12.7C75.9617 12.7 75.8613 7.99999 71.2454 7.99999C71.2454 7.99999 68.3354 7.79999 67.633 9.59999V8.29998H64.723V22.3H64.6226Z" fill="#044883"/>
<path d="M83.3873 8.20001C83.3873 8.20001 81.0793 8.2 78.7714 9.5L79.8752 11.4C79.8752 11.4 81.6814 10.4 83.4876 10.4C85.4945 10.4 86.1969 12.3 86.1969 12.3V14C86.1969 14 85.2938 13.2 83.0862 13.2C80.7783 13.2 77.4669 14.2 77.4669 17.7C77.4669 17.7 77.3665 22.3 82.4841 22.2C82.4841 22.2 84.7921 22.3 86.1969 20.6V22.2H89.0066V12.1C89.0066 12.2 88.7056 8.30001 83.3873 8.20001ZM86.1969 18.4C86.1969 18.4 84.4911 20.2 82.5845 20C80.7783 19.9 79.9755 18.7 79.9755 17.6C79.9755 16.6 80.7783 15.5 83.0862 15.5C85.3942 15.5 86.1969 16.3 86.1969 16.3V18.4Z" fill="#044883"/>
<path d="M101.55 9.99999C100.546 7.79999 98.5395 7.99999 97.837 7.99999C97.837 7.99999 95.0274 7.79999 94.3249 9.59999V8.29998H91.5153V22.4H94.2246V13.4C94.2246 13.4 94.1243 10.6 96.9339 10.6C98.3388 10.6 99.5429 11.6 99.7436 13.1V22.5H102.353V12.9C102.353 12.9 102.453 10.6 104.861 10.7C107.671 10.7 107.671 13.5 107.671 13.5V22.5H110.38V12.9C110.38 12.9 110.28 8.2 105.764 8.2C105.764 7.9 102.453 7.59999 101.55 9.99999Z" fill="#044883"/>
<path d="M124.429 16V13.9C124.429 13.9 123.927 8 118.609 8C113.29 8 112.186 12.4 112.186 14.7C112.186 17 113.19 22.2 118.308 22.2C118.308 22.2 121.619 22.3 123.325 20.5L121.82 18.7C121.82 18.7 121.017 19.7 118.308 19.7C116.2 19.7 114.695 17.5 114.996 16H124.429ZM118.408 10.4C121.719 10.4 121.82 13.9 121.82 13.9H114.996C114.896 13.9 115.096 10.5 118.408 10.4Z" fill="#044883"/>
<path d="M124.629 8.29999H127.439L130.249 12.9L132.958 8.29999H135.968L131.955 15.1L135.968 21.9H132.958L130.249 16.9L127.439 21.9H124.429L128.643 15.1L124.629 8.29999Z" fill="#044883"/>
<path d="M159.048 13.1C158.546 13 157.543 12.8 156.539 12.6C157.342 11.9 158.747 9.09999 158.747 9.09999C159.048 8.39999 158.345 7.29997 158.345 7.29997V7.2C157.141 5.4 155.235 4 153.328 3.2C153.328 3.2 152.224 2.99998 151.622 3.89998C151.321 4.29998 150.82 5.3 150.217 6.2C150.217 6.1 150.218 5.99998 150.117 5.89998C149.716 4.99998 147.508 2.7 147.508 2.7C147.006 2.2 145.702 2.49999 145.702 2.49999H145.602C143.494 3.09999 141.588 4.39998 140.183 5.89998C140.183 5.89998 139.681 6.9 140.283 7.7C140.584 8.1 141.387 8.9 141.989 9.7C141.889 9.7 141.788 9.7 141.788 9.7C140.785 9.8 137.975 11.2 137.975 11.2C137.373 11.6 137.273 12.9 137.273 12.9V13C137.173 15.1 137.875 17.4 138.979 19.2C138.979 19.2 139.782 20 140.685 19.6C141.186 19.4 142.19 19 143.093 18.5C142.892 19.7 143.193 22.4 143.193 22.4C143.294 23.1 144.498 23.7 144.498 23.7H144.598C146.605 24.5 148.913 24.7 150.92 24.4C150.92 24.4 151.923 24 151.923 22.9C151.923 22.4 151.823 21.3 151.823 20.2C151.923 20.3 151.923 20.3 152.024 20.4C152.927 20.9 156.038 21.4 156.038 21.4C156.74 21.5 157.643 20.5 157.643 20.5V20.4C158.948 18.7 159.65 16.5 159.851 14.4C160.152 14.5 160.051 13.4 159.048 13.1ZM144.598 7.79997C145.802 6.89997 147.307 6.29997 149.013 6.29997C149.415 6.29997 150.017 6.39998 150.318 6.39998C149.816 7.29998 149.314 8.09999 149.314 8.09999C149.314 8.09999 149.013 8.49999 149.013 8.99999C149.013 8.79999 148.913 8.49999 148.411 8.09999C147.609 7.59999 146.705 8.39999 145.903 8.59999C144.899 8.69999 144.297 8.59997 144.598 7.79997ZM143.595 12.3C142.892 12.9 143.394 14 143.294 14.8C143.193 15.7 142.892 16.2 142.09 15.7C141.588 14.3 141.487 12.6 141.889 11.1C141.989 10.8 142.19 10.2 142.391 9.99999C143.093 10.8 143.595 11.4 143.595 11.4C143.595 11.4 143.795 11.7 144.197 11.9C144.197 11.9 143.896 12 143.595 12.3ZM149.114 20.4C147.609 20.4 146.003 19.9 144.799 18.9C144.598 18.7 144.297 18.5 144.096 18.3C144.899 18 145.401 17.7 145.401 17.7C145.401 17.7 146.003 17.5 146.404 16.9C146.304 17.1 146.304 17.4 146.404 17.9C146.705 18.8 147.91 18.7 148.712 19.1C149.515 19.5 149.816 19.9 149.114 20.4ZM151.422 16.6C151.221 16.5 151.02 16.4 150.719 16.3C150.719 16.3 147.609 15.8 146.605 16.6C146.605 16.6 146.505 16.6 146.505 16.7C146.605 16.4 146.705 16.1 146.605 15.7C146.605 15.7 146.003 13 145 12.1C145.301 12.1 145.602 12.1 145.903 11.9C145.903 11.9 148.712 10.3 149.013 9.09999C149.013 9.49999 149.114 9.9 149.515 10.2C149.515 10.2 151.622 12.1 152.927 12.2C152.726 12.3 152.525 12.6 152.325 12.9C152.325 12.9 151.221 15.3 151.422 16.6ZM153.228 19.3C152.927 19.5 152.425 19.8 152.124 20C152.024 19 152.024 18.1 152.024 18.1C152.024 18.1 152.024 17.8 151.923 17.4C152.124 17.5 152.325 17.5 152.626 17.5C153.529 17.4 153.73 16.2 154.332 15.6C154.934 15 155.536 14.7 155.837 15.6C155.435 17 154.532 18.3 153.228 19.3ZM154.332 12.1C154.332 12.1 153.93 12 153.529 12C153.629 11.9 153.83 11.7 153.93 11.3C154.131 10.4 153.128 9.79999 152.626 9.09999C152.124 8.39999 152.224 7.7 153.027 7.7C154.332 8.6 155.335 9.79998 155.837 11.4C155.937 11.7 156.038 12.2 156.138 12.5C155.134 12.3 154.332 12.1 154.332 12.1Z" fill="#DF0A14"/>
</svg>
