<svg width="123" height="37" viewBox="0 0 123 37" fill="none" xmlns="http://www.w3.org/2000/svg">
<path d="M6.59607 36.0785H42.7745V0H6.59607V36.0785Z" fill="white"/>
<path d="M45.4729 3.09816V33.58L60.7638 18.2891L45.4729 3.09816Z" fill="#E52625"/>
<path d="M15.3908 3.09816L30.6817 18.2891L45.9726 3.09816H15.3908Z" fill="#E52625"/>
<path d="M15.2909 3.09816L0 18.2891L15.2909 33.58V3.09816Z" fill="#E52625"/>
<path d="M15.3908 33.6799H45.9726L30.6817 18.489L15.3908 33.6799Z" fill="#E52625"/>
<path d="M76.7542 19.1886H70.1582V25.5848H66.9601V10.4937H70.1582V16.6901H76.7542V10.4937H80.0523V25.5848H76.7542V19.1886Z" fill="#010202"/>
<path d="M87.9209 25.9284C84.6229 25.9284 81.9245 24.6292 81.9245 21.0313H85.2225C85.2225 22.6304 86.2219 23.6298 88.0209 23.6298C89.3201 23.6298 90.9191 22.9302 90.9191 21.4311C90.9191 20.2318 89.9197 19.932 88.2207 19.4323L87.1214 19.1325C84.7228 18.4329 82.3243 17.5334 82.3243 14.835C82.3243 11.4371 85.5224 10.3377 88.3207 10.3377C91.219 10.3377 93.8174 11.3371 93.8174 14.7351H90.5194C90.4194 13.3359 89.6199 12.5364 88.0209 12.5364C86.8216 12.5364 85.6223 13.1361 85.6223 14.5352C85.6223 15.6346 86.6217 15.9344 88.8204 16.6339L90.1196 17.0337C92.7181 17.8332 94.4171 18.7327 94.4171 21.2312C94.2172 24.6292 90.9191 25.9284 87.9209 25.9284Z" fill="#010202"/>
<path d="M101.713 23.3299C103.212 23.3299 104.711 23.0301 104.711 21.1312C104.711 19.2323 103.412 18.9325 101.813 18.9325H99.2142V23.3299H101.713ZM101.413 16.8338C102.812 16.8338 104.311 16.534 104.311 14.835C104.311 13.2359 102.912 12.8362 101.613 12.8362H99.3141V16.8338H101.413ZM96.116 10.5375H101.413C102.412 10.5375 103.412 10.5375 104.411 10.7374C106.21 11.1372 107.609 12.3365 107.609 14.4352C107.609 16.434 106.41 17.3335 104.611 17.8332C106.61 18.2329 108.209 19.2324 108.209 21.531C108.209 24.929 104.811 25.7285 102.112 25.7285H96.116V10.5375Z" fill="#010202"/>
<path d="M116.704 25.9284C111.807 25.9284 109.608 22.8302 109.608 18.2329C109.608 13.6357 112.007 10.2377 116.804 10.2377C119.802 10.2377 122.8 11.6369 122.9 15.0349H119.502C119.302 13.5358 118.303 12.7362 116.904 12.7362C113.905 12.7362 113.006 15.9343 113.006 18.3329C113.006 20.7315 113.905 23.5298 116.804 23.5298C118.303 23.5298 119.402 22.7303 119.602 21.2311H123C122.6 24.6291 119.902 25.9284 116.704 25.9284Z" fill="#010202"/>
</svg>
