<svg width="160" height="42" viewBox="0 0 160 42" fill="none" xmlns="http://www.w3.org/2000/svg">
<path d="M20.9393 11.8222C18.4346 11.8222 16.3306 12.7239 14.5272 14.4271C12.7239 16.1303 11.9224 18.3344 11.9224 20.7389C11.9224 23.2436 12.824 25.3475 14.5272 27.0507C16.3306 28.8541 18.4346 29.7558 20.9393 29.7558C23.444 29.7558 25.5479 28.8541 27.3513 27.0507C29.1547 25.3475 29.9562 23.2436 29.9562 20.7389C29.9562 18.2342 29.0545 16.1303 27.3513 14.4271C25.5479 12.7239 23.444 11.8222 20.9393 11.8222Z" fill="#1A2440"/>
<path d="M20.9393 10.2192V0C17.2323 0 13.8259 1.00189 10.6199 2.70508V18.3344C11.221 16.0301 12.4233 14.1265 14.3269 12.7239C16.3306 11.0207 18.4346 10.2192 20.9393 10.2192Z" fill="#1A2440"/>
<path d="M18.7351 31.2586C16.3306 30.6575 14.4271 29.4552 13.0244 27.5517C11.4214 25.6481 10.7201 23.5442 10.7201 21.0395H0C0 24.7464 1.00188 28.1528 2.80526 31.2586H18.7351Z" fill="#1A2440"/>
<path d="M31.3588 23.5442C30.7577 25.8485 29.5554 27.7521 27.6518 29.2549C25.7483 30.7577 23.5441 31.5592 21.0394 31.5592V41.6782C24.7464 41.6782 28.1528 40.7765 31.3588 38.9731V23.5442Z" fill="#1A2440"/>
<path d="M41.8785 20.7389C41.8785 17.0319 40.8766 13.6255 39.0733 10.5197H23.5441C25.9487 11.1208 27.8522 12.3231 29.2549 14.2267C30.8579 16.2304 31.5592 18.3344 31.5592 20.8391H41.8785" fill="#1A2440"/>
<path d="M46.6875 23.1434H50.3945V11.0207H46.6875V23.1434Z" fill="#1A2440"/>
<path d="M69.6306 11.0207H65.9236V19.737L58.8103 11.0207H52.9994V23.1434H56.8065V14.3269L63.8197 23.1434H69.6306V11.0207Z" fill="#1A2440"/>
<path d="M75.742 15.8297V13.9261H82.3544C83.0557 13.9261 83.4565 14.2267 83.4565 14.928C83.4565 15.6293 83.0557 15.9299 82.3544 15.9299H75.742V15.8297ZM75.742 18.2342H82.4546C83.3563 18.2342 83.8572 18.635 83.8572 19.2361C83.8572 19.8372 83.3563 20.1378 82.4546 20.1378H75.742V18.2342ZM85.4602 17.0319C86.0614 16.8316 86.4621 16.531 86.7627 16.2304C87.1634 15.8297 87.3638 15.1284 87.3638 14.1265C87.3638 13.0244 86.9631 12.2229 86.2617 11.6218C85.5604 11.1209 84.4584 11.0207 82.8554 11.0207H72.0351V23.1434H84.0576C85.2599 23.1434 86.1616 22.943 86.6625 22.5423C87.2636 21.9411 87.6644 21.1397 87.6644 19.9374C87.6644 18.9355 87.464 18.2342 87.1634 17.8335C86.8629 17.4327 86.2617 17.0319 85.4602 17.0319Z" fill="#1A2440"/>
<path d="M105.197 11.0207H101.49V18.0338C101.49 18.7351 101.29 19.3363 100.989 19.6368C100.689 20.0376 99.9875 20.238 99.2862 20.238H95.5792C94.7777 20.238 94.2768 20.0376 93.876 19.6368C93.5755 19.3363 93.4753 18.7351 93.4753 18.0338V11.0207H89.6681V18.8353C89.6681 20.3381 90.0689 21.4402 90.8704 22.1415C91.6719 22.943 92.9743 23.2436 94.6775 23.2436H100.088C101.791 23.2436 103.093 22.943 103.895 22.1415C104.696 21.4402 105.097 20.3381 105.097 18.8353V11.0207" fill="#1A2440"/>
<path d="M111.409 16.9318V14.0263C113.413 14.0263 115.316 14.0263 117.32 14.0263C118.322 14.0263 119.023 14.2267 119.023 15.3288C119.023 15.4289 119.023 15.6293 119.023 15.7295C119.023 16.6312 118.522 17.0319 117.621 17.0319H111.409V16.9318ZM111.409 20.0376H117.32C117.921 20.0376 118.322 20.1378 118.522 20.3381C118.723 20.5385 118.823 21.0395 118.823 21.7408V23.1434H122.53V21.0394C122.53 20.1378 122.329 19.4364 121.929 19.0357C121.628 18.7351 121.127 18.4346 120.526 18.3344C121.327 18.134 121.929 17.7333 122.229 17.3325C122.43 16.8316 122.63 16.2304 122.63 15.3288V14.6274C122.63 13.4252 122.43 12.5235 121.929 12.0225C121.327 11.3212 120.326 11.0207 118.923 11.0207H107.602V23.1434H111.409V20.0376V20.0376Z" fill="#1A2440"/>
<path d="M133.049 15.5291L129.242 15.3288C129.042 15.3288 128.741 15.1284 128.641 15.0282C128.541 14.928 128.441 14.7277 128.441 14.4271C128.441 13.826 128.942 13.4252 129.843 13.4252H133.951C134.753 13.4252 135.354 13.5254 135.554 13.6256C135.755 13.8259 135.755 14.1265 135.755 14.6274H139.461V14.2267C139.461 12.9243 139.261 12.1228 138.66 11.6218C138.059 10.9205 136.656 10.6199 134.753 10.6199H129.443C127.239 10.6199 125.836 11.0207 125.235 11.722C124.734 12.3231 124.534 13.2248 124.534 14.5273C124.534 15.4289 124.634 15.9299 124.734 16.4308C124.834 16.9318 125.135 17.2323 125.535 17.5329C126.337 18.0338 128.04 18.2342 130.845 18.2342L135.354 18.4346C135.654 18.4346 135.955 18.635 135.955 18.7352L136.155 19.3363C136.155 19.737 135.955 20.0376 135.654 20.238L134.552 20.4384H129.944L128.741 20.238C128.541 20.0376 128.341 19.6368 128.341 19.0357H124.534V19.9374C124.534 21.2399 124.934 22.0413 125.636 22.5423C126.237 22.943 127.539 23.1434 129.343 23.1434H133.851C136.356 23.1434 137.959 22.9431 138.76 22.4421C139.261 22.2417 139.562 21.841 139.762 21.34C139.962 20.8391 139.962 20.1378 139.962 19.3363C139.962 18.3344 139.862 17.7333 139.662 17.2323C139.461 16.6312 139.061 16.2304 138.66 16.0301C137.959 15.7295 136.055 15.5291 133.049 15.5291Z" fill="#1A2440"/>
<path d="M152.686 11.0207H147.777L141.165 23.1434H145.373L146.475 20.9393L147.877 18.3344L150.282 13.8259L152.686 18.3344H147.877L146.475 20.9393H154.089L155.291 23.1434H159.399L152.686 11.0207Z" fill="#1A2440"/>
<path d="M77.345 32.6613V31.7596H80.7514V34.7652C80.2505 35.166 79.6493 35.4665 79.1484 35.6669C78.5473 35.8673 78.0463 35.9675 77.4452 35.9675C76.6437 35.9675 75.9424 35.7671 75.2411 35.4665C74.5398 35.166 74.139 34.665 73.7383 33.9637C73.4377 33.3626 73.2373 32.5611 73.2373 31.7596C73.2373 30.9581 73.4377 30.2567 73.7383 29.5554C74.0388 28.8541 74.5398 28.3532 75.1409 28.0526C75.742 27.752 76.4433 27.5517 77.2448 27.5517C77.846 27.5517 78.3469 27.6519 78.8478 27.8522C79.3488 28.0526 79.6493 28.3532 79.9499 28.6537C80.2505 28.9543 80.4508 29.4553 80.551 29.9562L79.5492 30.2568C79.449 29.856 79.2486 29.5554 79.0482 29.2549C78.8478 29.0545 78.6475 28.8541 78.2467 28.6537C77.9461 28.5536 77.5454 28.4534 77.1446 28.4534C76.6437 28.4534 76.243 28.5536 75.8422 28.6537C75.4415 28.7539 75.2411 28.9543 74.9405 29.2549C74.7401 29.4552 74.5398 29.7558 74.4396 30.0564C74.2392 30.5573 74.139 31.0582 74.139 31.6594C74.139 32.3607 74.2392 32.9618 74.5398 33.4628C74.7401 33.9637 75.1409 34.2643 75.6418 34.5648C76.1428 34.7652 76.6437 34.9656 77.1446 34.9656C77.6456 34.9656 78.0463 34.8654 78.5473 34.665C78.948 34.4646 79.3488 34.2643 79.5492 34.0639V32.5611H77.345" fill="#1A2440"/>
<path d="M82.2542 35.8673V30.0563H83.1559V30.9581C83.3563 30.5573 83.5567 30.2567 83.757 30.1565C83.9574 30.0563 84.1578 29.9562 84.3582 29.9562C84.6587 29.9562 85.0595 30.0564 85.36 30.2567L85.0595 31.1584C84.8591 31.0582 84.5585 30.9581 84.3582 30.9581C84.1578 30.9581 83.9574 31.0582 83.757 31.1584C83.5567 31.2586 83.4565 31.459 83.3563 31.6594C83.2561 32.0601 83.1559 32.3607 83.1559 32.8616V35.9674H82.2542" fill="#1A2440"/>
<path d="M89.8685 35.8673V34.9656C89.3676 35.6669 88.7664 35.9675 87.9649 35.9675C87.6644 35.9675 87.2636 35.8673 86.9631 35.7671C86.6625 35.6669 86.4621 35.4665 86.2617 35.2661C86.1615 35.0658 86.0614 34.8654 85.9612 34.5648C85.9612 34.3644 85.861 34.0639 85.861 33.6631V30.0564H86.8629V33.2624C86.8629 33.7633 86.8629 34.1641 86.9631 34.2643C87.0632 34.5648 87.1634 34.7652 87.3638 34.8654C87.5642 34.9656 87.8647 35.0658 88.1653 35.0658C88.4659 35.0658 88.7664 34.9656 88.9668 34.8654C89.2674 34.665 89.3676 34.4646 89.5679 34.2643C89.6681 33.9637 89.7683 33.6631 89.7683 33.1622V30.0564H90.7702V35.8673H89.8685Z" fill="#1A2440"/>
<path d="M92.3732 38.0714V29.9562H93.2749V30.7577C93.4753 30.4571 93.7758 30.2567 93.9762 30.0563C94.2768 29.9562 94.5773 29.856 94.9781 29.856C95.479 29.856 95.8798 29.9562 96.2805 30.2567C96.6813 30.5573 96.9818 30.8579 97.1822 31.3588C97.3826 31.8597 97.4828 32.3607 97.4828 32.8616C97.4828 33.4628 97.3826 33.9637 97.1822 34.4646C96.9818 34.9656 96.6813 35.2661 96.2805 35.5667C95.8798 35.8672 95.479 35.9675 94.9781 35.9675C94.6775 35.9675 94.377 35.8673 94.0764 35.7671C93.7758 35.6669 93.5755 35.4665 93.4753 35.2661V38.0714H92.3732V38.0714ZM93.2749 32.9618C93.2749 33.7633 93.4753 34.2642 93.7758 34.665C94.0764 35.0657 94.4771 35.1659 94.8779 35.1659C95.2786 35.1659 95.6794 34.9655 95.98 34.5648C96.2805 34.164 96.4809 33.6631 96.4809 32.8616C96.4809 32.1603 96.2805 31.5592 95.98 31.1584C95.6794 30.7577 95.2786 30.5573 94.8779 30.5573C94.4771 30.5573 94.0764 30.7577 93.7758 31.1584C93.3751 31.5592 93.2749 32.1603 93.2749 32.9618Z" fill="#1A2440"/>
<path d="M98.2843 32.8616C98.2843 31.7596 98.5849 30.9581 99.186 30.4571C99.6869 30.0564 100.288 29.856 100.989 29.856C101.791 29.856 102.492 30.1565 102.993 30.6575C103.494 31.1584 103.795 31.9599 103.795 32.8616C103.795 33.6631 103.694 34.1641 103.494 34.665C103.294 35.0657 102.893 35.4665 102.492 35.6669C102.091 35.8672 101.59 36.0676 101.09 36.0676C100.288 36.0676 99.5867 35.7671 99.0858 35.2661C98.5849 34.665 98.2843 33.8635 98.2843 32.8616ZM99.2862 32.8616C99.2862 33.6631 99.4865 34.164 99.7871 34.5648C100.088 34.9655 100.488 35.1659 100.989 35.1659C101.49 35.1659 101.891 34.9655 102.192 34.5648C102.492 34.164 102.693 33.6631 102.693 32.8616C102.693 32.1603 102.492 31.5592 102.192 31.2586C101.891 30.8579 101.49 30.6575 100.989 30.6575C100.488 30.6575 100.088 30.8579 99.7871 31.2586C99.4865 31.5592 99.2862 32.1603 99.2862 32.8616Z" fill="#1A2440"/>
<path d="M108.303 35.8673V27.752H113.813V28.6537H109.405V31.1584H113.212V32.1603H109.405V35.8673H108.303Z" fill="#1A2440"/>
<path d="M115.116 28.8541H116.919V27.752H115.116V28.8541ZM115.116 35.8673H116.919V30.0564H115.116V35.8673Z" fill="#1A2440"/>
<path d="M117.621 35.8673V30.0563H118.522V30.8579C118.923 30.2567 119.624 29.856 120.426 29.856C120.827 29.856 121.127 29.9562 121.428 30.0563C121.728 30.1565 121.929 30.3569 122.129 30.5573C122.229 30.7577 122.43 30.958 122.43 31.2586C122.43 31.459 122.53 31.7596 122.53 32.2605V35.8673H121.528V32.2605C121.528 31.8597 121.528 31.5592 121.428 31.3588C121.327 31.1584 121.227 30.9581 121.027 30.8579C120.827 30.7577 120.626 30.6575 120.326 30.6575C119.925 30.6575 119.524 30.7577 119.224 31.0582C118.923 31.3588 118.723 31.8597 118.723 32.561V35.7671H117.621" fill="#1A2440"/>
<path d="M127.74 35.0657C127.339 35.3663 127.038 35.5667 126.637 35.7671C126.337 35.8673 125.936 35.9675 125.535 35.9675C124.934 35.9675 124.433 35.7671 124.033 35.4665C123.732 35.166 123.532 34.7652 123.532 34.2642C123.532 33.9637 123.632 33.7633 123.732 33.4628C123.832 33.2624 124.033 33.062 124.233 32.8616C124.433 32.7614 124.734 32.561 124.934 32.561C125.135 32.4609 125.435 32.4609 125.836 32.4609C126.637 32.3607 127.239 32.2605 127.639 32.1603C127.639 32.0601 127.639 31.9599 127.639 31.8597C127.639 31.459 127.539 31.1584 127.339 30.9581C127.038 30.7577 126.738 30.6575 126.237 30.6575C125.736 30.6575 125.435 30.7577 125.235 30.8579C125.034 31.0582 124.834 31.3588 124.734 31.7596L123.732 31.6594C123.832 31.2586 123.932 30.958 124.133 30.6575C124.333 30.3569 124.634 30.1565 125.034 30.0563C125.435 29.9562 125.836 29.856 126.337 29.856C126.838 29.856 127.239 29.9562 127.539 30.0563C127.84 30.1565 128.04 30.3569 128.24 30.4571C128.341 30.6575 128.541 30.8579 128.541 31.1584C128.541 31.3588 128.541 31.6594 128.541 32.0601V33.3626C128.541 34.2643 128.541 34.8654 128.641 35.0657C128.641 35.2661 128.741 35.5667 128.942 35.7671H127.94C127.84 35.5667 127.84 35.3663 127.74 35.0657ZM127.639 32.8616C127.239 32.9618 126.738 33.1622 126.036 33.2624C125.636 33.3626 125.335 33.3626 125.135 33.4628C124.934 33.5629 124.834 33.6631 124.734 33.7633C124.634 33.8635 124.634 34.0639 124.634 34.2642C124.634 34.5648 124.734 34.7652 124.934 34.9656C125.135 35.166 125.435 35.2661 125.836 35.2661C126.237 35.2661 126.537 35.166 126.838 34.9656C127.138 34.7652 127.339 34.5648 127.539 34.2642C127.639 34.0639 127.74 33.6631 127.74 33.2624V32.8616H127.639Z" fill="#1A2440"/>
<path d="M130.244 35.8673V30.0563H131.146V30.8579C131.547 30.2567 132.248 29.856 133.049 29.856C133.45 29.856 133.751 29.9562 134.051 30.0563C134.352 30.1565 134.552 30.3569 134.753 30.5573C134.853 30.7577 135.053 30.958 135.053 31.2586C135.053 31.459 135.153 31.7596 135.153 32.2605V35.8673H134.152V32.2605C134.152 31.8597 134.152 31.5592 134.051 31.3588C133.951 31.1584 133.851 30.9581 133.651 30.8579C133.45 30.7577 133.25 30.6575 132.949 30.6575C132.549 30.6575 132.148 30.7577 131.847 31.0582C131.547 31.3588 131.346 31.8597 131.346 32.561V35.7671H130.244" fill="#1A2440"/>
<path d="M140.363 33.6631L141.365 33.7633C141.265 34.4646 140.964 34.9656 140.564 35.3663C140.163 35.7671 139.562 35.9675 138.961 35.9675C138.159 35.9675 137.458 35.6669 137.057 35.1659C136.556 34.665 136.356 33.8635 136.356 32.9618C136.356 32.3607 136.456 31.7596 136.656 31.2586C136.857 30.7577 137.157 30.4571 137.658 30.1565C138.059 29.9562 138.56 29.7558 139.061 29.7558C139.662 29.7558 140.263 29.9562 140.664 30.2567C141.064 30.5573 141.365 31.0582 141.465 31.6594L140.463 31.7596C140.363 31.3588 140.163 31.0582 139.962 30.8579C139.762 30.6575 139.462 30.5573 139.061 30.5573C138.56 30.5573 138.159 30.7577 137.859 31.0582C137.558 31.459 137.358 31.9599 137.358 32.7614C137.358 33.5629 137.558 34.1641 137.859 34.4646C138.159 34.8654 138.56 34.9656 139.061 34.9656C139.462 34.9656 139.762 34.8654 140.063 34.5648C140.163 34.5648 140.363 34.1641 140.363 33.6631Z" fill="#1A2440"/>
<path d="M142.267 28.8541H144.07V27.752H142.267V28.8541ZM142.267 35.8673H144.07V30.0564H142.267V35.8673Z" fill="#1A2440"/>
<path d="M148.779 33.9637L149.781 34.0639C149.58 34.665 149.28 35.166 148.879 35.4665C148.478 35.7671 147.877 35.9675 147.176 35.9675C146.274 35.9675 145.673 35.6669 145.172 35.1659C144.671 34.665 144.371 33.8635 144.371 32.9618C144.371 31.9599 144.671 31.2586 145.172 30.6575C145.673 30.1565 146.374 29.856 147.176 29.856C147.977 29.856 148.579 30.1565 149.08 30.6575C149.58 31.1584 149.781 31.9599 149.781 32.8616C149.781 32.9618 149.781 32.9618 149.781 33.1622H145.373C145.373 33.7633 145.573 34.2642 145.874 34.665C146.174 34.9656 146.575 35.1659 147.076 35.1659C147.477 35.1659 147.777 35.0658 147.977 34.8654C148.478 34.665 148.679 34.3644 148.779 33.9637ZM145.473 32.3607H148.779C148.779 31.8597 148.579 31.459 148.378 31.2586C148.078 30.8579 147.677 30.6575 147.176 30.6575C146.675 30.6575 146.374 30.8579 145.974 31.1584C145.673 31.459 145.573 31.8597 145.473 32.3607Z" fill="#1A2440"/>
<path d="M151.083 35.8673V30.0563H151.985V30.9581C152.185 30.5573 152.386 30.2567 152.586 30.1565C152.786 30.0563 152.987 29.9562 153.187 29.9562C153.488 29.9562 153.889 30.0564 154.189 30.2567L153.889 31.1584C153.688 31.0582 153.388 30.9581 153.187 30.9581C152.987 30.9581 152.786 31.0582 152.586 31.1584C152.386 31.2586 152.286 31.459 152.185 31.6594C152.085 32.0601 151.985 32.3607 151.985 32.8616V35.9674H151.083" fill="#1A2440"/>
<path d="M154.49 32.8616C154.49 31.7596 154.79 30.9581 155.391 30.4571C155.892 30.0564 156.493 29.856 157.195 29.856C157.996 29.856 158.698 30.1565 159.198 30.6575C159.699 31.1584 160 31.9599 160 32.8616C160 33.6631 159.9 34.1641 159.699 34.665C159.499 35.0657 159.098 35.4665 158.698 35.6669C158.297 35.8672 157.796 36.0676 157.295 36.0676C156.493 36.0676 155.792 35.7671 155.291 35.2661C154.69 34.665 154.49 33.8635 154.49 32.8616ZM155.492 32.8616C155.492 33.6631 155.692 34.164 155.992 34.5648C156.293 34.9655 156.694 35.1659 157.195 35.1659C157.696 35.1659 158.096 34.9655 158.397 34.5648C158.698 34.164 158.898 33.6631 158.898 32.8616C158.898 32.1603 158.698 31.5592 158.397 31.2586C158.096 30.8579 157.696 30.6575 157.195 30.6575C156.694 30.6575 156.293 30.8579 155.992 31.2586C155.692 31.5592 155.492 32.1603 155.492 32.8616Z" fill="#1A2440"/>
</svg>
