<svg width="36" height="36" viewBox="0 0 36 36" fill="none" xmlns="http://www.w3.org/2000/svg">
<path fill-rule="evenodd" clip-rule="evenodd" d="M6.075 0H30.0375C31.725 0 33.075 0.562541 34.2 1.80004C35.4375 2.92504 36 4.38753 36 6.07503V30.0375C36 31.6125 35.4375 33.075 34.2 34.2C33.075 35.325 31.6125 36 30.0375 36H6.075C4.3875 36 2.925 35.4375 1.8 34.2C0.675 33.075 0 31.6125 0 30.0375V6.07503C0 4.38753 0.5625 2.92504 1.8 1.80004C3.0375 0.675041 4.5 0 6.075 0Z" fill="#312783"/>
<path fill-rule="evenodd" clip-rule="evenodd" d="M27.5625 20.475H29.475L31.8375 18H29.3625L27.5625 20.475ZM26.8875 21.0375H24.075V26.2125C24.075 27.5625 24.4125 28.6875 25.0875 29.3625C25.65 29.925 26.4375 30.2625 27.45 30.2625C28.8 30.2625 29.925 29.7 30.4875 28.6875V30.15H32.9625V21.15H30.15V26.4375C30.15 26.6625 30.15 26.8875 30.0375 27C29.7 27.7875 29.1375 28.125 28.35 28.125C27.225 28.125 26.775 27.3375 26.775 25.875V21.0375H26.8875ZM19.6875 23.9625C17.8875 23.9625 16.425 24.1875 15.525 24.8625C14.5125 25.425 14.0625 26.325 14.0625 27.45C14.0625 28.125 14.2875 28.8 14.85 29.3625C15.4125 29.925 16.2 30.15 17.1 30.15C18.3375 30.15 19.2375 29.7 19.9125 29.025H20.025V29.925H22.6125V24.6375C22.6125 23.4 22.275 22.5 21.7125 21.825C21.0375 21.0375 19.9125 20.7 18.45 20.7C16.9875 20.7 15.75 20.925 14.7375 21.6L15.3 23.4C16.0875 22.95 16.9875 22.725 18 22.725C19.125 22.725 19.6875 23.0625 19.6875 23.9625ZM12.9375 21.0375H11.25V18H8.55V21.0375H7.2V23.0625H8.4375V26.6625C8.4375 27.9 8.6625 28.8 9.225 29.3625C9.7875 29.925 10.4625 30.15 11.3625 30.15C11.925 30.15 12.4875 30.0375 12.825 29.925V27.7875C12.7125 27.9 12.6 27.9 12.2625 27.9C11.8125 27.9 11.475 27.7875 11.3625 27.45C11.25 27.225 11.1375 26.775 11.1375 26.2125V23.0625H12.825V21.0375H12.9375ZM16.65 27.225C16.65 26.1 17.775 25.65 19.8 25.7625V26.6625V27.225C19.6875 27.5625 19.4625 27.9 19.125 28.0125C18.7875 28.2375 18.45 28.4625 18 28.4625C17.1 28.4625 16.65 28.125 16.65 27.225ZM3.15 18V30.0375H5.9625V18H3.15Z" fill="#FFED00"/>
</svg>
