<svg width="54" height="42" viewBox="0 0 54 42" fill="none" xmlns="http://www.w3.org/2000/svg">
<g clip-path="url(#clip0_795_1798)">
<path d="M9.82116 41.7614V38.9812C9.82116 37.9342 9.15391 37.2297 8.07826 37.2202C7.51277 37.2108 6.92947 37.3868 6.52107 38.0084C6.21552 37.5171 5.73398 37.2202 5.05701 37.2202C4.58383 37.2202 4.12145 37.3592 3.75949 37.878V37.3303H2.79532V41.7603H3.76704V39.304C3.76704 38.535 4.19352 38.1263 4.85214 38.1263C5.49186 38.1263 5.81549 38.5434 5.81549 39.2943V41.7598H6.78938V39.3035C6.78938 38.5345 7.23394 38.1258 7.87339 38.1258C8.53119 38.1258 8.84512 38.5428 8.84512 39.2938V41.7592L9.82116 41.7614ZM24.224 37.3303H22.6487V35.9864H21.6749V37.3303H20.7763V38.2108H21.6749V40.2317C21.6749 41.2596 22.0738 41.8718 23.2134 41.8718C23.6315 41.8718 24.1131 41.7422 24.4186 41.5293L24.1403 40.7044C23.8529 40.8709 23.5379 40.9549 23.2874 40.9549C22.8058 40.9549 22.6487 40.6579 22.6487 40.2134V38.2116H24.224V37.3303ZM32.4448 37.2199C31.889 37.2199 31.5271 37.4799 31.2779 37.8691V37.3303H30.3232V41.7603H31.2866V39.277C31.2866 38.5439 31.6016 38.1366 32.2313 38.1366C32.4375 38.1336 32.6423 38.1715 32.8338 38.2481L33.1307 37.3401C32.9174 37.2561 32.6394 37.2191 32.4443 37.2191L32.4448 37.2199ZM20.0146 37.6826C19.5511 37.377 18.9125 37.2191 18.208 37.2191C17.0856 37.2191 16.363 37.7571 16.363 38.6373C16.363 39.3596 16.901 39.8053 17.8916 39.9443L18.3467 40.0091C18.8749 40.0833 19.1243 40.2223 19.1243 40.4725C19.1243 40.815 18.7734 41.0105 18.1146 41.0105C17.4473 41.0105 16.9658 40.7972 16.641 40.547L16.1884 41.2982C16.7166 41.6874 17.3839 41.8731 18.1065 41.8731C19.3859 41.8731 20.1274 41.2707 20.1274 40.4272C20.1274 39.6484 19.5438 39.2411 18.5796 39.1021L18.1256 39.0362C17.7086 38.9823 17.3744 38.8983 17.3744 38.6014C17.3744 38.2775 17.6894 38.0826 18.2179 38.0826C18.7834 38.0826 19.3308 38.2959 19.5991 38.4624L20.0162 37.6837L20.0146 37.6826ZM45.8371 37.2183C45.2813 37.2183 44.9193 37.4783 44.6691 37.8675V37.3303H43.7144V41.7603H44.6788V39.277C44.6788 38.5439 44.9938 38.1366 45.6236 38.1366C45.8297 38.1336 46.0345 38.1715 46.226 38.2481L46.5229 37.3401C46.3097 37.2561 46.0317 37.2191 45.8365 37.2191L45.8371 37.2183ZM33.4179 39.5448C33.4179 40.8887 34.3534 41.8713 35.7813 41.8713C36.4486 41.8713 36.8931 41.7228 37.3739 41.343L36.9112 40.5643C36.5495 40.8242 36.1698 40.9632 35.7506 40.9632C34.9815 40.9538 34.4161 40.3977 34.4161 39.5448C34.4161 38.6918 34.9815 38.1361 35.7506 38.1263C36.1687 38.1263 36.5485 38.2653 36.9112 38.5253L37.3739 37.7466C36.8923 37.3668 36.4478 37.2183 35.7813 37.2183C34.3534 37.2183 33.4179 38.2006 33.4179 39.5448ZM42.4447 39.5448V37.3303H41.4818V37.8702C41.1752 37.4712 40.7128 37.221 40.0826 37.221C38.8409 37.221 37.8665 38.1949 37.8665 39.5475C37.8665 40.9001 38.8404 41.8739 40.0826 41.8739C40.7128 41.8739 41.1752 41.6235 41.4818 41.2248V41.7627H42.4449V39.5464L42.4447 39.5448ZM38.8582 39.5448C38.8582 38.7661 39.3683 38.1263 40.2021 38.1263C40.999 38.1263 41.5366 38.7385 41.5366 39.5448C41.5366 40.351 40.999 40.9632 40.2021 40.9632C39.3683 40.9632 38.8579 40.3235 38.8579 39.5448H38.8582ZM27.2277 37.2186C25.9294 37.2186 25.0211 38.1633 25.0211 39.5451C25.0211 40.9538 25.9658 41.8715 27.2922 41.8715C27.9595 41.8715 28.5706 41.705 29.1083 41.2507L28.6362 40.5368C28.2648 40.8337 27.7919 41.0002 27.3473 41.0002C26.7265 41.0002 26.1613 40.7127 26.0222 39.9151H29.3118C29.3212 39.7953 29.331 39.6743 29.331 39.5448C29.3212 38.1636 28.4672 37.2183 27.2272 37.2183L27.2277 37.2186ZM27.2083 38.0823C27.8291 38.0823 28.2278 38.4716 28.3295 39.1569H26.0309C26.1337 38.5172 26.5221 38.0823 27.2086 38.0823H27.2083ZM51.3902 39.5464V35.5515H50.426V37.8702C50.1205 37.4712 49.657 37.221 49.0268 37.221C47.7851 37.221 46.8107 38.1949 46.8107 39.5475C46.8107 40.9001 47.7846 41.8739 49.0268 41.8739C49.657 41.8739 50.1205 41.6235 50.426 41.2248V41.7627H51.3902V39.5464ZM47.8024 39.5464C47.8024 38.7677 48.3125 38.128 49.1466 38.128C49.9442 38.128 50.4811 38.7401 50.4811 39.5464C50.4811 40.3527 49.9442 40.9648 49.1466 40.9648C48.3128 40.9648 47.8024 40.3251 47.8024 39.5464V39.5464ZM15.2518 39.5464V37.3303H14.2884V37.8702C13.9828 37.4712 13.5194 37.221 12.8891 37.221C11.6475 37.221 10.673 38.1949 10.673 39.5475C10.673 40.9001 11.6469 41.8739 12.8891 41.8739C13.5191 41.8739 13.9828 41.6235 14.2884 41.2248V41.7627H15.2507V39.5464H15.2518ZM11.665 39.5464C11.665 38.7677 12.1752 38.128 13.009 38.128C13.8058 38.128 14.3435 38.7401 14.3435 39.5464C14.3435 40.3527 13.8058 40.9648 13.009 40.9648C12.1752 40.9648 11.665 40.3251 11.665 39.5464ZM52.9957 41.1236C53.1143 41.1235 53.2282 41.17 53.3129 41.2531C53.3537 41.293 53.3862 41.3407 53.4084 41.3932C53.455 41.5023 53.455 41.6256 53.4084 41.7347C53.3856 41.7869 53.3532 41.8345 53.3129 41.8748C53.2715 41.9145 53.2233 41.9465 53.1706 41.9692C53.1153 41.9927 53.0558 42.0047 52.9957 42.0043C52.9349 42.0048 52.8747 41.9928 52.8186 41.9692C52.7654 41.947 52.7167 41.915 52.6753 41.8748C52.635 41.833 52.603 41.7839 52.5811 41.7301C52.5345 41.621 52.5345 41.4977 52.5811 41.3886C52.6034 41.3361 52.6359 41.2885 52.6767 41.2485C52.7175 41.2076 52.7663 41.1755 52.82 41.1541C52.876 41.1305 52.9363 41.1185 52.9971 41.119L52.9957 41.1236ZM52.9957 41.9036C53.0413 41.9041 53.0865 41.8949 53.1282 41.8766C53.1685 41.8593 53.2052 41.8345 53.2362 41.8035C53.2673 41.7726 53.2922 41.7359 53.3094 41.6955C53.3448 41.61 53.3448 41.5139 53.3094 41.4283C53.2919 41.3881 53.2671 41.3515 53.2362 41.3203C53.2051 41.2894 53.1685 41.2645 53.1282 41.2472C53.0862 41.23 53.0411 41.2213 52.9957 41.2218C52.9495 41.2214 52.9036 41.23 52.8607 41.2472C52.8196 41.2642 52.7821 41.2891 52.7503 41.3203C52.6527 41.4205 52.6244 41.5692 52.6783 41.6982C52.6947 41.7387 52.7192 41.7755 52.7503 41.8062C52.7821 41.8375 52.8196 41.8623 52.8607 41.8793C52.9034 41.8976 52.9493 41.9067 52.9957 41.9063V41.9036ZM53.0227 41.3541C53.0659 41.3514 53.1086 41.3638 53.1436 41.3892C53.1721 41.4125 53.1878 41.448 53.186 41.4847C53.1873 41.5163 53.1749 41.5469 53.152 41.5687C53.125 41.5921 53.0911 41.6063 53.0554 41.6089L53.1903 41.7627H53.0864L52.9622 41.61H52.922V41.7627H52.8351V41.3543H53.0241L53.0227 41.3541ZM52.9209 41.4305V41.5384H53.0216C53.0405 41.5387 53.0592 41.534 53.0756 41.5247C53.0889 41.5152 53.0966 41.4997 53.0958 41.4834C53.0966 41.4674 53.0889 41.4521 53.0756 41.4432C53.0594 41.4334 53.0406 41.4286 53.0216 41.4294H52.9209V41.4305Z" fill="#231F20"/>
<path d="M52.3999 27.0252V26.4883H52.6158V26.379H52.0641V26.4883H52.28V27.0252H52.3988H52.3999ZM53.4701 27.0252V26.3774H53.3014L53.1063 26.822L52.9122 26.3774H52.7429V27.0252H52.8628V26.5372L53.0453 26.9583H53.1694L53.3519 26.5361V27.0252H53.4707H53.4701Z" fill="#F79410"/>
<path d="M34.2955 29.8035H19.6965V3.56704H34.2957L34.2955 29.8035Z" fill="#FF5F00"/>
<path d="M20.6221 16.6858C20.6221 11.3638 23.114 6.62284 26.9944 3.56758C24.0572 1.25151 20.4242 -0.00552109 16.6837 1.23283e-05C7.4693 1.23283e-05 0 7.4704 0 16.6858C0 25.9013 7.4693 33.3717 16.6837 33.3717C20.4243 33.3772 24.0574 32.1202 26.9947 29.8041C23.1146 26.7494 20.6221 22.0082 20.6221 16.6858Z" fill="#EB001B"/>
<path d="M53.9913 16.6858C53.9913 25.9013 46.522 33.3717 37.3077 33.3717C33.5666 33.3771 29.9331 32.1202 26.9953 29.8041C30.8767 26.7488 33.3687 22.0082 33.3687 16.6858C33.3687 11.3635 30.8767 6.62284 26.9953 3.56758C29.9331 1.25156 33.5664 -0.00540983 37.3074 1.56232e-05C46.5217 1.56232e-05 53.9911 7.4704 53.9911 16.6858" fill="#F79E1B"/>
</g>
<defs>
<clipPath id="clip0_795_1798">
<rect width="53.9846" height="42" fill="white"/>
</clipPath>
</defs>
</svg>
