<svg fill="none" height="28" viewBox="0 0 160 28" width="160" xmlns="http://www.w3.org/2000/svg" xmlns:xlink="http://www.w3.org/1999/xlink"><mask id="a" height="28" maskUnits="userSpaceOnUse" width="28" x="0" y="0"><path d="m0 0h27.3737v27.4748h-27.3737z" fill="#fff"/></mask><g mask="url(#a)"><path d="m21.8182 13.7373c.101 4.6465-4.0404 8.1819-7.6768 8.1819h-8.68686l-5.45454 5.4545h14.1414c4.4445 0 8.7879-4.1414 8.7879-8.8889 0-1.4141-.202-3.3333-1.1111-4.6464zm-1.4142 3.5354c.5051-.9091.8081-2.0202.9091-3.1313h-4.0404c0 1.1111-.202 2.1212-.505 3.1313zm-3.8383.6061c-.6061 1.3131-1.4142 2.5252-2.5253 3.4343 2.0202 0 4.3434-.909 5.9596-3.4343zm-.5051-.6061c.404-1.0101.5051-2.0202.6061-3.1313h-5.9596c.101 1.1111.303 2.1212.606 3.1313zm-5.4545 0c-.4041-1.0101-.5051-2.0202-.5051-3.1313h-4.04039c.10101 1.1111.40404 2.1212.90909 3.1313zm3.1313 3.4344c.9091-.8081 1.6161-1.8182 2.1212-2.8283h-4.2424c.505 1.0101 1.2121 2.0202 2.1212 2.8283zm-6.36366-2.8283c1.81818 2.5253 4.04036 3.4343 6.16166 3.4343-1.1112-.8081-2.2223-2.3232-2.5253-3.4343zm9.39396-7.4748c.404 1.0101.505 2.0202.505 3.1313h4.0404c0-1.1111-.404-2.2222-.9091-3.1313zm3.2323-.70706c-1.7172-2.42424-4.0404-3.4343-5.9596-3.4343 1.1111.90909 2.0202 2.12117 2.5253 3.4343zm-8.6869.70706c-.404 1.0101-.505 2.0202-.606 3.1313h5.9596c-.101-1.1111-.3031-2.1212-.6061-3.1313zm-4.24239 0c-.50505 1.0101-.80808 2.0202-.90909 3.1313h3.93938c0-1.1111.202-2.1212.5051-3.1313zm6.66669-3.43434c-.9091.70707-1.6162 1.71718-2.1212 2.72728h4.2424c-.6061-1.0101-1.3131-2.02021-2.1212-2.72728zm-2.8283 2.72728c.505-1.31313 1.4141-2.52521 2.5252-3.4343-2.0202 0-4.34339 1.01006-6.16157 3.4343zm-5.45456 3.93946c-.90909-1.4142-1.11111-3.2324-1.11111-4.64654 0-4.84848 4.34344-8.98986 8.88887-8.98986h14.1414l-5.4545 5.55556h-8.7879c-3.43433 0-7.67676 3.53535-7.67676 8.08084z" fill="#e52d1e"/></g><g fill="#e52d1e"><path d="m108.384 15.6566c0-1.4142-.808-2.7273-2.222-2.7273-1.213 0-2.223 1.1111-2.223 2.7273 0 1.7171.808 2.7272 2.223 2.7272 1.212 0 2.222-1.1111 2.222-2.7272zm-26.6668-11.01016c-1.2122 0-2.1212.90913-2.1212 2.12125s.909 2.12118 2.1212 2.12118c1.2121 0 2.1212-.90906 2.1212-2.12118.101-1.11111-.9091-2.02024-2.1212-2.12125zm46.5658 16.36366h3.636v-5.5556c0-1.3131.909-2.2222 2.02-2.2222 1.213 0 2.021.8081 2.021 2.2222v5.5556h3.636v-6.5657c0-2.4242-1.515-4.54542-4.444-4.54542-1.314 0-2.526.50502-3.334 1.51512h-.101v-1.2121h-3.333v10.8081zm13.636 0h3.738v-5.0505l3.333 5.0505h4.141l-4.04-5.7576 3.939-5.1515h-4.141l-3.232 4.4444v-8.88886h-3.738zm-85.9594-10.6061c-.9091-.303-1.8182-.40404-2.7273-.40404-3.3333 0-5.9596 2.12124-5.9596 5.65664 0 3.2323 2.2222 5.6565 5.7576 5.6565 1.0101 0 1.9192-.202 2.8283-.404l-.202-3.1313c-.6061.404-1.2122.505-1.9192.505-1.4142.101-2.5253-1.0101-2.6263-2.4242v-.202c0-1.4142 1.1111-2.6263 2.5253-2.6263h.202c.7071 0 1.3131.202 1.8182.505zm33.3333 5.1515c0 1.8182 1.0101 2.9293 2.3233 2.9293 1.1111 0 2.3232-1.1111 2.3232-2.8282 0-1.7172-1.0101-2.8283-2.3232-2.8283-1.3132 0-2.3233 1.2121-2.3233 2.7272zm28.2831 0c0 1.8182 1.01 2.9293 2.323 2.9293 1.111 0 2.323-1.1111 2.323-2.8282 0-1.7172-1.01-2.8283-2.323-2.8283-1.414 0-2.323 1.2121-2.323 2.7272zm-82.3235 5.0505c1.4142.4041 2.9293.6061 4.3435.6061 3.2323 0 6.4646-1.1111 6.4646-4.6465 0-4.8485-6.6667-4.1414-6.6667-6.1616 0-1.01007 1.0101-1.21211 2.0202-1.21211 1.2122.10101 2.4243.40403 3.5354.80807l.404-3.33332c-1.2121-.40404-2.5252-.50505-3.8383-.50505-3.2324 0-6.2627 1.21215-6.2627 4.44451 0 4.8484 6.6667 3.7373 6.6667 6.2626 0 1.0101-1.0101 1.3131-2.2222 1.3131-1.7172 0-3.2324-.8081-3.9394-1.1111zm42.8283-2.5252c-.404.101-.7071.202-1.0101.202-.8081 0-1.5151-.505-1.6162-1.4141v-.3031-3.6363h2.3233v-2.7273h-2.3233v-3.53536h-3.7373v3.43436h-1.7172v2.7273h1.7172v4.2424c0 2.3232 1.1111 4.0404 3.9394 4.0404.707 0 1.4141 0 2.1212-.202zm-14.8485.404c1.5152 0 2.4243-1.3131 2.4243-2.9293 0-1.6161-.9091-3.0303-2.4243-3.0303-1.6161 0-2.4242 1.3131-2.4242 3.0303s.9091 2.9293 2.4242 2.9293zm36.7677 2.5253v-15.35356h3.737v5.25256c1.01-.7071 2.122-1.01012 3.334-1.01012 2.929 0 5.151 2.32322 5.151 5.45452 0 3.9394-2.424 5.8586-5.151 5.8586-2.02 0-3.132-1.0101-3.334-1.2121v1.0101zm-20.101 0h3.8384v-10.8081h-3.8384zm17.7778-10.8081v10.8081h-3.6364v-1.1111h-.101c-.404.404-1.2121 1.3131-3.6364 1.3131-2.6262 0-4.9495-2.2222-4.9495-5.6566 0-3.1313 2.0202-5.65652 5.1515-5.65652 2.1213 0 2.9293.90912 3.3334 1.21212h.101v-1.0101zm28.2832 0v10.8081h-3.637v-1.1111h-.101c-.404.404-1.212 1.3131-3.636 1.3131-2.626 0-4.95-2.2222-4.95-5.6566 0-3.1313 2.021-5.65652 5.152-5.65652 2.121 0 2.929.90912 3.333 1.21212h.101v-1.0101zm-62.7277 11.1111c-3.6363 0-6.2626-2.2222-6.2626-5.6565 0-3.4344 2.7273-5.65664 6.2626-5.65664 3.5354 0 6.2626 2.22224 6.2626 5.65664 0 3.3333-2.7272 5.6565-6.2626 5.6565z"/><path d="m157.374 7.27276h.404c.101 0 .202-.00003.303-.10104s.101-.20201.101-.30302 0-.20201-.101-.30302-.202-.10105-.303-.10105h-.404zm-.505-1.0101v-.10104s.101-.10099.202-.10099h.606c.101 0 .303-.00002.404.10099.202.10101.404.30305.404.40406v.30302c0 .20202 0 .30305-.101.40406s-.303.30302-.404.30302c.101.10101.202.20198.303.404.101.10101.202.20207.303.30308l.101.10099v.10099c0 .10101 0 .10102-.101.20203h-.101c-.101 0-.101.00002-.202-.10099s-.202-.20204-.303-.40406-.202-.30303-.404-.50505h-.202v.90911.20203s-.101 0-.202 0c0 0-.101 0-.202 0 0 0 0-.10102 0-.20203zm2.727 1.21207c0-.20202 0-.505-.101-.70702s-.202-.40407-.404-.60609-.404-.40401-.606-.40401c-.303-.10101-.505-.20203-.808-.20203s-.606.00001-.808.20203c-.202.10101-.404.20199-.606.40401-.101.20202-.303.40407-.404.60609-.202.40404-.202.90906 0 1.41411.101.20202.202.40407.404.60609s.404.40401.606.40401c.303.10101.505.20203.808.20203s.606-.00001.808-.20203c.202-.10101.404-.303.606-.40401.101-.20202.303-.40407.404-.60609 0-.20202.101-.50507.101-.70709zm.404 0c0 .30303 0 .60611-.101.80813-.101.30303-.202.50501-.404.70703s-.404.40404-.707.50505-.707.20203-1.01.20203c-.404 0-.707-.00001-1.01-.20203-.303-.10101-.505-.30303-.707-.50505s-.303-.50501-.404-.70703c-.202-.50505-.202-1.11112 0-1.71718.101-.30303.202-.50506.404-.70708s.404-.40404.707-.50505c.707-.30303 1.414-.30303 2.02 0 .303.10101.505.30303.707.50505s.303.50506.404.70708c0 .30303.101.60602.101.90905z"/></g></svg>