<svg width="68" height="42" viewBox="0 0 68 42" fill="none" xmlns="http://www.w3.org/2000/svg">
<path fill-rule="evenodd" clip-rule="evenodd" d="M0 0V42H67.1254V0H0Z" fill="#1D5B99"/>
<path fill-rule="evenodd" clip-rule="evenodd" d="M66.3403 0.784302V41.216H0.784676V0.784302H66.3403V0.784302Z" fill="white"/>
<path fill-rule="evenodd" clip-rule="evenodd" d="M64.2515 39.4547V2.74582H2.7408V39.4547H64.2515Z" fill="#1D5B99"/>
<path fill-rule="evenodd" clip-rule="evenodd" d="M19.5742 24.9219C26.0952 22.1266 35.2465 19.5935 47.3646 22.1302L47.492 19.0568C34.7058 17.6604 25.5312 21.7326 19.5742 24.6184V24.9219Z" fill="#E7A83A"/>
<path fill-rule="evenodd" clip-rule="evenodd" d="M7.80046 27.1816H13.9462V29.0333H10.1276L10.1021 30.743H13.9074V32.5175H10.0892L10.1028 34.2272H13.869V36.0785H7.80261L7.80046 27.1816ZM15.4897 26.4353H17.7268L17.7346 36.0785H15.4976L15.4897 26.4353ZM25.4225 35.3455C24.664 35.9881 23.5069 36.3099 22.4779 36.3099C20.1253 36.3099 19.0579 34.6387 19.0579 32.98C19.0579 31.0257 20.5235 29.3677 22.5421 29.3677C25.0106 29.3677 25.782 31.1161 25.782 33.3402H21.2953C21.2953 33.8418 21.6168 34.69 22.851 34.69C23.6353 34.69 24.0723 34.4586 24.6769 34.0474L25.4225 35.3455V35.3455ZM23.7767 32.0289C23.7767 31.3604 23.4552 30.7555 22.7096 30.7555C22.0025 30.7555 21.4625 31.3855 21.3211 32.0289H23.7767ZM32.5713 35.6415C31.9542 36.0269 30.9385 36.3099 30.1926 36.3099C28.1356 36.3099 26.657 35.127 26.657 32.9933C26.657 30.8075 28.1227 29.3677 30.3343 29.3677C31.1057 29.3677 32.0314 29.6117 32.5326 29.9332L31.8129 31.3985C31.4785 31.2575 31.1182 31.1412 30.7584 31.1412C29.64 31.1412 28.8941 31.8104 28.8941 32.877C28.8941 33.8034 29.6142 34.5357 30.5657 34.5357C30.9898 34.5357 31.4142 34.3431 31.7741 34.1629L32.5713 35.6415V35.6415ZM33.398 29.5988H34.4087L34.4012 27.3997H36.5611L36.5098 29.5988H38.3486L38.3095 31.2191H36.4714C36.4714 32.1189 36.4068 33.0704 36.4068 33.6233C36.4068 34.1888 36.5485 34.4586 37.0501 34.4586C37.3583 34.4586 37.6156 34.3043 37.8728 34.1504L38.3611 35.6677C37.7053 36.0663 36.9084 36.3103 36.1496 36.3103C34.3366 36.3103 34.2469 35.1661 34.2469 33.6746C34.2469 32.877 34.3108 32.0805 34.3108 31.2191H33.3467L33.398 29.5988V29.5988ZM39.4928 29.5988H41.7302V30.5119H41.7553C42.0897 29.959 42.5267 29.4187 43.4014 29.4187C43.6454 29.4187 43.9023 29.4445 44.1344 29.4958L43.8388 31.7074C43.6203 31.6428 43.3756 31.5786 43.0412 31.5786C42.2956 31.5786 41.7169 32.2086 41.7169 32.3374L41.6785 36.0789H39.4418L39.4928 29.5988ZM48.1873 29.3674C50.5783 29.3674 51.8129 30.8847 51.8129 32.8383C51.8129 34.7926 50.5783 36.3099 48.1873 36.3099C45.7956 36.3099 44.561 34.7926 44.561 32.8383C44.5607 30.8847 45.7956 29.3674 48.1873 29.3674V29.3674ZM48.1873 34.6125C49.254 34.6125 49.5755 33.6868 49.5755 32.8383C49.5755 31.9898 49.254 31.0648 48.1873 31.0648C47.1199 31.0648 46.7985 31.9898 46.7985 32.8383C46.7985 33.6868 47.1199 34.6125 48.1873 34.6125ZM53.0289 29.5988H55.2656V30.306C55.7801 29.8051 56.564 29.3677 57.3616 29.3677C58.7372 29.3677 59.4828 30.1258 59.4828 31.9004C59.4828 33.2247 59.4702 34.6516 59.4577 36.0789H57.2202C57.2328 34.8314 57.2461 33.5717 57.2461 32.2344C57.2461 31.7074 57.1044 31.2962 56.4359 31.2962C56.0757 31.2962 55.5612 31.6044 55.2656 31.8875L55.2537 36.0789H52.9768L53.0289 29.5988V29.5988ZM26.2025 16.2507L29.0297 6.93184H31.5513L28.7244 16.2507H26.2025ZM25.0755 6.93399L22.8069 10.8843C22.2296 11.9197 21.8916 12.4421 21.7294 13.0959H21.6953C21.7352 12.267 21.6196 11.2499 21.6089 10.6744L21.3584 6.93399H17.1132L17.0691 7.18514C18.1598 7.18514 18.8067 7.73266 18.985 8.85352L19.8124 16.2507H22.4251L27.7079 6.93399H25.0755ZM44.687 16.2507L44.6177 14.865L41.4693 14.8629L40.8253 16.2511H38.0874L43.0509 6.94978H46.4117L47.2527 16.2511H44.687V16.2507ZM44.3982 10.754C44.3695 10.0652 44.3461 9.1305 44.3931 8.56433H44.3558C44.2023 9.02753 43.5428 10.416 43.2529 11.0995L42.3147 13.1418H44.5262L44.3982 10.754V10.754ZM34.1985 16.5162C32.4185 16.5162 31.2366 15.9511 30.3931 15.4474L31.594 13.6132C32.3514 14.037 32.9463 14.5253 34.314 14.5253C34.7549 14.5253 35.178 14.4112 35.4184 13.9943C35.7696 13.3879 35.3376 13.0621 34.3531 12.5042L33.8669 12.1878C32.4063 11.19 31.7741 10.2428 32.4616 8.58801C32.9022 7.52994 34.0618 6.72733 35.9763 6.72733C37.2959 6.72733 38.5341 7.29816 39.2545 7.85608L37.8739 9.47566C37.1696 8.90662 36.5866 8.61887 35.9189 8.61887C35.3871 8.61887 34.9828 8.8241 34.8432 9.10108C34.5806 9.62205 34.9279 9.97581 35.6953 10.453L36.2741 10.8211C38.0468 11.9388 38.4688 13.1113 38.0253 14.2077C37.2604 16.0943 35.7642 16.5162 34.1985 16.5162V16.5162Z" fill="white"/>
</svg>
