<svg width="150" height="53" viewBox="0 0 150 53" fill="none" xmlns="http://www.w3.org/2000/svg">
<path d="M82.4262 21.693C83.067 22.1309 84.0275 22.4584 84.9893 22.4584C86.484 22.4584 87.3379 21.693 87.3379 20.4909C87.3379 19.3993 86.6971 18.8508 85.2025 18.1945C83.3867 17.5382 82.2131 16.5544 82.2131 14.9144C82.2131 13.1651 83.7078 11.8525 85.8445 11.8525C87.0195 11.8525 87.7655 12.0709 88.2997 12.3997L87.8721 13.6031C87.5524 13.3848 86.8063 13.056 85.7366 13.056C84.242 13.056 83.6012 14.0397 83.6012 14.8052C83.6012 15.8968 84.242 16.4453 85.8432 16.9924C87.7642 17.7579 88.6063 18.6325 88.6063 20.3831C88.6063 22.1336 87.3248 23.6632 84.7643 23.6632C83.6986 23.6632 82.5223 23.3357 81.8828 22.8977L82.417 21.6943" fill="#02797E"/>
<path d="M91.6148 19.6035C91.6148 21.5711 92.8964 22.4336 94.3779 22.4336C95.1469 22.449 95.9105 22.2998 96.62 21.9956L96.8331 23.0737C96.2989 23.292 95.445 23.6208 94.1621 23.6208C91.7069 23.6208 90.2109 21.9807 90.2109 19.4647C90.2109 16.9487 91.7201 15.0216 93.9635 15.0216C96.5265 15.0216 97.2739 17.4271 97.2739 18.8488V19.6143H91.6162M95.8871 18.6305C95.8871 17.6468 95.4595 16.225 93.8582 16.225C92.3635 16.225 91.7227 17.6468 91.6162 18.6305H95.8871ZM104.854 23.2125C104.426 23.4308 103.572 23.6505 102.505 23.6505C100.05 23.6505 98.5541 22.0104 98.5541 19.4944C98.5541 16.9783 100.262 15.1199 102.825 15.1199C103.68 15.1199 104.426 15.3383 104.854 15.5579L104.534 16.636C104.214 16.4177 103.679 16.1981 102.826 16.1981C101.011 16.1981 99.9317 17.6198 99.9317 19.369C99.9317 21.2288 101.107 22.4309 102.695 22.4309C103.55 22.4309 104.083 22.2125 104.51 21.9929L104.83 23.1963M113.183 21.2422L113.288 23.4295H112.006L111.901 22.1169C111.581 22.7732 110.62 23.6478 109.23 23.6478C107.949 23.6478 106.467 22.8823 106.467 20.0388V15.2278H107.962V19.7113C107.962 21.2422 108.496 22.3365 109.777 22.3365C110.738 22.3365 111.485 21.6802 111.698 20.9148C111.804 20.6965 111.804 20.4768 111.804 20.1493V15.1186H113.298V21.2422M115.638 17.8503L115.533 15.3356H116.814L116.919 16.9756C117.239 15.8975 118.201 15.2264 119.161 15.2264H119.589V16.6482H119.055C118.002 16.6482 117.347 17.4136 117.134 18.5079V23.6464H115.64V17.8516M121.831 13.8181C121.297 13.8181 120.871 13.3801 120.871 12.8344C120.871 12.5734 120.972 12.3232 121.152 12.1387C121.332 11.9542 121.576 11.8506 121.831 11.8506C122.086 11.8506 122.33 11.9542 122.51 12.1387C122.69 12.3232 122.792 12.5734 122.792 12.8344C122.792 13.3801 122.472 13.8181 121.831 13.8181ZM122.578 23.5507H121.19V15.349H122.685V23.5507H122.578ZM126.741 13.3815V15.349H128.877V16.4272H126.741V20.9107C126.741 21.8945 127.061 22.5508 127.794 22.5508C128.222 22.5508 128.435 22.5508 128.649 22.443L128.755 23.5211C128.435 23.6289 128.007 23.7394 127.473 23.7394C127.176 23.7479 126.881 23.694 126.606 23.5811C126.331 23.4682 126.081 23.2988 125.872 23.0831C125.444 22.6451 125.338 21.8797 125.338 20.8959V16.4123H124.056V15.3342H125.338V13.8033L126.726 13.3653M131.225 15.3504L132.933 20.1614C133.146 20.7086 133.361 21.3649 133.468 21.8015C133.573 21.3635 133.787 20.7234 134.002 20.0523L135.603 15.2412H137.098L134.856 21.1466C133.803 23.9766 133.148 25.4118 132.093 26.2864C131.345 26.9427 130.704 27.1624 130.277 27.2702L129.957 26.0668C130.277 25.959 130.812 25.7393 131.239 25.3013C131.666 24.9738 132.094 24.4254 132.414 23.6612C132.519 23.5534 132.519 23.4429 132.519 23.3338C132.519 23.2246 132.519 23.1155 132.414 23.0063L129.424 15.4595H131.24" fill="#02797E"/>
<path d="M82.4262 38.6461C83.067 39.0841 84.0275 39.4115 84.9893 39.4115C86.484 39.4115 87.3379 38.6461 87.3379 37.444C87.3379 36.3524 86.6971 35.8039 85.2025 35.1476C83.3867 34.4913 82.2131 33.5076 82.2131 31.8675C82.2131 30.1183 83.7078 28.8057 85.8445 28.8057C87.0195 28.8057 87.7655 29.024 88.2997 29.3528L87.8721 30.5562C87.5524 30.3379 86.8063 30.0091 85.7366 30.0091C84.242 30.0091 83.6012 30.9929 83.6012 31.7583C83.6012 32.8499 84.242 33.3984 85.8432 33.9455C87.7642 34.711 88.6063 35.5856 88.6063 37.3362C88.6063 39.0868 87.3248 40.6163 84.7643 40.6163C83.6986 40.6163 82.5223 40.2889 81.8828 39.8509L82.417 38.6474" fill="#02797E"/>
<path d="M92.3562 30.3342V32.3017H94.4772V33.3798H92.3417V37.7542C92.3417 38.738 92.6614 39.3943 93.3943 39.3943C93.8219 39.3943 94.0351 39.3943 94.2495 39.2865L94.3548 40.3646C94.0351 40.4724 93.6074 40.5829 93.0733 40.5829C92.7767 40.5914 92.4817 40.5375 92.2063 40.4246C91.9309 40.3117 91.6809 40.1422 91.472 39.9266C91.0444 39.4886 90.9378 38.7232 90.9378 37.7394V33.2828H89.6562V32.2047H90.9378V30.6738L92.3259 30.3463M101.74 38.5493C101.74 39.3148 101.74 39.9711 101.845 40.5169H100.564L100.459 39.5331C100.031 40.1894 99.177 40.7365 98.0034 40.7365C96.4021 40.7365 95.5482 39.5331 95.5482 38.331C95.5482 36.3635 97.256 35.2692 100.353 35.2692V35.0509C100.353 34.3946 100.14 33.0833 98.5376 33.1911C97.7902 33.1911 97.0429 33.4094 96.4021 33.8474L96.0824 32.8637C96.7231 32.4257 97.6836 32.2074 98.7533 32.2074C101.209 32.2074 101.849 33.9566 101.849 35.598V38.5628M100.355 36.3756C98.7533 36.3756 96.9376 36.5939 96.9376 38.2353C96.9376 39.2191 97.5784 39.6571 98.3257 39.6571C99.3783 39.6571 100.034 39.0008 100.247 38.2353C100.247 38.1275 100.352 37.9079 100.352 37.7973L100.355 36.3756ZM104.101 34.4889L103.995 32.3017H105.277L105.382 33.6143C105.81 32.8488 106.664 32.0834 108.053 32.0834C109.106 32.0834 110.948 32.7397 110.948 35.5832V40.4926H109.437V35.7759C109.437 34.4633 108.903 33.3704 107.621 33.3704C106.661 33.3704 105.914 34.0267 105.701 34.9013C105.595 35.1196 105.595 35.3393 105.595 35.5576V40.4926H104.101V34.4781M120.222 28.4609V38.4132C120.222 39.1787 120.222 39.9441 120.328 40.4913H119.046L118.941 39.0695C118.513 39.9455 117.553 40.7096 116.27 40.7096C114.349 40.7096 112.853 39.0695 112.853 36.5535C112.853 33.8178 114.561 32.1791 116.484 32.1791C117.766 32.1791 118.513 32.7262 118.94 33.3825V28.4609H120.221M118.726 35.5697C118.726 35.3514 118.726 35.1317 118.621 34.9134C118.529 34.4079 118.263 33.9531 117.871 33.632C117.479 33.3109 116.987 33.1448 116.486 33.1642C114.991 33.1642 114.031 34.4768 114.031 36.3352C114.031 37.9752 114.886 39.397 116.379 39.397C117.34 39.397 118.195 38.7407 118.515 37.6478C118.62 37.4294 118.62 37.2098 118.62 36.9915V35.5697H118.726ZM128.338 38.5345C128.338 39.3 128.338 39.9563 128.443 40.502H127.162L127.056 39.5183C126.629 40.1746 125.775 40.7217 124.601 40.7217C123 40.7217 122.146 39.5183 122.146 38.3162C122.146 36.3486 123.854 35.2544 126.951 35.2544V35.036C126.951 34.3797 126.738 33.0685 125.135 33.1763C124.388 33.1763 123.641 33.3946 123 33.8326L122.68 32.8488C123.321 32.4109 124.282 32.1925 125.351 32.1925C127.806 32.1925 128.447 33.9418 128.447 35.5832V38.548M126.845 36.3486C125.243 36.3486 123.428 36.567 123.428 38.2084C123.428 39.1921 124.068 39.6301 124.816 39.6301C125.868 39.6301 126.524 38.9738 126.737 38.2084C126.737 38.1006 126.842 37.8809 126.842 37.7704L126.845 36.3486ZM130.687 34.8191L130.581 32.3044H131.863L131.968 33.9445H132.073C132.393 32.8664 133.355 32.1952 134.315 32.1952H134.743V33.617H134.209C133.156 33.617 132.501 34.3824 132.288 35.4767V40.6274H130.792L130.687 34.8325M142.857 28.4744V38.4267C142.857 39.1921 142.857 39.9576 142.963 40.5047H141.681L141.576 39.083C141.148 39.9589 140.188 40.7231 138.813 40.7231C136.892 40.7231 135.396 39.083 135.396 36.567C135.396 33.8313 136.997 32.1925 139.027 32.1925C140.309 32.1925 141.056 32.7397 141.482 33.396V28.4744H142.87M141.482 35.5832C141.482 35.3649 141.482 35.1452 141.377 34.9269C141.269 34.4299 140.998 33.9857 140.61 33.6677C140.221 33.3496 139.739 33.1767 139.242 33.1777C137.747 33.1777 136.893 34.4902 136.893 36.3486C136.893 37.9887 137.748 39.4105 139.242 39.4105C140.202 39.4105 141.163 38.7542 141.377 37.6612C141.377 37.4429 141.482 37.2233 141.482 37.0049V35.5832ZM145.101 38.9738C145.528 39.3013 146.276 39.521 147.022 39.521C148.074 39.521 148.516 38.9738 148.516 38.3175C148.516 37.5521 148.089 37.2394 147.022 36.7866C145.527 36.2395 144.886 35.474 144.886 34.4903C144.886 33.1777 145.939 32.0847 147.649 32.0847C148.504 32.0847 149.144 32.303 149.57 32.6319L149.25 33.71C148.931 33.4917 148.395 33.272 147.649 33.272C146.794 33.272 146.368 33.8191 146.368 34.3501C146.368 35.0064 146.795 35.3339 147.862 35.7719C149.25 36.319 149.998 36.9753 149.998 38.2865C149.998 39.7083 148.945 40.8012 147.008 40.8012C146.153 40.8012 145.301 40.5829 144.766 40.2541L145.086 38.9415" fill="#02797E"/>
<path d="M75.9884 33.0957L17.1468 52.009L0 4.20033L61.7726 0.672852L75.9884 33.0957Z" fill="#02797E"/>
<path d="M31.5084 23.4894C31.5084 24.6902 31.2153 25.741 30.7024 26.7167C30.1894 27.6173 29.4567 28.4429 28.5041 29.0433C27.5515 29.6437 26.379 30.094 25.06 30.3942C23.741 30.6945 22.2755 30.8446 20.5901 30.8446H19.4177V36.9989H11.7969V16.5095H20.7367C24.1074 16.5095 26.7454 17.1099 28.6506 18.2357C30.5558 19.3615 31.5084 21.1627 31.5084 23.4894ZM24.1807 23.5644C24.1807 21.7632 22.8617 20.8625 20.297 20.8625H19.3444V26.3414H20.2237C21.4695 26.3414 22.4953 26.1162 23.1548 25.6659C23.8143 25.2907 24.1807 24.5401 24.1807 23.5644ZM50.4139 36.9989C49.2415 37.2241 47.9225 37.3742 46.3837 37.3742C44.2586 37.3742 42.3534 37.149 40.7413 36.6236C39.056 36.0983 37.6637 35.4228 36.4913 34.5221C35.3188 33.6215 34.4395 32.4957 33.8533 31.2198C33.2671 29.8689 32.974 28.4429 32.974 26.8668C32.974 25.2907 33.2671 23.8646 33.9266 22.5137C34.5959 21.2102 35.5186 20.0609 36.6378 19.1363C37.8103 18.2357 39.2025 17.4852 40.8146 16.9598C42.4267 16.4344 44.1854 16.2093 46.0906 16.2093C47.5561 16.2093 48.9484 16.2843 50.1941 16.5095C51.4398 16.8097 51.4398 16.8097 52.3924 17.1849V22.6638C51.6596 22.2135 50.7803 21.8382 49.8277 21.6131C48.8751 21.3129 47.8492 21.1627 46.8233 21.1627C45.0647 21.1627 43.6724 21.6881 42.5733 22.5888C41.4741 23.5644 40.9612 24.9154 40.9612 26.7917C40.9612 27.6923 41.1077 28.5179 41.4741 29.2684C41.8405 29.9439 42.2802 30.5444 42.8664 30.9947C43.4526 31.445 44.1121 31.8202 44.9181 32.0454C45.7242 32.2706 46.5302 32.4207 47.4096 32.4207C48.2889 32.4207 49.2415 32.3456 50.1208 32.1205C51.0001 31.8953 51.9527 31.6701 52.9053 31.2198V36.3985L50.4139 36.9989ZM56.0563 16.5095H63.7504V37.0739H56.0563V16.5095ZM64.5564 10.0549C64.5564 11.4059 64.1167 12.5317 63.2374 13.2822C62.3581 14.0327 61.2589 14.483 59.9399 14.483C58.621 14.483 57.5218 14.1078 56.6425 13.2822C55.7631 12.5317 55.3235 11.4059 55.3235 10.0549C55.3235 8.62892 55.7631 7.57818 56.6425 6.7526C57.5218 5.92702 58.621 5.55176 59.9399 5.55176C61.2589 5.55176 62.3581 5.92702 63.2374 6.7526C64.1167 7.50313 64.5564 8.62892 64.5564 10.0549Z" fill="white"/>
</svg>
