<svg width="35" height="35" viewBox="0 0 35 35" fill="none" xmlns="http://www.w3.org/2000/svg">
<path fill-rule="evenodd" clip-rule="evenodd" d="M19.981 3.83388C18.8165 2.03433 16.1835 2.03433 15.019 3.83388C14.259 5.00831 12.7796 5.48898 11.4745 4.98557C9.47452 4.2142 7.34441 5.76183 7.46001 7.90221C7.53546 9.29906 6.62118 10.5574 5.26938 10.9173C3.19804 11.4688 2.38441 13.9729 3.73602 15.6365C4.6181 16.7223 4.6181 18.2777 3.73602 19.3635C2.38441 21.0271 3.19804 23.5312 5.26938 24.0827C6.62118 24.4426 7.53546 25.701 7.46001 27.0978C7.34441 29.2382 9.47452 30.7858 11.4745 30.0144C12.7796 29.511 14.259 29.9917 15.019 31.1661C16.1835 32.9657 18.8165 32.9657 19.981 31.1661C20.741 29.9917 22.2204 29.511 23.5255 30.0144C25.5254 30.7858 27.6556 29.2382 27.5399 27.0978C27.4645 25.701 28.3788 24.4426 29.7306 24.0827C31.8019 23.5312 32.6155 21.0271 31.2639 19.3635C30.3819 18.2777 30.3819 16.7223 31.2639 15.6365C32.6155 13.9729 31.8019 11.4688 29.7306 10.9173C28.3788 10.5574 27.4645 9.29906 27.5399 7.90221C27.6556 5.76183 25.5254 4.2142 23.5255 4.98557C22.2204 5.48898 20.741 5.00831 19.981 3.83388ZM16.383 13.4043C16.383 15.4606 14.7159 17.1277 12.6596 17.1277C10.6032 17.1277 8.93616 15.4606 8.93616 13.4043C8.93616 11.3479 10.6032 9.68085 12.6596 9.68085C14.7159 9.68085 16.383 11.3479 16.383 13.4043ZM14.1489 13.4042C14.1489 14.2268 13.4821 14.8936 12.6596 14.8936C11.837 14.8936 11.1702 14.2268 11.1702 13.4042C11.1702 12.5817 11.837 11.9149 12.6596 11.9149C13.4821 11.9149 14.1489 12.5817 14.1489 13.4042ZM22.3405 25.3191C24.3968 25.3191 26.0639 23.6521 26.0639 21.5957C26.0639 19.5393 24.3968 17.8723 22.3405 17.8723C20.2841 17.8723 18.6171 19.5393 18.6171 21.5957C18.6171 23.6521 20.2841 25.3191 22.3405 25.3191ZM22.3404 23.0851C23.163 23.0851 23.8298 22.4183 23.8298 21.5958C23.8298 20.7732 23.163 20.1064 22.3404 20.1064C21.5179 20.1064 20.8511 20.7732 20.8511 21.5958C20.8511 22.4183 21.5179 23.0851 22.3404 23.0851ZM20.657 11.1702C20.3158 11.1702 20.0001 11.3508 19.8272 11.6448L13.5131 22.3788C13.1355 23.0206 13.5983 23.8298 14.3429 23.8298C14.6841 23.8298 14.9998 23.6492 15.1728 23.3551L21.4869 12.6212C21.8644 11.9793 21.4017 11.1702 20.657 11.1702Z" fill="white"/>
</svg>
