<svg width="40" height="46" viewBox="0 0 40 46" fill="none" xmlns="http://www.w3.org/2000/svg">
    <path d="M31.7724 12.5205C31.7816 12.5178 31.7905 12.5151 31.7991 12.5125C31.8504 12.5701 31.9275 12.6832 32 12.8773V22.3067C32 28.6919 29.0371 32.7767 26.0447 35.2924C24.5408 36.5567 23.0296 37.4225 21.887 37.9713C21.3166 38.2452 20.8419 38.4383 20.5112 38.5613C20.3463 38.6226 20.2193 38.6658 20.136 38.6924H20.1356H20.1352H20.1348H20.1344H20.134H20.1336H20.1332H20.1328H20.1324H20.132H20.1316H20.1312H20.1308H20.1304H20.13H20.1296H20.1292H20.1288H20.1284H20.128H20.1276H20.1272H20.1268H20.1264H20.126H20.1256H20.1252H20.1248H20.1244H20.1239H20.1235H20.1231H20.1227H20.1223H20.1219H20.1215H20.1211H20.1207H20.1203H20.1199H20.1194H20.119H20.1186H20.1182H20.1178H20.1174H20.117H20.1165H20.1161H20.1157H20.1153H20.1149H20.1145H20.114H20.1136H20.1132H20.1128H20.1123H20.1119H20.1115H20.1111H20.1107H20.1102H20.1098H20.1094H20.1089H20.1085H20.1081H20.1076H20.1072H20.1068H20.1063H20.1059H20.1055H20.105H20.1046H20.1042H20.1037H20.1033H20.1028H20.1024H20.102H20.1015H20.1011H20.1006H20.1002H20.0997H20.0993H20.0988H20.0984H20.0979H20.0975H20.097H20.0966H20.0961H20.0956H20.0952H20.0947H20.0942H20.0938H20.0933H20.0929H20.0924H20.0919H20.0914H20.091H20.0905H20.09H20.0896H20.0891H20.0886H20.0881H20.0876H20.0872H20.0867H20.0862H20.0857H20.0852H20.0847H20.0842H20.0837H20.0832H20.0827H20.0822H20.0817H20.0813H20.0807H20.0802H20.0797H20.0792H20.0787H20.0782H20.0777H20.0772H20.0767H20.0762H20.0756H20.0751H20.0746H20.0741H20.0736H20.073H20.0725H20.072H20.0714H20.0709H20.0704H20.0698H20.0693H20.0687H20.0682H20.0677H20.0671H20.0666H20.066H20.0655H20.0649H20.0643H20.0638H20.0632H20.0627H20.0621H20.0615H20.061H20.0604H20.0598H20.0592H20.0587H20.0581H20.0575H20.0569H20.0563H20.0558H20.0552H20.0546H20.054H20.0534H20.0528H20.0522H20.0516H20.051H20.0504H20.0498H20.0492H20.0485H20.0479H20.0473H20.0467H20.0461H20.0454H20.0448H20.0442H20.0435H20.0429H20.0423H20.0416H20.041H20.0403H20.0397H20.0391H20.0384H20.0377H20.0371H20.0364H20.0358H20.0351H20.0344H20.0338H20.0331H20.0324H20.0317H20.0311H20.0304H20.0297H20.029H20.0283H20.0276H20.0269H20.0262H20.0255H20.0248H20.0241H20.0234H20.0227H20.022H20.0213H20.0205H20.0198H20.0191H20.0184H20.0176H20.0169H20.0162H20.0154H20.0147H20.0139H20.0132H20.0124H20.0117H20.0109H20.0102H20.0094H20.0086H20.0079H20.0071H20.0063H20.0055H20.0048H20.004H20.0032H20.0024H20.0016H20.0008H20H19.9992H19.9984H19.9976H19.9968H19.996H19.9952H19.9945H19.9937H19.9929H19.9921H19.9914H19.9906H19.9898H19.9891H19.9883H19.9876H19.9868H19.9861H19.9853H19.9846H19.9838H19.9831H19.9824H19.9816H19.9809H19.9802H19.9795H19.9787H19.978H19.9773H19.9766H19.9759H19.9752H19.9745H19.9738H19.9731H19.9724H19.9717H19.971H19.9703H19.9696H19.9689H19.9683H19.9676H19.9669H19.9662H19.9656H19.9649H19.9642H19.9636H19.9629H19.9623H19.9616H19.9609H19.9603H19.9597H19.959H19.9584H19.9577H19.9571H19.9565H19.9558H19.9552H19.9546H19.9539H19.9533H19.9527H19.9521H19.9515H19.9508H19.9502H19.9496H19.949H19.9484H19.9478H19.9472H19.9466H19.946H19.9454H19.9448H19.9442H19.9437H19.9431H19.9425H19.9419H19.9413H19.9408H19.9402H19.9396H19.939H19.9385H19.9379H19.9373H19.9368H19.9362H19.9357H19.9351H19.9345H19.934H19.9334H19.9329H19.9323H19.9318H19.9313H19.9307H19.9302H19.9296H19.9291H19.9286H19.928H19.9275H19.927H19.9264H19.9259H19.9254H19.9249H19.9244H19.9238H19.9233H19.9228H19.9223H19.9218H19.9213H19.9208H19.9203H19.9198H19.9193H19.9187H19.9183H19.9178H19.9173H19.9168H19.9163H19.9158H19.9153H19.9148H19.9143H19.9138H19.9133H19.9128H19.9124H19.9119H19.9114H19.9109H19.9104H19.91H19.9095H19.909H19.9086H19.9081H19.9076H19.9071H19.9067H19.9062H19.9058H19.9053H19.9048H19.9044H19.9039H19.9034H19.903H19.9025H19.9021H19.9016H19.9012H19.9007H19.9003H19.8998H19.8994H19.8989H19.8985H19.898H19.8976H19.8972H19.8967H19.8963H19.8958H19.8954H19.895H19.8945H19.8941H19.8937H19.8932H19.8928H19.8924H19.8919H19.8915H19.8911H19.8906H19.8902H19.8898H19.8893H19.8889H19.8885H19.8881H19.8877H19.8872H19.8868H19.8864H19.886H19.8855H19.8851H19.8847H19.8843H19.8839H19.8835H19.883H19.8826H19.8822H19.8818H19.8814H19.881H19.8806H19.8801H19.8797H19.8793H19.8789H19.8785H19.8781H19.8777H19.8773H19.8769H19.8765H19.8761H19.8756H19.8752H19.8748H19.8744H19.874H19.8736H19.8732H19.8728H19.8724H19.872H19.8716H19.8712H19.8708H19.8704H19.87H19.8696H19.8692H19.8688H19.8684H19.868H19.8676H19.8672H19.8668H19.8664H19.866H19.8656H19.8652H19.8648H19.8644H19.864C19.7807 38.6658 19.6537 38.6226 19.4888 38.5613C19.1581 38.4383 18.6834 38.2452 18.113 37.9713C16.9704 37.4225 15.4592 36.5567 13.9553 35.2924C10.9629 32.7767 8 28.6919 8 22.3067V12.7145C8 12.6825 8.0066 12.6672 8.00964 12.6611C8.01202 12.6564 8.01503 12.6519 8.0186 12.6479C10.7137 13.4975 16.0779 12.6265 19.9315 6.79611C23.1145 11.6239 26.9481 12.8153 29.7158 12.8153C30.3518 12.8153 30.9043 12.7285 31.2982 12.6422C31.4962 12.5989 31.6573 12.5549 31.7724 12.5205ZM19.8394 6.66272C19.8394 6.66271 19.8397 6.66285 19.8402 6.6632L19.8394 6.66272Z" stroke="#404040" stroke-width="2" stroke-linecap="round" stroke-linejoin="round"/>
    <path d="M14.647 23.581L17.8984 26.9341L25.3529 18.4286" stroke="#EA0074" stroke-width="2" stroke-linecap="round" stroke-linejoin="round"/>
</svg>
