<svg width="20" height="16" viewBox="0 0 20 16" fill="none" xmlns="http://www.w3.org/2000/svg">
<path d="M14.9306 0.5C16.7332 0.5 19.1667 2.45974 19.1667 4.13441C19.1667 5.80908 17.7054 7.16667 15.9028 7.16667L16.0632 7.16275C16.4501 7.92146 16.6667 8.77046 16.6667 9.66667C16.6667 12.8883 13.8685 15.5 10.4167 15.5C6.96493 15.5 4.16671 12.8883 4.16671 9.66667C4.16671 8.73471 4.40087 7.8538 4.81727 7.07239C4.57173 7.1342 4.32927 7.16667 4.09726 7.16667C2.29467 7.16667 0.833374 5.80908 0.833374 4.13441C0.833374 2.45974 3.26689 0.5 5.06948 0.5C6.87208 0.5 8.33337 1.85759 8.33337 3.53226C8.33337 3.75424 8.29062 3.98123 8.21224 4.20801C8.89695 3.96547 9.64029 3.83333 10.4167 3.83333C10.8628 3.83333 11.2979 3.87695 11.7175 3.95986C11.684 3.81666 11.6667 3.67345 11.6667 3.53226C11.6667 1.85759 13.128 0.5 14.9306 0.5Z" fill="white"/>
</svg>
