<svg width="14" height="16" viewBox="0 0 14 16" fill="none" xmlns="http://www.w3.org/2000/svg">
<path d="M13.5407 6.82821C13.3671 11.255 10.5316 14.1193 7.08861 16V13.5118C3.52984 13.9458 0 10.5557 0 7.14647C0 3.03797 2.83338 0 6.82821 0C9.89512 0 13.5407 2.36998 13.5407 6.82821Z" fill="#333132"/>
<path d="M3.59393 4.54231C3.59393 4.13073 3.72607 3.71482 3.99035 3.29458C4.25463 2.87 4.64021 2.51907 5.14711 2.2418C5.654 1.96452 6.24538 1.82588 6.92124 1.82588C7.54944 1.82588 8.10399 1.94286 8.58489 2.17681C9.06579 2.40643 9.43621 2.72053 9.69616 3.11911C9.96044 3.5177 10.0926 3.95094 10.0926 4.41884C10.0926 4.7871 10.0168 5.10986 9.86512 5.38714C9.71782 5.66441 9.54019 5.90486 9.33224 6.10849C9.12861 6.30778 8.76035 6.64571 8.22747 7.12228C8.08016 7.25658 7.96102 7.37572 7.87004 7.4797C7.78339 7.57935 7.71841 7.67249 7.67508 7.75914C7.63176 7.84146 7.5971 7.92594 7.5711 8.01259C7.54944 8.09491 7.51478 8.24221 7.46712 8.4545C7.38481 8.90507 7.12703 9.13036 6.69379 9.13036C6.4685 9.13036 6.27787 9.05671 6.12191 8.9094C5.97027 8.7621 5.89445 8.54331 5.89445 8.25304C5.89445 7.88912 5.95077 7.57502 6.06342 7.31074C6.17606 7.04213 6.32553 6.80818 6.51182 6.60888C6.69812 6.40526 6.9494 6.16481 7.26567 5.88753C7.54294 5.64492 7.74223 5.46296 7.86354 5.34165C7.98918 5.21601 8.09316 5.07737 8.17548 4.92573C8.26213 4.7741 8.30545 4.60947 8.30545 4.43184C8.30545 4.08524 8.17548 3.7928 7.91553 3.55452C7.65992 3.31624 7.32849 3.1971 6.92124 3.1971C6.44467 3.1971 6.09374 3.3184 5.86846 3.56102C5.64317 3.7993 5.45255 4.1524 5.29658 4.6203C5.14928 5.10986 4.86983 5.35465 4.45825 5.35465C4.21564 5.35465 4.00985 5.27016 3.84088 5.1012C3.67625 4.9279 3.59393 4.74161 3.59393 4.54231ZM6.76527 11.6648C6.50099 11.6648 6.26921 11.5803 6.06992 11.4114C5.87496 11.2381 5.77748 10.9976 5.77748 10.69C5.77748 10.4171 5.87279 10.1875 6.06342 10.0012C6.25404 9.81488 6.488 9.72173 6.76527 9.72173C7.03821 9.72173 7.26783 9.81488 7.45413 10.0012C7.64042 10.1875 7.73357 10.4171 7.73357 10.69C7.73357 10.9933 7.63609 11.2316 7.44113 11.4049C7.24617 11.5782 7.02088 11.6648 6.76527 11.6648Z" fill="white"/>
</svg>
