<svg width="123" height="24" viewBox="0 0 123 24" fill="none" xmlns="http://www.w3.org/2000/svg">
<path d="M0.402469 22.1947C1.00393 21.1923 14.9377 1.14363 15.2385 0.642411C15.5392 0.141195 16.2409 -0.460265 16.8424 0.542168C17.5441 1.5446 17.8448 2.14606 18.2458 2.74752C18.747 3.44922 17.7446 4.25117 17.1431 3.44922C16.4414 2.54703 16.2409 1.5446 15.439 2.94801C14.637 4.25117 11.6297 8.46139 11.0283 9.46382C10.527 10.2658 10.527 11.6692 10.8278 12.8721C11.0283 13.4736 11.4292 14.1753 11.8302 14.6765C12.0307 14.9772 11.9304 15.3782 11.5295 15.8794C11.1285 16.3806 6.01609 23.9991 6.01609 23.9991H0.903685C-0.198991 23.7986 -0.198991 23.0969 0.402469 22.1947Z" fill="#04884E"/>
<path d="M7.4195 23.7986C7.61999 23.6984 18.747 7.45895 19.4487 6.35628C20.1504 5.2536 21.2531 5.9553 20.6516 7.05798C19.7494 8.56163 16.8424 12.9723 16.3412 13.7743C15.8399 14.5762 15.7397 15.6789 15.9402 16.5811C16.1407 17.5835 16.6419 18.4857 17.4438 19.0872L14.236 23.7986H7.4195Z" fill="#04884E"/>
<path d="M15.7397 23.7986C22.857 13.1728 22.9572 12.9723 23.7592 12.0701C24.3606 11.2682 25.363 11.9699 24.8618 12.7718C24.3606 13.674 20.9523 18.4857 20.5514 19.2877C19.9499 20.1898 20.1504 22.295 21.654 22.295L30.3752 22.1947C30.3752 22.1947 27.9694 18.7864 27.2677 17.6838C26.566 16.5811 27.8691 16.1801 28.3703 16.8818C28.7713 17.383 31.4779 21.3928 32.0793 22.295C32.5806 22.9967 32.3801 23.7986 31.5781 23.7986H15.7397Z" fill="#04884E"/>
<path d="M90.4209 23.6984L93.1275 5.85506H95.3329L101.247 18.2852L107.362 5.85506H109.367L111.773 23.6984H107.663L106.36 11.9699L100.646 23.6984H99.6433L94.0297 12.2706L92.8268 23.6984H90.4209Z" fill="#010202"/>
<path d="M113.176 23.6984V6.35627C113.176 6.05554 113.477 5.85506 113.677 5.85506H123V7.35871C123 7.65944 122.699 7.96017 122.399 7.96017H117.286V13.4735H123C123 13.4735 123 14.6765 123 14.9772C123 15.0774 122.9 15.2779 122.8 15.3782C122.699 15.4784 122.499 15.4784 122.399 15.4784C122.198 15.4784 117.186 15.4784 117.186 15.4784V21.7937H123V23.3976C123 23.7986 122.699 23.7986 122.298 23.7986L113.176 23.6984Z" fill="#010202"/>
<path d="M57.0399 23.6984V6.35627C57.0399 6.05554 57.3407 5.85506 57.5411 5.85506H66.8638V7.35871C66.8638 7.65944 66.563 7.96017 66.2623 7.96017H61.0497V13.4735H66.7635C66.7635 13.4735 66.7635 14.6765 66.7635 14.9772C66.7635 15.2779 66.4628 15.4784 66.1621 15.4784C65.9616 15.4784 60.9494 15.4784 60.9494 15.4784V23.7986H57.0399V23.6984Z" fill="#010202"/>
<path d="M69.1694 23.6984V6.35627C69.1694 6.05554 69.4701 5.85506 69.6706 5.85506H73.3796V23.6984H69.1694V23.6984Z" fill="#010202"/>
<path d="M79.7952 23.6984H75.3844V6.35628C75.3844 6.05555 75.6852 5.85506 75.8857 5.85506H82.3012C83.6044 5.85506 87.6141 5.65457 87.6141 10.4663C87.6141 12.7718 86.0102 14.476 83.6044 14.877C84.1056 15.6789 89.0175 23.6984 89.0175 23.6984H85.6093C84.5066 23.6984 84.0054 22.8964 83.5042 22.0945C83.0029 21.3928 79.6949 15.3782 79.6949 15.3782L79.7952 23.6984ZM81.5995 14.2755C83.0029 13.674 83.8049 12.4711 83.8049 10.8672C83.8049 8.86236 82.602 7.85993 81.5995 7.5592C80.9981 7.35871 79.6949 7.35871 79.6949 7.35871V14.5762C79.6949 14.476 80.9981 14.476 81.5995 14.2755Z" fill="#010202"/>
<path d="M49.3212 18.586H43.3066L41.3017 23.6984H38.9961L46.5144 5.85506H48.5192L55.7368 23.6984H52.7295C51.6268 23.6984 51.0253 22.3952 50.8248 21.894C50.6244 21.3928 49.3212 18.586 49.3212 18.586ZM44.1085 16.9821H48.82L46.4141 10.9675L44.1085 16.9821Z" fill="#010202"/>
</svg>
