<svg width="45" height="42" viewBox="0 0 45 42" fill="none" xmlns="http://www.w3.org/2000/svg">
<g clip-path="url(#clip0_764_1741)">
<path fill-rule="evenodd" clip-rule="evenodd" d="M0 -3H48V45H0V-3Z" fill="white"/>
<path fill-rule="evenodd" clip-rule="evenodd" d="M2.11272 41.2505H1.97551C1.97551 41.182 1.94115 41.0789 1.94115 41.0443C1.94115 41.0102 1.94115 40.9417 1.83805 40.9417H1.63187V41.2505H1.52877V40.5294H1.83805C1.97551 40.5294 2.07836 40.564 2.07836 40.7009C2.07836 40.804 2.04399 40.8386 2.00988 40.8725C2.04424 40.9071 2.07836 40.9415 2.07836 41.0102V41.1474C2.07836 41.182 2.07836 41.182 2.11272 41.182V41.2505ZM1.97551 40.7355C1.97551 40.6325 1.90678 40.6325 1.87242 40.6325H1.63187V40.8386H1.83805C1.90678 40.8386 1.97551 40.804 1.97551 40.7355ZM2.55946 40.8728C2.55946 40.4609 2.21606 40.117 1.76932 40.117C1.3572 40.117 1.01355 40.4609 1.01355 40.8728C1.01355 41.3192 1.3572 41.6631 1.76932 41.6631C2.21582 41.6629 2.55946 41.3192 2.55946 40.8728ZM2.45637 40.8728C2.45637 41.2508 2.14734 41.5254 1.76932 41.5254C1.39131 41.5254 1.11664 41.2505 1.11664 40.8728C1.11664 40.5294 1.39156 40.2201 1.76932 40.2201C2.14709 40.2201 2.45637 40.5294 2.45637 40.8728ZM44.7782 26.9946C44.7782 28.0253 44.1255 28.5057 42.9574 28.5057H40.7249V27.475H42.9574C43.1636 27.475 43.3354 27.4409 43.4044 27.3724C43.4729 27.3034 43.5416 27.2003 43.5416 27.0631C43.5416 26.9254 43.4731 26.7882 43.4044 26.7197C43.3354 26.6508 43.1982 26.6166 42.992 26.6166C41.9274 26.582 40.5875 26.6508 40.5875 25.1395C40.5875 24.4522 41.034 23.6964 42.2362 23.6964H44.5377V24.7271H42.4078C42.2021 24.7271 42.0644 24.7271 41.9613 24.7956C41.8582 24.8987 41.7897 25.0017 41.7897 25.1736C41.7897 25.3454 41.8928 25.4485 42.03 25.5175C42.1678 25.5516 42.3052 25.5859 42.477 25.5859H43.0951C43.7478 25.5859 44.1602 25.7232 44.4351 25.964C44.6408 26.2043 44.7782 26.5138 44.7782 26.9946ZM39.9345 25.964C39.6596 25.7232 39.2472 25.5859 38.5946 25.5859H37.9765C37.8049 25.5859 37.6672 25.5513 37.53 25.5175C37.3923 25.4485 37.2897 25.3454 37.2897 25.1736C37.2897 25.0017 37.3238 24.8987 37.4613 24.7956C37.5644 24.7271 37.7016 24.7271 37.9078 24.7271H40.0376V23.6964H37.7362C36.4993 23.6964 36.0869 24.4522 36.0869 25.1395C36.0869 26.6505 37.4269 26.582 38.492 26.6166C38.6977 26.6166 38.8354 26.6508 38.9039 26.7197C38.9723 26.7882 39.0416 26.9254 39.0416 27.0631C39.0416 27.2003 38.9726 27.3034 38.9039 27.3724C38.8008 27.4409 38.6635 27.475 38.4574 27.475H36.2244V28.5057H38.4574C39.625 28.5057 40.2779 28.0251 40.2779 26.9946C40.2779 26.5138 40.1407 26.2043 39.9345 25.964ZM35.5374 27.5099H32.824V26.5479H35.4689V25.5864H32.824V24.693H35.5374V23.6969H31.6903V28.5059H35.5374V27.5099ZM30.4534 23.9374C30.0754 23.7312 29.6289 23.6966 29.0449 23.6966H26.4001V28.5057H27.5677V26.7538H28.8046C29.2165 26.7538 29.4573 26.7885 29.6291 26.96C29.8353 27.2003 29.8353 27.6127 29.8353 27.922V28.5057H30.9686V27.5781C30.9686 27.1316 30.9345 26.9254 30.797 26.6851C30.6939 26.5474 30.4882 26.3758 30.2133 26.2727C30.5221 26.1701 31.0378 25.7578 31.0378 25.0017C31.0376 24.4524 30.8314 24.1431 30.4534 23.9374ZM23.9266 23.6966H20.2508L18.7736 25.2769L17.3652 23.6966H12.7277V28.5057H17.2967L18.7739 26.9254L20.1823 28.5057H22.4153V26.8916H23.8581C24.8542 26.8916 25.8508 26.6166 25.8508 25.2769C25.8505 23.9716 24.8198 23.6966 23.9266 23.6966ZM29.5258 25.6893C29.3542 25.7578 29.1824 25.7578 28.9762 25.7578L27.5677 25.7924V24.6927H28.9762C29.1824 24.6927 29.3886 24.6927 29.5258 24.7958C29.6635 24.8648 29.7661 25.002 29.7661 25.2082C29.7661 25.4144 29.6635 25.5862 29.5258 25.6893ZM23.9266 25.9296H22.415V24.6927H23.9266C24.339 24.6927 24.6136 24.8648 24.6136 25.2769C24.6136 25.6893 24.3387 25.9296 23.9266 25.9296ZM19.495 26.1012L21.2812 24.2121V28.0938L19.495 26.1012ZM16.7125 27.5099H13.8612V26.5479H16.4032V25.5864H13.8612V24.693H16.7468L18.0178 26.1014L16.7125 27.5099ZM41.5833 20.227H39.9345L37.7703 16.62V20.227H35.4348L34.9878 19.162H32.5832L32.1367 20.227H30.7968C30.2472 20.227 29.5258 20.0896 29.1139 19.6772C28.7359 19.2651 28.5297 18.7155 28.5297 17.8566C28.5297 17.1352 28.6328 16.4825 29.1478 15.9673C29.4912 15.5893 30.1097 15.4177 30.8996 15.4177H31.9988V16.4484H30.8996C30.4877 16.4484 30.2469 16.5172 30.0066 16.7233C29.8004 16.9295 29.6974 17.3073 29.6974 17.8225C29.6974 18.3377 29.8004 18.7157 30.0066 18.9563C30.1782 19.1279 30.4877 19.1966 30.7965 19.1966H31.312L32.9608 15.418H34.6785L36.6022 19.9524V15.4177H38.3886L40.4154 18.7499V15.4177H41.5831V20.227H41.5833ZM27.9458 15.4177H26.7781V20.227H27.9458V15.4177ZM25.5066 15.6239C25.1286 15.4177 24.7167 15.4177 24.1328 15.4177H21.4874V20.227H22.621V18.4749H23.8576C24.27 18.4749 24.5449 18.5093 24.7165 18.6811C24.9227 18.9217 24.888 19.3341 24.888 19.6087V20.227H26.0557V19.2651C26.0557 18.853 26.0216 18.6468 25.85 18.4062C25.7469 18.2688 25.5407 18.0969 25.3004 17.9941C25.6092 17.8566 26.1249 17.4789 26.1249 16.7231C26.1252 16.1735 25.8844 15.8642 25.5066 15.6239ZM20.6629 19.231H17.9835V18.269H20.6286V17.2729H17.9835V16.4141H20.6629V15.418H16.8156V20.2273H20.6629V19.231ZM15.9567 15.4177H14.0674L12.6589 18.6811L11.1474 15.4177H9.29245V19.9521L7.33441 15.4177H5.61692L3.55579 20.227H4.79242L5.23891 19.162H7.64344L8.08994 20.227H10.426V16.4484L12.1091 20.227H13.1052L14.7886 16.4484V20.227H15.9565V15.4177H15.9567ZM34.5759 18.1315L33.7855 16.2422L32.9956 18.1315H34.5759ZM24.6136 17.376C24.442 17.4791 24.2702 17.4791 24.0297 17.4791H22.621V16.4143H24.0294C24.2356 16.4143 24.4757 16.4143 24.6134 16.483C24.7506 16.5861 24.8196 16.7236 24.8196 16.9295C24.8196 17.1355 24.7508 17.307 24.6136 17.376ZM5.65104 18.1315L6.44118 16.2422L7.23132 18.1315H5.65104ZM44.5036 0.337112H3.52118V17.6507L4.92963 14.456H7.91811L8.33049 15.2462V14.456H11.8344L12.6246 16.1735L13.3804 14.456H24.5449C25.0599 14.456 25.5064 14.5591 25.8503 14.8338V14.456H28.9075V14.8338C29.4224 14.5589 30.0751 14.456 30.8311 14.456H35.2624L35.6748 15.2462V14.456H38.9382L39.4193 15.2462V14.456H42.6137V21.189H39.385L38.7669 20.1586V21.189H34.7475L34.301 20.0898H33.3044L32.8579 21.189H30.7627C29.9382 21.189 29.3196 20.9828 28.9077 20.7769V21.189H23.9266V19.6431C23.9266 19.4369 23.8922 19.4025 23.7548 19.4025H23.5832V21.1888H13.9643V20.3299L13.6209 21.1888H11.5941L11.2507 20.3643V21.1888H7.36878L6.95665 20.0896H5.96032L5.51383 21.1888H3.52118V41.4911H44.5036V29.1584C44.0571 29.3646 43.4385 29.4677 42.8202 29.4677H39.8315V29.0553C39.4881 29.3305 38.8695 29.4677 38.2858 29.4677H28.8731V27.922C28.8731 27.7158 28.839 27.7158 28.6669 27.7158H28.4953V29.4677H25.4035V27.6471C24.8885 27.8874 24.3043 27.8874 23.7891 27.8874H23.4455V29.4677H19.6669L18.7739 28.437L17.7778 29.4677H11.697V22.7349H17.8804L18.7736 23.7651L19.7356 22.7349H23.8922C24.3728 22.7349 25.1632 22.8034 25.5066 23.1468V22.7349H29.2165C29.5945 22.7349 30.3162 22.8034 30.7968 23.1468V22.7349H36.3962V23.147C36.7055 22.8721 37.2897 22.7352 37.8047 22.7352H40.9306V23.147C41.2745 22.9067 41.7551 22.7352 42.3737 22.7352H44.5036V0.337112Z" fill="#0077A6"/>
</g>
<defs>
<clipPath id="clip0_764_1741">
<rect width="45" height="42" fill="white"/>
</clipPath>
</defs>
</svg>
