<svg width="160" height="12" viewBox="0 0 160 12" fill="none" xmlns="http://www.w3.org/2000/svg">
<path d="M97.6779 2.59675V0.0998736H89.0886V11.4856H97.6779V8.98876H91.7853V7.09113H97.578V4.59426H91.7853V2.7965H97.6779V2.59675ZM106.267 11.3858H109.663L105.368 5.69288L109.563 0.0998736H106.267L103.77 3.5955L101.273 0.0998736H97.8777L102.072 5.79276L97.8777 11.4856H101.174L103.67 7.99001L106.267 11.3858ZM109.863 0V11.3858H112.559V7.69039H115.755C118.052 7.69039 119.551 6.09238 119.551 3.89513C119.551 1.598 118.152 0.0998736 115.855 0.0998736H109.863V0ZM116.754 3.89513C116.754 4.59426 116.355 5.19351 115.556 5.19351H112.559V2.59675H115.556C116.355 2.59675 116.754 3.196 116.754 3.89513ZM123.346 7.39076H124.345L127.541 11.3858H130.836L127.441 7.29089C129.139 6.89139 130.237 5.49313 130.237 3.69538C130.237 1.49813 128.839 0 126.542 0H120.649V11.3858H123.346V7.39076ZM126.242 2.59675C127.041 2.59675 127.441 3.09613 127.441 3.79526C127.441 4.39451 127.041 4.99376 126.242 4.99376H123.346V2.69663H126.242V2.59675ZM139.925 2.59675V0.0998736H131.336V11.4856H139.925V8.98876H134.032V7.09113H139.825V4.59426H134.032V2.7965H139.925V2.59675ZM146.617 8.88889H141.124V11.3858H146.617C148.914 11.3858 150.312 9.88764 150.312 7.69039C150.312 5.59301 149.114 4.39451 147.016 4.39451H144.519C143.92 4.39451 143.521 3.99501 143.521 3.49563C143.521 2.89638 143.92 2.59675 144.519 2.59675H149.114L150.112 0.0998736H144.519C142.222 0.0998736 140.824 1.598 140.824 3.69538C140.824 5.79276 142.122 7.09113 144.12 7.09113H146.617C147.216 7.09113 147.615 7.49064 147.615 7.99001C147.615 8.48939 147.216 8.88889 146.617 8.88889ZM156.305 8.88889H150.811V11.3858H156.305C158.602 11.3858 160 9.88764 160 7.69039C160 5.59301 158.801 4.39451 156.704 4.39451H154.207C153.608 4.39451 153.208 3.99501 153.208 3.49563C153.208 2.89638 153.608 2.59675 154.207 2.59675H158.802L159.8 0.0998736H154.207C151.91 0.0998736 150.512 1.598 150.512 3.69538C150.512 5.79276 151.81 7.09113 153.808 7.09113H156.305C156.904 7.09113 157.303 7.49064 157.303 7.99001C157.303 8.48939 156.904 8.88889 156.305 8.88889Z" fill="#0F79BF"/>
<path d="M9.58802 11.7853H12.5843L8.08989 0.499381H4.59426L0 11.7853H2.99625L3.89513 9.48815H8.68914L9.58802 11.7853ZM4.79401 7.09114L6.29214 3.19601L7.79026 7.09114H4.79401ZM18.2772 11.7853H20.6742L23.4707 3.39576V11.7853H26.1673V0.499381H21.9725L19.5755 7.69039L17.1785 0.499381H12.8839V11.8851H15.5805V3.49564L18.2772 11.7853ZM36.5543 2.99626V0.499381H27.965V11.8851H36.5543V9.28839H30.6617V7.39077H36.4544V4.89389H30.6617V3.09613H36.5543V2.99626ZM40.7491 7.79027H41.7478L44.9438 11.7853H48.2397L44.8439 7.69039C46.5418 7.29089 47.6405 5.89264 47.6405 4.09489C47.6405 1.89763 46.2422 0.399506 43.9451 0.399506H38.0524V11.7853H40.7491V7.79027ZM43.6454 2.99626C44.4444 2.99626 44.8439 3.49563 44.8439 4.19476C44.8439 4.79401 44.4444 5.39326 43.6454 5.39326H40.7491V3.09613H43.6454V2.99626ZM48.7391 11.7853H51.4357V6.09239V0.399506H48.7391V6.09239V11.7853ZM57.628 11.7853H57.8277L58.9263 9.28839H58.0275C56.3296 9.28839 55.3308 8.18977 55.3308 6.29214V6.09239C55.3308 4.39451 56.2297 3.09613 58.0275 3.09613H60.9238V0.499381H57.8277C54.5318 0.499381 52.7341 2.89638 52.7341 6.09239V6.29214C52.7341 9.6879 54.6317 11.7853 57.628 11.7853ZM68.5144 11.7853H71.5106L67.0162 0.399506H63.5206L58.9263 11.7853H61.9226L62.8215 9.48815H67.6155L68.5144 11.7853ZM63.8202 7.09114L65.3184 3.19601L66.8165 7.09114H63.8202ZM78.9014 11.7853H82.1973V0.499381H79.5006V7.49064L75.3059 0.499381H71.9101V11.8851H74.6067V4.59426L78.9014 11.7853Z" fill="#0F79BF"/>
</svg>
