<svg width="92" height="37" viewBox="0 0 92 37" fill="none" xmlns="http://www.w3.org/2000/svg">
<path d="M48.3 10.3V2.2C48.3 1.9 48.4 1.5 48.6 1.3C48.9 1.1 49.3 1.1 49.7 1.1C51.1 1.1 52 1.4 52.5 2.1C53 2.7 53.3 4 53.3 5.7C53.3 7.4 52.9 8.5 52.3 9.3C51.6 10 50.5 10.4 48.9 10.4L48.3 10.3ZM48.3 11.2C50.3 11.2 51.7 11.6 52.6 12.5C53.5 13.4 53.9 14.8 53.9 16.8C53.9 18.4 53.6 19.5 52.9 20.3C52.2 21 51.2 21.4 49.9 21.4C49.5 21.4 49 21.3 48.7 21C48.4 20.6 48.3 20.2 48.3 19.7V11.2V11.2ZM42.5 10.3H42C40.4 10.3 39.3 9.9 38.6 9.2C37.9 8.5 37.5 7.3 37.6 5.6C37.6 3.8 37.9 2.6 38.4 2C38.9 1.3 39.9 1 41.3 1C41.7 1 42 0.999997 42.3 1.2C42.5 1.5 42.6 1.8 42.6 2.1L42.5 10.3ZM42.5 11.2V19.8C42.6 20.3 42.4 20.7 42.1 21.1C41.7 21.4 41.3 21.5 40.9 21.5C39.6 21.5 38.6 21.1 37.9 20.4C37.2 19.7 36.9 18.5 36.9 16.9C36.9 14.9 37.3 13.5 38.2 12.6C39.1 11.7 40.6 11.3 42.5 11.2ZM49.4 0H41.1C38.2 0 36 0.299997 34.3 1.2C32.7 2.1 31.8 3.5 31.9 5.1C32 8.2 33 9.3 36.4 10.5C32.6 11.3 31 13 31 16.5C31 18.4 31.9 20.1 33.6 21C35.3 22 37.7 22.6 40.8 22.6H50C53.1 22.6 55.5 22.1 57.2 21C58.8 20.1 59.8 18.4 59.8 16.5C59.8 12.9 58.2 11.3 54.4 10.5C57.7 9.4 58.8 8.2 58.8 5.1C58.8 3.5 58 2.1 56.4 1.2C54.8 0.299997 52.6 0 49.7 0H49.4Z" fill="#C01818"/>
<path d="M91.6 31.8C91.6 32.5 91.5 33.3 91.2 33.9C90.9 34.5 90.5 35.1 89.9 35.5C89.6 35.7 89.3 35.9 89 36C88 36.4 86.8 36.2 85.9 35.5C85.3 35.1 84.9 34.5 84.6 33.9C84 32.5 84 31 84.6 29.6C84.9 29 85.3 28.4 85.9 28C86.2 27.8 86.5 27.6 86.8 27.5C87.5 27.3 88.2 27.3 88.9 27.5C89.2 27.6 89.6 27.8 89.8 28C90.4 28.4 90.8 29 91.1 29.6C91.5 30.3 91.6 31 91.6 31.8ZM87.8 27.7C87.3 27.7 86.8 28.1 86.7 28.6C86.4 29.7 86.3 30.7 86.4 31.8C86.3 32.9 86.5 33.9 86.7 35C86.8 35.5 87.3 35.9 87.8 35.9C88.3 35.9 88.8 35.5 88.9 35C89.2 34 89.3 32.9 89.2 31.8C89.3 30.7 89.2 29.6 88.9 28.6C88.8 28.1 88.4 27.7 87.8 27.7Z" fill="#965388"/>
<path d="M83.2 35C83.2 35.2 83.2 35.3 83.3 35.4C83.4 35.5 83.6 35.6 83.8 35.6V36H80.8V35.6C81 35.6 81.1 35.5 81.3 35.4C81.4 35.3 81.4 35.1 81.4 35V28.4C81.4 28.2 81.4 28.1 81.3 28C81.2 27.9 81 27.8 80.8 27.8V27.4H83.8V27.8C83.6 27.8 83.5 27.9 83.3 28C83.2 28.1 83.2 28.3 83.2 28.4V35Z" fill="#965388"/>
<path d="M78.4 28.3C78.4 28.1 78.4 28 78.2 27.8C78 27.7 77.8 27.7 77.6 27.7V27.3H80.7V27.7C80.5 27.7 80.4 27.7 80.3 27.8C80.2 27.9 80.2 28.1 80.2 28.3V33.9C80.2 34.2 80.2 34.6 80.1 34.9C80 35.1 79.9 35.3 79.8 35.5C79.6 35.8 79.3 36 78.9 36.1C78.5 36.3 78.1 36.3 77.7 36.3C77.2 36.3 76.7 36.2 76.2 35.9C75.8 35.7 75.6 35.3 75.6 34.9C75.6 34.6 75.7 34.4 75.9 34.2C76.1 34 76.4 33.9 76.7 33.9C76.9 33.9 77.2 34 77.4 34.1C77.6 34.2 77.7 34.4 77.7 34.7C77.7 34.9 77.6 35.1 77.4 35.2C77.2 35.4 76.8 35.5 76.6 35.4C76.7 35.5 76.9 35.6 77 35.7C77.2 35.8 77.4 35.8 77.5 35.8C77.8 35.8 78.1 35.7 78.3 35.4C78.5 35 78.6 34.6 78.5 34.1L78.4 28.3Z" fill="#965388"/>
<path d="M71.6 33.1H73.4L72.5 29.7L71.6 33.1ZM69.7 36V35.6C69.9 35.6 70.1 35.5 70.2 35.3C70.4 35.1 70.5 34.8 70.6 34.5L72.6 27.3H73.5L75.5 34.7C75.6 35 75.7 35.2 75.8 35.4C75.9 35.5 76.1 35.6 76.3 35.6V36H73.2V35.6C73.4 35.6 73.5 35.6 73.6 35.5C73.7 35.4 73.7 35.3 73.7 35.2C73.7 35.1 73.7 35.1 73.7 35C73.7 34.9 73.7 34.8 73.6 34.8L73.3 33.6H71.2L70.9 34.6C70.9 34.7 70.9 34.7 70.9 34.8C70.9 34.9 70.9 34.9 70.9 35C70.9 35.2 71 35.3 71.1 35.4C71.3 35.5 71.5 35.6 71.7 35.6V36H69.7V36Z" fill="#965388"/>
<path d="M62.6 35.9V35.4C62.8 35.4 63 35.3 63.2 35.2C63.3 35 63.4 34.8 63.4 34.6V26C63.4 25.8 63.4 25.6 63.2 25.4C63 25.3 62.8 25.2 62.6 25.2V24.7H66.2C67.2 24.6 68.3 24.9 69.2 25.4C69.9 25.8 70.3 26.5 70.3 27.3C70.3 28 70 28.7 69.5 29.1C68.8 29.6 68 30 67.1 30.1C68.1 30.2 69 30.5 69.8 31.1C70.4 31.5 70.7 32.2 70.7 33C70.7 33.9 70.3 34.7 69.6 35.2C68.6 35.8 67.5 36 66.4 36H62.6V35.9ZM65.6 30.3V34.5C65.6 34.7 65.6 35 65.8 35.1C66 35.2 66.2 35.3 66.4 35.3C66.9 35.3 67.4 35.1 67.7 34.7C68 34.2 68.2 33.6 68.1 33C68.2 32.2 68 31.5 67.5 30.9C67 30.5 66.3 30.3 65.6 30.3ZM65.6 29.8H65.8C66.4 29.9 66.9 29.7 67.3 29.3C67.7 28.8 67.8 28.2 67.8 27.5C67.9 26.9 67.7 26.2 67.4 25.7C67.1 25.3 66.6 25.2 66.2 25.2C66 25.2 65.9 25.2 65.7 25.3C65.6 25.4 65.6 25.6 65.6 25.8V29.8Z" fill="#965388"/>
<path d="M52.9 35.9V35.5C53.1 35.5 53.2 35.4 53.4 35.3C53.5 35.2 53.6 35 53.5 34.9V28.5C53.5 28.3 53.5 28.2 53.4 28.1C53.3 28 53.1 27.9 52.9 27.9V27.5H56.2V27.9C56 27.9 55.8 28 55.6 28.1C55.5 28.2 55.4 28.4 55.4 28.5V35C55.4 35.1 55.4 35.3 55.5 35.4C55.6 35.5 55.8 35.5 55.9 35.5C56.4 35.5 56.9 35.3 57.3 34.9C57.8 34.4 58.1 33.8 58.3 33.1H58.7L58.5 35.9H52.9Z" fill="#965388"/>
<path d="M46.5 35.9V35.5C46.7 35.5 46.9 35.4 47 35.3C47.1 35.2 47.2 35 47.1 34.9V28.5C47.1 28.4 47.1 28.3 47.1 28.2C47.1 28.1 47 28.1 46.9 28C46.8 28 46.8 27.9 46.7 27.9C46.6 27.9 46.5 27.9 46.4 27.9V27.5H52.4V29.9H52C51.9 29.3 51.6 28.8 51.1 28.3C50.7 28 50.2 27.8 49.7 27.8C49.5 27.8 49.3 27.8 49.2 27.9C49.1 28 49.1 28.2 49.1 28.4V31.2C49.5 31.2 49.8 31 50.1 30.8C50.4 30.5 50.6 30.1 50.6 29.7H51.1V33.3H50.6C50.6 32.9 50.4 32.5 50.1 32.1C49.8 31.8 49.5 31.6 49.1 31.6V34.8C49.1 34.9 49.1 35.1 49.2 35.2C49.3 35.3 49.5 35.3 49.7 35.3C50.2 35.3 50.7 35.1 51.1 34.7C51.6 34.2 51.9 33.6 52.1 33H52.6L52.5 35.7L46.5 35.9Z" fill="#965388"/>
<path d="M42 34.9C41.9 35.1 42 35.3 42.1 35.4C42.2 35.5 42.4 35.6 42.6 35.5C43.1 35.6 43.7 35.3 43.9 34.8C44.1 34.3 44.3 33.2 44.3 31.5C44.4 30.5 44.2 29.6 43.9 28.7C43.7 28.2 43.2 27.9 42.6 27.9C42.4 27.9 42.2 27.9 42.1 28C42 28.1 41.9 28.3 42 28.5V34.9ZM39.4 36V35.6C39.6 35.6 39.8 35.5 39.9 35.4C40 35.3 40.1 35.1 40 35V28.5C40 28.3 40 28.2 39.8 28.1C39.6 28 39.5 27.9 39.3 27.9V27.5H41.7C42.3 27.5 42.8 27.5 43.4 27.6C43.8 27.7 44.2 27.8 44.5 28C45.1 28.4 45.5 28.9 45.8 29.5C46.1 30.2 46.3 30.9 46.3 31.6C46.4 32.8 46 33.9 45.1 34.7C44.2 35.5 43 35.9 41.8 35.8L39.4 36Z" fill="#965388"/>
<path d="M35 31.9C35 32.6 34.9 33.3 34.6 34C34.3 34.6 33.9 35.2 33.3 35.6C33 35.8 32.7 36 32.4 36.1C31.7 36.3 31 36.3 30.3 36.1C30 36 29.7 35.8 29.4 35.6C28.9 35.2 28.4 34.7 28.1 34C27.5 32.7 27.5 31.2 28.1 29.9C28.4 29.3 28.8 28.8 29.4 28.3C29.7 28.1 30 27.9 30.3 27.8C31 27.6 31.7 27.6 32.4 27.8C32.7 27.9 33 28.1 33.3 28.3C33.8 28.7 34.3 29.2 34.6 29.9C34.9 30.5 35 31.2 35 31.9ZM31.4 27.9C30.9 27.9 30.5 28.2 30.4 28.7C30.1 29.7 30 30.8 30.1 31.8C30 32.8 30.2 33.9 30.4 34.8C30.5 35.3 30.9 35.6 31.4 35.6C31.9 35.6 32.3 35.3 32.4 34.8C32.7 33.8 32.8 32.8 32.7 31.8C32.8 30.7 32.7 29.7 32.4 28.7C32.3 28.3 31.9 27.9 31.4 27.9Z" fill="#965388"/>
<path d="M26.8 33.4H27.4V33.6C27.5 34.3 27.2 35 26.7 35.5C26.1 36 25.3 36.2 24.5 36.1C23.5 36.2 22.5 35.8 21.7 35C21 34.1 20.6 33 20.7 31.9C20.6 30.7 21 29.6 21.7 28.7C22.4 27.9 23.4 27.5 24.4 27.5C24.9 27.5 25.3 27.6 25.8 27.8H26.1L26.6 27.5H27.2V30.2H26.6C26.4 29.6 26.1 29 25.7 28.4C25.4 28 25 27.8 24.6 27.8C24.1 27.8 23.6 28.2 23.5 28.7C23.2 29.7 23.1 30.8 23.2 31.9C23.1 32.9 23.3 33.8 23.6 34.7C23.8 35.2 24.4 35.5 24.9 35.5C25.4 35.5 25.9 35.3 26.3 34.9C26.6 34.5 26.8 33.9 26.8 33.3V33.4Z" fill="#965388"/>
<path d="M15.2 29.4V34.7C15.2 35 15.2 35.2 15.4 35.5C15.6 35.7 15.8 35.8 16.1 35.8V36.2H13.7V35.7C13.9 35.7 14.2 35.6 14.4 35.4C14.6 35.2 14.6 34.9 14.6 34.6V28.6C14.6 28.4 14.6 28.3 14.4 28.2C14.2 28.1 13.9 28 13.7 28V27.7H16.4L19.6 33V29.1C19.6 28.8 19.6 28.6 19.4 28.4C19.2 28.2 19 28.1 18.7 28.1V27.7H21.1V28.1C20.8 28.1 20.6 28.2 20.4 28.4C20.2 28.6 20.2 28.9 20.2 29.1V36.2H19.3L15.2 29.4Z" fill="#965388"/>
<path d="M8.7 33.2H10.7L9.7 29.9L8.7 33.2ZM6.6 36V35.7C6.8 35.7 7 35.6 7.2 35.4C7.4 35.2 7.5 34.9 7.6 34.6L9.9 27.6H10.9L13.1 34.7C13.2 35 13.3 35.2 13.5 35.4C13.7 35.5 13.9 35.6 14.1 35.6V36H10.7V35.7C10.9 35.7 11 35.7 11.2 35.6C11.3 35.5 11.4 35.4 11.4 35.3C11.4 35.2 11.4 35.2 11.4 35.1C11.4 35 11.4 35 11.3 34.9L10.9 33.8H8.5L8.2 34.8C8.2 34.9 8.2 34.9 8.2 35C8.2 35.1 8.2 35.1 8.2 35.2C8.2 35.4 8.3 35.5 8.4 35.6C8.6 35.7 8.8 35.8 9 35.8V36.2H6.6V36Z" fill="#965388"/>
<path d="M0 36V35.5C0.2 35.5 0.4 35.4 0.6 35.3C0.7 35.1 0.8 34.9 0.8 34.7V25.9C0.8 25.7 0.8 25.5 0.6 25.3C0.4 25.2 0.2 25.1 0 25.1V24.6H3.5C4.5 24.5 5.5 24.8 6.4 25.3C7.1 25.7 7.5 26.4 7.4 27.2C7.4 27.9 7.1 28.6 6.6 29C5.9 29.5 5.1 29.9 4.3 30C5.2 30.1 6.1 30.4 6.9 31C7.5 31.5 7.8 32.2 7.8 32.9C7.9 33.8 7.5 34.6 6.8 35.2C5.9 35.8 4.8 36.1 3.7 36H0V36ZM2.9 30.2V34.5C2.9 34.7 2.9 35 3.1 35.2C3.2 35.3 3.4 35.4 3.6 35.4C4.1 35.4 4.6 35.2 4.9 34.8C5.2 34.3 5.4 33.7 5.3 33C5.4 32.2 5.2 31.5 4.7 30.8C4.3 30.5 3.6 30.2 2.9 30.2ZM2.9 29.7H3.1C3.6 29.7 4.2 29.5 4.6 29.2C4.9 28.7 5.1 28 5 27.4C5.1 26.8 4.9 26.1 4.7 25.6C4.4 25.2 4 25.1 3.5 25.1C3.3 25.1 3.2 25.1 3 25.2C2.9 25.3 2.9 25.5 2.9 25.7V29.7Z" fill="#965388"/>
</svg>
