<svg width="160" height="32" viewBox="0 0 160 32" fill="none" xmlns="http://www.w3.org/2000/svg">
<path d="M41.4959 12.4878H42.7967C45.0081 12.4878 46.5691 11.5772 46.5691 9.88617C46.5691 8.45527 45.3984 7.93495 43.8374 7.93495C43.187 7.93495 42.5366 7.93495 42.2764 8.06504L41.4959 12.4878ZM39.8049 20.813C40.3252 20.813 40.7154 20.9431 41.3659 20.9431C43.5772 20.9431 45.5285 20.0325 45.5285 17.9512C45.5285 16 43.9675 15.4797 42.0163 15.4797H40.7154L39.8049 20.813ZM38.7642 5.20325C40.065 4.94309 41.8862 4.813 43.8374 4.813C45.7886 4.813 47.3496 5.07317 48.5203 5.85366C49.8211 6.50406 50.7317 7.67479 50.7317 9.36585C50.7317 11.8374 48.9106 13.2683 46.8293 13.9187V14.0488C48.6504 14.5691 49.8211 16.1301 49.8211 18.2114C49.8211 20.2927 48.7805 21.7236 47.2195 22.7642C45.6585 23.8049 43.187 24.3252 40.065 24.3252C37.8537 24.3252 36.1626 24.1951 35.252 23.935L38.7642 5.20325Z" fill="#045A51"/>
<path d="M61.7886 13.0081C61.5285 13.0081 61.1382 12.878 60.748 12.878C58.1463 12.878 56.1951 16.1301 56.1951 18.7317C56.1951 20.0325 56.7154 21.0732 57.8862 21.0732C59.0569 21.0732 60.6179 19.6423 61.2683 16.2602L61.7886 13.0081ZM60.6179 23.935C60.6179 23.1545 60.748 22.1138 60.878 21.2033H60.748C59.4472 23.5447 57.7561 24.3252 56.065 24.3252C53.5935 24.3252 51.9024 22.374 51.9024 19.5122C51.9024 14.8293 55.0244 9.88617 61.7886 9.88617C63.4797 9.88617 65.1707 10.1463 66.3415 10.5366L64.9106 17.8211C64.5203 19.6423 64.2602 22.374 64.3902 24.065H60.6179V23.935Z" fill="#045A51"/>
<path d="M67.3821 23.935L69.0732 14.5691C69.4634 12.748 69.5935 11.3171 69.8537 10.0163H73.4959L73.2358 12.3577C74.5366 10.5366 76.2276 9.7561 78.0488 9.7561C80.2602 9.7561 81.561 11.187 81.561 13.5285C81.561 14.1789 81.4309 15.2195 81.3008 15.8699L79.7398 23.935H75.7073L77.1382 16.2602C77.2683 15.7398 77.2683 15.2195 77.2683 14.6992C77.2683 13.7886 76.878 13.0081 75.9675 13.0081C74.6667 13.0081 73.1057 14.6992 72.4553 17.6911L71.2845 23.8049H67.3821" fill="#045A51"/>
<path d="M88.7154 8.32519C87.5447 8.32519 86.7642 7.5447 86.7642 6.37397C86.7642 4.94307 87.8049 4.0325 89.1057 4.0325C90.2764 4.0325 91.187 4.81299 91.187 5.98372C91.187 7.5447 90.0163 8.32519 88.7154 8.32519ZM90.4065 10.1463L87.935 23.5447C87.5447 25.8862 86.8943 27.4471 85.9837 28.4878C85.0732 29.5284 83.6423 29.9187 82.2114 29.9187C81.561 29.9187 80.9106 29.9187 80.2602 29.6585L80.7805 26.5366C81.0407 26.5366 81.3008 26.6667 81.6911 26.6667C82.6016 26.6667 83.3821 26.1463 83.9024 23.6748L86.5041 10.1463H90.4065Z" fill="#045A51"/>
<path d="M100.553 13.9187C100.553 13.2683 100.033 12.748 98.9919 12.748C97.0407 12.748 96 14.3089 95.7398 15.6098C98.9919 15.6098 100.553 15.2195 100.553 13.9187ZM102.634 23.1545C101.073 23.935 98.9919 24.3252 97.4309 24.3252C93.5285 24.3252 91.4472 22.1138 91.4472 18.4715C91.4472 14.3089 94.439 9.88617 99.5122 9.88617C102.374 9.88617 104.325 11.4472 104.325 14.0488C104.325 17.561 100.943 18.8618 95.3496 18.7317C95.3496 19.1219 95.4797 19.7724 95.7398 20.1626C96.2602 20.813 97.1707 21.2033 98.3415 21.2033C99.9024 21.2033 101.073 20.813 102.244 20.2927L102.634 23.1545Z" fill="#045A51"/>
<path d="M105.236 23.935L106.797 15.7398C107.187 13.6585 107.317 11.3171 107.447 10.1463H110.959C110.829 11.0569 110.829 11.9675 110.699 13.0081H110.829C111.74 11.187 113.301 9.88617 115.252 9.88617C115.512 9.88617 115.772 9.88617 116.033 9.88617L115.252 13.9187C114.992 13.9187 114.862 13.9187 114.602 13.9187C112 13.9187 110.829 16.2602 110.309 18.9919L109.398 24.1951H105.236" fill="#045A51"/>
<path d="M125.919 23.5447C125.008 23.935 123.577 24.3252 122.016 24.3252C118.634 24.3252 116.163 22.2439 116.163 18.6016C116.163 13.6585 119.935 9.7561 125.138 9.7561C126.309 9.7561 127.35 10.0163 128 10.1464L126.959 13.2683C126.439 13.0081 125.919 12.878 125.138 12.878C122.276 12.878 120.455 15.3496 120.455 17.9512C120.455 19.9024 121.626 20.813 123.187 20.813C124.358 20.813 125.268 20.5528 125.919 20.2927V23.5447Z" fill="#045A51"/>
<path d="M133.333 8.32519C132.293 8.32519 131.382 7.5447 131.382 6.37397C131.382 4.94307 132.423 4.0325 133.724 4.0325C134.894 4.0325 135.805 4.81299 135.805 5.98372C135.675 7.5447 134.634 8.32519 133.333 8.32519ZM128.13 23.9349L130.732 10.0162H134.764L132.163 23.9349H128.13Z" fill="#045A51"/>
<path d="M143.48 6.37398L142.829 10.1463H145.821L145.171 13.2683H142.179L141.268 17.9512C141.138 18.4716 141.008 19.252 141.008 19.7724C141.008 20.4228 141.268 20.9431 142.179 20.9431C142.569 20.9431 142.959 20.9431 143.35 20.9431L142.829 24.1951C142.309 24.4553 141.268 24.4553 140.488 24.4553C138.016 24.4553 136.846 23.1545 136.846 21.4634C136.846 20.6829 136.976 19.9024 137.106 18.8618L138.146 13.3984H136.455L136.976 10.2764H138.797L139.317 7.67479L143.48 6.37398Z" fill="#045A51"/>
<path d="M149.984 18.4715C149.984 20.0325 150.764 21.2033 152.195 21.2033C154.407 21.2033 155.707 17.9512 155.707 15.6098C155.707 14.3089 155.187 13.0081 153.496 13.0081C151.154 12.878 149.984 16.2602 149.984 18.4715ZM160 15.4797C160 20.5528 156.488 24.3252 151.675 24.3252C148.163 24.3252 145.821 21.9837 145.821 18.6016C145.821 13.7886 149.203 9.88616 154.146 9.88616C157.789 9.75608 160 12.3577 160 15.4797Z" fill="#045A51"/>
<path d="M16.2602 30.1789C16.2602 30.1789 10.9268 30.1789 9.49594 28.4878L10.5366 23.0244L15.7398 26.4065L20.813 22.7642L21.8537 28.3577C21.8537 28.2276 20.5528 30.0488 16.2602 30.1789ZM31.3496 13.7886L15.7398 24.4553L0.130081 13.7886C0 14.439 0 15.0894 0 15.7398C0 24.3252 7.02439 31.3496 15.6098 31.3496C24.1951 31.3496 31.2195 24.3252 31.2195 15.7398C31.4797 14.9593 31.3496 14.3089 31.3496 13.7886ZM14.5691 4.68291C14.5691 4.68291 15.0894 2.7317 16.9106 2.7317C16.9106 2.7317 20.5528 2.7317 20.1626 5.98373C20.1626 5.98373 17.9512 4.29269 17.561 6.89431L18.6016 11.7073L15.7398 13.7886L12.6179 11.5772L14.5691 4.68291ZM29.0081 7.15447C26.2764 2.86179 21.3333 0 15.8699 0C10.2764 0 5.46341 2.86179 2.73171 7.15447L15.7398 15.0894L29.0081 7.15447Z" fill="#045A51"/>
</svg>
