<svg width="125" height="30" viewBox="0 0 125 30" fill="none" xmlns="http://www.w3.org/2000/svg">
<path d="M0 0H4.47518C4.47518 2.64443 4.47518 5.28885 4.47518 7.83157C7.22132 4.78031 13.0187 5.18715 15.4597 8.44183C16.9854 10.6794 17.5956 13.3238 17.1888 15.9683C16.8836 18.8161 15.0529 21.2571 12.3068 22.4776C9.66233 23.4947 6.10252 23.1896 4.37347 20.7486C4.37347 21.3588 4.37347 21.9691 4.37347 22.5793H0C0 15.0529 0 7.52644 0 0ZM7.11961 10.0692C4.27177 11.0862 3.76322 14.8495 5.18714 17.0871C5.7974 18.0024 6.81448 18.7144 7.93328 18.9178C9.05208 19.1212 10.2726 18.8161 11.0862 18.1042C12.8153 16.4768 13.2221 13.9341 12.205 11.8999C11.188 10.0692 9.05208 9.35719 7.11961 10.0692Z" fill="#E96726"/>
<path d="M21.664 6.71278C24.0033 5.49227 26.7494 5.28885 29.2921 6.10252C31.428 6.81448 33.0553 8.64524 33.2587 10.7811C33.4622 14.6461 33.0553 18.6127 33.5639 22.5793C32.1399 22.5793 30.716 22.5793 29.2921 22.5793C29.2921 21.9691 29.1904 21.3588 29.1904 20.8503C28.0716 22.1725 26.4443 22.8845 24.6135 23.0879C22.8845 23.1896 21.1554 22.5793 19.8332 21.4605C18.9178 20.5452 18.4093 19.2229 18.511 17.9007C18.6127 16.5785 19.2229 15.358 20.24 14.4426C22.4776 12.7136 25.6306 13.1204 28.275 12.4085C29.0887 12.1033 28.987 10.9845 28.5801 10.3743C27.5631 9.35719 26.0374 9.05206 24.7152 9.56061C23.6981 9.96744 22.9862 10.8828 22.8845 12.0016C21.4605 11.6965 20.1383 11.4931 18.8161 11.188C18.9178 9.3572 20.0366 7.72986 21.664 6.71278ZM24.7152 15.8666C23.6981 15.9683 22.9862 16.8836 22.9862 17.9007C22.9862 18.8161 23.7998 19.6298 24.7152 19.6298C26.1391 19.8332 27.5631 19.2229 28.275 18.0024C28.6819 17.0871 28.7836 16.1717 28.6819 15.2563C27.4613 15.4597 26.1391 15.5614 24.7152 15.8666Z" fill="#E96726"/>
<path d="M40.2766 8.03498C42.3108 5.59397 45.9723 5.08543 48.7185 6.81448C50.3458 8.13669 51.2612 10.0692 51.1595 12.1033V22.681H46.5826C46.5826 19.4264 46.5826 16.2734 46.5826 13.0187C46.6843 12.0016 46.1758 10.9845 45.3621 10.2726C44.0399 9.45891 42.3108 9.66232 41.192 10.8828C40.5818 11.6965 40.2766 12.7136 40.3784 13.629V22.681H35.8015V5.89911H40.2766C40.2766 6.61107 40.2766 7.32302 40.2766 8.03498Z" fill="#E96726"/>
<path d="M66.2124 7.72987C69.467 4.98373 74.2474 4.88201 77.6037 7.52644C79.8413 9.4589 80.3499 12.5102 80.1465 15.358C76.0781 15.4597 72.1115 15.358 68.0431 15.358C68.2465 17.4939 70.0773 19.0195 72.3149 19.0195C74.0439 19.1212 75.5696 18.1042 76.1798 16.5785C77.4003 16.8836 78.7225 17.2905 80.0447 17.6973C79.4345 19.7315 77.9089 21.3588 75.9764 22.1725C73.0268 23.393 69.6705 22.9862 67.026 21.1554C62.6526 18.1042 62.4491 11.2897 66.2124 7.72987ZM69.0602 10.476C68.6534 10.9845 68.2465 11.5948 68.1448 12.3068C70.6875 12.3068 73.1286 12.3068 75.6713 12.3068C75.5696 11.4931 75.1627 10.6794 74.5525 10.0692C72.9251 8.84865 70.4841 8.95037 69.0602 10.476Z" fill="#E96726"/>
<path d="M114.015 5.8991C116.762 5.28885 119.711 5.8991 121.949 7.62814C123.881 9.25548 124.898 11.5948 125 14.1375C125 16.5785 123.983 19.0195 122.152 20.7486C118.694 23.6981 113.507 23.5964 110.049 20.6469C108.218 18.9178 107.303 16.5785 107.303 14.1375C107.303 11.6965 108.421 9.3572 110.252 7.72986C111.371 6.81448 112.592 6.20423 114.015 5.8991ZM115.236 9.76403C111.371 10.5777 110.761 16.07 113.812 18.1041C115.541 19.1212 117.779 18.9178 119.101 17.4939C120.321 15.9683 120.627 13.8324 119.813 12.0016C119.101 10.3743 117.168 9.3572 115.236 9.76403Z" fill="#E96726"/>
<path d="M52.9902 5.89911H57.4654C57.4654 6.71278 57.4654 7.52644 57.4654 8.34011C58.5842 6.30594 61.2286 5.69568 63.3645 6.00081C63.3645 7.52644 63.3645 9.15378 63.3645 10.6794C62.144 10.476 60.8218 10.5777 59.6013 11.0862C58.2791 11.8999 57.5671 13.3238 57.6688 14.8495C57.6688 17.4939 57.6688 20.0366 57.6688 22.681H52.9902C52.9902 17.0871 52.9902 11.4931 52.9902 5.89911Z" fill="#E96726"/>
<path d="M84.6216 7.11962C87.2661 5.39057 91.5378 5.28887 93.6737 7.72987C93.6737 7.11962 93.6737 6.50937 93.6737 5.89911H98.1489C98.1489 10.8828 98.1489 15.8666 98.1489 20.8503C98.2506 23.1896 97.2335 25.5289 95.4028 27.1562C92.8601 28.987 89.5037 29.4955 86.4524 28.6819C83.7063 27.9699 81.6721 25.834 81.0618 23.1896C82.4858 22.7828 83.9097 22.4776 85.2319 22.0708C85.4353 23.4947 86.5541 24.6135 87.978 24.9186C89.7071 25.4272 91.4361 24.9186 92.6566 23.6981C93.3686 22.4776 93.6737 21.0537 93.572 19.7315C91.2327 22.3759 86.6558 22.0708 84.0114 20.0366C82.0789 18.4093 80.9601 15.9683 81.0618 13.4256C81.1635 10.9845 82.4858 8.64525 84.6216 7.11962ZM88.8934 9.76405C85.9439 10.1709 84.9268 13.9341 86.3507 16.07C87.5712 17.6973 89.8088 18.3076 91.6395 17.2905C92.7583 16.5785 93.4703 15.358 93.572 14.0358C93.6737 12.7136 93.1652 11.4931 92.1481 10.5777C91.3344 9.86574 90.1139 9.56063 88.8934 9.76405Z" fill="#E96726"/>
<path d="M100.59 5.89911H105.167V22.681H100.59V5.89911Z" fill="#E96726"/>
</svg>
