<svg width="78" height="20" viewBox="0 0 78 20" fill="none" xmlns="http://www.w3.org/2000/svg">
<g clip-path="url(#clip0_1471_3534)">
<path d="M14.7893 20C20.2556 20.0262 25.2448 15.542 25.2448 10.0869C25.2448 4.12143 20.2556 -0.00198341 14.7893 7.15737e-07H10.0849C4.55317 -0.00198341 0 4.12266 0 10.0869C0 15.5432 4.55317 20.0262 10.0849 20H14.7893Z" fill="#0079BE"/>
<path d="M10.1071 0.82666C5.0523 0.828247 0.956269 4.92547 0.955078 9.98225C0.956269 15.0382 5.05226 19.135 10.1071 19.1366C15.163 19.135 19.2599 15.0382 19.2606 9.98225C19.2598 4.92547 15.163 0.828247 10.1071 0.82666ZM4.30587 9.98225C4.31063 7.51122 5.85389 5.40408 8.03008 4.56674V15.3965C5.85389 14.5596 4.31059 12.4536 4.30587 9.98225ZM12.1833 15.3989V4.56638C14.3602 5.4017 15.9059 7.51003 15.9098 9.98225C15.9059 12.4552 14.3602 14.562 12.1833 15.3989Z" fill="white"/>
<path d="M28.4507 4.30271C28.4507 3.35664 27.9574 3.41894 27.4844 3.40867V3.13525C27.8943 3.15549 28.3146 3.15549 28.7253 3.15549C29.167 3.15549 29.7666 3.13525 30.5451 3.13525C33.2681 3.13525 34.7511 4.9543 34.7511 6.81696C34.7511 7.85863 34.1416 10.4773 30.4185 10.4773C29.8824 10.4773 29.3876 10.4566 28.8935 10.4566C28.4205 10.4566 27.9574 10.467 27.4844 10.4773V10.2043C28.115 10.1407 28.4205 10.1197 28.4507 9.40426L28.4507 4.30271ZM29.4817 9.2364C29.4817 10.0463 30.0606 10.1408 30.5757 10.1408C32.8479 10.1408 33.594 8.42609 33.594 6.85863C33.594 4.89236 32.3317 3.47252 30.3024 3.47252C29.8706 3.47252 29.6722 3.50347 29.4817 3.51462L29.4817 9.2364Z" fill="#211E1F"/>
<path d="M35.1201 10.2044H35.3193C35.6134 10.2044 35.8241 10.2044 35.8241 9.85635V7.00638C35.8241 6.54412 35.6665 6.4798 35.2773 6.27067V6.10202C35.7713 5.95361 36.3611 5.75519 36.4023 5.72345C36.4765 5.68138 36.5392 5.67027 36.592 5.67027C36.644 5.67027 36.6658 5.73377 36.6658 5.81829V9.85635C36.6658 10.2044 36.8971 10.2044 37.1916 10.2044H37.3702V10.4778C37.0122 10.4778 36.644 10.4568 36.2662 10.4568C35.8876 10.4568 35.5087 10.4671 35.1202 10.4778V10.2044H35.1201ZM36.2451 4.05079C35.9713 4.05079 35.7301 3.79845 35.7301 3.525C35.7301 3.2615 35.9825 3.01904 36.2451 3.01904C36.5177 3.01904 36.7606 3.24091 36.7606 3.525C36.7606 3.80912 36.5285 4.05079 36.2451 4.05079Z" fill="#211E1F"/>
<path d="M38.3689 7.06873C38.3689 6.67984 38.2526 6.57508 37.7594 6.37508V6.17552C38.2114 6.02829 38.642 5.89139 39.1471 5.66996C39.1785 5.66996 39.2094 5.69139 39.2094 5.77512V6.45921C39.8098 6.02829 40.3253 5.66992 41.0308 5.66992C41.9237 5.66992 42.2391 6.32226 42.2391 7.1425V9.85603C42.2391 10.204 42.4704 10.204 42.7653 10.204H42.9546V10.4775C42.5855 10.4775 42.2177 10.4565 41.8399 10.4565C41.4609 10.4565 41.0819 10.4668 40.7038 10.4775V10.204H40.8927C41.1879 10.204 41.3971 10.204 41.3971 9.85603V7.13258C41.3971 6.53218 41.0308 6.23814 40.4304 6.23814C40.0943 6.23814 39.5577 6.51159 39.2093 6.74329V9.85595C39.2093 10.204 39.4418 10.204 39.7367 10.204H39.9256V10.4774C39.5577 10.4774 39.1891 10.4564 38.8106 10.4564C38.4323 10.4564 38.053 10.4667 37.6748 10.4774V10.204H37.8645C38.1589 10.204 38.3689 10.204 38.3689 9.85595V7.06873H38.3689Z" fill="#211E1F"/>
<path d="M43.7548 7.57429C43.733 7.66917 43.733 7.82667 43.7548 8.1846C43.8168 9.18341 44.46 10.0037 45.3 10.0037C45.879 10.0037 46.3322 9.68822 46.7207 9.29933L46.8675 9.44695C46.3834 10.0882 45.7841 10.635 44.9223 10.635C43.2496 10.635 42.9131 9.01476 42.9131 8.34218C42.9131 6.28024 44.3012 5.66992 45.0369 5.66992C45.8893 5.66992 46.8048 6.20607 46.8147 7.32111C46.8147 7.385 46.8147 7.4473 46.8048 7.51119L46.7096 7.57429H43.7548ZM45.6167 7.23742C45.879 7.23742 45.91 7.10052 45.91 6.97472C45.91 6.43818 45.5842 6.00683 44.9949 6.00683C44.354 6.00683 43.9123 6.47945 43.7861 7.23742H45.6167Z" fill="#211E1F"/>
<path d="M47.0566 10.2046H47.3408C47.6343 10.2046 47.8447 10.2046 47.8447 9.85652V6.90136C47.8447 6.57557 47.4562 6.51208 47.2979 6.42795V6.27081C48.0658 5.94422 48.4868 5.67041 48.5824 5.67041C48.6447 5.67041 48.6756 5.70216 48.6756 5.80771V6.75414H48.6979C48.9602 6.34422 49.4027 5.67041 50.0435 5.67041C50.3066 5.67041 50.6428 5.84898 50.6428 6.22795C50.6428 6.51208 50.4435 6.76525 50.1491 6.76525C49.8218 6.76525 49.8218 6.51208 49.4543 6.51208C49.2753 6.51208 48.6868 6.75414 48.6868 7.38549V9.85652C48.6868 10.2045 48.8967 10.2045 49.1916 10.2045H49.7801V10.478C49.2015 10.4672 48.7614 10.457 48.3082 10.457C47.8773 10.457 47.4352 10.4673 47.0567 10.478L47.0566 10.2046Z" fill="#211E1F"/>
<path d="M51.1057 9.01521C51.2427 9.70966 51.6629 10.299 52.4311 10.299C53.0502 10.299 53.2819 9.92041 53.2819 9.55216C53.2819 8.31089 50.9898 8.71049 50.9898 7.01723C50.9898 6.42795 51.4636 5.67041 52.62 5.67041C52.9561 5.67041 53.408 5.76565 53.818 5.97636L53.8926 7.04823H53.6502C53.5454 6.38628 53.1776 6.00735 52.5037 6.00735C52.0831 6.00735 51.6839 6.24946 51.6839 6.7014C51.6839 7.93315 54.1236 7.55339 54.1236 9.20458C54.1236 9.89862 53.566 10.6355 52.3144 10.6355C51.8938 10.6355 51.3997 10.4883 51.0319 10.2784L50.916 9.0685L51.1057 9.01521Z" fill="#211E1F"/>
<path d="M63.6198 5.03984H63.3574C63.1575 3.80968 62.2844 3.31484 61.1071 3.31484C59.8967 3.31484 58.1404 4.12432 58.1404 6.64857C58.1404 8.77476 59.6558 10.2993 61.2749 10.2993C62.3157 10.2993 63.1788 9.58425 63.3892 8.47952L63.6304 8.54222L63.3892 10.0779C62.9475 10.3521 61.759 10.6359 61.0642 10.6359C58.6038 10.6359 57.0479 9.04742 57.0479 6.68071C57.0479 4.52436 58.9721 2.97754 61.0332 2.97754C61.8848 2.97754 62.705 3.25214 63.515 3.53627L63.6198 5.03984Z" fill="#211E1F"/>
<path d="M63.9991 10.2045H64.1983C64.4931 10.2045 64.7043 10.2045 64.7043 9.85639V3.9985C64.7043 3.31437 64.5463 3.2933 64.1463 3.17782V3.00957C64.5669 2.8731 65.0086 2.68338 65.2297 2.55683C65.3443 2.49413 65.4292 2.44092 65.4602 2.44092C65.5245 2.44092 65.5455 2.50445 65.5455 2.58893V9.85639C65.5455 10.2045 65.7764 10.2045 66.0713 10.2045H66.2487V10.4779C65.8927 10.4779 65.5245 10.4568 65.1455 10.4568C64.7674 10.4568 64.3887 10.4672 63.999 10.4779V10.2045H63.9991Z" fill="#211E1F"/>
<path d="M70.7516 9.89857C70.7516 10.0887 70.8667 10.099 71.0452 10.099C71.1718 10.099 71.329 10.0887 71.4662 10.0887V10.3101C71.0135 10.3517 70.1512 10.5728 69.9511 10.6355L69.8984 10.6037V9.75254C69.2683 10.2676 68.7837 10.6355 68.0365 10.6355C67.4686 10.6355 66.8798 10.2676 66.8798 9.38465V6.69099C66.8798 6.41758 66.8381 6.15445 66.25 6.10211V5.9021C66.629 5.89179 67.4687 5.82865 67.6059 5.82865C67.7227 5.82865 67.7227 5.90211 67.7227 6.13345V8.84651C67.7227 9.16282 67.7227 10.0671 68.6369 10.0671C68.9944 10.0671 69.4675 9.79373 69.9088 9.42667V6.59572C69.9088 6.38619 69.4044 6.27072 69.0266 6.16512V5.97584C69.9719 5.91234 70.5619 5.82861 70.6663 5.82861C70.7515 5.82861 70.7515 5.90203 70.7515 6.0183L70.7516 9.89857Z" fill="#211E1F"/>
<path d="M72.8446 6.42786C73.2649 6.07028 73.8327 5.67032 74.4116 5.67032C75.6319 5.67032 76.3672 6.73381 76.3672 7.87941C76.3672 9.25723 75.3581 10.6354 73.8533 10.6354C73.0755 10.6354 72.6656 10.3826 72.3917 10.2675L72.0767 10.5087L71.8565 10.3937C71.9498 9.77306 72.0033 9.16274 72.0033 8.52147V3.99846C72.0033 3.31437 71.8446 3.2933 71.4453 3.17782V3.00957C71.8672 2.8731 72.3076 2.68338 72.5287 2.55679C72.6446 2.49409 72.7282 2.44092 72.7608 2.44092C72.8235 2.44092 72.8445 2.50445 72.8445 2.58893V6.42782H72.8446V6.42786ZM72.8446 9.28858C72.8446 9.68858 73.2228 10.3624 73.9275 10.3624C75.0529 10.3624 75.5259 9.25723 75.5259 8.32076C75.5259 7.18505 74.6644 6.23862 73.8438 6.23862C73.4537 6.23862 73.1283 6.49139 72.8446 6.73381L72.8446 9.28858Z" fill="#211E1F"/>
<path d="M27.4717 16.5931H27.5522C27.7578 16.5931 27.9753 16.5654 27.9753 16.2673V13.2689C27.9753 12.9705 27.7578 12.9423 27.5522 12.9423H27.4717V12.7705C27.6951 12.7705 28.0383 12.7931 28.3197 12.7931C28.6054 12.7931 28.9483 12.7705 29.2173 12.7705V12.9423H29.1368C28.9316 12.9423 28.7138 12.9705 28.7138 13.2689V16.2673C28.7138 16.5654 28.9316 16.5931 29.1368 16.5931H29.2173V16.7658C28.9427 16.7658 28.5987 16.7432 28.3133 16.7432C28.0328 16.7432 27.6951 16.7658 27.4717 16.7658V16.5931Z" fill="#211E1F"/>
<path d="M29.2184 16.79C28.9419 16.79 28.599 16.767 28.3141 16.767C28.0343 16.767 27.6978 16.79 27.4728 16.79H27.4482V16.7654V16.5936V16.5686H27.4728H27.553C27.7605 16.5638 27.9494 16.5471 27.9514 16.2674V13.2689C27.9494 12.9892 27.7605 12.9705 27.553 12.9665H27.4482V12.9424V12.7451H27.4728C27.6978 12.7451 28.0407 12.7677 28.3204 12.7677C28.6053 12.7677 28.9478 12.7451 29.2184 12.7451H29.2439V12.7713V12.9665H29.2184H29.1383C28.9307 12.9705 28.7406 12.9892 28.7395 13.2689V16.2674C28.7406 16.5471 28.9307 16.5638 29.1383 16.5686H29.2438V16.5936V16.79H29.2184ZM29.1938 16.7411V16.6189H29.1383C28.934 16.6189 28.6907 16.5836 28.6895 16.2674V13.2689C28.6907 12.9527 28.9339 12.9169 29.1383 12.9169H29.1938V12.7955C28.9295 12.7955 28.5982 12.8177 28.3204 12.8177C28.0486 12.8177 27.7196 12.7971 27.4982 12.7955V12.9169H27.553C27.7569 12.9169 28.001 12.9527 28.001 13.2689V16.2674C28.001 16.5836 27.7569 16.6189 27.553 16.6189H27.4982V16.7411C27.7196 16.7388 28.043 16.7181 28.3141 16.7181C28.5926 16.7181 28.924 16.7396 29.1938 16.7411Z" fill="#211E1F"/>
<path d="M33.1489 15.6376L33.1604 15.6265V13.4805C33.1604 13.0106 32.8338 12.9424 32.6624 12.9424H32.5362V12.7705C32.8056 12.7705 33.0687 12.7931 33.3373 12.7931C33.5718 12.7931 33.8076 12.7705 34.0417 12.7705V12.9424H33.956C33.7151 12.9424 33.4461 12.988 33.4461 13.669V16.2737C33.4461 16.4738 33.452 16.6737 33.4802 16.8511H33.2623L30.3159 13.5658V15.9242C30.3159 16.4222 30.4123 16.5932 30.8536 16.5932H30.9504V16.7658C30.7048 16.7658 30.4591 16.7432 30.2127 16.7432C29.956 16.7432 29.6925 16.7658 29.4346 16.7658V16.5932H29.5147C29.9096 16.5932 30.0294 16.3249 30.0294 15.8674V13.4567C30.0294 13.1365 29.7656 12.9424 29.5092 12.9424H29.4346V12.7706C29.652 12.7706 29.8751 12.7932 30.0921 12.7932C30.2639 12.7932 30.4302 12.7706 30.6016 12.7706L33.1489 15.6376Z" fill="#211E1F"/>
<path d="M33.4803 16.8763L33.2442 16.8675L30.3402 13.6306V15.9243C30.347 16.4219 30.4228 16.5632 30.8537 16.5687H30.9763V16.5933V16.7901H30.9509C30.7033 16.7901 30.4569 16.7671 30.2128 16.7671C29.9564 16.7671 29.6937 16.7901 29.4342 16.7901H29.4092V16.7655V16.5687H29.4342H29.5148C29.8929 16.5667 30.0009 16.3239 30.0053 15.8675V13.4572C30.0044 13.1524 29.7545 12.9675 29.5092 12.9667H29.4092V12.9413V12.7461H29.4342C29.6529 12.7461 29.877 12.7679 30.0917 12.7679C30.262 12.7679 30.4279 12.7461 30.6207 12.7544L33.1358 15.5858V13.4811C33.1326 13.0255 32.8291 12.9707 32.6624 12.9667H32.5108V12.9413V12.7461H32.5362C32.8064 12.7461 33.0699 12.7679 33.3374 12.7679C33.5703 12.7679 33.8048 12.7461 34.0413 12.7461H34.0663V12.7707V12.9667H34.0413H33.956C33.7199 12.9735 33.4774 12.9941 33.4707 13.6691V16.2734C33.4707 16.4734 33.4766 16.6734 33.5045 16.8468L33.51 16.8762H33.4803V16.8763ZM33.2629 16.8258H33.4522C33.4264 16.654 33.422 16.4635 33.422 16.2734V13.6691C33.422 12.9822 33.7097 12.9171 33.9561 12.9171H34.0164V12.7957C33.791 12.7972 33.5649 12.8179 33.3375 12.8179C33.0756 12.8179 32.8208 12.7972 32.5617 12.7957L32.5613 12.9171H32.6625C32.8383 12.9171 33.1855 12.9957 33.1855 13.481L33.1776 15.6437L33.1661 15.6556L33.1467 15.6735L30.6018 12.7957C30.432 12.7957 30.2661 12.8179 30.0919 12.8179C29.882 12.8179 29.6673 12.7972 29.4597 12.7957L29.4585 12.9171H29.5093C29.778 12.9171 30.0538 13.1222 30.0538 13.4572V15.8675C30.0538 16.325 29.9264 16.6178 29.5149 16.6194L29.4597 16.6178V16.7413C29.7078 16.7389 29.9625 16.7182 30.2129 16.7182C30.4518 16.7182 30.6895 16.7389 30.926 16.7413V16.6194H30.8538C30.4033 16.6178 30.2915 16.4218 30.291 15.9242V13.5016L33.2629 16.8258ZM33.1358 15.6263V15.6243L33.1311 15.6203L33.1358 15.6263Z" fill="#211E1F"/>
<path d="M34.8989 13.0562C34.4691 13.0562 34.4529 13.1594 34.3671 13.5769H34.1953C34.2179 13.4169 34.2465 13.257 34.264 13.0904C34.2869 12.93 34.2981 12.7705 34.2981 12.6046H34.4357C34.4818 12.7765 34.6247 12.7705 34.7798 12.7705H37.7318C37.8865 12.7705 38.0294 12.765 38.0413 12.5928L38.1778 12.6158C38.1556 12.7705 38.1326 12.9249 38.1151 13.0796C38.1048 13.234 38.1048 13.3888 38.1048 13.5427L37.9326 13.6066C37.9207 13.3951 37.8921 13.0562 37.5092 13.0562H36.5707V16.1015C36.5707 16.5427 36.7711 16.5932 37.0449 16.5932H37.154V16.7658C36.931 16.7658 36.5298 16.7432 36.2215 16.7432C35.8782 16.7432 35.477 16.7658 35.2536 16.7658V16.5932H35.3627C35.6782 16.5932 35.8377 16.565 35.8377 16.1134V13.0562H34.8989Z" fill="#211E1F"/>
<path d="M37.1551 16.7902C36.9297 16.7902 36.5293 16.7672 36.2218 16.7672C35.8789 16.7672 35.4785 16.7902 35.2539 16.7902H35.2301V16.766V16.5688H35.2539H35.363C35.6785 16.5613 35.8054 16.5573 35.8126 16.1136V13.0815H34.8991V13.0565V13.0311H35.8623V16.1136C35.8623 16.5727 35.6773 16.6192 35.3631 16.6196H35.2789V16.7402C35.5047 16.739 35.8897 16.7184 36.2218 16.7184C36.5202 16.7184 36.9027 16.739 37.1289 16.7402V16.6196H37.0452C36.7686 16.6192 36.546 16.5513 36.546 16.1017V13.0311H37.5095C37.8936 13.0327 37.9436 13.3592 37.9563 13.5715L38.0797 13.5259C38.0797 13.3767 38.0805 13.2271 38.0908 13.0763C38.1075 12.9291 38.1285 12.7831 38.15 12.637L38.0626 12.6223C38.0361 12.789 37.8753 12.7973 37.7313 12.7958H34.7801H34.7503C34.6158 12.7958 34.4686 12.7894 34.4174 12.6295H34.3229C34.3221 12.7879 34.311 12.9414 34.2892 13.0938C34.2725 13.2509 34.2463 13.4021 34.2249 13.5533H34.3475C34.4229 13.1545 34.4721 13.0251 34.8991 13.0311V13.0565V13.0815C34.4761 13.089 34.4848 13.1605 34.3916 13.5835L34.3872 13.6029H34.3674H34.167L34.1702 13.5732C34.1932 13.4129 34.2222 13.2533 34.2392 13.0866C34.263 12.9279 34.2741 12.7692 34.2741 12.6049V12.5799H34.2983H34.4555L34.4595 12.5977C34.4987 12.7422 34.6047 12.743 34.7503 12.7454H34.7801H37.7313C37.8908 12.743 38.0067 12.7406 38.0166 12.5909L38.019 12.564L38.0448 12.5695L38.2063 12.595L38.2027 12.62C38.1797 12.7731 38.1571 12.9279 38.1404 13.0815C38.1289 13.2338 38.1289 13.3886 38.1289 13.543V13.5608L38.113 13.5672L37.9102 13.6409L37.9087 13.6076C37.8936 13.3925 37.871 13.0814 37.5095 13.0814H36.596V16.1017C36.6011 16.5334 36.7725 16.5632 37.0451 16.5687H37.1793V16.5933V16.7902L37.1551 16.7902Z" fill="#211E1F"/>
<path d="M38.3604 16.5931H38.4409C38.6465 16.5931 38.8643 16.5654 38.8643 16.2673V13.2689C38.8643 12.9705 38.6465 12.9423 38.4409 12.9423H38.3604V12.7705C38.7088 12.7705 39.3048 12.7931 39.7845 12.7931C40.2663 12.7931 40.8604 12.7705 41.2492 12.7705C41.2398 13.0161 41.2449 13.3947 41.2619 13.6459L41.0893 13.6919C41.0619 13.3202 40.9932 13.0229 40.3921 13.0229H39.5973V14.5217H40.2775C40.6206 14.5217 40.6957 14.3277 40.7294 14.0178H40.9008C40.8898 14.242 40.8838 14.465 40.8838 14.688C40.8838 14.9059 40.8897 15.123 40.9008 15.3404L40.7294 15.3745C40.6957 15.0313 40.6782 14.8082 40.283 14.8082H39.5973V16.1412C39.5973 16.5138 39.9279 16.5138 40.2945 16.5138C40.9814 16.5138 41.2842 16.4674 41.456 15.8158L41.6164 15.8551C41.5413 16.159 41.4731 16.4618 41.4223 16.7658C41.0556 16.7658 40.3973 16.7432 39.883 16.7432C39.3671 16.7432 38.6866 16.7658 38.3604 16.7658V16.5931Z" fill="#211E1F"/>
<path d="M41.4226 16.7901C41.0551 16.7901 40.3972 16.7667 39.8833 16.7667C39.3679 16.7667 38.6877 16.7901 38.3611 16.7901H38.3369V16.7659V16.5933V16.5687H38.3611H38.4413C38.6488 16.5655 38.8369 16.5473 38.8397 16.2675V13.2691C38.8369 12.9897 38.6488 12.9711 38.4413 12.9667H38.3369V12.9425V12.7461H38.3611C38.7103 12.7461 39.3055 12.7679 39.7853 12.7679C40.2666 12.7679 40.8603 12.7461 41.25 12.7461H41.2758L41.2745 12.7715C41.2706 12.8576 41.269 12.9591 41.269 13.0671C41.269 13.2651 41.2745 13.4814 41.2861 13.6445L41.2869 13.6651L41.2678 13.6707L41.0666 13.7231L41.0655 13.6938C41.0318 13.3223 40.9822 13.0529 40.3929 13.0473H39.6219L39.621 14.4961H40.2782C40.6076 14.493 40.6667 14.3243 40.7056 14.016L40.7076 13.9934H40.7298H40.9271L40.9267 14.0191C40.9156 14.2421 40.9084 14.4651 40.9084 14.6882C40.9084 14.9048 40.9156 15.1219 40.9267 15.3397L40.9271 15.36L40.9064 15.3647L40.7076 15.4044L40.7056 15.3774C40.6663 15.0282 40.6635 14.837 40.2833 14.8326L39.6218 14.8322V16.1413C39.6223 16.489 39.9222 16.487 40.2953 16.489C40.9841 16.485 41.2604 16.4517 41.433 15.8088L41.4386 15.7858L41.4627 15.7901L41.6461 15.8373L41.6405 15.8612C41.5668 16.1643 41.4981 16.4667 41.4468 16.7699L41.4421 16.7901H41.4226ZM41.4016 16.7401C41.4512 16.4516 41.5166 16.162 41.5869 15.8738L41.4738 15.8453C41.3024 16.4858 40.9706 16.5429 40.2952 16.5386C39.9349 16.5386 39.5738 16.5386 39.5722 16.1413V14.7834H40.2833C40.6829 14.779 40.7238 15.0203 40.752 15.3461L40.8758 15.3203C40.8647 15.1095 40.8595 14.898 40.8595 14.6881C40.8595 14.4726 40.8647 14.2584 40.8758 14.0429H40.752C40.7202 14.3409 40.627 14.5504 40.2782 14.5465H39.5722V12.9972H40.3929C40.9881 12.9932 41.0869 13.3004 41.1123 13.6603L41.2358 13.627C41.2258 13.4655 41.219 13.2584 41.219 13.0671C41.219 12.9691 41.2214 12.8766 41.2246 12.7957C40.8358 12.7972 40.2564 12.8179 39.7853 12.8179C39.3151 12.8179 38.7362 12.7972 38.3857 12.7957V12.9171H38.4412C38.6452 12.9171 38.8889 12.9528 38.8897 13.2691V16.2675C38.8889 16.583 38.6452 16.6179 38.4412 16.6195H38.3857V16.7401C38.7195 16.7397 39.3806 16.7183 39.8833 16.7183C40.3881 16.7183 41.0325 16.7397 41.4016 16.7401Z" fill="#211E1F"/>
<path d="M42.3894 13.3773C42.3894 12.9598 42.1608 12.9427 41.9827 12.9427H41.8799V12.7705C42.0632 12.7705 42.4175 12.7935 42.7668 12.7935C43.11 12.7935 43.385 12.7705 43.6879 12.7705C44.4084 12.7705 45.0502 12.9653 45.0502 13.7788C45.0502 14.2927 44.7069 14.6078 44.2549 14.786L45.2331 16.2503C45.3933 16.4923 45.5073 16.5602 45.7882 16.5935V16.7661C45.5993 16.7661 45.4159 16.7435 45.2275 16.7435C45.0501 16.7435 44.8664 16.7661 44.6897 16.7661C44.2492 16.188 43.8707 15.5697 43.4989 14.911H43.1223V16.1364C43.1223 16.5777 43.3275 16.5935 43.5906 16.5935H43.6937V16.7662C43.3667 16.7662 43.0363 16.7436 42.7096 16.7436C42.4346 16.7436 42.1656 16.7662 41.8799 16.7662V16.5935H41.9827C42.1953 16.5935 42.3894 16.4975 42.3894 16.2852V13.3773ZM43.1223 14.705H43.4017C43.9743 14.705 44.2826 14.4876 44.2826 13.8122C44.2826 13.3034 43.9568 12.9769 43.4469 12.9769C43.2751 12.9769 43.2021 12.9947 43.1222 12.9999V14.705H43.1223Z" fill="#211E1F"/>
<path d="M45.7879 16.7899C45.5962 16.7899 45.4141 16.7669 45.226 16.7669C45.0514 16.7669 44.8689 16.7899 44.6693 16.7804C44.2304 16.2046 43.8542 15.5899 43.4843 14.9359H43.1462V16.1352C43.1522 16.5657 43.3252 16.5621 43.5899 16.5685H43.7181V16.5931V16.7899H43.6926C43.3656 16.7899 43.0335 16.7669 42.7085 16.7669C42.4351 16.7669 42.1669 16.7899 41.8795 16.7899H41.8545V16.7653V16.5685H41.8795H41.9823C42.1886 16.5673 42.3625 16.4776 42.3633 16.2848V13.3769C42.3589 12.9705 42.1601 12.9729 41.9823 12.9669H41.8545V12.9423V12.7451H41.8795C42.0648 12.7451 42.418 12.7677 42.7664 12.7677C43.1081 12.7677 43.3831 12.7451 43.6879 12.7451C44.4089 12.7467 45.0732 12.9459 45.0752 13.7769C45.0752 14.2939 44.7335 14.6165 44.2918 14.7967L45.2533 16.2363C45.4133 16.4736 45.5129 16.5328 45.7915 16.5685L45.8125 16.5717V16.5931V16.7899H45.7879V16.7899ZM43.1213 14.8859H43.5125L43.5193 14.8986C43.8923 15.5561 44.268 16.1736 44.6895 16.741C44.8641 16.741 45.0478 16.7176 45.226 16.7176C45.4089 16.7176 45.5851 16.7375 45.7633 16.7402V16.6148C45.4946 16.5815 45.3689 16.5013 45.2125 16.2636L44.2169 14.7735L44.245 14.762C44.6927 14.5859 45.024 14.2799 45.0244 13.7767C45.024 12.9827 44.4073 12.7986 43.6879 12.7954C43.3859 12.7954 43.1113 12.818 42.7664 12.818C42.4304 12.818 42.091 12.797 41.9037 12.7954V12.9168H41.9823C42.1601 12.9173 42.4132 12.9466 42.4132 13.3768V16.2847C42.4132 16.5144 42.1977 16.6192 41.9823 16.6196H41.9037V16.7402C42.1792 16.7394 42.4398 16.7176 42.7085 16.7176C43.0287 16.7176 43.3514 16.7394 43.6681 16.7402V16.6196H43.5899C43.3287 16.6192 43.0962 16.5867 43.0962 16.1351V14.8859H43.1212H43.1213ZM43.1213 14.7287H43.0962V12.9763L43.118 12.9744C43.1962 12.9684 43.2737 12.9521 43.4466 12.9521C43.9681 12.9521 44.307 13.291 44.3077 13.8128C44.3062 14.4961 43.9784 14.7283 43.4014 14.7287H43.1213V14.7287ZM43.4014 14.6796C43.968 14.6748 44.253 14.478 44.2589 13.8129C44.2558 13.3129 43.945 13.0025 43.4466 13.0006C43.2918 13.0006 43.2192 13.0148 43.1462 13.0212V14.6796H43.4014Z" fill="#211E1F"/>
<path d="M49.6728 15.6381L49.6832 15.627V13.481C49.6832 13.0111 49.3574 12.9429 49.186 12.9429H49.0606V12.771C49.3292 12.771 49.592 12.7936 49.8614 12.7936C50.0963 12.7936 50.3301 12.771 50.5661 12.771V12.9429H50.48C50.2396 12.9429 49.9705 12.9885 49.9705 13.6694V16.2742C49.9705 16.4743 49.9761 16.6742 50.0042 16.8516H49.7872L46.8404 13.5663V15.9246C46.8404 16.4227 46.9376 16.5937 47.378 16.5937H47.4753V16.7663C47.2296 16.7663 46.9832 16.7437 46.7376 16.7437C46.4792 16.7437 46.2161 16.7663 45.959 16.7663V16.5937H46.0383C46.4336 16.5937 46.5538 16.3254 46.5538 15.8679V13.4572C46.5538 13.1369 46.2907 12.9429 46.0336 12.9429H45.959V12.7711C46.1757 12.7711 46.3999 12.7937 46.6169 12.7937C46.7876 12.7937 46.9542 12.7711 47.126 12.7711L49.6728 15.6381Z" fill="#211E1F"/>
<path d="M50.005 16.8761L49.7693 16.8682L46.865 13.6309V15.9242C46.8717 16.4222 46.9471 16.5634 47.3788 16.569H47.4999V16.5936V16.7904H47.4749C47.2273 16.7904 46.982 16.767 46.7368 16.767C46.4813 16.767 46.2169 16.7904 45.9594 16.7904H45.9336V16.7662V16.569H45.9594H46.0387C46.4165 16.5674 46.5249 16.3242 46.5284 15.8662V13.4571C46.528 13.1523 46.2785 12.9674 46.034 12.967H45.9336V12.9428V12.7456H45.9594C46.1776 12.7456 46.4015 12.7682 46.6173 12.7682C46.7856 12.7682 46.9515 12.7456 47.1435 12.7535L49.659 15.5861V13.4805C49.6574 13.0257 49.3526 12.9694 49.1864 12.967H49.0352V12.9428V12.7456H49.0602C49.3309 12.7456 49.5943 12.7682 49.8618 12.7682C50.0951 12.7682 50.3297 12.7456 50.5653 12.7456H50.5903V12.7714V12.967H50.5653H50.4804C50.2443 12.9734 50.001 12.9944 49.9951 13.6694V16.2737C49.9951 16.4737 50.0003 16.6722 50.0292 16.8483L50.0324 16.8761H50.005ZM49.7876 16.8261H49.9757C49.9506 16.6543 49.9451 16.4638 49.9451 16.2737V13.6694C49.9455 12.9824 50.2352 12.919 50.4804 12.917H50.5403V12.796C50.3157 12.7976 50.0892 12.8182 49.8617 12.8182C49.5991 12.8182 49.3438 12.7976 49.0847 12.796V12.917H49.1864C49.3625 12.919 49.7094 12.996 49.7094 13.4805L49.7015 15.644L49.6903 15.6559L49.6729 15.6741L47.1261 12.796C46.9562 12.796 46.7903 12.8182 46.6174 12.8182C46.4055 12.8182 46.1916 12.7976 45.9832 12.796V12.917H46.034C46.3027 12.919 46.5785 13.1218 46.5785 13.4571V15.8662C46.5785 16.3257 46.4491 16.6182 46.0388 16.6198L45.9832 16.6194V16.7404C46.2305 16.7392 46.4856 16.7186 46.7368 16.7186C46.9769 16.7186 47.2146 16.7392 47.4511 16.7404V16.6198H47.3789C46.9281 16.6194 46.8154 16.4222 46.8146 15.9241V13.5027L49.7876 16.8261ZM49.659 15.6269V15.6249L49.6546 15.6206L49.659 15.6269Z" fill="#211E1F"/>
<path d="M51.4868 15.9472C51.4289 16.1412 51.3598 16.2912 51.3598 16.3932C51.3598 16.5654 51.6007 16.5932 51.7888 16.5932H51.8527V16.7658C51.6233 16.7535 51.3896 16.7432 51.159 16.7432C50.9531 16.7432 50.7483 16.7536 50.542 16.7658V16.5932H50.5765C50.7995 16.5932 50.9888 16.4618 51.0733 16.221L51.99 13.5948C52.0638 13.3829 52.1677 13.0968 52.2024 12.8845C52.3845 12.8222 52.6138 12.7079 52.7222 12.6389C52.74 12.6329 52.7499 12.627 52.7678 12.627C52.7849 12.627 52.796 12.627 52.8087 12.6448C52.8253 12.69 52.842 12.742 52.8603 12.7877L53.913 15.7813C53.9817 15.9813 54.0495 16.1928 54.1238 16.365C54.1928 16.5254 54.3134 16.5932 54.5027 16.5932H54.5364V16.7658C54.279 16.7535 54.021 16.7433 53.7472 16.7433C53.4666 16.7433 53.1797 16.7536 52.8881 16.7658V16.5932H52.9516C53.0826 16.5932 53.3064 16.571 53.3064 16.4277C53.3064 16.3535 53.2547 16.1992 53.1909 16.0154L52.9682 15.3516H51.6695L51.4868 15.9472ZM52.3217 13.4115H52.3102L51.778 15.0313H52.8475L52.3217 13.4115Z" fill="#211E1F"/>
<path d="M54.5344 16.7901C54.2769 16.7786 54.0193 16.7667 53.7467 16.7667C53.4662 16.7667 53.1812 16.7786 52.8884 16.7901L52.8626 16.7917V16.7659V16.5679H52.8876H52.9507C53.0832 16.5679 53.28 16.5378 53.28 16.4279C53.2816 16.3628 53.23 16.2056 53.1669 16.0235L52.9491 15.3763H51.6868L51.509 15.9544C51.451 16.1497 51.3825 16.3008 51.3828 16.3941C51.3848 16.5338 51.5987 16.5679 51.7884 16.5679H51.8765V16.5937V16.7917L51.8507 16.7901C51.6217 16.7786 51.388 16.7667 51.1598 16.7667C50.9547 16.7667 50.7483 16.7786 50.5432 16.7901L50.5166 16.7917V16.7659V16.5679H50.5416H50.5757C50.7888 16.5671 50.9666 16.4461 51.0491 16.2132L51.9654 13.5866C52.0405 13.3743 52.1436 13.089 52.1932 12.8608C52.3726 12.8001 52.6023 12.685 52.7126 12.6152C52.7285 12.61 52.7444 12.6021 52.7678 12.6021C52.7817 12.6017 52.8126 12.6053 52.8309 12.6355C52.8472 12.6826 52.865 12.7335 52.8825 12.7799L53.9365 15.7732C54.004 15.974 54.0722 16.1855 54.1468 16.3545C54.2131 16.5073 54.3183 16.5672 54.5024 16.568H54.5607V16.5938V16.7918L54.5344 16.7901ZM52.9126 16.7389C53.1959 16.729 53.4733 16.7179 53.7467 16.7179C54.0126 16.7179 54.2614 16.729 54.5101 16.7389V16.6195H54.5022C54.3062 16.6206 54.1709 16.5437 54.1006 16.3751C54.026 16.2012 53.9562 15.9889 53.8892 15.7885L52.8356 12.7957C52.8182 12.7501 52.8015 12.6981 52.7864 12.6576C52.7816 12.652 52.7828 12.652 52.7781 12.652H52.7677C52.7558 12.652 52.7491 12.6556 52.7343 12.6596C52.6241 12.7314 52.3943 12.8437 52.2248 12.8885C52.1895 13.1052 52.0868 13.3909 52.0122 13.6028L51.0963 16.2298C51.009 16.4782 50.8086 16.6199 50.5757 16.6195H50.5666V16.7389C50.7626 16.729 50.961 16.7179 51.1598 16.7179C51.3808 16.7179 51.607 16.729 51.8253 16.7389V16.6195H51.7884C51.6023 16.6171 51.3419 16.596 51.3348 16.3941C51.3352 16.2798 51.4055 16.1334 51.4613 15.9401L51.4864 15.9476L51.4613 15.9393L51.6498 15.3274H52.984L53.2137 16.0076C53.278 16.1913 53.33 16.3437 53.33 16.4278C53.3221 16.6036 53.0804 16.6159 52.9506 16.6195H52.9125L52.9126 16.7389ZM51.7428 15.056L52.2907 13.3865H52.3098H52.3217H52.3388L52.882 15.056H51.7428ZM51.8114 15.0064H52.813L52.3149 13.4726L51.8114 15.0064Z" fill="#211E1F"/>
<path d="M54.7875 13.0562C54.3581 13.0562 54.341 13.1594 54.2548 13.5769H54.083C54.1056 13.4169 54.1346 13.257 54.1525 13.0904C54.1755 12.93 54.1859 12.7705 54.1859 12.6046H54.3239C54.3696 12.7765 54.5132 12.7705 54.6668 12.7705H57.6204C57.774 12.7705 57.9169 12.765 57.9288 12.5928L58.0656 12.6158C58.0438 12.7705 58.0212 12.9249 58.0037 13.0796C57.9914 13.234 57.9914 13.3888 57.9914 13.5427L57.82 13.6066C57.8092 13.3951 57.7807 13.0562 57.397 13.0562H56.4585V16.1015C56.4585 16.5427 56.6593 16.5932 56.9331 16.5932H57.0418V16.7658C56.8188 16.7658 56.4188 16.7432 56.1092 16.7432C55.7664 16.7432 55.3652 16.7658 55.1422 16.7658V16.5932H55.2505C55.566 16.5932 55.7263 16.565 55.7263 16.1134V13.0562H54.7875Z" fill="#211E1F"/>
<path d="M57.0425 16.7902C56.8179 16.7902 56.4171 16.7672 56.11 16.7672C55.7679 16.7672 55.3671 16.7902 55.1429 16.7902H55.1175V16.766V16.5688H55.1429H55.2512C55.5666 16.5612 55.6933 16.5573 55.7012 16.1136L55.7004 13.0815H54.7881V13.0564V13.031H55.7508V16.1136C55.7508 16.5727 55.5655 16.6179 55.2512 16.6191H55.1671V16.7413C55.3937 16.7389 55.7778 16.7183 56.11 16.7183C56.4087 16.7183 56.7913 16.739 57.0175 16.7413V16.6191H56.933C56.6579 16.6179 56.4349 16.5517 56.4342 16.1017V13.031H57.3976C57.7817 13.0326 57.8321 13.3592 57.8429 13.5715L57.9679 13.5259C57.9679 13.3767 57.9683 13.2271 57.9794 13.0771C57.9952 12.9298 58.0166 12.783 58.0377 12.6369L57.9512 12.6223C57.925 12.7889 57.7635 12.7981 57.6211 12.7957H54.6674H54.6385C54.5036 12.7973 54.3575 12.7893 54.3055 12.6286H54.2119C54.2103 12.7873 54.1996 12.9413 54.1769 13.0937C54.1619 13.2513 54.1337 13.4029 54.1123 13.5533H54.2349C54.3107 13.1544 54.3604 13.025 54.7881 13.031V13.0564L54.7881 13.0814C54.3639 13.0886 54.3734 13.1604 54.2797 13.5834L54.2754 13.6029H54.2555H54.0547L54.0583 13.5742C54.0821 13.4128 54.1106 13.2532 54.1273 13.0877C54.1507 12.9278 54.1619 12.7691 54.1619 12.6048V12.5798H54.1864H54.3427L54.3475 12.5977C54.3876 12.7421 54.4919 12.7429 54.6384 12.7453L54.6673 12.7461H57.621C57.7789 12.7429 57.8944 12.7405 57.9043 12.5913L57.9059 12.564L57.9329 12.5696L58.0952 12.595L58.0909 12.62C58.0675 12.7731 58.0456 12.9279 58.0282 13.0815C58.0166 13.2338 58.0166 13.389 58.0166 13.543V13.5608L58.0004 13.5672L57.7976 13.641L57.7965 13.6076C57.7817 13.3926 57.7591 13.0814 57.3976 13.0814H56.4838V16.1017C56.4897 16.5334 56.6607 16.5632 56.933 16.5687H57.0671V16.5933V16.7902L57.0425 16.7902Z" fill="#211E1F"/>
<path d="M58.2773 16.5931H58.3575C58.5642 16.5931 58.7805 16.5654 58.7805 16.2673V13.2689C58.7805 12.9705 58.5642 12.9423 58.3575 12.9423H58.2773V12.7705C58.5008 12.7705 58.8437 12.7931 59.1234 12.7931C59.4107 12.7931 59.754 12.7705 60.023 12.7705V12.9423H59.9428C59.7369 12.9423 59.5187 12.9705 59.5187 13.2689V16.2673C59.5187 16.5654 59.7369 16.5931 59.9428 16.5931H60.023V16.7658C59.748 16.7658 59.4043 16.7432 59.119 16.7432C58.8381 16.7432 58.5008 16.7658 58.2773 16.7658V16.5931Z" fill="#211E1F"/>
<path d="M60.0235 16.7901C59.747 16.7901 59.4045 16.7667 59.1192 16.7667C58.8394 16.7667 58.5013 16.7901 58.2779 16.7901H58.2529V16.7659V16.5933V16.5687H58.2779H58.3581C58.5648 16.5655 58.7545 16.5477 58.7553 16.2675V13.2691C58.7545 12.9897 58.5648 12.9706 58.3581 12.9667H58.2529V12.9425V12.7461H58.2779C58.5013 12.7461 58.845 12.7679 59.1239 12.7679C59.4093 12.7679 59.7525 12.7461 60.0235 12.7461H60.0478V12.7707V12.9667H60.0235H59.9434C59.7342 12.9707 59.5465 12.9897 59.5438 13.2691V16.2675C59.5465 16.5477 59.7343 16.5655 59.9434 16.5687H60.0478V16.5933V16.7901H60.0235ZM59.9978 16.7401V16.6191H59.9434C59.7382 16.6191 59.4954 16.583 59.4954 16.2675V13.2691C59.4954 12.9528 59.7382 12.9171 59.9434 12.9171H59.9978V12.7957C59.7335 12.7972 59.4029 12.8179 59.1239 12.8179C58.8529 12.8179 58.5247 12.7972 58.3029 12.7957V12.9171H58.3581C58.5617 12.9171 58.8054 12.9528 58.8061 13.2691V16.2675C58.8053 16.583 58.5617 16.6191 58.3581 16.6191H58.3029V16.7401C58.5236 16.7377 58.8474 16.7183 59.1192 16.7183C59.3966 16.7183 59.728 16.739 59.9978 16.7401Z" fill="#211E1F"/>
<path d="M62.305 12.6846C63.5249 12.6846 64.4971 13.4409 64.4971 14.6596C64.4971 15.9763 63.553 16.8512 62.3348 16.8512C61.1205 16.8512 60.1943 16.027 60.1943 14.7965C60.1943 13.6064 61.1149 12.6846 62.305 12.6846ZM62.3915 16.5993C63.5018 16.5993 63.6951 15.6199 63.6951 14.7854C63.6951 13.9489 63.2443 12.9362 62.2939 12.9362C61.2923 12.9362 60.9951 13.829 60.9951 14.5953C60.9951 15.6199 61.4642 16.5993 62.3915 16.5993Z" fill="#211E1F"/>
<path d="M60.1689 14.7971C60.1714 13.5931 61.1031 12.6617 62.3051 12.6602V12.6852V12.7093C61.1289 12.7093 60.2186 13.6193 60.2174 14.797C60.2202 16.0137 61.1333 16.8256 62.3349 16.826C63.5412 16.8256 64.4718 15.9629 64.4737 14.659C64.4726 13.4558 63.515 12.7109 62.3051 12.7093V12.6852V12.6602C63.5345 12.6609 64.5198 13.4248 64.5222 14.659C64.521 15.9895 63.5646 16.8736 62.3349 16.876C61.111 16.8736 60.1714 16.0411 60.169 14.797H60.1689V14.7971ZM60.9706 14.5959C60.9722 13.8261 61.273 12.911 62.2944 12.911C63.2658 12.9134 63.7194 13.9451 63.7209 14.786C63.7194 15.6205 63.523 16.6237 62.392 16.6237V16.5999V16.5752C63.4801 16.5737 63.6686 15.6205 63.6713 14.786C63.6713 13.9562 63.2245 12.963 62.2944 12.9617C61.3126 12.9629 61.0221 13.8336 61.0202 14.5959C61.021 15.6153 61.4857 16.5729 62.392 16.5752V16.5999V16.6237C61.442 16.6225 60.9722 15.6265 60.9706 14.5959Z" fill="#211E1F"/>
<path d="M68.3539 15.6376L68.3655 15.6265V13.4805C68.3655 13.0106 68.0385 12.9424 67.8667 12.9424H67.7428V12.7705C68.0111 12.7705 68.2742 12.7931 68.5424 12.7931C68.7777 12.7931 69.0123 12.7705 69.2472 12.7705V12.9424H69.1607C68.921 12.9424 68.6516 12.988 68.6516 13.669V16.2737C68.6516 16.4738 68.6572 16.6737 68.6861 16.8511H68.469L65.5214 13.5658V15.9242C65.5214 16.4222 65.6182 16.5932 66.0587 16.5932H66.1567V16.7658C65.9103 16.7658 65.6647 16.7432 65.4186 16.7432C65.161 16.7432 64.8972 16.7658 64.6396 16.7658V16.5932H64.7202C65.1158 16.5932 65.2345 16.3249 65.2345 15.8674V13.4567C65.2345 13.1365 64.9725 12.9424 64.7142 12.9424H64.6396V12.7706C64.8571 12.7706 65.0805 12.7932 65.2976 12.7932C65.4694 12.7932 65.6349 12.7706 65.8071 12.7706L68.3539 15.6376Z" fill="#211E1F"/>
<path d="M68.6863 16.8758L68.4495 16.8675L65.5459 13.6306V15.9243C65.5522 16.4219 65.628 16.5628 66.0577 16.5679H66.1816V16.5937V16.7901H66.1565C65.9085 16.7901 65.6629 16.7671 65.4184 16.7671C65.1617 16.7671 64.899 16.7901 64.639 16.7901H64.6152V16.7655V16.5679H64.639H64.72C65.0974 16.5668 65.2058 16.3239 65.2105 15.8675V13.4568C65.2097 13.152 64.96 12.9671 64.714 12.9667H64.6152V12.9425V12.7461H64.639C64.8585 12.7461 65.0815 12.768 65.2974 12.768C65.4673 12.768 65.6323 12.7461 65.8259 12.7545L68.3403 15.5858V13.4811C68.3386 13.0255 68.0339 12.9707 67.8664 12.9668H67.7161V12.9426V12.7462H67.7419C68.0113 12.7462 68.2752 12.768 68.5414 12.768C68.7763 12.768 69.0097 12.7462 69.247 12.7462H69.2715V12.7707V12.9668H69.247H69.1604C68.9251 12.9735 68.6815 12.9949 68.6767 13.6691V16.2735C68.6767 16.4735 68.681 16.6731 68.7089 16.8481L68.7136 16.8759H68.6863V16.8758ZM68.469 16.8258H68.6562C68.6313 16.654 68.6269 16.4635 68.6269 16.2734V13.6691C68.6269 12.981 68.9154 12.9187 69.1606 12.9167H69.2225V12.7957C68.9967 12.7972 68.7705 12.8179 68.5416 12.8179C68.2813 12.8179 68.0253 12.7972 67.7662 12.7957V12.9167H67.8665C68.044 12.9187 68.3892 12.9969 68.3892 13.481L68.3829 15.6437L68.3721 15.6556L68.3539 15.6738L65.8071 12.7957C65.6385 12.7957 65.4713 12.8179 65.2976 12.8179C65.0868 12.8179 64.8721 12.7973 64.6638 12.7957V12.9167H64.7142C64.9829 12.9187 65.2594 13.1215 65.2594 13.4568V15.8675C65.2594 16.3251 65.1317 16.6179 64.7202 16.6195L64.6638 16.6191V16.7401C64.9122 16.739 65.167 16.7183 65.4186 16.7183C65.6571 16.7183 65.894 16.739 66.1317 16.7401V16.6195H66.0579C65.6087 16.6191 65.4964 16.4219 65.4964 15.9242V13.5016L68.469 16.8258ZM68.3404 15.6266V15.6246L68.3356 15.6203L68.3404 15.6266Z" fill="#211E1F"/>
<path d="M70.1665 15.9472C70.1105 16.1412 70.0411 16.2912 70.0411 16.3932C70.0411 16.5654 70.282 16.5932 70.4697 16.5932H70.5336V16.7658C70.3046 16.7535 70.0697 16.7432 69.8407 16.7432C69.634 16.7432 69.4288 16.7536 69.2236 16.7658V16.5932H69.2562C69.4804 16.5932 69.6701 16.4618 69.7546 16.221L70.6713 13.5948C70.7451 13.3829 70.8486 13.0968 70.882 12.8845C71.0653 12.8222 71.2939 12.7079 71.4038 12.6389C71.4201 12.6329 71.4316 12.627 71.4491 12.627C71.4661 12.627 71.4768 12.627 71.4884 12.6448C71.5058 12.69 71.5237 12.742 71.5407 12.7877L72.5931 15.7813C72.6618 15.9813 72.7301 16.1928 72.8054 16.365C72.8741 16.5254 72.9947 16.5932 73.1828 16.5932H73.2178V16.7658C72.9598 16.7535 72.7023 16.7433 72.4273 16.7433C72.1475 16.7433 71.861 16.7536 71.5689 16.7658V16.5932H71.6325C71.763 16.5932 71.9876 16.571 71.9876 16.4277C71.9876 16.3535 71.9356 16.1992 71.8717 16.0154L71.6495 15.3516H70.3503L70.1665 15.9472ZM71.003 13.4115H70.9915L70.4586 15.0313H71.5295L71.003 13.4115Z" fill="#211E1F"/>
<path d="M73.2149 16.7903C72.9574 16.78 72.7003 16.7673 72.4269 16.7673C72.1479 16.7673 71.8614 16.78 71.5693 16.7903L71.544 16.7919V16.7657V16.5689H71.5685H71.6308C71.7641 16.5689 71.9614 16.5379 71.9618 16.428C71.9629 16.3629 71.9114 16.2069 71.8475 16.0236L71.6301 15.3764H70.367L70.1899 15.9545C70.1328 16.1506 70.0645 16.301 70.0658 16.3935C70.0658 16.5339 70.28 16.5689 70.4694 16.5689H70.5566V16.5935V16.7919L70.5313 16.7903C70.3022 16.78 70.0681 16.7673 69.8404 16.7673C69.6352 16.7673 69.4296 16.78 69.2233 16.7903L69.1982 16.7919V16.7657V16.5689H69.2233H69.2558C69.4693 16.568 69.6478 16.4454 69.7312 16.2133L70.6471 13.5867C70.7201 13.3744 70.8232 13.0891 70.874 12.8617C71.0538 12.7994 71.2836 12.6851 71.3947 12.6152C71.4097 12.6101 71.4253 12.6033 71.4486 12.6033C71.4638 12.6017 71.493 12.6053 71.5113 12.6367C71.5284 12.6816 71.5451 12.7335 71.5641 12.7799L72.6165 15.7732C72.6848 15.974 72.7534 16.1855 72.8276 16.3558C72.8946 16.5073 72.999 16.5673 73.1816 16.5689H73.2411V16.5935V16.7919L73.2149 16.7903ZM71.5932 16.7398C71.8761 16.7291 72.1547 16.718 72.4269 16.718C72.6931 16.718 72.9428 16.7291 73.1919 16.7391L73.1911 16.6196H73.1816C72.9879 16.62 72.8527 16.5438 72.7816 16.3752C72.7062 16.2014 72.638 15.9891 72.5697 15.7894L71.5165 12.7958C71.4994 12.7502 71.482 12.6982 71.4681 12.6593C71.4633 12.6521 71.4638 12.6521 71.4594 12.6521H71.4486C71.4368 12.6521 71.4303 12.6561 71.4165 12.6601C71.305 12.7303 71.0756 12.8446 70.9062 12.8887C70.8708 13.1053 70.7669 13.3906 70.6931 13.6029L69.7769 16.2299C69.6899 16.4783 69.4899 16.62 69.2558 16.6196H69.2474V16.7391C69.4443 16.7291 69.6411 16.718 69.8403 16.718C70.0621 16.718 70.2879 16.7291 70.5082 16.7391V16.6196H70.4693C70.2832 16.6172 70.022 16.597 70.0153 16.3934C70.0165 16.2799 70.0875 16.1343 70.1427 15.9402L70.1661 15.9477L70.1427 15.9394L70.3312 15.3275H71.6657L71.8951 16.0077C71.9582 16.1918 72.0101 16.3438 72.0101 16.4279C72.0018 16.6037 71.7617 16.616 71.6307 16.6196H71.5931V16.7398H71.5932ZM70.4241 15.0558L70.9729 13.3867H70.9903H71.0026H71.0205L71.5614 15.0558H70.4241ZM70.4927 15.0065H71.4936L70.9959 13.4736L70.4927 15.0065Z" fill="#211E1F"/>
<path d="M74.6594 16.2046C74.6594 16.4336 74.8181 16.5019 75.0015 16.5253C75.236 16.5427 75.4935 16.5427 75.7579 16.5138C75.9975 16.4848 76.2039 16.3475 76.3062 16.2046C76.3975 16.0784 76.4491 15.9181 76.4836 15.7923H76.6495C76.5868 16.1185 76.5066 16.44 76.4376 16.7657C75.9352 16.7657 75.4305 16.7431 74.9276 16.7431C74.4233 16.7431 73.9205 16.7657 73.417 16.7657V16.5931H73.4955C73.7027 16.5931 73.9265 16.5653 73.9265 16.2102V13.2689C73.9265 12.9705 73.7027 12.9423 73.4955 12.9423H73.417V12.7705C73.7193 12.7705 74.0173 12.7931 74.3202 12.7931C74.613 12.7931 74.8987 12.7705 75.1908 12.7705V12.9423H75.0467C74.83 12.9423 74.6594 12.9487 74.6594 13.2511V16.2046Z" fill="#211E1F"/>
<path d="M76.4376 16.7901C75.9333 16.7901 75.4298 16.7671 74.9278 16.7671C74.4237 16.7671 73.9202 16.7901 73.4159 16.7901H73.3916V16.7655V16.5687H73.4159H73.4956C73.7032 16.5639 73.8992 16.5496 73.9016 16.2103V13.2679C73.8991 12.9897 73.7043 12.9707 73.4956 12.9667H73.3916V12.9425V12.7461H73.4159C73.7202 12.7461 74.0182 12.7679 74.3206 12.7679C74.611 12.7679 74.8968 12.7461 75.1908 12.7461H75.2143V12.7707V12.9667H75.1908H75.0472C74.8254 12.973 74.6873 12.9627 74.6829 13.2513V16.2048C74.6845 16.4179 74.8242 16.4755 75.0028 16.5005C75.1039 16.5076 75.2099 16.512 75.3203 16.512C75.4603 16.512 75.6059 16.5052 75.7536 16.4893C75.9869 16.462 76.1877 16.3274 76.2861 16.1909C76.3742 16.0687 76.425 15.9116 76.4591 15.7866L76.4643 15.7676H76.4833H76.6798L76.6746 15.7977C76.6099 16.1251 76.5314 16.4449 76.4619 16.7707L76.4572 16.7902H76.4378H76.4376V16.7901ZM76.417 16.7401C76.4833 16.4298 76.5583 16.1262 76.6198 15.8166H76.5023C76.4666 15.9413 76.4158 16.0948 76.3258 16.2198C76.219 16.3682 76.0071 16.5079 75.7591 16.5385C75.6091 16.554 75.4607 16.5619 75.3202 16.5619C75.2095 16.5619 75.102 16.5567 74.9984 16.5495C74.8123 16.5289 74.6317 16.4495 74.6325 16.2047V13.2512C74.6325 12.9333 74.8336 12.917 75.0472 12.917H75.1654V12.7956C74.8833 12.7972 74.6055 12.8182 74.3205 12.8182C74.0241 12.8182 73.7344 12.7972 73.4408 12.7956V12.917H73.4956C73.6999 12.917 73.9499 12.9528 73.9499 13.2678V16.2103C73.9499 16.5805 73.7011 16.619 73.4956 16.619H73.4408V16.7401C73.9356 16.7397 74.4305 16.7182 74.9277 16.7182C75.4249 16.7182 75.9218 16.7397 76.417 16.7401Z" fill="#211E1F"/>
<path d="M76.5804 12.6084C76.9252 12.6084 77.1827 12.8735 77.1827 13.2132C77.1827 13.5513 76.9252 13.814 76.5804 13.814C76.2355 13.814 75.9775 13.5513 75.9775 13.2132C75.9775 12.8735 76.2354 12.6084 76.5804 12.6084ZM76.5804 13.7017C76.8498 13.7017 77.0569 13.4715 77.0569 13.2132C77.0569 12.9532 76.8529 12.7211 76.5804 12.7211C76.3093 12.7211 76.1021 12.9533 76.1021 13.2132C76.1021 13.4715 76.3093 13.7017 76.5804 13.7017ZM76.2803 13.5306V13.5009C76.3545 13.4905 76.368 13.4929 76.368 13.4469V13.0009C76.368 12.9382 76.3612 12.9168 76.2831 12.9199V12.8894H76.5914C76.6978 12.8894 76.795 12.9397 76.795 13.0493C76.795 13.139 76.7354 13.2052 76.6525 13.231L76.7513 13.3691C76.7977 13.4318 76.8497 13.4905 76.8842 13.5111V13.5306H76.7668C76.7105 13.5306 76.6613 13.4119 76.5501 13.2528H76.4835V13.4532C76.4835 13.4929 76.4973 13.4905 76.5716 13.5008V13.5306L76.2803 13.5306ZM76.4835 13.2132H76.5545C76.6323 13.2132 76.6688 13.154 76.6688 13.0592C76.6688 12.9632 76.6124 12.9294 76.5506 12.9294H76.4835V13.2132Z" fill="#211E1F"/>
<path d="M14.7893 20C20.2556 20.0262 25.2448 15.542 25.2448 10.0869C25.2448 4.12143 20.2556 -0.00198341 14.7893 7.15737e-07H10.0849C4.55317 -0.00198341 0 4.12266 0 10.0869C0 15.5432 4.55317 20.0262 10.0849 20H14.7893Z" fill="#0079BE"/>
<path d="M10.1071 0.82666C5.0523 0.828247 0.956269 4.92547 0.955078 9.98225C0.956269 15.0382 5.05226 19.135 10.1071 19.1366C15.163 19.135 19.2599 15.0382 19.2606 9.98225C19.2598 4.92547 15.163 0.828247 10.1071 0.82666ZM4.30587 9.98225C4.31063 7.51122 5.85389 5.40408 8.03008 4.56674V15.3965C5.85389 14.5596 4.31059 12.4536 4.30587 9.98225ZM12.1833 15.3989V4.56638C14.3602 5.4017 15.9059 7.51003 15.9098 9.98225C15.9059 12.4552 14.3602 14.562 12.1833 15.3989Z" fill="white"/>
<path d="M28.4507 4.30271C28.4507 3.35664 27.9574 3.41894 27.4844 3.40867V3.13525C27.8943 3.15549 28.3146 3.15549 28.7253 3.15549C29.167 3.15549 29.7666 3.13525 30.5451 3.13525C33.2681 3.13525 34.7511 4.9543 34.7511 6.81696C34.7511 7.85863 34.1416 10.4773 30.4185 10.4773C29.8824 10.4773 29.3876 10.4566 28.8935 10.4566C28.4205 10.4566 27.9574 10.467 27.4844 10.4773V10.2043C28.115 10.1407 28.4205 10.1197 28.4507 9.40426L28.4507 4.30271ZM29.4817 9.2364C29.4817 10.0463 30.0606 10.1408 30.5757 10.1408C32.8479 10.1408 33.594 8.42609 33.594 6.85863C33.594 4.89236 32.3317 3.47252 30.3024 3.47252C29.8706 3.47252 29.6722 3.50347 29.4817 3.51462L29.4817 9.2364Z" fill="#211E1F"/>
<path d="M35.1201 10.2044H35.3193C35.6134 10.2044 35.8241 10.2044 35.8241 9.85635V7.00638C35.8241 6.54412 35.6665 6.4798 35.2773 6.27067V6.10202C35.7713 5.95361 36.3611 5.75519 36.4023 5.72345C36.4765 5.68138 36.5392 5.67027 36.592 5.67027C36.644 5.67027 36.6658 5.73377 36.6658 5.81829V9.85635C36.6658 10.2044 36.8971 10.2044 37.1916 10.2044H37.3702V10.4778C37.0122 10.4778 36.644 10.4568 36.2662 10.4568C35.8876 10.4568 35.5087 10.4671 35.1202 10.4778V10.2044H35.1201ZM36.2451 4.05079C35.9713 4.05079 35.7301 3.79845 35.7301 3.525C35.7301 3.2615 35.9825 3.01904 36.2451 3.01904C36.5177 3.01904 36.7606 3.24091 36.7606 3.525C36.7606 3.80912 36.5285 4.05079 36.2451 4.05079Z" fill="#211E1F"/>
<path d="M38.3689 7.06873C38.3689 6.67984 38.2526 6.57508 37.7594 6.37508V6.17552C38.2114 6.02829 38.642 5.89139 39.1471 5.66996C39.1785 5.66996 39.2094 5.69139 39.2094 5.77512V6.45921C39.8098 6.02829 40.3253 5.66992 41.0308 5.66992C41.9237 5.66992 42.2391 6.32226 42.2391 7.1425V9.85603C42.2391 10.204 42.4704 10.204 42.7653 10.204H42.9546V10.4775C42.5855 10.4775 42.2177 10.4565 41.8399 10.4565C41.4609 10.4565 41.0819 10.4668 40.7038 10.4775V10.204H40.8927C41.1879 10.204 41.3971 10.204 41.3971 9.85603V7.13258C41.3971 6.53218 41.0308 6.23814 40.4304 6.23814C40.0943 6.23814 39.5577 6.51159 39.2093 6.74329V9.85595C39.2093 10.204 39.4418 10.204 39.7367 10.204H39.9256V10.4774C39.5577 10.4774 39.1891 10.4564 38.8106 10.4564C38.4323 10.4564 38.053 10.4667 37.6748 10.4774V10.204H37.8645C38.1589 10.204 38.3689 10.204 38.3689 9.85595V7.06873H38.3689Z" fill="#211E1F"/>
<path d="M43.7548 7.57429C43.733 7.66917 43.733 7.82667 43.7548 8.1846C43.8168 9.18341 44.46 10.0037 45.3 10.0037C45.879 10.0037 46.3322 9.68822 46.7207 9.29933L46.8675 9.44695C46.3834 10.0882 45.7841 10.635 44.9223 10.635C43.2496 10.635 42.9131 9.01476 42.9131 8.34218C42.9131 6.28024 44.3012 5.66992 45.0369 5.66992C45.8893 5.66992 46.8048 6.20607 46.8147 7.32111C46.8147 7.385 46.8147 7.4473 46.8048 7.51119L46.7096 7.57429H43.7548ZM45.6167 7.23742C45.879 7.23742 45.91 7.10052 45.91 6.97472C45.91 6.43818 45.5842 6.00683 44.9949 6.00683C44.354 6.00683 43.9123 6.47945 43.7861 7.23742H45.6167Z" fill="#211E1F"/>
<path d="M47.0566 10.2046H47.3408C47.6343 10.2046 47.8447 10.2046 47.8447 9.85652V6.90136C47.8447 6.57557 47.4562 6.51208 47.2979 6.42795V6.27081C48.0658 5.94422 48.4868 5.67041 48.5824 5.67041C48.6447 5.67041 48.6756 5.70216 48.6756 5.80771V6.75414H48.6979C48.9602 6.34422 49.4027 5.67041 50.0435 5.67041C50.3066 5.67041 50.6428 5.84898 50.6428 6.22795C50.6428 6.51208 50.4435 6.76525 50.1491 6.76525C49.8218 6.76525 49.8218 6.51208 49.4543 6.51208C49.2753 6.51208 48.6868 6.75414 48.6868 7.38549V9.85652C48.6868 10.2045 48.8967 10.2045 49.1916 10.2045H49.7801V10.478C49.2015 10.4672 48.7614 10.457 48.3082 10.457C47.8773 10.457 47.4352 10.4673 47.0567 10.478L47.0566 10.2046Z" fill="#211E1F"/>
<path d="M51.1057 9.01521C51.2427 9.70966 51.6629 10.299 52.4311 10.299C53.0502 10.299 53.2819 9.92041 53.2819 9.55216C53.2819 8.31089 50.9898 8.71049 50.9898 7.01723C50.9898 6.42795 51.4636 5.67041 52.62 5.67041C52.9561 5.67041 53.408 5.76565 53.818 5.97636L53.8926 7.04823H53.6502C53.5454 6.38628 53.1776 6.00735 52.5037 6.00735C52.0831 6.00735 51.6839 6.24946 51.6839 6.7014C51.6839 7.93315 54.1236 7.55339 54.1236 9.20458C54.1236 9.89862 53.566 10.6355 52.3144 10.6355C51.8938 10.6355 51.3997 10.4883 51.0319 10.2784L50.916 9.0685L51.1057 9.01521Z" fill="#211E1F"/>
<path d="M63.6198 5.03984H63.3574C63.1575 3.80968 62.2844 3.31484 61.1071 3.31484C59.8967 3.31484 58.1404 4.12432 58.1404 6.64857C58.1404 8.77476 59.6558 10.2993 61.2749 10.2993C62.3157 10.2993 63.1788 9.58425 63.3892 8.47952L63.6304 8.54222L63.3892 10.0779C62.9475 10.3521 61.759 10.6359 61.0642 10.6359C58.6038 10.6359 57.0479 9.04742 57.0479 6.68071C57.0479 4.52436 58.9721 2.97754 61.0332 2.97754C61.8848 2.97754 62.705 3.25214 63.515 3.53627L63.6198 5.03984Z" fill="#211E1F"/>
<path d="M63.9991 10.2045H64.1983C64.4931 10.2045 64.7043 10.2045 64.7043 9.85639V3.9985C64.7043 3.31437 64.5463 3.2933 64.1463 3.17782V3.00957C64.5669 2.8731 65.0086 2.68338 65.2297 2.55683C65.3443 2.49413 65.4292 2.44092 65.4602 2.44092C65.5245 2.44092 65.5455 2.50445 65.5455 2.58893V9.85639C65.5455 10.2045 65.7764 10.2045 66.0713 10.2045H66.2487V10.4779C65.8927 10.4779 65.5245 10.4568 65.1455 10.4568C64.7674 10.4568 64.3887 10.4672 63.999 10.4779V10.2045H63.9991Z" fill="#211E1F"/>
<path d="M70.7516 9.89857C70.7516 10.0887 70.8667 10.099 71.0452 10.099C71.1718 10.099 71.329 10.0887 71.4662 10.0887V10.3101C71.0135 10.3517 70.1512 10.5728 69.9511 10.6355L69.8984 10.6037V9.75254C69.2683 10.2676 68.7837 10.6355 68.0365 10.6355C67.4686 10.6355 66.8798 10.2676 66.8798 9.38465V6.69099C66.8798 6.41758 66.8381 6.15445 66.25 6.10211V5.9021C66.629 5.89179 67.4687 5.82865 67.6059 5.82865C67.7227 5.82865 67.7227 5.90211 67.7227 6.13345V8.84651C67.7227 9.16282 67.7227 10.0671 68.6369 10.0671C68.9944 10.0671 69.4675 9.79373 69.9088 9.42667V6.59572C69.9088 6.38619 69.4044 6.27072 69.0266 6.16512V5.97584C69.9719 5.91234 70.5619 5.82861 70.6663 5.82861C70.7515 5.82861 70.7515 5.90203 70.7515 6.0183L70.7516 9.89857Z" fill="#211E1F"/>
<path d="M72.8446 6.42786C73.2649 6.07028 73.8327 5.67032 74.4116 5.67032C75.6319 5.67032 76.3672 6.73381 76.3672 7.87941C76.3672 9.25723 75.3581 10.6354 73.8533 10.6354C73.0755 10.6354 72.6656 10.3826 72.3917 10.2675L72.0767 10.5087L71.8565 10.3937C71.9498 9.77306 72.0033 9.16274 72.0033 8.52147V3.99846C72.0033 3.31437 71.8446 3.2933 71.4453 3.17782V3.00957C71.8672 2.8731 72.3076 2.68338 72.5287 2.55679C72.6446 2.49409 72.7282 2.44092 72.7608 2.44092C72.8235 2.44092 72.8445 2.50445 72.8445 2.58893V6.42782H72.8446V6.42786ZM72.8446 9.28858C72.8446 9.68858 73.2228 10.3624 73.9275 10.3624C75.0529 10.3624 75.5259 9.25723 75.5259 8.32076C75.5259 7.18505 74.6644 6.23862 73.8438 6.23862C73.4537 6.23862 73.1283 6.49139 72.8446 6.73381L72.8446 9.28858Z" fill="#211E1F"/>
<path d="M27.4717 16.5931H27.5522C27.7578 16.5931 27.9753 16.5654 27.9753 16.2673V13.2689C27.9753 12.9705 27.7578 12.9423 27.5522 12.9423H27.4717V12.7705C27.6951 12.7705 28.0383 12.7931 28.3197 12.7931C28.6054 12.7931 28.9483 12.7705 29.2173 12.7705V12.9423H29.1368C28.9316 12.9423 28.7138 12.9705 28.7138 13.2689V16.2673C28.7138 16.5654 28.9316 16.5931 29.1368 16.5931H29.2173V16.7658C28.9427 16.7658 28.5987 16.7432 28.3133 16.7432C28.0328 16.7432 27.6951 16.7658 27.4717 16.7658V16.5931Z" fill="#211E1F"/>
<path d="M29.2184 16.79C28.9419 16.79 28.599 16.767 28.3141 16.767C28.0343 16.767 27.6978 16.79 27.4728 16.79H27.4482V16.7654V16.5936V16.5686H27.4728H27.553C27.7605 16.5638 27.9494 16.5471 27.9514 16.2674V13.2689C27.9494 12.9892 27.7605 12.9705 27.553 12.9665H27.4482V12.9424V12.7451H27.4728C27.6978 12.7451 28.0407 12.7677 28.3204 12.7677C28.6053 12.7677 28.9478 12.7451 29.2184 12.7451H29.2439V12.7713V12.9665H29.2184H29.1383C28.9307 12.9705 28.7406 12.9892 28.7395 13.2689V16.2674C28.7406 16.5471 28.9307 16.5638 29.1383 16.5686H29.2438V16.5936V16.79H29.2184ZM29.1938 16.7411V16.6189H29.1383C28.934 16.6189 28.6907 16.5836 28.6895 16.2674V13.2689C28.6907 12.9527 28.9339 12.9169 29.1383 12.9169H29.1938V12.7955C28.9295 12.7955 28.5982 12.8177 28.3204 12.8177C28.0486 12.8177 27.7196 12.7971 27.4982 12.7955V12.9169H27.553C27.7569 12.9169 28.001 12.9527 28.001 13.2689V16.2674C28.001 16.5836 27.7569 16.6189 27.553 16.6189H27.4982V16.7411C27.7196 16.7388 28.043 16.7181 28.3141 16.7181C28.5926 16.7181 28.924 16.7396 29.1938 16.7411Z" fill="#211E1F"/>
<path d="M33.1489 15.6376L33.1604 15.6265V13.4805C33.1604 13.0106 32.8338 12.9424 32.6624 12.9424H32.5362V12.7705C32.8056 12.7705 33.0687 12.7931 33.3373 12.7931C33.5718 12.7931 33.8076 12.7705 34.0417 12.7705V12.9424H33.956C33.7151 12.9424 33.4461 12.988 33.4461 13.669V16.2737C33.4461 16.4738 33.452 16.6737 33.4802 16.8511H33.2623L30.3159 13.5658V15.9242C30.3159 16.4222 30.4123 16.5932 30.8536 16.5932H30.9504V16.7658C30.7048 16.7658 30.4591 16.7432 30.2127 16.7432C29.956 16.7432 29.6925 16.7658 29.4346 16.7658V16.5932H29.5147C29.9096 16.5932 30.0294 16.3249 30.0294 15.8674V13.4567C30.0294 13.1365 29.7656 12.9424 29.5092 12.9424H29.4346V12.7706C29.652 12.7706 29.8751 12.7932 30.0921 12.7932C30.2639 12.7932 30.4302 12.7706 30.6016 12.7706L33.1489 15.6376Z" fill="#211E1F"/>
<path d="M33.4803 16.8763L33.2442 16.8675L30.3402 13.6306V15.9243C30.347 16.4219 30.4228 16.5632 30.8537 16.5687H30.9763V16.5933V16.7901H30.9509C30.7033 16.7901 30.4569 16.7671 30.2128 16.7671C29.9564 16.7671 29.6937 16.7901 29.4342 16.7901H29.4092V16.7655V16.5687H29.4342H29.5148C29.8929 16.5667 30.0009 16.3239 30.0053 15.8675V13.4572C30.0044 13.1524 29.7545 12.9675 29.5092 12.9667H29.4092V12.9413V12.7461H29.4342C29.6529 12.7461 29.877 12.7679 30.0917 12.7679C30.262 12.7679 30.4279 12.7461 30.6207 12.7544L33.1358 15.5858V13.4811C33.1326 13.0255 32.8291 12.9707 32.6624 12.9667H32.5108V12.9413V12.7461H32.5362C32.8064 12.7461 33.0699 12.7679 33.3374 12.7679C33.5703 12.7679 33.8048 12.7461 34.0413 12.7461H34.0663V12.7707V12.9667H34.0413H33.956C33.7199 12.9735 33.4774 12.9941 33.4707 13.6691V16.2734C33.4707 16.4734 33.4766 16.6734 33.5045 16.8468L33.51 16.8762H33.4803V16.8763ZM33.2629 16.8258H33.4522C33.4264 16.654 33.422 16.4635 33.422 16.2734V13.6691C33.422 12.9822 33.7097 12.9171 33.9561 12.9171H34.0164V12.7957C33.791 12.7972 33.5649 12.8179 33.3375 12.8179C33.0756 12.8179 32.8208 12.7972 32.5617 12.7957L32.5613 12.9171H32.6625C32.8383 12.9171 33.1855 12.9957 33.1855 13.481L33.1776 15.6437L33.1661 15.6556L33.1467 15.6735L30.6018 12.7957C30.432 12.7957 30.2661 12.8179 30.0919 12.8179C29.882 12.8179 29.6673 12.7972 29.4597 12.7957L29.4585 12.9171H29.5093C29.778 12.9171 30.0538 13.1222 30.0538 13.4572V15.8675C30.0538 16.325 29.9264 16.6178 29.5149 16.6194L29.4597 16.6178V16.7413C29.7078 16.7389 29.9625 16.7182 30.2129 16.7182C30.4518 16.7182 30.6895 16.7389 30.926 16.7413V16.6194H30.8538C30.4033 16.6178 30.2915 16.4218 30.291 15.9242V13.5016L33.2629 16.8258ZM33.1358 15.6263V15.6243L33.1311 15.6203L33.1358 15.6263Z" fill="#211E1F"/>
<path d="M34.8989 13.0562C34.4691 13.0562 34.4529 13.1594 34.3671 13.5769H34.1953C34.2179 13.4169 34.2465 13.257 34.264 13.0904C34.2869 12.93 34.2981 12.7705 34.2981 12.6046H34.4357C34.4818 12.7765 34.6247 12.7705 34.7798 12.7705H37.7318C37.8865 12.7705 38.0294 12.765 38.0413 12.5928L38.1778 12.6158C38.1556 12.7705 38.1326 12.9249 38.1151 13.0796C38.1048 13.234 38.1048 13.3888 38.1048 13.5427L37.9326 13.6066C37.9207 13.3951 37.8921 13.0562 37.5092 13.0562H36.5707V16.1015C36.5707 16.5427 36.7711 16.5932 37.0449 16.5932H37.154V16.7658C36.931 16.7658 36.5298 16.7432 36.2215 16.7432C35.8782 16.7432 35.477 16.7658 35.2536 16.7658V16.5932H35.3627C35.6782 16.5932 35.8377 16.565 35.8377 16.1134V13.0562H34.8989Z" fill="#211E1F"/>
<path d="M37.1551 16.7902C36.9297 16.7902 36.5293 16.7672 36.2218 16.7672C35.8789 16.7672 35.4785 16.7902 35.2539 16.7902H35.2301V16.766V16.5688H35.2539H35.363C35.6785 16.5613 35.8054 16.5573 35.8126 16.1136V13.0815H34.8991V13.0565V13.0311H35.8623V16.1136C35.8623 16.5727 35.6773 16.6192 35.3631 16.6196H35.2789V16.7402C35.5047 16.739 35.8897 16.7184 36.2218 16.7184C36.5202 16.7184 36.9027 16.739 37.1289 16.7402V16.6196H37.0452C36.7686 16.6192 36.546 16.5513 36.546 16.1017V13.0311H37.5095C37.8936 13.0327 37.9436 13.3592 37.9563 13.5715L38.0797 13.5259C38.0797 13.3767 38.0805 13.2271 38.0908 13.0763C38.1075 12.9291 38.1285 12.7831 38.15 12.637L38.0626 12.6223C38.0361 12.789 37.8753 12.7973 37.7313 12.7958H34.7801H34.7503C34.6158 12.7958 34.4686 12.7894 34.4174 12.6295H34.3229C34.3221 12.7879 34.311 12.9414 34.2892 13.0938C34.2725 13.2509 34.2463 13.4021 34.2249 13.5533H34.3475C34.4229 13.1545 34.4721 13.0251 34.8991 13.0311V13.0565V13.0815C34.4761 13.089 34.4848 13.1605 34.3916 13.5835L34.3872 13.6029H34.3674H34.167L34.1702 13.5732C34.1932 13.4129 34.2222 13.2533 34.2392 13.0866C34.263 12.9279 34.2741 12.7692 34.2741 12.6049V12.5799H34.2983H34.4555L34.4595 12.5977C34.4987 12.7422 34.6047 12.743 34.7503 12.7454H34.7801H37.7313C37.8908 12.743 38.0067 12.7406 38.0166 12.5909L38.019 12.564L38.0448 12.5695L38.2063 12.595L38.2027 12.62C38.1797 12.7731 38.1571 12.9279 38.1404 13.0815C38.1289 13.2338 38.1289 13.3886 38.1289 13.543V13.5608L38.113 13.5672L37.9102 13.6409L37.9087 13.6076C37.8936 13.3925 37.871 13.0814 37.5095 13.0814H36.596V16.1017C36.6011 16.5334 36.7725 16.5632 37.0451 16.5687H37.1793V16.5933V16.7902L37.1551 16.7902Z" fill="#211E1F"/>
<path d="M38.3604 16.5931H38.4409C38.6465 16.5931 38.8643 16.5654 38.8643 16.2673V13.2689C38.8643 12.9705 38.6465 12.9423 38.4409 12.9423H38.3604V12.7705C38.7088 12.7705 39.3048 12.7931 39.7845 12.7931C40.2663 12.7931 40.8604 12.7705 41.2492 12.7705C41.2398 13.0161 41.2449 13.3947 41.2619 13.6459L41.0893 13.6919C41.0619 13.3202 40.9932 13.0229 40.3921 13.0229H39.5973V14.5217H40.2775C40.6206 14.5217 40.6957 14.3277 40.7294 14.0178H40.9008C40.8898 14.242 40.8838 14.465 40.8838 14.688C40.8838 14.9059 40.8897 15.123 40.9008 15.3404L40.7294 15.3745C40.6957 15.0313 40.6782 14.8082 40.283 14.8082H39.5973V16.1412C39.5973 16.5138 39.9279 16.5138 40.2945 16.5138C40.9814 16.5138 41.2842 16.4674 41.456 15.8158L41.6164 15.8551C41.5413 16.159 41.4731 16.4618 41.4223 16.7658C41.0556 16.7658 40.3973 16.7432 39.883 16.7432C39.3671 16.7432 38.6866 16.7658 38.3604 16.7658V16.5931Z" fill="#211E1F"/>
<path d="M41.4226 16.7901C41.0551 16.7901 40.3972 16.7667 39.8833 16.7667C39.3679 16.7667 38.6877 16.7901 38.3611 16.7901H38.3369V16.7659V16.5933V16.5687H38.3611H38.4413C38.6488 16.5655 38.8369 16.5473 38.8397 16.2675V13.2691C38.8369 12.9897 38.6488 12.9711 38.4413 12.9667H38.3369V12.9425V12.7461H38.3611C38.7103 12.7461 39.3055 12.7679 39.7853 12.7679C40.2666 12.7679 40.8603 12.7461 41.25 12.7461H41.2758L41.2745 12.7715C41.2706 12.8576 41.269 12.9591 41.269 13.0671C41.269 13.2651 41.2745 13.4814 41.2861 13.6445L41.2869 13.6651L41.2678 13.6707L41.0666 13.7231L41.0655 13.6938C41.0318 13.3223 40.9822 13.0529 40.3929 13.0473H39.6219L39.621 14.4961H40.2782C40.6076 14.493 40.6667 14.3243 40.7056 14.016L40.7076 13.9934H40.7298H40.9271L40.9267 14.0191C40.9156 14.2421 40.9084 14.4651 40.9084 14.6882C40.9084 14.9048 40.9156 15.1219 40.9267 15.3397L40.9271 15.36L40.9064 15.3647L40.7076 15.4044L40.7056 15.3774C40.6663 15.0282 40.6635 14.837 40.2833 14.8326L39.6218 14.8322V16.1413C39.6223 16.489 39.9222 16.487 40.2953 16.489C40.9841 16.485 41.2604 16.4517 41.433 15.8088L41.4386 15.7858L41.4627 15.7901L41.6461 15.8373L41.6405 15.8612C41.5668 16.1643 41.4981 16.4667 41.4468 16.7699L41.4421 16.7901H41.4226ZM41.4016 16.7401C41.4512 16.4516 41.5166 16.162 41.5869 15.8738L41.4738 15.8453C41.3024 16.4858 40.9706 16.5429 40.2952 16.5386C39.9349 16.5386 39.5738 16.5386 39.5722 16.1413V14.7834H40.2833C40.6829 14.779 40.7238 15.0203 40.752 15.3461L40.8758 15.3203C40.8647 15.1095 40.8595 14.898 40.8595 14.6881C40.8595 14.4726 40.8647 14.2584 40.8758 14.0429H40.752C40.7202 14.3409 40.627 14.5504 40.2782 14.5465H39.5722V12.9972H40.3929C40.9881 12.9932 41.0869 13.3004 41.1123 13.6603L41.2358 13.627C41.2258 13.4655 41.219 13.2584 41.219 13.0671C41.219 12.9691 41.2214 12.8766 41.2246 12.7957C40.8358 12.7972 40.2564 12.8179 39.7853 12.8179C39.3151 12.8179 38.7362 12.7972 38.3857 12.7957V12.9171H38.4412C38.6452 12.9171 38.8889 12.9528 38.8897 13.2691V16.2675C38.8889 16.583 38.6452 16.6179 38.4412 16.6195H38.3857V16.7401C38.7195 16.7397 39.3806 16.7183 39.8833 16.7183C40.3881 16.7183 41.0325 16.7397 41.4016 16.7401Z" fill="#211E1F"/>
<path d="M42.3894 13.3773C42.3894 12.9598 42.1608 12.9427 41.9827 12.9427H41.8799V12.7705C42.0632 12.7705 42.4175 12.7935 42.7668 12.7935C43.11 12.7935 43.385 12.7705 43.6879 12.7705C44.4084 12.7705 45.0502 12.9653 45.0502 13.7788C45.0502 14.2927 44.7069 14.6078 44.2549 14.786L45.2331 16.2503C45.3933 16.4923 45.5073 16.5602 45.7882 16.5935V16.7661C45.5993 16.7661 45.4159 16.7435 45.2275 16.7435C45.0501 16.7435 44.8664 16.7661 44.6897 16.7661C44.2492 16.188 43.8707 15.5697 43.4989 14.911H43.1223V16.1364C43.1223 16.5777 43.3275 16.5935 43.5906 16.5935H43.6937V16.7662C43.3667 16.7662 43.0363 16.7436 42.7096 16.7436C42.4346 16.7436 42.1656 16.7662 41.8799 16.7662V16.5935H41.9827C42.1953 16.5935 42.3894 16.4975 42.3894 16.2852V13.3773ZM43.1223 14.705H43.4017C43.9743 14.705 44.2826 14.4876 44.2826 13.8122C44.2826 13.3034 43.9568 12.9769 43.4469 12.9769C43.2751 12.9769 43.2021 12.9947 43.1222 12.9999V14.705H43.1223Z" fill="#211E1F"/>
<path d="M45.7879 16.7899C45.5962 16.7899 45.4141 16.7669 45.226 16.7669C45.0514 16.7669 44.8689 16.7899 44.6693 16.7804C44.2304 16.2046 43.8542 15.5899 43.4843 14.9359H43.1462V16.1352C43.1522 16.5657 43.3252 16.5621 43.5899 16.5685H43.7181V16.5931V16.7899H43.6926C43.3656 16.7899 43.0335 16.7669 42.7085 16.7669C42.4351 16.7669 42.1669 16.7899 41.8795 16.7899H41.8545V16.7653V16.5685H41.8795H41.9823C42.1886 16.5673 42.3625 16.4776 42.3633 16.2848V13.3769C42.3589 12.9705 42.1601 12.9729 41.9823 12.9669H41.8545V12.9423V12.7451H41.8795C42.0648 12.7451 42.418 12.7677 42.7664 12.7677C43.1081 12.7677 43.3831 12.7451 43.6879 12.7451C44.4089 12.7467 45.0732 12.9459 45.0752 13.7769C45.0752 14.2939 44.7335 14.6165 44.2918 14.7967L45.2533 16.2363C45.4133 16.4736 45.5129 16.5328 45.7915 16.5685L45.8125 16.5717V16.5931V16.7899H45.7879V16.7899ZM43.1213 14.8859H43.5125L43.5193 14.8986C43.8923 15.5561 44.268 16.1736 44.6895 16.741C44.8641 16.741 45.0478 16.7176 45.226 16.7176C45.4089 16.7176 45.5851 16.7375 45.7633 16.7402V16.6148C45.4946 16.5815 45.3689 16.5013 45.2125 16.2636L44.2169 14.7735L44.245 14.762C44.6927 14.5859 45.024 14.2799 45.0244 13.7767C45.024 12.9827 44.4073 12.7986 43.6879 12.7954C43.3859 12.7954 43.1113 12.818 42.7664 12.818C42.4304 12.818 42.091 12.797 41.9037 12.7954V12.9168H41.9823C42.1601 12.9173 42.4132 12.9466 42.4132 13.3768V16.2847C42.4132 16.5144 42.1977 16.6192 41.9823 16.6196H41.9037V16.7402C42.1792 16.7394 42.4398 16.7176 42.7085 16.7176C43.0287 16.7176 43.3514 16.7394 43.6681 16.7402V16.6196H43.5899C43.3287 16.6192 43.0962 16.5867 43.0962 16.1351V14.8859H43.1212H43.1213ZM43.1213 14.7287H43.0962V12.9763L43.118 12.9744C43.1962 12.9684 43.2737 12.9521 43.4466 12.9521C43.9681 12.9521 44.307 13.291 44.3077 13.8128C44.3062 14.4961 43.9784 14.7283 43.4014 14.7287H43.1213V14.7287ZM43.4014 14.6796C43.968 14.6748 44.253 14.478 44.2589 13.8129C44.2558 13.3129 43.945 13.0025 43.4466 13.0006C43.2918 13.0006 43.2192 13.0148 43.1462 13.0212V14.6796H43.4014Z" fill="#211E1F"/>
<path d="M49.6728 15.6381L49.6832 15.627V13.481C49.6832 13.0111 49.3574 12.9429 49.186 12.9429H49.0606V12.771C49.3292 12.771 49.592 12.7936 49.8614 12.7936C50.0963 12.7936 50.3301 12.771 50.5661 12.771V12.9429H50.48C50.2396 12.9429 49.9705 12.9885 49.9705 13.6694V16.2742C49.9705 16.4743 49.9761 16.6742 50.0042 16.8516H49.7872L46.8404 13.5663V15.9246C46.8404 16.4227 46.9376 16.5937 47.378 16.5937H47.4753V16.7663C47.2296 16.7663 46.9832 16.7437 46.7376 16.7437C46.4792 16.7437 46.2161 16.7663 45.959 16.7663V16.5937H46.0383C46.4336 16.5937 46.5538 16.3254 46.5538 15.8679V13.4572C46.5538 13.1369 46.2907 12.9429 46.0336 12.9429H45.959V12.7711C46.1757 12.7711 46.3999 12.7937 46.6169 12.7937C46.7876 12.7937 46.9542 12.7711 47.126 12.7711L49.6728 15.6381Z" fill="#211E1F"/>
<path d="M50.005 16.8761L49.7693 16.8682L46.865 13.6309V15.9242C46.8717 16.4222 46.9471 16.5634 47.3788 16.569H47.4999V16.5936V16.7904H47.4749C47.2273 16.7904 46.982 16.767 46.7368 16.767C46.4813 16.767 46.2169 16.7904 45.9594 16.7904H45.9336V16.7662V16.569H45.9594H46.0387C46.4165 16.5674 46.5249 16.3242 46.5284 15.8662V13.4571C46.528 13.1523 46.2785 12.9674 46.034 12.967H45.9336V12.9428V12.7456H45.9594C46.1776 12.7456 46.4015 12.7682 46.6173 12.7682C46.7856 12.7682 46.9515 12.7456 47.1435 12.7535L49.659 15.5861V13.4805C49.6574 13.0257 49.3526 12.9694 49.1864 12.967H49.0352V12.9428V12.7456H49.0602C49.3309 12.7456 49.5943 12.7682 49.8618 12.7682C50.0951 12.7682 50.3297 12.7456 50.5653 12.7456H50.5903V12.7714V12.967H50.5653H50.4804C50.2443 12.9734 50.001 12.9944 49.9951 13.6694V16.2737C49.9951 16.4737 50.0003 16.6722 50.0292 16.8483L50.0324 16.8761H50.005ZM49.7876 16.8261H49.9757C49.9506 16.6543 49.9451 16.4638 49.9451 16.2737V13.6694C49.9455 12.9824 50.2352 12.919 50.4804 12.917H50.5403V12.796C50.3157 12.7976 50.0892 12.8182 49.8617 12.8182C49.5991 12.8182 49.3438 12.7976 49.0847 12.796V12.917H49.1864C49.3625 12.919 49.7094 12.996 49.7094 13.4805L49.7015 15.644L49.6903 15.6559L49.6729 15.6741L47.1261 12.796C46.9562 12.796 46.7903 12.8182 46.6174 12.8182C46.4055 12.8182 46.1916 12.7976 45.9832 12.796V12.917H46.034C46.3027 12.919 46.5785 13.1218 46.5785 13.4571V15.8662C46.5785 16.3257 46.4491 16.6182 46.0388 16.6198L45.9832 16.6194V16.7404C46.2305 16.7392 46.4856 16.7186 46.7368 16.7186C46.9769 16.7186 47.2146 16.7392 47.4511 16.7404V16.6198H47.3789C46.9281 16.6194 46.8154 16.4222 46.8146 15.9241V13.5027L49.7876 16.8261ZM49.659 15.6269V15.6249L49.6546 15.6206L49.659 15.6269Z" fill="#211E1F"/>
<path d="M51.4868 15.9472C51.4289 16.1412 51.3598 16.2912 51.3598 16.3932C51.3598 16.5654 51.6007 16.5932 51.7888 16.5932H51.8527V16.7658C51.6233 16.7535 51.3896 16.7432 51.159 16.7432C50.9531 16.7432 50.7483 16.7536 50.542 16.7658V16.5932H50.5765C50.7995 16.5932 50.9888 16.4618 51.0733 16.221L51.99 13.5948C52.0638 13.3829 52.1677 13.0968 52.2024 12.8845C52.3845 12.8222 52.6138 12.7079 52.7222 12.6389C52.74 12.6329 52.7499 12.627 52.7678 12.627C52.7849 12.627 52.796 12.627 52.8087 12.6448C52.8253 12.69 52.842 12.742 52.8603 12.7877L53.913 15.7813C53.9817 15.9813 54.0495 16.1928 54.1238 16.365C54.1928 16.5254 54.3134 16.5932 54.5027 16.5932H54.5364V16.7658C54.279 16.7535 54.021 16.7433 53.7472 16.7433C53.4666 16.7433 53.1797 16.7536 52.8881 16.7658V16.5932H52.9516C53.0826 16.5932 53.3064 16.571 53.3064 16.4277C53.3064 16.3535 53.2547 16.1992 53.1909 16.0154L52.9682 15.3516H51.6695L51.4868 15.9472ZM52.3217 13.4115H52.3102L51.778 15.0313H52.8475L52.3217 13.4115Z" fill="#211E1F"/>
<path d="M54.5344 16.7901C54.2769 16.7786 54.0193 16.7667 53.7467 16.7667C53.4662 16.7667 53.1812 16.7786 52.8884 16.7901L52.8626 16.7917V16.7659V16.5679H52.8876H52.9507C53.0832 16.5679 53.28 16.5378 53.28 16.4279C53.2816 16.3628 53.23 16.2056 53.1669 16.0235L52.9491 15.3763H51.6868L51.509 15.9544C51.451 16.1497 51.3825 16.3008 51.3828 16.3941C51.3848 16.5338 51.5987 16.5679 51.7884 16.5679H51.8765V16.5937V16.7917L51.8507 16.7901C51.6217 16.7786 51.388 16.7667 51.1598 16.7667C50.9547 16.7667 50.7483 16.7786 50.5432 16.7901L50.5166 16.7917V16.7659V16.5679H50.5416H50.5757C50.7888 16.5671 50.9666 16.4461 51.0491 16.2132L51.9654 13.5866C52.0405 13.3743 52.1436 13.089 52.1932 12.8608C52.3726 12.8001 52.6023 12.685 52.7126 12.6152C52.7285 12.61 52.7444 12.6021 52.7678 12.6021C52.7817 12.6017 52.8126 12.6053 52.8309 12.6355C52.8472 12.6826 52.865 12.7335 52.8825 12.7799L53.9365 15.7732C54.004 15.974 54.0722 16.1855 54.1468 16.3545C54.2131 16.5073 54.3183 16.5672 54.5024 16.568H54.5607V16.5938V16.7918L54.5344 16.7901ZM52.9126 16.7389C53.1959 16.729 53.4733 16.7179 53.7467 16.7179C54.0126 16.7179 54.2614 16.729 54.5101 16.7389V16.6195H54.5022C54.3062 16.6206 54.1709 16.5437 54.1006 16.3751C54.026 16.2012 53.9562 15.9889 53.8892 15.7885L52.8356 12.7957C52.8182 12.7501 52.8015 12.6981 52.7864 12.6576C52.7816 12.652 52.7828 12.652 52.7781 12.652H52.7677C52.7558 12.652 52.7491 12.6556 52.7343 12.6596C52.6241 12.7314 52.3943 12.8437 52.2248 12.8885C52.1895 13.1052 52.0868 13.3909 52.0122 13.6028L51.0963 16.2298C51.009 16.4782 50.8086 16.6199 50.5757 16.6195H50.5666V16.7389C50.7626 16.729 50.961 16.7179 51.1598 16.7179C51.3808 16.7179 51.607 16.729 51.8253 16.7389V16.6195H51.7884C51.6023 16.6171 51.3419 16.596 51.3348 16.3941C51.3352 16.2798 51.4055 16.1334 51.4613 15.9401L51.4864 15.9476L51.4613 15.9393L51.6498 15.3274H52.984L53.2137 16.0076C53.278 16.1913 53.33 16.3437 53.33 16.4278C53.3221 16.6036 53.0804 16.6159 52.9506 16.6195H52.9125L52.9126 16.7389ZM51.7428 15.056L52.2907 13.3865H52.3098H52.3217H52.3388L52.882 15.056H51.7428ZM51.8114 15.0064H52.813L52.3149 13.4726L51.8114 15.0064Z" fill="#211E1F"/>
<path d="M54.7875 13.0562C54.3581 13.0562 54.341 13.1594 54.2548 13.5769H54.083C54.1056 13.4169 54.1346 13.257 54.1525 13.0904C54.1755 12.93 54.1859 12.7705 54.1859 12.6046H54.3239C54.3696 12.7765 54.5132 12.7705 54.6668 12.7705H57.6204C57.774 12.7705 57.9169 12.765 57.9288 12.5928L58.0656 12.6158C58.0438 12.7705 58.0212 12.9249 58.0037 13.0796C57.9914 13.234 57.9914 13.3888 57.9914 13.5427L57.82 13.6066C57.8092 13.3951 57.7807 13.0562 57.397 13.0562H56.4585V16.1015C56.4585 16.5427 56.6593 16.5932 56.9331 16.5932H57.0418V16.7658C56.8188 16.7658 56.4188 16.7432 56.1092 16.7432C55.7664 16.7432 55.3652 16.7658 55.1422 16.7658V16.5932H55.2505C55.566 16.5932 55.7263 16.565 55.7263 16.1134V13.0562H54.7875Z" fill="#211E1F"/>
<path d="M57.0425 16.7902C56.8179 16.7902 56.4171 16.7672 56.11 16.7672C55.7679 16.7672 55.3671 16.7902 55.1429 16.7902H55.1175V16.766V16.5688H55.1429H55.2512C55.5666 16.5612 55.6933 16.5573 55.7012 16.1136L55.7004 13.0815H54.7881V13.0564V13.031H55.7508V16.1136C55.7508 16.5727 55.5655 16.6179 55.2512 16.6191H55.1671V16.7413C55.3937 16.7389 55.7778 16.7183 56.11 16.7183C56.4087 16.7183 56.7913 16.739 57.0175 16.7413V16.6191H56.933C56.6579 16.6179 56.4349 16.5517 56.4342 16.1017V13.031H57.3976C57.7817 13.0326 57.8321 13.3592 57.8429 13.5715L57.9679 13.5259C57.9679 13.3767 57.9683 13.2271 57.9794 13.0771C57.9952 12.9298 58.0166 12.783 58.0377 12.6369L57.9512 12.6223C57.925 12.7889 57.7635 12.7981 57.6211 12.7957H54.6674H54.6385C54.5036 12.7973 54.3575 12.7893 54.3055 12.6286H54.2119C54.2103 12.7873 54.1996 12.9413 54.1769 13.0937C54.1619 13.2513 54.1337 13.4029 54.1123 13.5533H54.2349C54.3107 13.1544 54.3604 13.025 54.7881 13.031V13.0564L54.7881 13.0814C54.3639 13.0886 54.3734 13.1604 54.2797 13.5834L54.2754 13.6029H54.2555H54.0547L54.0583 13.5742C54.0821 13.4128 54.1106 13.2532 54.1273 13.0877C54.1507 12.9278 54.1619 12.7691 54.1619 12.6048V12.5798H54.1864H54.3427L54.3475 12.5977C54.3876 12.7421 54.4919 12.7429 54.6384 12.7453L54.6673 12.7461H57.621C57.7789 12.7429 57.8944 12.7405 57.9043 12.5913L57.9059 12.564L57.9329 12.5696L58.0952 12.595L58.0909 12.62C58.0675 12.7731 58.0456 12.9279 58.0282 13.0815C58.0166 13.2338 58.0166 13.389 58.0166 13.543V13.5608L58.0004 13.5672L57.7976 13.641L57.7965 13.6076C57.7817 13.3926 57.7591 13.0814 57.3976 13.0814H56.4838V16.1017C56.4897 16.5334 56.6607 16.5632 56.933 16.5687H57.0671V16.5933V16.7902L57.0425 16.7902Z" fill="#211E1F"/>
<path d="M58.2773 16.5931H58.3575C58.5642 16.5931 58.7805 16.5654 58.7805 16.2673V13.2689C58.7805 12.9705 58.5642 12.9423 58.3575 12.9423H58.2773V12.7705C58.5008 12.7705 58.8437 12.7931 59.1234 12.7931C59.4107 12.7931 59.754 12.7705 60.023 12.7705V12.9423H59.9428C59.7369 12.9423 59.5187 12.9705 59.5187 13.2689V16.2673C59.5187 16.5654 59.7369 16.5931 59.9428 16.5931H60.023V16.7658C59.748 16.7658 59.4043 16.7432 59.119 16.7432C58.8381 16.7432 58.5008 16.7658 58.2773 16.7658V16.5931Z" fill="#211E1F"/>
<path d="M60.0235 16.7901C59.747 16.7901 59.4045 16.7667 59.1192 16.7667C58.8394 16.7667 58.5013 16.7901 58.2779 16.7901H58.2529V16.7659V16.5933V16.5687H58.2779H58.3581C58.5648 16.5655 58.7545 16.5477 58.7553 16.2675V13.2691C58.7545 12.9897 58.5648 12.9706 58.3581 12.9667H58.2529V12.9425V12.7461H58.2779C58.5013 12.7461 58.845 12.7679 59.1239 12.7679C59.4093 12.7679 59.7525 12.7461 60.0235 12.7461H60.0478V12.7707V12.9667H60.0235H59.9434C59.7342 12.9707 59.5465 12.9897 59.5438 13.2691V16.2675C59.5465 16.5477 59.7343 16.5655 59.9434 16.5687H60.0478V16.5933V16.7901H60.0235ZM59.9978 16.7401V16.6191H59.9434C59.7382 16.6191 59.4954 16.583 59.4954 16.2675V13.2691C59.4954 12.9528 59.7382 12.9171 59.9434 12.9171H59.9978V12.7957C59.7335 12.7972 59.4029 12.8179 59.1239 12.8179C58.8529 12.8179 58.5247 12.7972 58.3029 12.7957V12.9171H58.3581C58.5617 12.9171 58.8054 12.9528 58.8061 13.2691V16.2675C58.8053 16.583 58.5617 16.6191 58.3581 16.6191H58.3029V16.7401C58.5236 16.7377 58.8474 16.7183 59.1192 16.7183C59.3966 16.7183 59.728 16.739 59.9978 16.7401Z" fill="#211E1F"/>
<path d="M62.305 12.6846C63.5249 12.6846 64.4971 13.4409 64.4971 14.6596C64.4971 15.9763 63.553 16.8512 62.3348 16.8512C61.1205 16.8512 60.1943 16.027 60.1943 14.7965C60.1943 13.6064 61.1149 12.6846 62.305 12.6846ZM62.3915 16.5993C63.5018 16.5993 63.6951 15.6199 63.6951 14.7854C63.6951 13.9489 63.2443 12.9362 62.2939 12.9362C61.2923 12.9362 60.9951 13.829 60.9951 14.5953C60.9951 15.6199 61.4642 16.5993 62.3915 16.5993Z" fill="#211E1F"/>
<path d="M60.1689 14.7971C60.1714 13.5931 61.1031 12.6617 62.3051 12.6602V12.6852V12.7093C61.1289 12.7093 60.2186 13.6193 60.2174 14.797C60.2202 16.0137 61.1333 16.8256 62.3349 16.826C63.5412 16.8256 64.4718 15.9629 64.4737 14.659C64.4726 13.4558 63.515 12.7109 62.3051 12.7093V12.6852V12.6602C63.5345 12.6609 64.5198 13.4248 64.5222 14.659C64.521 15.9895 63.5646 16.8736 62.3349 16.876C61.111 16.8736 60.1714 16.0411 60.169 14.797H60.1689V14.7971ZM60.9706 14.5959C60.9722 13.8261 61.273 12.911 62.2944 12.911C63.2658 12.9134 63.7194 13.9451 63.7209 14.786C63.7194 15.6205 63.523 16.6237 62.392 16.6237V16.5999V16.5752C63.4801 16.5737 63.6686 15.6205 63.6713 14.786C63.6713 13.9562 63.2245 12.963 62.2944 12.9617C61.3126 12.9629 61.0221 13.8336 61.0202 14.5959C61.021 15.6153 61.4857 16.5729 62.392 16.5752V16.5999V16.6237C61.442 16.6225 60.9722 15.6265 60.9706 14.5959Z" fill="#211E1F"/>
<path d="M68.3539 15.6376L68.3655 15.6265V13.4805C68.3655 13.0106 68.0385 12.9424 67.8667 12.9424H67.7428V12.7705C68.0111 12.7705 68.2742 12.7931 68.5424 12.7931C68.7777 12.7931 69.0123 12.7705 69.2472 12.7705V12.9424H69.1607C68.921 12.9424 68.6516 12.988 68.6516 13.669V16.2737C68.6516 16.4738 68.6572 16.6737 68.6861 16.8511H68.469L65.5214 13.5658V15.9242C65.5214 16.4222 65.6182 16.5932 66.0587 16.5932H66.1567V16.7658C65.9103 16.7658 65.6647 16.7432 65.4186 16.7432C65.161 16.7432 64.8972 16.7658 64.6396 16.7658V16.5932H64.7202C65.1158 16.5932 65.2345 16.3249 65.2345 15.8674V13.4567C65.2345 13.1365 64.9725 12.9424 64.7142 12.9424H64.6396V12.7706C64.8571 12.7706 65.0805 12.7932 65.2976 12.7932C65.4694 12.7932 65.6349 12.7706 65.8071 12.7706L68.3539 15.6376Z" fill="#211E1F"/>
<path d="M68.6863 16.8758L68.4495 16.8675L65.5459 13.6306V15.9243C65.5522 16.4219 65.628 16.5628 66.0577 16.5679H66.1816V16.5937V16.7901H66.1565C65.9085 16.7901 65.6629 16.7671 65.4184 16.7671C65.1617 16.7671 64.899 16.7901 64.639 16.7901H64.6152V16.7655V16.5679H64.639H64.72C65.0974 16.5668 65.2058 16.3239 65.2105 15.8675V13.4568C65.2097 13.152 64.96 12.9671 64.714 12.9667H64.6152V12.9425V12.7461H64.639C64.8585 12.7461 65.0815 12.768 65.2974 12.768C65.4673 12.768 65.6323 12.7461 65.8259 12.7545L68.3403 15.5858V13.4811C68.3386 13.0255 68.0339 12.9707 67.8664 12.9668H67.7161V12.9426V12.7462H67.7419C68.0113 12.7462 68.2752 12.768 68.5414 12.768C68.7763 12.768 69.0097 12.7462 69.247 12.7462H69.2715V12.7707V12.9668H69.247H69.1604C68.9251 12.9735 68.6815 12.9949 68.6767 13.6691V16.2735C68.6767 16.4735 68.681 16.6731 68.7089 16.8481L68.7136 16.8759H68.6863V16.8758ZM68.469 16.8258H68.6562C68.6313 16.654 68.6269 16.4635 68.6269 16.2734V13.6691C68.6269 12.981 68.9154 12.9187 69.1606 12.9167H69.2225V12.7957C68.9967 12.7972 68.7705 12.8179 68.5416 12.8179C68.2813 12.8179 68.0253 12.7972 67.7662 12.7957V12.9167H67.8665C68.044 12.9187 68.3892 12.9969 68.3892 13.481L68.3829 15.6437L68.3721 15.6556L68.3539 15.6738L65.8071 12.7957C65.6385 12.7957 65.4713 12.8179 65.2976 12.8179C65.0868 12.8179 64.8721 12.7973 64.6638 12.7957V12.9167H64.7142C64.9829 12.9187 65.2594 13.1215 65.2594 13.4568V15.8675C65.2594 16.3251 65.1317 16.6179 64.7202 16.6195L64.6638 16.6191V16.7401C64.9122 16.739 65.167 16.7183 65.4186 16.7183C65.6571 16.7183 65.894 16.739 66.1317 16.7401V16.6195H66.0579C65.6087 16.6191 65.4964 16.4219 65.4964 15.9242V13.5016L68.469 16.8258ZM68.3404 15.6266V15.6246L68.3356 15.6203L68.3404 15.6266Z" fill="#211E1F"/>
<path d="M70.1665 15.9472C70.1105 16.1412 70.0411 16.2912 70.0411 16.3932C70.0411 16.5654 70.282 16.5932 70.4697 16.5932H70.5336V16.7658C70.3046 16.7535 70.0697 16.7432 69.8407 16.7432C69.634 16.7432 69.4288 16.7536 69.2236 16.7658V16.5932H69.2562C69.4804 16.5932 69.6701 16.4618 69.7546 16.221L70.6713 13.5948C70.7451 13.3829 70.8486 13.0968 70.882 12.8845C71.0653 12.8222 71.2939 12.7079 71.4038 12.6389C71.4201 12.6329 71.4316 12.627 71.4491 12.627C71.4661 12.627 71.4768 12.627 71.4884 12.6448C71.5058 12.69 71.5237 12.742 71.5407 12.7877L72.5931 15.7813C72.6618 15.9813 72.7301 16.1928 72.8054 16.365C72.8741 16.5254 72.9947 16.5932 73.1828 16.5932H73.2178V16.7658C72.9598 16.7535 72.7023 16.7433 72.4273 16.7433C72.1475 16.7433 71.861 16.7536 71.5689 16.7658V16.5932H71.6325C71.763 16.5932 71.9876 16.571 71.9876 16.4277C71.9876 16.3535 71.9356 16.1992 71.8717 16.0154L71.6495 15.3516H70.3503L70.1665 15.9472ZM71.003 13.4115H70.9915L70.4586 15.0313H71.5295L71.003 13.4115Z" fill="#211E1F"/>
<path d="M73.2149 16.7903C72.9574 16.78 72.7003 16.7673 72.4269 16.7673C72.1479 16.7673 71.8614 16.78 71.5693 16.7903L71.544 16.7919V16.7657V16.5689H71.5685H71.6308C71.7641 16.5689 71.9614 16.5379 71.9618 16.428C71.9629 16.3629 71.9114 16.2069 71.8475 16.0236L71.6301 15.3764H70.367L70.1899 15.9545C70.1328 16.1506 70.0645 16.301 70.0658 16.3935C70.0658 16.5339 70.28 16.5689 70.4694 16.5689H70.5566V16.5935V16.7919L70.5313 16.7903C70.3022 16.78 70.0681 16.7673 69.8404 16.7673C69.6352 16.7673 69.4296 16.78 69.2233 16.7903L69.1982 16.7919V16.7657V16.5689H69.2233H69.2558C69.4693 16.568 69.6478 16.4454 69.7312 16.2133L70.6471 13.5867C70.7201 13.3744 70.8232 13.0891 70.874 12.8617C71.0538 12.7994 71.2836 12.6851 71.3947 12.6152C71.4097 12.6101 71.4253 12.6033 71.4486 12.6033C71.4638 12.6017 71.493 12.6053 71.5113 12.6367C71.5284 12.6816 71.5451 12.7335 71.5641 12.7799L72.6165 15.7732C72.6848 15.974 72.7534 16.1855 72.8276 16.3558C72.8946 16.5073 72.999 16.5673 73.1816 16.5689H73.2411V16.5935V16.7919L73.2149 16.7903ZM71.5932 16.7398C71.8761 16.7291 72.1547 16.718 72.4269 16.718C72.6931 16.718 72.9428 16.7291 73.1919 16.7391L73.1911 16.6196H73.1816C72.9879 16.62 72.8527 16.5438 72.7816 16.3752C72.7062 16.2014 72.638 15.9891 72.5697 15.7894L71.5165 12.7958C71.4994 12.7502 71.482 12.6982 71.4681 12.6593C71.4633 12.6521 71.4638 12.6521 71.4594 12.6521H71.4486C71.4368 12.6521 71.4303 12.6561 71.4165 12.6601C71.305 12.7303 71.0756 12.8446 70.9062 12.8887C70.8708 13.1053 70.7669 13.3906 70.6931 13.6029L69.7769 16.2299C69.6899 16.4783 69.4899 16.62 69.2558 16.6196H69.2474V16.7391C69.4443 16.7291 69.6411 16.718 69.8403 16.718C70.0621 16.718 70.2879 16.7291 70.5082 16.7391V16.6196H70.4693C70.2832 16.6172 70.022 16.597 70.0153 16.3934C70.0165 16.2799 70.0875 16.1343 70.1427 15.9402L70.1661 15.9477L70.1427 15.9394L70.3312 15.3275H71.6657L71.8951 16.0077C71.9582 16.1918 72.0101 16.3438 72.0101 16.4279C72.0018 16.6037 71.7617 16.616 71.6307 16.6196H71.5931V16.7398H71.5932ZM70.4241 15.0558L70.9729 13.3867H70.9903H71.0026H71.0205L71.5614 15.0558H70.4241ZM70.4927 15.0065H71.4936L70.9959 13.4736L70.4927 15.0065Z" fill="#211E1F"/>
<path d="M74.6594 16.2046C74.6594 16.4336 74.8181 16.5019 75.0015 16.5253C75.236 16.5427 75.4935 16.5427 75.7579 16.5138C75.9975 16.4848 76.2039 16.3475 76.3062 16.2046C76.3975 16.0784 76.4491 15.9181 76.4836 15.7923H76.6495C76.5868 16.1185 76.5066 16.44 76.4376 16.7657C75.9352 16.7657 75.4305 16.7431 74.9276 16.7431C74.4233 16.7431 73.9205 16.7657 73.417 16.7657V16.5931H73.4955C73.7027 16.5931 73.9265 16.5653 73.9265 16.2102V13.2689C73.9265 12.9705 73.7027 12.9423 73.4955 12.9423H73.417V12.7705C73.7193 12.7705 74.0173 12.7931 74.3202 12.7931C74.613 12.7931 74.8987 12.7705 75.1908 12.7705V12.9423H75.0467C74.83 12.9423 74.6594 12.9487 74.6594 13.2511V16.2046Z" fill="#211E1F"/>
<path d="M76.4376 16.7901C75.9333 16.7901 75.4298 16.7671 74.9278 16.7671C74.4237 16.7671 73.9202 16.7901 73.4159 16.7901H73.3916V16.7655V16.5687H73.4159H73.4956C73.7032 16.5639 73.8992 16.5496 73.9016 16.2103V13.2679C73.8991 12.9897 73.7043 12.9707 73.4956 12.9667H73.3916V12.9425V12.7461H73.4159C73.7202 12.7461 74.0182 12.7679 74.3206 12.7679C74.611 12.7679 74.8968 12.7461 75.1908 12.7461H75.2143V12.7707V12.9667H75.1908H75.0472C74.8254 12.973 74.6873 12.9627 74.6829 13.2513V16.2048C74.6845 16.4179 74.8242 16.4755 75.0028 16.5005C75.1039 16.5076 75.2099 16.512 75.3203 16.512C75.4603 16.512 75.6059 16.5052 75.7536 16.4893C75.9869 16.462 76.1877 16.3274 76.2861 16.1909C76.3742 16.0687 76.425 15.9116 76.4591 15.7866L76.4643 15.7676H76.4833H76.6798L76.6746 15.7977C76.6099 16.1251 76.5314 16.4449 76.4619 16.7707L76.4572 16.7902H76.4378H76.4376V16.7901ZM76.417 16.7401C76.4833 16.4298 76.5583 16.1262 76.6198 15.8166H76.5023C76.4666 15.9413 76.4158 16.0948 76.3258 16.2198C76.219 16.3682 76.0071 16.5079 75.7591 16.5385C75.6091 16.554 75.4607 16.5619 75.3202 16.5619C75.2095 16.5619 75.102 16.5567 74.9984 16.5495C74.8123 16.5289 74.6317 16.4495 74.6325 16.2047V13.2512C74.6325 12.9333 74.8336 12.917 75.0472 12.917H75.1654V12.7956C74.8833 12.7972 74.6055 12.8182 74.3205 12.8182C74.0241 12.8182 73.7344 12.7972 73.4408 12.7956V12.917H73.4956C73.6999 12.917 73.9499 12.9528 73.9499 13.2678V16.2103C73.9499 16.5805 73.7011 16.619 73.4956 16.619H73.4408V16.7401C73.9356 16.7397 74.4305 16.7182 74.9277 16.7182C75.4249 16.7182 75.9218 16.7397 76.417 16.7401Z" fill="#211E1F"/>
<path d="M76.5804 12.6084C76.9252 12.6084 77.1827 12.8735 77.1827 13.2132C77.1827 13.5513 76.9252 13.814 76.5804 13.814C76.2355 13.814 75.9775 13.5513 75.9775 13.2132C75.9775 12.8735 76.2354 12.6084 76.5804 12.6084ZM76.5804 13.7017C76.8498 13.7017 77.0569 13.4715 77.0569 13.2132C77.0569 12.9532 76.8529 12.7211 76.5804 12.7211C76.3093 12.7211 76.1021 12.9533 76.1021 13.2132C76.1021 13.4715 76.3093 13.7017 76.5804 13.7017ZM76.2803 13.5306V13.5009C76.3545 13.4905 76.368 13.4929 76.368 13.4469V13.0009C76.368 12.9382 76.3612 12.9168 76.2831 12.9199V12.8894H76.5914C76.6978 12.8894 76.795 12.9397 76.795 13.0493C76.795 13.139 76.7354 13.2052 76.6525 13.231L76.7513 13.3691C76.7977 13.4318 76.8497 13.4905 76.8842 13.5111V13.5306H76.7668C76.7105 13.5306 76.6613 13.4119 76.5501 13.2528H76.4835V13.4532C76.4835 13.4929 76.4973 13.4905 76.5716 13.5008V13.5306L76.2803 13.5306ZM76.4835 13.2132H76.5545C76.6323 13.2132 76.6688 13.154 76.6688 13.0592C76.6688 12.9632 76.6124 12.9294 76.5506 12.9294H76.4835V13.2132Z" fill="#211E1F"/>
</g>
<defs>
<clipPath id="clip0_1471_3534">
<rect width="77.1825" height="20" fill="white"/>
</clipPath>
</defs>
</svg>
