<svg width="123" height="36" viewBox="0 0 123 36" fill="none" xmlns="http://www.w3.org/2000/svg">
<path d="M30.2 11.6H20.5H13V35.3H21V17.1H26.6C30.4 17.1 30.4 20.6 30.5 23.8V35.3H38.4V23.8C38.4 13.7 35.2 11.6 30.2 11.6ZM57.8 11.6L52.7 28.7L52.4 29.5C52.4 29.5 47.3 12 47.2 11.7H38.7C38.9 12.3 47.4 35.1 47.5 35.4H56.8C56.9 35.1 65.3 12.3 65.6 11.7H57.8V11.6ZM107.8 23.2C107.8 23.2 114.7 12.3 115.2 11.6H106.7C106.6 11.8 102.7 19.1 102.7 19.1C102.7 19.1 99.1 11.8 99 11.6H89.6C90.1 12.3 97.1 23.2 97.1 23.2L92.7 29.9C85.7 30.1 83.4 30.1 81.2 30.1H80.5C75.9 30.1 73.2 28.9 72.8 25.7V25.5H89.6V24.2C89.6 20.2 88.4 10.9 77.6 10.9C69.9 10.9 64.8 15.7 64.8 23.3C64.8 30.7 70.4 35.7 78.6 35.8L86.4 35.7L93.8 35.5H98.4C98.6 35.3 102.6 27.7 102.6 27.7C102.6 27.7 106.1 35.3 106.2 35.5H115.7C115.2 34.6 107.8 23.2 107.8 23.2ZM72.9 20.7C73 19.1 73.8 16.1 77.3 16.1C81 16.1 81.7 18.9 81.8 20.7H72.9ZM0 35.4H7.9V11.7H0V35.4ZM0 7.10001H7.9V0H0V7.10001Z" fill="#90173D"/>
<path d="M118.6 7.79999H119.3C119.9 7.79999 120.4 7.80001 120.4 7.10001C120.4 6.50001 119.9 6.39999 119.5 6.39999H118.7V7.79999H118.6ZM117.9 6H119.5C120.5 6 121 6.40001 121 7.20001C121 7.90001 120.5 8.29999 119.9 8.29999L121.1 10.1H120.4L119.2 8.29999H118.5V10.1H117.9V6ZM119.3 11.1C120.9 11.1 122.2 9.80001 122.2 8.10001C122.2 6.40001 120.9 5.10001 119.3 5.10001C117.6 5.10001 116.3 6.40001 116.3 8.10001C116.3 9.80001 117.6 11.1 119.3 11.1ZM119.3 4.5C121.2 4.5 122.9 6.00001 122.9 8.10001C122.9 10.1 121.2 11.7 119.3 11.7C117.3 11.7 115.7 10.1 115.7 8.10001C115.7 6.00001 117.3 4.5 119.3 4.5Z" fill="#90173D"/>
</svg>
