<svg width="160" height="38" viewBox="0 0 160 38" fill="none" xmlns="http://www.w3.org/2000/svg">
<path d="M0.11856 0.0996704H2.71004V26.5129C2.71004 26.5129 2.71004 28.4066 4.40447 28.4066H18.2589V31.1974H3.10873C2.21168 31.1974 1.4143 30.7988 0.816267 30.2007C0.218233 29.6027 -0.0807845 28.7056 0.018888 27.8086L0.11856 0.0996704Z" fill="#C64589"/>
<path d="M3.6071 0.0996704H6.09891V22.7253C6.09891 22.7253 5.89956 24.5194 7.69366 24.4197H18.1593V27.2106H5.10218C4.70349 27.2106 4.20513 27.0112 4.00579 26.7122C3.70677 26.4132 3.6071 26.0145 3.6071 25.5161C3.6071 24.4197 3.6071 0.0996704 3.6071 0.0996704Z" fill="#C64589"/>
<path d="M7.1953 0.0996704H9.78679V19.2368C9.78679 19.2368 9.58744 20.5325 10.8832 20.5325H18.2589V23.423H8.2917C7.59399 23.2237 7.1953 22.6256 7.1953 21.8282V0.0996704V0.0996704Z" fill="#C64589"/>
<path d="M10.7835 0.0996704H13.2753V15.6485C13.1756 15.9476 13.2753 16.2466 13.4747 16.4459C13.674 16.6453 13.973 16.7449 14.272 16.7449H18.1593V19.5358H12.1789C11.0825 19.5358 10.5842 19.2368 10.5842 18.1404V0.0996704H10.7835V0.0996704Z" fill="#C64589"/>
<path d="M32.4124 31.0978H29.8209V4.68459C29.8209 4.68459 29.8209 2.79082 28.1265 2.79082H14.272V0H29.3226C30.2196 0 31.017 0.39869 31.615 0.996724C32.2131 1.69443 32.5121 2.4918 32.4124 3.38886C32.4124 6.77772 32.4124 31.0978 32.4124 31.0978Z" fill="#C64589"/>
<path d="M28.8242 31.0978H26.2327V8.57185C26.2327 8.57185 26.4321 6.77772 24.638 6.77772H14.272V3.98691H27.3291C28.2262 3.98691 28.9239 4.78427 28.9239 5.68132C28.8242 6.77772 28.8242 31.0978 28.8242 31.0978Z" fill="#C64589"/>
<path d="M25.236 31.0978H22.6445V12.0604C22.6445 12.0604 22.7442 10.7646 21.5481 10.7646H14.1724V7.87411H24.0399C24.7376 8.07346 25.1363 8.6715 25.1363 9.46888L25.236 31.0978Z" fill="#C64589"/>
<path d="M21.6478 31.0978H19.0563V15.6485C19.156 15.3495 19.0563 15.0505 18.857 14.8512C18.6576 14.6518 18.3586 14.5522 18.0596 14.5522H14.1724V11.7613H20.1527C21.2491 11.7613 21.7475 12.0603 21.7475 13.1567C21.7475 14.2531 21.6478 31.0978 21.6478 31.0978Z" fill="#C64589"/>
<path d="M58.5266 6.4787H61.2178V9.46887H58.5266V6.4787Z" fill="#C64589"/>
<path d="M58.5266 12.9574H61.2178V31.1975H58.5266V12.9574Z" fill="#C64589"/>
<path d="M152.019 6.4787H154.71V31.1974H152.019V6.4787Z" fill="#C64589"/>
<path d="M75.9693 12.9574L70.587 27.6093L65.3043 12.9574H62.3142L68.8925 31.1975H72.2814L78.9594 12.9574H75.9693Z" fill="#C64589"/>
<path d="M51.1508 28.307C50.7522 28.307 50.2538 28.1076 50.0544 27.7089C49.8551 27.3102 49.6558 26.9116 49.6558 26.5129V6.4787H47.0643V27.0112C46.9646 29.204 48.5594 30.9981 50.7522 31.0978H57.6296V28.307H51.1508Z" fill="#C64589"/>
<path d="M101.186 15.8479C100.788 15.8479 100.289 16.0473 100.09 16.446C99.791 16.745 99.6913 17.2433 99.6913 17.642V31.1975H97.0998V17.1437C97.0002 14.9509 98.6946 13.0571 100.887 12.9574H103.678V15.8479H101.186Z" fill="#C64589"/>
<path d="M95.5051 22.227V21.6289C95.8041 18.3397 94.2093 15.1502 91.4185 13.4558C88.6277 11.7614 85.0395 11.7614 82.2486 13.4558C79.4578 15.1502 77.863 18.3397 78.1621 21.6289C77.9627 26.7122 81.8499 30.8984 86.9332 31.0978C91.1195 30.9981 94.608 28.008 95.4054 23.8217H92.7142C92.0165 26.5129 89.6244 28.4067 86.8336 28.5063C83.4447 28.307 80.7535 25.6158 80.6539 22.227H95.5051ZM80.8532 19.6355C81.5509 16.8446 83.9431 14.9509 86.8336 14.9509C89.6244 14.9509 92.1162 16.9443 92.8139 19.6355H80.8532Z" fill="#C64589"/>
<path d="M141.952 12.0604C138.763 12.16 135.972 13.8544 134.477 16.6453C132.982 13.8544 130.091 12.0604 127.002 12.0604C123.812 12.0604 120.922 13.8544 119.526 16.6453C118.031 13.8544 115.141 12.16 112.051 12.0604C106.967 12.3594 103.08 16.6453 103.28 21.6289V37.2775H105.971V28.5063C107.565 30.2007 109.858 31.1974 112.15 31.1974C115.24 31.0978 118.131 29.4033 119.626 26.6125C121.121 29.4033 124.011 31.1974 127.101 31.1974C130.291 31.1974 133.181 29.4033 134.577 26.6125C136.072 29.4033 138.962 31.0978 142.052 31.1974C147.135 30.8984 151.023 26.6125 150.823 21.6289C150.923 16.6453 147.036 12.3594 141.952 12.0604ZM111.951 28.4066C108.363 28.2073 105.572 25.2171 105.771 21.6289C105.771 18.24 108.562 15.4492 111.951 15.4492C115.34 15.4492 118.131 18.24 118.131 21.6289C118.23 23.3233 117.632 25.0178 116.436 26.3135C115.24 27.6092 113.645 28.4066 111.951 28.4066ZM126.902 28.4066C125.207 28.307 123.613 27.6092 122.417 26.3135C121.221 25.0178 120.623 23.423 120.722 21.6289C120.423 19.2368 121.52 16.9443 123.613 15.6485C125.606 14.3528 128.198 14.3528 130.291 15.6485C132.284 16.9443 133.381 19.2368 133.181 21.6289C133.281 23.3233 132.683 25.0178 131.487 26.3135C130.291 27.6092 128.596 28.4066 126.902 28.4066ZM141.952 28.4066C140.258 28.307 138.663 27.6092 137.467 26.3135C136.271 25.0178 135.673 23.423 135.773 21.6289C135.773 18.24 138.564 15.4492 141.952 15.4492C145.341 15.4492 148.132 18.24 148.132 21.6289C148.232 25.3168 145.441 28.307 141.952 28.4066Z" fill="#C64589"/>
<path d="M157.9 10.7646C156.704 10.6649 155.707 9.66822 155.807 8.47216C155.807 7.27609 156.704 6.37903 157.9 6.37903C159.096 6.37903 159.993 7.27609 159.993 8.47216C160.093 9.66822 159.096 10.7646 157.9 10.7646ZM157.9 6.57839C157.402 6.57839 157.003 6.77771 156.604 7.1764C156.305 7.57509 156.106 7.97379 156.106 8.47216C156.106 9.46888 156.903 10.2662 157.9 10.2662C158.897 10.2662 159.694 9.46888 159.694 8.47216C159.694 7.97379 159.495 7.47541 159.196 7.1764C158.897 6.77771 158.398 6.57839 157.9 6.57839ZM157.003 7.27607H158C158.199 7.27607 158.498 7.37576 158.598 7.57511C158.697 7.77445 158.797 8.07345 158.697 8.2728C158.598 8.47214 158.398 8.67148 158.099 8.67148C158.299 8.67148 158.398 8.97051 158.598 9.26952L158.897 9.76788H158.398L158.299 9.3692C158 8.77117 157.9 8.67148 157.601 8.67148H157.402V9.76788H157.003V7.27607ZM157.9 8.37248C158.199 8.37248 158.398 8.27281 158.398 7.97379C158.398 7.87412 158.398 7.77443 158.299 7.67476C158.199 7.57509 158.099 7.57511 158 7.57511H157.402V8.2728H157.9V8.37248Z" fill="#C64589"/>
</svg>
