<svg width="160" height="27" viewBox="0 0 160 27" fill="none" xmlns="http://www.w3.org/2000/svg">
<path d="M27.7676 9.42369C36.9907 10.4262 35.9882 19.9502 32.3791 25.7648H25.963C32.2789 14.0353 25.7625 9.42369 21.2512 9.42369H27.7676ZM20.0481 9.42369C29.2713 10.4262 28.2688 19.9502 24.6597 25.7648H18.1434C24.4592 14.0353 18.1434 9.6242 13.5318 9.42369H20.0481ZM12.2285 9.42369C21.4517 10.4262 20.4492 19.9502 16.8401 25.7648H10.3237C16.6396 14.0353 10.2234 9.92495 6.31362 9.42369H12.2285ZM7.21589 16.4413C-2.0073 15.4388 -1.00478 5.81462 2.60429 0H9.12068C3.30606 10.326 7.91765 15.7396 12.9303 16.3411L7.21589 16.4413Z" fill="#074579"/>
<path d="M55.2366 10.727C55.5374 11.529 55.5374 12.4312 55.2366 13.2333C55.0361 14.1355 54.5349 15.0378 53.8331 15.6393C53.4321 16.0403 52.9308 16.3411 52.4296 16.5416C53.1313 16.7421 53.6326 17.3436 53.8331 17.9451C54.0336 18.7471 54.0336 19.5491 53.7328 20.3512C53.4321 21.3537 52.9308 22.2559 52.3293 22.9577C51.9283 23.459 51.427 23.86 50.8255 24.261C50.224 24.662 49.5223 24.9628 48.8205 25.063C48.1187 25.2635 47.3167 25.2635 46.5147 25.2635H39.497L44.2089 8.92242H51.7278C53.6326 9.02268 54.7354 9.62419 55.2366 10.727ZM44.6099 18.1456L43.4069 22.5567H47.2165C47.818 22.5567 48.3192 22.4564 48.9207 22.2559C49.7228 21.8549 50.3243 21.1532 50.5248 20.2509C50.7253 19.4489 50.625 18.8474 50.0235 18.4464C49.5223 18.2459 49.021 18.1456 48.5197 18.1456H44.6099ZM46.4144 11.8297L45.4119 15.4388H49.2215C49.823 15.4388 50.4245 15.3386 51.026 15.0378C51.5273 14.737 51.9283 14.2358 52.1288 13.6343C52.3293 12.8323 52.2291 12.331 51.7278 12.1305C51.1263 11.93 50.5248 11.8297 49.9233 11.8297H46.4144Z" fill="#074579"/>
<path d="M61.2517 18.0454C61.6527 18.0454 62.154 17.9451 62.555 17.7446C62.956 17.6444 63.357 17.2433 63.4573 16.8423C63.5575 16.3411 63.5575 16.0403 63.2568 15.8398C62.8558 15.6393 62.3545 15.5391 61.8532 15.5391C61.2517 15.5391 60.6502 15.7396 60.149 16.1406C59.8482 16.4413 59.5474 16.8423 59.4472 17.2433H56.5399C56.8406 16.2408 57.4422 15.3386 58.1439 14.6368C59.2467 13.534 60.7505 13.0328 62.6553 13.0328C63.758 13.0328 64.8608 13.2333 65.7631 13.8348C66.5651 14.336 66.7656 15.3386 66.3646 16.8423L64.7606 22.3562C64.6603 22.7572 64.56 23.1582 64.3595 23.7597C64.2593 24.0605 64.2593 24.3612 64.2593 24.5617C64.3595 24.7622 64.4598 24.8625 64.5601 24.9628L64.4598 25.464H61.2517C61.2517 25.2635 61.2517 24.9628 61.2517 24.7623C61.2517 24.5617 61.352 24.261 61.352 24.0605C60.8507 24.5617 60.2492 24.9628 59.5475 25.2635C58.9459 25.5643 58.1439 25.7648 57.3419 25.7648C56.3394 25.7648 55.5374 25.464 55.0361 24.8625C54.5348 24.261 54.4346 23.3587 54.8356 22.1557C55.2366 20.7522 56.1389 19.5491 57.3419 18.9476C58.2442 18.5466 59.2467 18.2459 60.149 18.1456L61.2517 18.0454ZM62.6553 19.5491C62.4548 19.6494 62.2543 19.7496 61.9535 19.8499C61.6527 19.9502 61.352 20.0504 61.0512 20.0504L60.3495 20.1507C59.8482 20.2509 59.3469 20.3512 58.8457 20.5517C58.3444 20.8524 57.9434 21.3537 57.7429 21.8549C57.5424 22.3562 57.6427 22.7572 57.8432 23.058C58.0437 23.2585 58.4447 23.459 58.7454 23.3587C59.4472 23.3587 60.149 23.1582 60.7505 22.7572C61.4522 22.3562 61.9535 21.6544 62.2543 20.5517L62.6553 19.5491Z" fill="#074579"/>
<path d="M79.2971 17.2433L76.9913 25.3638H73.8835L75.9888 17.9451C76.1893 17.4439 76.1893 16.9426 76.1893 16.4413C76.089 15.8398 75.5878 15.5391 74.7858 15.5391C73.7832 15.5391 72.881 16.0403 72.2795 16.9426C71.8784 17.5441 71.6779 18.1456 71.4774 18.7471L69.5727 25.2635H66.5651L70.0739 13.133H72.9812L72.48 14.9376C72.881 14.4363 73.3822 13.935 73.9837 13.6343C74.7858 13.133 75.5878 12.9325 76.49 12.9325C77.6931 12.9325 78.5953 13.2333 79.0966 13.935C79.6981 14.6368 79.6981 15.7396 79.2971 17.2433Z" fill="#074579"/>
<path d="M88.7208 17.6444C88.821 17.2434 88.821 16.8424 88.6205 16.4413C88.42 15.9401 88.019 15.7396 87.217 15.7396C86.2145 15.7396 85.4125 16.2408 84.7107 17.3436C84.3097 18.0454 84.0089 18.8474 83.8084 19.5492C83.6079 20.2509 83.5077 20.9527 83.5077 21.6544C83.6079 22.657 84.1092 23.1582 85.1117 23.1582C85.7132 23.1582 86.3147 22.9577 86.816 22.5567C87.217 22.1557 87.618 21.5542 87.8185 21.0529H90.9263C90.5253 22.0555 89.9238 23.058 89.1218 23.7597C87.9188 25.063 86.1142 25.865 84.3097 25.865C82.5052 25.865 81.3021 25.2635 80.7006 24.1608C80.0991 23.058 80.1994 21.5542 80.7006 19.6494C81.3021 17.5441 82.2044 15.9401 83.5077 14.8373C84.7107 13.7345 86.3147 13.133 88.019 13.133C89.4226 13.133 90.5253 13.4338 91.2271 14.1355C91.9289 14.8373 92.1294 16.0403 91.8286 17.7446L88.7208 17.6444Z" fill="#074579"/>
<path d="M98.1445 18.1456C98.5455 18.1456 99.0467 18.0454 99.4478 17.8449C99.8488 17.7446 100.25 17.3436 100.35 16.9426C100.45 16.4413 100.45 16.1406 100.15 15.9401C99.7485 15.7396 99.2473 15.6393 98.8462 15.6393C98.2447 15.6393 97.6432 15.8398 97.142 16.2408C96.8412 16.5416 96.5404 16.9426 96.4402 17.3436H93.5329C93.8336 16.3411 94.4352 15.4388 95.1369 14.7371C96.2397 13.6343 97.7435 13.133 99.6483 13.133C100.751 13.133 101.854 13.3335 102.756 13.935C103.558 14.4363 103.759 15.4388 103.358 16.9426L101.754 22.4565C101.653 22.8575 101.553 23.2585 101.353 23.86C101.252 24.1607 101.252 24.4615 101.252 24.662C101.353 24.8625 101.453 24.9628 101.553 25.063L101.453 25.5643H98.2447C98.2447 25.3638 98.2447 25.063 98.2447 24.8625C98.2447 24.662 98.345 24.3613 98.345 24.1608C97.8437 24.662 97.2422 25.063 96.5405 25.3638C95.8387 25.7648 95.0367 25.9653 94.1344 25.9653C93.1319 25.9653 92.3299 25.6645 91.8286 25.063C91.3273 24.4615 91.2271 23.5592 91.6281 22.3562C92.0291 20.9527 92.9314 19.7497 94.2347 19.1481C95.1369 18.7471 96.1394 18.4464 97.0417 18.3461L98.1445 18.1456ZM99.548 19.5492C99.3475 19.6494 99.147 19.7497 98.8462 19.8499C98.5455 19.9502 98.2447 20.0504 97.944 20.0504L97.2422 20.1507C96.741 20.2509 96.2397 20.3512 95.7384 20.5517C95.2372 20.8524 94.8362 21.3537 94.6357 21.855C94.4352 22.3562 94.5354 22.7572 94.7359 23.058C94.9364 23.3587 95.3374 23.459 95.6382 23.459C96.3399 23.459 97.0417 23.2585 97.6432 22.8575C98.345 22.4565 98.746 21.7547 99.147 20.6519L99.548 19.5492Z" fill="#074579"/>
<path d="M124.611 9.12294H129.223L124.511 25.464H121.503L124.711 14.4363C124.812 14.1355 124.912 13.6343 125.112 13.133C125.313 12.5315 125.413 12.1305 125.513 11.8297L118.596 25.5643H115.488L116.491 11.8297C116.39 12.1305 116.29 12.6318 116.09 13.133C115.889 13.7345 115.789 14.1355 115.689 14.4363L112.481 25.464H109.473L114.185 9.12294H118.897L117.994 21.9552L124.611 9.12294Z" fill="#074579"/>
<path d="M130.827 13.4338H133.834L130.325 25.5643H127.318L130.827 13.4338ZM134.235 12.0302H131.228L132.03 9.12294H135.037L134.235 12.0302Z" fill="#074579"/>
<path d="M143.258 9.12293L142.556 11.7295C142.356 11.7295 142.155 11.7295 141.754 11.6292C141.453 11.6292 141.153 11.7295 140.852 11.93C140.651 12.1305 140.551 12.331 140.451 12.5315C140.351 12.732 140.25 13.133 140.15 13.534H142.155L141.554 15.7396H139.549L136.742 25.464H133.734L136.541 15.7396H134.837L135.438 13.534H137.042L137.343 12.732C137.744 11.4287 138.145 10.5265 138.747 10.0252C139.348 9.32343 140.551 8.92242 142.155 8.92242C142.356 8.92242 142.456 8.92242 142.656 8.92242L143.258 9.12293Z" fill="#074579"/>
<path d="M152.18 15.5391C152.481 16.3411 152.481 17.2434 152.381 18.0454C152.281 18.8474 152.08 19.6494 151.779 20.4514H143.96C143.659 21.6544 143.759 22.5567 144.26 23.058C144.661 23.3587 145.163 23.5592 145.664 23.5592C146.265 23.5592 146.867 23.3587 147.368 22.9577C147.669 22.7572 147.97 22.4565 148.17 22.1557H151.278C150.877 22.9577 150.276 23.7597 149.574 24.3613C148.27 25.5643 146.666 26.1658 144.962 26.1658C143.659 26.266 142.356 25.6645 141.554 24.662C140.752 23.6595 140.651 22.0555 141.253 19.8499C141.854 17.7446 142.857 16.1406 144.16 15.0378C145.363 13.935 146.967 13.3335 148.571 13.3335C149.373 13.3335 150.276 13.534 150.977 13.935C151.479 14.1355 151.98 14.7371 152.18 15.5391ZM144.561 18.2459H149.173C149.373 17.4439 149.273 16.7421 148.972 16.3411C148.672 15.9401 148.07 15.6393 147.569 15.6393C146.867 15.6393 146.265 15.8398 145.764 16.3411C145.263 16.9426 144.862 17.5441 144.561 18.2459Z" fill="#074579"/>
<path d="M155.288 25.5643H152.281L156.992 9.22319H160L155.288 25.5643Z" fill="#074579"/>
</svg>
