<svg width="160" height="32" viewBox="0 0 160 32" fill="none" xmlns="http://www.w3.org/2000/svg">
<path d="M158.305 14.7C155.813 14.4 153.62 14.6 151.327 15.1C150.729 15.2 150.629 15.5 150.629 16.1C150.629 20 150.629 24 150.629 27.9C150.629 28.2 150.629 28.4 150.629 28.7H153.52V27.8C153.52 24.6 153.52 21.3 153.52 18.1C153.52 17.5 153.62 17.3 154.218 17.3C155.414 17.3 156.611 17.3 158.006 17.3C158.106 16.3 158.206 15.5 158.305 14.7ZM89.3209 15C88.1246 15 87.028 15 86.0312 15C84.5358 15 84.7352 15.2 84.7352 13.7C84.7352 12.5 84.7352 11.2 84.7352 9.89999C83.838 9.99999 83.1402 10.1 82.4424 10.2C81.9439 10.3 81.8442 10.5 81.8442 11C81.8442 12.2 81.8442 13.4 81.8442 14.6C81.8442 18 81.8442 21.4 81.8442 24.7C81.8442 26.8 82.8411 28.2 84.5358 28.8C85.8318 29.2 87.1277 29.2 88.5234 28.8C88.7227 28.7 89.0218 28.5 89.1215 28.4C89.3209 27.7 89.3209 27 89.5203 26.3C88.7227 26.4 88.0249 26.5 87.4268 26.6C85.7321 26.6 84.9346 25.9 84.9346 24.2C84.9346 22.6 84.9346 21 84.9346 19.4C84.9346 18.8 84.9346 18.2 84.9346 17.6H89.4206C89.2212 16.6 89.3209 15.9 89.3209 15ZM69.7819 28.6V27.2C69.7819 24.1 69.7819 21 69.7819 17.9C69.7819 17.5 69.6822 17.1 70.2804 17.1C71.0779 17.1 71.9751 16.9 72.7726 17C75.0654 17.1 75.8629 18 75.8629 20.3C75.8629 22.8 75.8629 25.2 75.8629 27.7C75.8629 28 75.8629 28.3 75.8629 28.5H78.7539C78.7539 25.3 78.7539 22.2 78.7539 19.1C78.7539 16.6 77.4579 15.1 74.9657 14.6C72.972 14.2 70.9782 14.3 68.9844 14.7C68.2866 14.8 67.6885 15 66.9907 15.1V28.6H69.7819ZM109.059 28.6V27.6C109.059 24.4 109.059 21.2 109.059 17.9C109.059 17.6 109.358 17.2 109.458 17.2C110.455 17.1 111.452 17 112.349 17.1C114.243 17.3 114.941 18.1 114.941 20C114.941 22.6 114.941 25.1 114.941 27.7C114.941 28 114.941 28.3 114.941 28.6H117.832C117.832 25.3 117.931 22.1 117.832 18.9C117.732 16.7 116.636 15.5 114.442 14.9C111.551 14.2 108.76 14.6 105.969 15.3V28.6H109.059ZM102.779 28.6C102.779 28.5 102.879 28.4 102.879 28.3C102.879 24.1 102.879 19.9 102.879 15.7C102.879 15.5 102.579 15.1 102.28 15.1C100.187 14.5 98.0935 14.3 96 14.7C93.8069 15 91.9128 16 91.0156 18.2C89.919 20.7 89.919 23.4 91.1153 25.9C92.7103 29.4 97.1963 30.2 99.7882 27.5C99.7882 27.5 99.8879 27.5 99.9875 27.5C100.087 27.9 100.087 28.3 100.187 28.7H102.779V28.6ZM63.5016 28.7C63.6012 28.5 63.6012 28.4 63.6012 28.4C63.6012 24.2 63.6012 20 63.6012 15.8C63.6012 15.6 63.2025 15.2 63.0031 15.2C60.9097 14.6 58.8162 14.4 56.7227 14.8C54.2305 15.2 52.2368 16.4 51.4393 19C50.7414 21.1 50.7414 23.1 51.4393 25.2C52.7352 29.3 57.4206 30.5 60.5109 27.6C60.5109 27.6 60.6106 27.6 60.7103 27.6C60.7103 27.7 60.81 27.9 60.7103 28C60.6106 28.7 60.9097 29 61.6075 28.9C62.3053 28.6 62.9034 28.7 63.5016 28.7ZM148.037 22.9C148.037 22 148.037 21.1 148.037 20.2C147.838 16.7 146.044 14.8 142.555 14.5C139.265 14.2 136.673 15.8 135.875 18.9C135.377 20.8 135.377 22.7 135.975 24.6C136.474 26.2 137.47 27.5 139.065 28.2C141.657 29.3 144.249 29.2 146.841 28.3C147.041 28.2 147.24 28.1 147.24 27.9C147.439 27.1 147.539 26.4 147.639 25.5C147.24 25.6 147.041 25.7 146.841 25.8C145.346 26 143.85 26.4 142.255 26.4C140.162 26.4 138.567 24.8 138.667 22.9H148.037V22.9ZM37.1838 25.6C37.0841 26.2 36.9844 26.9 36.785 27.6C36.6854 28.1 36.8847 28.3 37.2835 28.4C40.0748 29.3 42.866 29.5 45.6573 28.7C48.0498 28 49.2461 26.2 49.1464 23.6C49.0467 21.9 48.2492 20.6 46.8536 19.7C45.6573 19 44.3614 18.5 43.1651 17.8C42.3676 17.4 41.5701 17 40.7726 16.5C39.9751 16 39.7757 15.1 39.9751 14.2C40.1745 13.3 40.7726 12.8 41.5701 12.6C42.1682 12.4 42.866 12.3 43.4642 12.4C44.8598 12.5 46.2555 12.8 47.7508 13C47.8505 12.5 47.9502 11.8 48.1495 11.2C48.2492 10.7 48.1495 10.3 47.5514 10.2C45.8567 10 44.162 9.70001 42.3676 9.70001C40.8723 9.70001 39.4766 10.1 38.2804 11.1C36.2866 12.7 35.9875 17.1 39.0779 19C40.0748 19.6 41.271 20.1 42.3676 20.6C43.2648 21.1 44.2617 21.5 45.0592 22.1C46.5545 23.3 46.1558 25.5 44.2617 26C43.2648 26.3 42.0685 26.4 41.0717 26.3C39.8754 26.2 38.5794 25.9 37.1838 25.6ZM130.293 28.7C130.991 28.7 131.489 28.7 132.087 28.7C132.785 28.8 132.984 28.5 132.984 27.8C132.984 22.1 132.984 16.4 132.984 10.7C132.984 10.4 132.984 10.2 132.885 9.89999C132.087 9.99999 131.389 10.1 130.791 10.1C130.193 10.1 129.994 10.5 129.994 11C129.994 12.2 129.994 13.4 129.994 14.6C128.698 14.6 127.502 14.5 126.305 14.6C123.414 14.8 121.321 16.5 120.623 19.1C120.125 21 120.125 22.9 120.623 24.9C121.421 27.5 123.215 28.9 125.907 29C127.502 29.1 128.897 28.6 129.894 27.1C130.193 27.7 130.293 28.1 130.293 28.7ZM10.7664 14.9C8.27414 15.6 6.081 16.5 4.2866 18.2C1.99377 20.5 1.99377 23.4 4.38629 25.6C4.98442 26.1 5.58255 26.6 6.28037 27C8.97196 28.6 12.0623 29.3 15.1526 29.5C19.2399 29.7 23.2274 29.3 26.9159 27.4C27.8131 26.9 28.7103 26.3 29.4081 25.6C31.9003 23.3 31.8006 20.3 29.3084 18C27.7134 16.5 25.7196 15.7 23.7259 15C23.5265 14.9 23.2274 14.7 23.1277 14.5C22.729 13.5 22.4299 12.4 21.9315 11.4C20.3364 8.49999 18.6417 5.60001 16.947 2.70001C16.947 2.70001 16.8474 2.9 16.7477 3C15.8505 5 15.8505 6.90002 16.947 8.80002C18.0436 10.8 19.3396 12.8 20.4361 14.9C20.8349 15.7 21.134 16.6 21.3333 17.5C21.5327 18.9 21.2336 20.2 20.5358 21.3C18.1433 17.1 15.7508 13 13.4579 8.80002C13.3583 9.00002 13.2586 9.2 13.0592 9.5C12.2617 11.4 12.3614 13.2 13.3583 15C14.5545 17.1 15.7508 19.2 16.947 21.3C18.1433 23.4 18.0436 25.4 16.8474 27.6C16.4486 26.8 16.1495 26.1 15.7508 25.4C14.6542 23.4 13.4579 21.5 12.3614 19.5C11.5639 18.2 10.6667 16.8 10.7664 14.9ZM0 31.6H160V0H0V31.6Z" fill="white"/>
<path d="M10.4673 15.1C10.3676 17 11.2648 18.4 12.162 19.9C13.3583 21.8 14.4548 23.8 15.5514 25.8C15.9502 26.5 16.2492 27.2 16.648 28C17.8442 25.8 17.9439 23.8 16.7477 21.7C15.5514 19.6 14.3551 17.5 13.1589 15.4C12.162 13.6 12.0623 11.8 12.8598 9.89999C12.9595 9.59999 13.1589 9.40001 13.2586 9.20001C15.6511 13.3 17.9439 17.5 20.3364 21.7C21.0343 20.6 21.3333 19.3 21.134 17.9C21.0343 17 20.6355 16.1 20.2368 15.3C19.1402 13.2 17.8442 11.3 16.7477 9.20001C15.6511 7.30001 15.6511 5.29999 16.5483 3.39999C16.648 3.19999 16.7477 3.10001 16.7477 3.10001C18.4424 6.00001 20.1371 8.80002 21.7321 11.8C22.2305 12.8 22.5296 13.9 22.9283 14.9C23.028 15.1 23.3271 15.4 23.5265 15.4C25.6199 16 27.514 16.9 29.109 18.4C31.6012 20.7 31.6012 23.7 29.2087 26C28.4112 26.7 27.6137 27.3 26.7165 27.8C23.028 29.7 19.0405 30.2 14.9533 29.9C11.7632 29.7 8.77258 29 5.98131 27.4C5.28349 27 4.68536 26.5 4.08723 26C1.6947 23.8 1.6947 20.9 3.98754 18.6C5.78193 16.7 7.97508 15.8 10.4673 15.1Z" fill="#E52620"/>
<path d="M129.994 21.6V19.4C129.994 17.3 129.994 17.3 127.801 17.2C125.408 17.1 123.813 18.3 123.315 20.4C123.215 21.1 123.115 21.8 123.115 22.6C123.315 26.3 126.206 27.9 129.296 26.2C129.695 25.9 129.994 25.7 129.894 25.1C129.994 23.9 129.994 22.8 129.994 21.6ZM130.293 28.9C130.193 28.4 130.193 27.9 130.093 27.3C129.097 28.8 127.601 29.3 126.006 29.3C123.215 29.2 121.421 27.7 120.623 25.1C120.025 23.2 120.025 21.2 120.623 19.3C121.321 16.7 123.514 15 126.405 14.8C127.601 14.7 128.798 14.8 130.093 14.8C130.093 13.6 130.093 12.4 130.093 11.2C130.093 10.6 130.193 10.3 130.891 10.2C131.589 10.1 132.287 10 133.084 10C133.084 10.3 133.184 10.6 133.184 10.8C133.184 16.5 133.184 22.3 133.184 28C133.184 28.7 132.984 29 132.287 28.9C131.589 28.8 130.991 28.9 130.293 28.9Z" fill="#E52620"/>
<path d="M37.2835 25.6C38.7788 25.9 39.9751 26.3 41.271 26.4C42.3676 26.5 43.4642 26.4 44.4611 26.1C46.2555 25.6 46.7539 23.5 45.2586 22.3C44.4611 21.7 43.4642 21.3 42.567 20.8C41.4704 20.2 40.3738 19.8 39.2773 19.2C36.1869 17.3 36.486 13 38.4798 11.3C39.676 10.3 41.0717 9.89999 42.567 9.89999C44.2617 9.89999 45.9564 10.2 47.6511 10.4C48.2492 10.5 48.3489 10.8 48.2492 11.4C48.1495 12 47.9502 12.6 47.8505 13.2C46.3551 13 44.9595 12.7 43.5639 12.6C42.9657 12.5 42.2679 12.7 41.6698 12.8C40.8723 13 40.2741 13.5 40.0748 14.4C39.8754 15.3 40.0748 16.1 40.8723 16.7C41.5701 17.2 42.3676 17.6 43.1651 18C44.3614 18.6 45.6573 19.1 46.8536 19.8C48.2492 20.7 49.0467 21.9 49.1464 23.7C49.2461 26.2 48.0498 28 45.6573 28.7C42.866 29.5 40.0748 29.3 37.3832 28.4C36.9844 28.3 36.785 28 36.8847 27.6C37.0841 26.9 37.1838 26.3 37.2835 25.6Z" fill="#E52620"/>
<path d="M144.548 20.6C144.548 19.4 144.249 18.4 143.252 17.7C142.056 16.9 140.76 16.9 139.564 17.6C138.368 18.2 137.969 19.3 137.869 20.6H144.548ZM147.639 23.1H137.969C137.869 25 139.464 26.6 141.657 26.6C143.252 26.6 144.748 26.2 146.343 26C146.542 26 146.841 25.9 147.14 25.7C146.941 26.6 146.841 27.4 146.741 28.1C146.741 28.3 146.442 28.4 146.343 28.5C143.651 29.4 141.059 29.5 138.368 28.4C136.773 27.7 135.776 26.4 135.277 24.8C134.679 22.9 134.679 21 135.178 19C136.075 16 138.667 14.3 142.056 14.6C145.645 14.9 147.439 16.8 147.639 20.3C147.738 21.3 147.639 22.1 147.639 23.1Z" fill="#E52620"/>
<path d="M60.81 17.3C59.7134 17.3 58.6168 17.2 57.6199 17.3C55.8255 17.5 54.729 18.5 54.3302 20.2C54.1308 21.2 54.0311 22.3 54.1308 23.3C54.5296 26.4 57.5202 27.8 60.2118 26.1C60.5109 25.9 60.7103 25.5 60.7103 25.1C60.7103 23 60.7103 20.8 60.7103 18.7V17.3H60.81ZM63.8006 28.9C63.2025 28.9 62.6044 28.9 62.0062 28.9C61.3084 29 61.0093 28.7 61.109 28C61.109 27.9 61.109 27.7 61.109 27.6C61.0093 27.6 60.9097 27.6 60.9097 27.6C57.7196 30.6 52.9346 29.4 51.6386 25.2C50.9408 23.1 50.9408 21 51.6386 19C52.4361 16.4 54.4299 15.2 57.0218 14.8C59.215 14.5 61.3084 14.6 63.4019 15.2C63.7009 15.3 64 15.6 64 15.8C64 20 64 24.2 64 28.5C63.9003 28.6 63.8006 28.7 63.8006 28.9Z" fill="#E52620"/>
<path d="M99.5888 21.6C99.5888 20.5 99.4891 19.4 99.5888 18.3C99.6885 17.5 99.2897 17.2 98.4922 17.1C95.2025 16.8 93.2087 18.1 92.81 21C92.7103 21.7 92.7103 22.3 92.81 23C93.2087 26.3 96 27.7 98.891 26.1C99.2897 25.9 99.4891 25.6 99.4891 25.1C99.4891 24 99.5888 22.8 99.5888 21.6ZM102.48 28.8H99.8878C99.7882 28.4 99.7882 28 99.6885 27.5C99.5888 27.5 99.4891 27.5 99.4891 27.5C96.7975 30.2 92.2118 29.4 90.6168 25.9C89.4206 23.4 89.4206 20.7 90.5171 18.2C91.4143 16 93.3084 15 95.6012 14.7C97.7944 14.4 99.8878 14.6 101.981 15.1C102.28 15.2 102.579 15.5 102.579 15.7C102.579 19.9 102.579 24.1 102.579 28.4C102.579 28.6 102.48 28.7 102.48 28.8Z" fill="#E52620"/>
<path d="M108.96 28.6H106.069V15.3C108.86 14.7 111.651 14.2 114.442 14.9C116.536 15.5 117.632 16.7 117.732 18.9C117.832 22.1 117.732 25.3 117.732 28.5H114.841C114.841 28.2 114.841 27.9 114.841 27.6C114.841 25.1 114.841 22.5 114.841 20C114.841 18.1 114.143 17.3 112.249 17.1C111.252 17 110.255 17.1 109.358 17.2C109.159 17.2 108.96 17.7 108.96 17.9C108.96 21.1 108.96 24.3 108.96 27.5V28.6V28.6Z" fill="#E52620"/>
<path d="M69.6822 28.6H66.7913V15.3C67.3894 15.2 68.0872 15 68.785 14.9C70.7788 14.5 72.7726 14.4 74.7664 14.8C77.2586 15.3 78.4548 16.7 78.5545 19.2C78.6542 22.3 78.5545 25.4 78.5545 28.5H75.7632C75.7632 28.2 75.7632 27.9 75.7632 27.7C75.7632 25.2 75.7632 22.8 75.7632 20.3C75.7632 18 74.9657 17.2 72.7726 17C71.9751 17 71.1776 17.1 70.3801 17.1C69.7819 17.1 69.8816 17.5 69.8816 17.9C69.8816 21 69.8816 24 69.8816 27.1V28.6H69.6822Z" fill="#E52620"/>
<path d="M89.1215 15.1C89.0218 16 88.9221 16.8 88.9221 17.6H84.5358C84.5358 18.3 84.5358 18.8 84.5358 19.4C84.5358 21 84.5358 22.6 84.5358 24.2C84.5358 25.9 85.2336 26.6 87.028 26.6C87.7259 26.6 88.4237 26.4 89.1215 26.3C89.0218 27 88.9221 27.7 88.7227 28.4C88.7227 28.6 88.4237 28.8 88.1246 28.8C86.8287 29.1 85.5327 29.2 84.2368 28.8C82.4424 28.3 81.5452 26.9 81.5452 24.7C81.5452 21.3 81.5452 17.9 81.5452 14.5C81.5452 13.3 81.5452 12.1 81.5452 10.9C81.5452 10.4 81.6449 10.1 82.1433 10.1C82.8411 10 83.6386 9.90002 84.4361 9.80002C84.4361 11.1 84.4361 12.4 84.4361 13.6C84.4361 15.1 84.3364 14.9 85.7321 14.9C86.8287 15.1 87.8255 15.1 89.1215 15.1Z" fill="#E52620"/>
<path d="M158.206 14.8C158.106 15.7 158.006 16.4 157.907 17.2C156.611 17.2 155.414 17.2 154.218 17.2C153.62 17.2 153.52 17.5 153.52 18C153.52 21.2 153.52 24.5 153.52 27.7V28.6H150.629C150.629 28.3 150.629 28.1 150.629 27.8C150.629 23.9 150.629 20 150.629 16.1C150.629 15.5 150.729 15.3 151.327 15.1C153.62 14.7 155.813 14.5 158.206 14.8Z" fill="#E52620"/>
<path d="M129.495 21.9C129.495 23 129.495 24.1 129.495 25.2C129.495 25.7 129.296 26 128.897 26.2C126.006 27.9 123.315 26.3 123.115 22.7C123.115 22 123.115 21.3 123.315 20.6C123.713 18.5 125.308 17.4 127.502 17.5C129.595 17.6 129.595 17.6 129.595 19.7V21.9H129.495Z" fill="white"/>
<path d="M144.748 20.5H138.268C138.467 19.2 138.766 18.1 139.963 17.4C141.159 16.8 142.355 16.8 143.551 17.5C144.449 18.2 144.847 19.3 144.748 20.5Z" fill="white"/>
<path d="M60.4112 17.6V19C60.4112 21.1 60.4112 23.2 60.4112 25.2C60.4112 25.5 60.2118 26 59.9128 26.1C57.3209 27.7 54.4299 26.4 54.0312 23.4C53.9315 22.4 53.9315 21.4 54.1308 20.4C54.5296 18.8 55.6262 17.8 57.2212 17.6C58.2181 17.5 59.3146 17.6 60.4112 17.6Z" fill="white"/>
<path d="M99.5888 21.9C99.5888 23 99.5888 24.2 99.5888 25.3C99.5888 25.8 99.3894 26.1 98.9907 26.3C96.2991 27.8 93.6075 26.5 93.2087 23.3C93.109 22.7 93.109 22 93.2087 21.4C93.6075 18.6 95.4019 17.4 98.5919 17.7C99.3894 17.8 99.6885 18 99.5888 18.8C99.5888 19.8 99.5888 20.8 99.5888 21.9Z" fill="white"/>
</svg>
