<!-- Generated by IcoMoon.io -->
<svg version="1.1" xmlns="http://www.w3.org/2000/svg" width="32" height="32" viewBox="0 0 1024 1024">
<g id="icomoon-ignore">
</g>
<path fill="#003b98" d="M740.847 170.667c85.333 0 197.82 91.022 197.82 166.874s-69.82 136.533-151.275 136.533h7.761c19.392 34.133 27.149 72.060 27.149 113.779 0 147.908-131.878 265.481-290.91 265.481-159.028 0-290.907-117.572-290.907-265.481 0-41.719 11.636-83.439 31.031-117.572-11.636 3.793-23.273 3.793-34.909 3.793-81.455 0-151.273-60.681-151.273-136.533s112.485-166.874 197.818-166.874c85.333 0 151.272 60.681 151.272 136.533 0 11.378-3.878 18.963-3.878 30.341 31.031-7.585 65.941-15.17 100.847-15.17 19.396 0 42.667 3.792 62.063 7.585-3.878-7.585-3.878-15.17-3.878-22.755 0-75.852 69.815-136.533 151.27-136.533z"></path>

</svg>
