<!-- Generated by IcoMoon.io -->
<svg version="1.1" xmlns="http://www.w3.org/2000/svg" width="24" height="24" viewBox="0 0 1195 1024">
<g id="icomoon-ignore">
</g>
<path fill="#000" d="M128.433 581.060l406.575 379.571c16.875 15.753 39.15 24.525 62.325 24.525s45.45-8.772 62.325-24.525l406.573-379.571c68.403-63.675 107.102-153 107.102-246.374v-13.050c0-157.275-113.621-291.375-268.646-317.25-102.604-17.1-207.003 16.425-280.353 89.775l-27 27-27-27c-73.35-73.35-177.749-106.875-280.35-89.775-155.025 25.875-268.65 159.975-268.65 317.25v13.050c0 93.374 38.7 182.7 107.1 246.374z"></path>
</svg>
