<!-- Generated by IcoMoon.io -->
<svg version="1.1" xmlns="http://www.w3.org/2000/svg" width="32" height="32" viewBox="0 0 1024 1024">
<g id="icomoon-ignore">
</g>
<path d="M820.48 651.093l-108.373-12.373c-26.027-2.987-51.627 5.973-69.973 24.32l-78.507 78.507c-120.747-61.44-219.733-160-281.173-281.173l78.933-78.933c18.347-18.347 27.307-43.947 24.32-69.973l-12.373-107.52c-5.12-43.093-41.387-75.52-84.907-75.52h-73.813c-48.213 0-88.32 40.107-85.333 88.32 22.613 364.373 314.027 655.36 677.973 677.973 48.213 2.987 88.32-37.12 88.32-85.333v-73.813c0.427-43.093-32-79.36-75.093-84.48z"></path>
</svg>
